<!-- Generator: Adobe Illustrator 24.2.3, SVG Export Plug-In  -->
<svg version="1.1" xmlns="http://www.w3.org/2000/svg" xmlns:xlink="http://www.w3.org/1999/xlink" x="0px" y="0px" width="484px"
	 height="288.4px" viewBox="0 0 484 288.4" style="overflow:visible;enable-background:new 0 0 484 288.4;" xml:space="preserve">
<style type="text/css">
	.st0{fill:#FFFFFF;}
</style>
<defs>
</defs>
<g>
	<path class="st0" d="M319.1,97.9c0.6,0.4,1,0.8,1.3,1.4c0.6,1,1.1,2.1,1.7,3.1c0.5,1.1,1.2,2.1,1.8,3.2c0.5,0.8,0.9,1.6,1.4,2.4
		c0.6,1.2,1.3,2.3,2.1,3.3c0.6,0.7,0.9,1.5,1.3,2.3c0.3,0.5,0.5,1,0.8,1.4c1,1.3,1.8,2.7,2.3,4.3c0.5,1.5,1.5,2.8,2.4,4
		c1.3,1.7,2.6,3.4,3.9,5.2c0.4,0.5,0.6,1.1,1,1.6c0.6,0.9,1.2,1.7,1.8,2.5c1.1,1.7,2.2,3.5,3.2,5.3c0.4,0.7,0.9,1.3,1.3,2
		c0.7,1.2,1.3,2.4,2,3.6c0,0.1,0.2,0.1,0.3,0.2c0-0.2,0.1-0.4,0.1-0.5c-0.3-1.2-0.3-2.4-0.3-3.7c0-0.6-0.2-1.3-0.2-1.9
		c-0.2-2.5-0.5-5.1-0.7-7.6c0-0.6-0.4-1-0.4-1.6c0-0.6-0.1-1.2-0.2-1.8c-0.1-0.6-0.2-1.2-0.3-1.7c-0.2-1.4-0.4-2.8-0.7-4.2
		c-0.1-0.6-0.3-1.2-0.4-1.9c-0.2-1.4-0.4-2.8-0.6-4.2c-0.1-0.7-0.3-1.4-0.4-2.1c-0.3-1.8-0.5-3.7-0.5-5.6c0-1.3-0.2-2.5-0.3-3.8
		c0-0.2-0.1-0.4-0.1-0.6c0.2-1.7,0-3.3-0.2-5c0-0.3,0-0.7,0.1-1c0.1-0.6,0.4-1,1-1.2c1.1-0.4,2.3-0.7,3.5-0.4
		c0.7,0.2,1.4,0.3,2.1,0.5c0.8,0.3,0.9,0.6,0.8,1.5c-0.1,0.9-0.2,1.8-0.3,2.6c0,0.3,0.1,0.6,0.1,0.9c0.3,1.6,0.5,3.3,0.6,5
		c0,1.3,0.2,2.6,0.4,3.9c0,0.4,0.1,0.9,0.2,1.3c0.2,2.4,0.4,4.9,0.5,7.3c0.1,2.4,0.2,4.8,0.4,7.2c0,0.3,0.1,0.7,0.1,1
		c0.1,0.4,0.1,0.9,0.2,1.3c0.1,1.4,0.3,2.7,0.5,4.1c0.3,2.6,1.1,5.1,1,7.7c0,1.9,0.5,3.9,0.7,5.8c0.2,1.3,0.3,2.5,0.4,3.8
		c0.1,1.2,0.3,2.4,0.4,3.7c-0.4,0.3-0.7,0.7-1.1,1c-0.5-0.1-0.8-0.4-1.4-0.2c-1.1,0.3-2.6,0.2-3.7-0.1c-0.3-0.1-0.6,0-0.8,0
		c-0.7,0-1.4-0.1-1.8-0.8c-0.7-1.1-1.4-2.1-2.1-3.2c-0.2-0.3-0.4-0.5-0.7-0.8c-0.6-0.5-1-1.1-1.5-1.8c-0.6-0.9-1.2-1.9-1.8-2.8
		c-1.2-1.7-2.4-3.5-3.6-5.3c-1.3-2-2.4-4.1-3.5-6.3c-1.2-2.3-2.4-4.5-4-6.5c-0.9-1.2-1.7-2.5-2.5-3.8c-1.1-1.6-2.1-3.3-3.2-4.9
		c-0.1-0.2-0.3-0.5-0.6-0.5c0,0.1-0.1,0.2-0.1,0.3c0.5,2.2,0.5,4.5,1.3,6.6c0.3,0.8,0.3,1.7,0.4,2.6c0.1,1,0.2,2.1,0.4,3.1
		c0.2,1.1,0.3,2.1,0.3,3.2c0,1,0.2,2,0.3,3.1c0,0.6,0.1,1.3,0.2,1.9c0.2,1.9,0.3,3.8,0.4,5.7c0,0.5,0.2,1.1,0.3,1.6
		c0.3,1,0.2,2,0.3,3.1c0.1,1.3,0,2.5-0.1,3.8c-0.1,1.1-0.3,2.1-1.2,3c-0.9-0.1-1.9-0.2-2.9-0.3c-0.5-0.1-0.9-0.4-1.1-0.9
		c-0.2-0.5-0.6-1-0.4-1.7c0.1-0.2,0-0.4-0.1-0.6c-0.3-1.9-0.4-3.7-0.5-5.6c-0.1-1.7-0.3-3.3-0.4-5c-0.1-0.7,0-1.4,0-2.1
		c-0.2-1.7-0.3-3.4-0.7-5.1c-0.2-0.7-0.1-1.5-0.2-2.2c-0.2-2.2-0.4-4.5-0.6-6.7c-0.2-1.9-0.5-3.7-0.8-5.6c-0.2-1.3-0.2-2.6-0.4-3.9
		c-0.3-2.2-0.8-4.3-1.1-6.5c-0.3-1.8-0.9-3.5-0.8-5.4c0-0.7,0-1.4-0.2-2c-0.2-0.7-0.1-1.2,0.1-1.8c0.3-0.9,1.4-1.6,2.3-1.4
		C317.9,98.1,318.5,97.9,319.1,97.9z"/>
	<path class="st0" d="M434,138.8c-0.2-2.2-0.4-4.3-0.6-6.5c-0.2-2.5-0.4-5.1-0.6-7.6c-0.1-1.3-0.2-2.6-0.3-4c-0.1-0.7,0-1.5-0.1-2.2
		c-0.1-0.9-0.1-1.8-0.3-2.6c-0.4-1.8-0.3-3.7-0.5-5.6c-0.1-1.6-0.3-3.1-0.6-4.7c-0.4-1.8-0.5-3.6-1.1-5.3c-0.1-0.3-0.1-0.7-0.1-1
		c0-0.5-0.1-0.9-0.3-1.4c-0.4-0.7-0.2-1.1,0.4-1.5c0.6-0.3,1.2-0.6,1.8-0.7c1.5-0.3,3-0.4,4.5-0.6c0.5,0.5,0.6,1,0.5,1.6
		c0,1.4,0,2.9,0,4.3c0,1.1,0.1,2.2,0.3,3.2c0.4,2.2,0.6,4.5,0.6,6.7c0,1.8,0.2,3.6,0.4,5.4c0.1,0.5,0,1,0.1,1.5
		c0.2,2.4,0.4,4.8,0.6,7.2c0,0.2,0.1,0.5,0.2,0.7c0.5,1.8,0.8,3.5,0.9,5.3c0.1,1,0.2,2,0.5,2.9c0.2,0.6,0.3,1.2,0.3,1.9
		c0,1.6,0.3,3.2,0.6,4.8c0.1,0.6,0.1,1.2,0.2,1.8c0.2,1.8,0.2,3.7,0.8,5.5c0.2,0.7,0.3,1.5,0.5,2.4c-0.3,0.6-0.8,0.9-1.7,0.8
		c-1.1-0.2-2.2-0.1-3.2-0.1c-0.2,0-0.5,0.1-0.7,0c-0.6-0.1-1.2-0.3-1.7-0.2c-0.5,0-1,0.4-1.5,0.5c-0.9,0.2-1.6,0-2.1-1
		c-1.1-2.2-2.6-4.1-3.9-6.2c-0.8-1.3-1.5-2.6-2.3-3.9c-0.5-0.9-1.1-1.7-1.7-2.5c-1.5-2-3-3.8-4.3-5.9c-0.7-1.1-1.6-2.1-2.3-3.2
		c-1.2-2-2.2-4-2.9-6.3c-0.2-0.6-0.5-1.2-0.7-1.7c-0.4,0-0.5,0.2-0.5,0.5c0.2,1.6,0.4,3.3,0.6,4.9c0.1,0.8,0.1,1.7,0,2.5
		c-0.1,1.1,0,2.2,0.2,3.2c0.1,0.4,0.1,0.8,0.1,1.2c-0.1,2.7,0.2,5.4,0.5,8.1c0.2,2.2,0.3,4.5,0.4,6.7c0,0.6,0.1,1.3,0.1,1.9
		c0,0.6,0.1,1.3,0.1,1.9c0.1,0.8-0.3,1.2-0.9,1.5c-0.6,0.3-1.2,0.5-1.9,0.4c-0.3,0-0.6-0.1-0.9-0.1c-0.7,0.1-1.3,0.1-1.7-0.6
		c-0.3-0.5-0.6-1-0.6-1.6c0-1.7-0.2-3.4-0.3-5.1c-0.1-2.2-0.1-4.4-0.2-6.6c-0.1-2.2-0.3-4.3-0.4-6.5c0-1.6,0.1-3.1,0.1-4.7
		c0-1.4-0.1-2.7-0.2-4.1c0-0.7-0.1-1.4-0.2-2.1c-0.1-1.7-0.2-3.3-0.3-5c-0.1-1.3-0.2-2.5-0.3-3.8c-0.1-1.6-0.3-3.1-0.4-4.7
		c-0.2-2.1-0.5-4.2-1.1-6.2c-0.1-0.3-0.1-0.6-0.1-0.9c0.1-1.1,0.4-1.8,1.9-1.8c1.2,0,2.3,0.4,3.5,0.6c0.4,0.1,0.8,0.5,0.8,1
		c-0.1,1.3,0.6,2.3,1.1,3.3c0.9,1.9,1.7,3.9,3,5.6c0.3,0.4,0.4,0.8,0.6,1.2c0.3,0.7,0.6,1.4,1,1.9c1.5,2,3,4.1,4.2,6.4
		c0.8,1.5,1.8,2.9,2.8,4.4c0.2,0.3,0.5,0.7,0.6,1c0.3,0.9,0.8,1.7,1.4,2.4c1.1,1.6,2,3.3,2.9,5.1c0.5,1,1.1,1.9,1.8,2.7
		c0.7,0.8,1.2,1.8,1.8,2.7c0.2,0.4,0.5,0.7,0.7,1.1C433.8,138.9,433.9,138.8,434,138.8z"/>
	<path class="st0" d="M427.7,54.2c-0.8,0.1-1.4,0.3-2,0.3c-0.6,0.1-1.2,0.1-1.8,0.1c-3-0.4-6.1-0.2-9.1-0.2c-1.1,0-2.2,0.2-3.2,0.4
		c-0.7,0.1-1.3,0.4-2,0.6c0.1,0.8,0.2,1.5,0.3,2.3c0.2,1.6,0.4,3.2,0.5,4.8c0,0.3,0.1,0.6,0,0.9c-0.1,1.3,0,2.6,0.1,3.8
		c0,0.5,0,1.1,0,1.6c0,1.3,0.1,2.6,0.2,3.8c0,0.8,0.1,1.7,0.1,2.5c0,0.4-0.1,0.9,0.1,1.3c0.3,0.5,0.2,0.9-0.1,1.4
		c-0.2,0.3-0.3,0.6-0.6,1.1c-0.5,0.5-1.4,0.6-2.2,0.8c-0.4,0.1-0.8,0-1.2-0.1c-0.4-0.1-0.6-0.4-0.6-0.7c-0.1-0.3-0.1-0.7-0.1-1
		c0-2.1,0.1-4.2,0.1-6.3c0-1.8-0.1-3.6-0.5-5.4c-0.1-0.5,0-1.1-0.1-1.6c-0.3-2.1-0.7-4.2-1-6.3c-0.2-1.5-0.3-2.9-0.4-4.4
		c-0.1-0.8-0.1-1.6-0.2-2.4c-0.3-1.6-0.3-3.1-0.4-4.7c-0.1-1.2-0.1-2.5-0.3-3.7c-0.3-2-0.2-3.9-0.3-5.9c-0.2-2.4-0.4-4.8-0.6-7.2
		c0-0.5-0.1-1-0.1-1.5c-0.1-2.4,0.1-4.7-0.3-7.1c-0.1-0.5-0.1-1-0.3-1.4c-0.3-0.7-0.2-1.3,0.4-1.8c1-0.1,2-0.3,3-0.3
		c0.6,0,1.3,0,1.9,0.1c0.7,0.1,0.9,0.7,0.7,1.4c-0.3,1-0.3,2-0.1,3c0.2,1,0.3,2,0.3,3.1c0.1,1.4,0,2.8,0.2,4.1
		c0.3,1.8,0.2,3.5,0.3,5.3c0.1,2.5,0,5,0.6,7.5c0.1,0.6,0.1,1.3,0.1,1.9c0,0.8,0,1.7,0.4,2.5c0.3,0,0.6,0.1,0.9,0
		c2.1-0.2,4.1-0.6,6.2-0.8c2.2-0.2,4.5-0.3,6.7,0.1c0.8,0.1,1.5-0.2,2.3,0c0.4,0.1,0.8,0,1.2,0c0.1-1.2,0-2.4-0.1-3.7
		c-0.2-1.6-0.3-3.2-0.5-4.8c-0.3-3.7-0.6-7.4-1-11c-0.2-2.2-0.7-4.4-1.1-6.5c-0.1-0.5-0.4-1-0.7-1.5c-0.4-0.9-0.3-1.2,0.7-1.4
		c0.5-0.1,0.5-0.1,1.2-0.7c0.8,0.1,1.6,0.2,2.2-0.7c0.3-0.4,1-0.3,1.5,0.1c0.2,0.2,0.4,0.4,0.6,0.7c0.7,0,1.2-0.3,1.8-0.4
		c0.8-0.3,1.1-0.1,1.6,0.8c-1.1,1.5-1.2,3.2-1.1,5c0.2,2.4,0.2,4.8,0.5,7.2c0.2,2.3,0.2,4.7,0.4,7c0.1,1,0,2.1,0.1,3.1
		c0.1,1.1,0.2,2.2,0.3,3.2c0.2,1.8,0.3,3.6,0.5,5.4c0.3,2.7,0.5,5.5,1,8.2c0.3,1.3,0.4,2.7,0.4,4.1c0.1,1.8,0.3,3.5,0.6,5.3
		c0.2,1.2,0.2,2.4,0.4,3.6c0.3,2.1,0.7,4.2,1,6.2c0.1,0.4,0.2,0.9,0.2,1.3c0,0.4-0.1,0.7-0.4,0.9c-1.4,0.4-2.7,1.3-4.2,1
		c-1.1-0.2-1.9-0.7-2.1-1.9c-0.2-1.6-0.4-3.3-0.7-4.9c-0.4-2-0.5-4-0.8-6c-0.3-1.8,0-3.6-0.2-5.4C428.3,58.5,428.3,56.3,427.7,54.2z
		"/>
	<path class="st0" d="M226.3,120.9c1.3,0.4,2.3,0.6,3.3,1c1.5,0.6,3,1.2,4.5,1.9c0.5,0.2,0.9,0.7,1.2,1.1c0.7,1,1.4,2,2.1,3
		c0.4,0.6,0.7,1.3,0.9,2c0.4,1.4,1.2,2.8,1.4,4.3c0.1,0.9,0.5,1.8,0.6,2.7c0.2,1.1,0.2,2.1,0,3.2c-0.3,2.3-1.3,4.3-2.3,6.4
		c-1,2.1-2.4,3.8-4,5.4c-0.6,0.6-1.1,1.2-1.6,1.9c-0.4,0.5-0.8,0.8-1.4,0.9c-0.4,0.1-0.9,0.2-1.3,0.3c-0.2,0.1-0.5,0.2-0.7,0.2
		c-2.3-0.4-4.5,0.1-6.7,0.3c-0.9,0.1-1.8,0.4-2.7-0.1c-1.2,0.2-2.3-0.5-3.5-0.2c-0.7-0.3-1.5-0.3-2.3-0.4c-1.6-0.1-3.2,0-4.8,0.4
		c-0.8,0.2-1.5,0.2-2.3,0.4c-0.5,0.1-1.1,0.2-1.6,0.3c-0.3,0-0.6,0-0.9,0c-0.4,0-0.7-0.3-0.8-0.7c-0.1-1.1-0.3-2.1-0.4-3.2
		c-0.2-2.3-0.4-4.6-0.9-6.8c-0.1-0.6-0.1-1.3-0.1-1.9c0-1.2-0.2-2.4-0.3-3.7c-0.2-1.8-0.6-3.6-0.6-5.4c0-2.2-0.3-4.3-0.2-6.5
		c0.1-0.9-0.1-1.9-0.1-2.8c0-1.7-0.2-3.4-0.3-5.1c-0.2-2.6-0.1-5.3-0.4-7.9c-0.3-2.2-0.2-4.4-0.3-6.6c0-0.7-0.1-1.4,0-2
		c0-0.6,0.1-1.3,0.1-1.9c0-0.7,0-1.5-0.1-2.2c-0.1-0.7-0.1-1.4,0.3-1.9c0.6-0.4,1.2-0.6,1.7-1c2.6-1.9,5.4-2.9,8.6-3.1
		c1.3-0.1,2.5-0.4,3.8-0.4c0.8,0,1.6,0.2,2.5,0.3c0.7,0.1,1.3,0.3,2,0.4c1.7,0.2,3.3,0.8,4.9,1.4c1.4,0.6,2.5,1.5,3.7,2.4
		c1.4,1,2.4,2.5,3.4,3.9c0.7,0.9,0.9,2,1.1,3c0.3,2.1,0.6,4.3,0.1,6.5c0,0.2-0.1,0.4-0.1,0.6c0.1,2.2-0.7,4-2.1,5.6
		c-0.9,1-1.8,2-2.4,3.2C227.2,120.2,226.8,120.4,226.3,120.9z M209.1,152.1c1.1,0.2,2.2,0.4,3.3,0.4c1.5,0,3,0.1,4.5,0.4
		c0.6,0.1,1.2,0.1,1.8,0.1c1.2-0.1,2.4-0.1,3.5-0.3c1.5-0.2,2.9-0.4,4.4-0.7c0.9-0.2,1.7-0.5,2.4-1.1c1-0.8,2.1-1.5,2.9-2.5
		c0.8-0.8,1.5-1.8,2-2.9c0.6-1.4,1-2.9,1.3-4.4c0.1-0.6,0.2-1.3,0.2-1.9c0-1.3-0.1-2.6-0.4-3.9c-0.3-1.6-0.8-3-1.6-4.4
		c-0.8-1.3-1.8-2.4-3.3-3.1c-1-0.5-2.1-0.9-3.1-1.3c-1.8-0.8-3.6-1.1-5.4-0.3c-1.7,0.7-3.4,1.4-5,2c-0.5,0.2-1.1,0.5-1.6,0.7
		c-1.7,0.9-3.3,1.9-5,2.8c-0.9,0.5-1.7,0.9-2.7,1.4c0.2,1,0.4,2,0.5,2.9c0.1,0.6,0.2,1.2,0.2,1.7c0,2.1,0.3,4.2,0.7,6.3
		c0.3,1.6,0.4,3.2,0.2,4.8C208.9,150.2,209.1,151.1,209.1,152.1z M206.8,129c0.5-0.4,0.7-0.6,1-0.9c0.3-0.2,0.5-0.6,0.8-0.6
		c1.1-0.2,1.9-1.2,3-1.4c1.5-1,3.3-1.4,4.7-2.5c0.3-0.2,0.6-0.3,0.9-0.4c0.9-0.4,1.7-0.8,2.6-1.1c0.9-0.3,1.6-1,2.4-1.4
		c0.9-0.4,1.7-1,2.3-1.8c1.3-1.6,2.5-3.3,3.5-5.1c0.5-0.9,0.9-1.9,1.2-2.8c0.5-1.8,0.4-3.5-0.5-5.3c-1.1-2.1-2.7-3.6-4.4-5
		c-0.7-0.6-1.5-1-2.3-1.2c-2.5-0.7-5.1-1.2-7.7-1.3c-1.1,0-2.1,0.2-3.2,0.2c-1.5,0.1-3,0.4-4.5,0.9c-0.4,0.2-0.8,0.4-1.2,0.5
		c-0.5,0.2-0.6,0.6-0.6,1.1c-0.1,1.5,0.2,3,0.4,4.5c0.3,2,0.6,4,0.7,6c0.1,2.1,0.6,4.1,0.4,6.2c-0.1,1.3,0.1,2.6,0.2,4
		C206.5,124,206.6,126.3,206.8,129z"/>
	<path class="st0" d="M196.8,81.2c-0.5,0.5-0.9,0.9-1.3,1.3c-0.3-0.2-0.6-0.4-0.8-0.6c-0.2-0.2-0.4-0.3-0.5-0.5
		c-0.3,0.1-0.7,0.3-0.9,0.3c-0.4-0.1-0.7-0.4-1-0.6c-0.3-0.2-0.3-0.6-0.3-1c0.5-2.9,0.3-5.8,0.2-8.7c-0.1-1.4-0.2-2.8-0.3-4.3
		c-0.1-1.5-0.2-2.9-0.1-4.4c0.1-1,0-2-0.1-2.9c0-0.2,0-0.4,0-0.6c0-1,0.1-2.1,0-3.1c-0.1-2.6-0.3-5.1-0.4-7.6c0-0.3,0.1-0.6,0-0.9
		c-0.1-1,0.2-2-0.3-3c-0.2-0.4-0.1-1.1,0-1.6c0.4-2,0.2-4,0.2-6c0-1.1-0.1-2.2-0.2-3.4c0-0.1,0-0.3,0-0.4c0.4-2-0.1-4-0.1-6
		c0-1.3-0.3-2.6-0.4-4c-0.1-0.9-0.2-1.8-0.2-2.6c0-0.7,0-0.7,0.5-1.6c0.5,0,1.2,0.3,1.6-0.5c0.1-0.2,0.4-0.2,0.7-0.3
		c0.5-0.2,1-0.4,1.5-0.6c0.4-0.2,0.7-0.5,1.2-0.3c0.1,0,0.3-0.1,0.4-0.1c1.9-0.7,3.9-1,5.9-1.2c1.5-0.2,3-0.1,4.4,0
		c0.7,0,1.3,0.3,2,0.6c1.5,0.6,3,1,4.3,2c0.9,0.7,1.6,1.4,2.5,2.1c1.9,1.5,2.9,3.6,3.8,5.8c0,0.1,0.1,0.2,0.1,0.3
		c0.8,1.2,0.9,2.7,1.3,4c0.4,1.4,0.6,2.8,0.7,4.2c0.2,2.5-0.5,4.8-1.7,6.9c-0.5,1-1,1.9-1.5,2.9c-0.3,0.6-0.6,1-1.1,1.4
		c-0.7,0.6-1.3,1.3-1.9,2.1c0.2,0.1,0.3,0.3,0.4,0.3c1.4,0.2,2.6,1,3.5,2.1c0.8,0.9,1.7,1.6,2.6,2.4c0.2,0.2,0.5,0.4,0.6,0.6
		c0.6,0.8,1.2,1.6,1.7,2.4c0.5,0.8,1,1.6,1.5,2.4c0.1,0.1,0,0.3,0.1,0.4c0.1,0.3,0.1,0.7,0.2,1c0.7,1.5,0.8,3.1,1.1,4.7
		c0.4,2,0.1,4-0.7,5.9c-0.4,0.9-0.9,1.8-1.5,2.5c-0.9,1.2-1.8,2.6-2.9,3.7c-0.8,0.9-1.7,1.7-2.9,2.1c-0.5,0.1-0.9,0.4-1.3,0.7
		c-1.8,1-3.7,1.2-5.6,1.6c-0.3,0.1-0.7,0.1-1,0.2c-2.3,0.7-4.7,1-7.1,1c-1,0-2-0.2-2.9-0.2c-0.3,0-0.6-0.1-0.9-0.1
		c-0.6,0-1.2,0-1.8-0.1C197.8,81.7,197.3,81.4,196.8,81.2z M197.3,79c0.1,0,0.1,0.1,0.2,0.1c2-0.2,3.9-0.4,5.9-0.5
		c2.6-0.1,5.1,0,7.7,0c2.4,0,4.6-0.5,6.7-1.6c1-0.5,2-1,2.8-1.9c1.3-1.5,2.1-3.2,2.5-5.1c0.3-1.5,0.6-3.1,0.9-4.6
		c0.3-1.4,0.5-2.7-0.1-4c-0.1-0.2-0.1-0.5-0.1-0.7c-0.3-1.6-0.8-3-1.8-4.3c-0.6-0.7-1-1.4-1.6-2.1c-0.5-0.6-1.2-1.1-1.7-1.7
		c-0.8-0.9-1.8-1.4-2.8-1.8c-1.1-0.5-2.3-0.7-3.4-0.2c-1.3,0.6-2.7,1.2-4,1.9c-0.8,0.4-1.7,0.4-2.3,1.2c0,0.1-0.2,0-0.3,0.1
		c-2,0.4-3.9,0.8-5.9,1.2c-0.4,0.1-0.8,0.3-1.3,0.4c0.1,1.6-0.2,3.2,0.2,4.8c0,0.2,0,0.4,0,0.6c-0.1,1.7-0.1,3.4-0.2,5.2
		c0,0.7-0.1,1.4-0.2,2.1c-0.1,1.9,0,3.7-0.2,5.6c0,0.5,0,0.9,0.3,1.3c-0.2,0.7-0.7,1.1-1.2,1.4C197.5,77.3,197,78.1,197.3,79z
		 M198.4,50.1c0.3,0,0.6,0.1,0.8,0.1c1.6-0.1,3.2-0.2,4.9-0.3c0.4,0,0.9,0,1.3-0.1c1.4-0.6,3-0.7,4.4-1.6c1.6-1.1,3.1-2.2,4.3-3.7
		c0.5-0.6,0.8-1.2,1.2-1.9c0.8-1.4,0.8-2.9,0.6-4.4c-0.1-1.3-0.4-2.5-0.6-3.8c-0.2-1.4-0.8-2.8-1.4-4c-1.1-2-2.2-3.9-3.3-5.9
		c-0.8-1.5-1.9-3-3.7-3.7c-0.6-0.2-1.2-0.5-1.8-0.7c-0.4-0.1-0.8-0.2-1.1-0.3c-1.7-0.7-3.4-0.9-5.1-0.1c-0.3,0.4-0.2,0.9-0.1,1.3
		c0.2,1,0.3,1.9,0.2,2.9c-0.1,2.6-0.3,5.2-0.4,7.8c0,0.7-0.1,1.4-0.2,2.1c0,1.1-0.1,2.3-0.1,3.4c0,0.9,0.1,1.9,0,2.8
		c-0.2,1.9-0.2,3.7-0.2,5.6c0,0.8,0,1.6,0.1,2.4C198.3,48.6,198.3,49.3,198.4,50.1z"/>
	<path class="st0" d="M353.1,228.2c0.3,0.9,0.1,1.6-0.5,2.2c-0.2,0.2-0.3,0.5-0.4,0.7c-0.3,0.7-0.5,1.4-0.7,2
		c-0.9,0.7-1.8,0.6-2.6,0.5c-1.4-0.1-2.8-0.1-4.1-0.8c-1.4-0.8-2.8-1.7-3.4-3.3c-0.1-0.3-0.2-0.6-0.4-0.8c-0.5-0.6-0.8-1.2-1.1-1.9
		c-0.3-0.9-0.7-1.7-1.1-2.6c-0.1,0.2-0.3,0.5-0.4,0.7c-0.4,1-0.7,2-1.3,2.8c-0.6,0.8-1.2,1.6-1.9,2.3c-0.5,0.5-1.1,0.8-1.7,1.1
		c-1,0.5-2.1,1-3.3,1.1c-1,0.1-1.9,0.2-2.9,0.3c-1.1,0.1-2-0.5-2.9-0.9c-0.7-0.3-1.3-0.9-1.9-1.3c-1.2-0.8-2.1-1.7-2.4-3.2
		c-0.2-0.7-0.5-1.3-0.7-1.9c-1.1-3.1-1.7-6.3-2.5-9.5c-0.4-1.6-0.7-3.3-1-4.9c-0.2-0.8-0.3-1.6-0.3-2.3c0-1.7-0.4-3.4-0.7-5.1
		c-0.2-1.1-0.3-2.1-0.3-3.2c0-1.6-0.3-3.2-0.5-4.8c-0.1-0.4-0.1-0.9,0-1.3c0.2-1.3-0.2-2.5-0.5-3.8c-0.5-2.3-1-4.6-1.2-7
		c-0.1-0.6,0-0.8,0.6-1c0,0,0.1,0,0.1-0.1c0.6-0.1,1.2-0.2,1.8-0.3c0.6-0.1,1.1-0.6,1.8-0.4c0.2,0.1,0.5-0.1,0.7-0.2
		c0.8-0.3,1.7,0,1.9,0.8c0.2,0.7,0.3,1.4,0.3,2.2c0.1,0.9,0,1.8,0,2.7c0.1,1.3,0.2,2.6,0.4,4c0.3,2.8,0.6,5.6,0.8,8.4
		c0.2,3.1,0.7,6.2,1,9.2c0.2,1.4,0.4,2.8,0.6,4.2c0.1,0.6,0.1,1.3,0.3,1.9c0.6,3.1,1.2,6.3,2.4,9.2c0.4,1,1.2,1.8,1.8,2.7
		c0.4,0.6,1.1,0.8,1.8,1c0.6,0.1,1.1,0.3,1.8,0.4c0.8-0.3,1-1.2,1.3-1.8c0.8-1.6,1.1-3.2,1.1-5c0-1.5,0.1-2.9-0.2-4.4
		c-0.2-0.9-0.1-1.8,0-2.7c0.1-1.1,0-2.3,0-3.4c0-0.9,0.1-1.9,0.1-2.8c0-0.7,0-1.4,0-2.2c0.1-2,0-3.9-0.1-5.9c-0.1-2-0.4-3.9-0.7-5.8
		c-0.2-1.7-0.7-3.4-0.8-5.2c-0.1-2-0.3-4-0.9-5.9c-0.2-0.5,0.1-0.9,0.3-1.4c1.1-0.1,2.1-0.3,3.2-0.1c1.1,0.2,2.2,0.3,3.4-0.3
		c0.7,0.5,1.1,1.2,1,2.1c0,0.3,0,0.7-0.1,1c-0.3,1.2-0.3,2.4-0.3,3.7c0.1,1.9,0.2,3.7,0.2,5.6c0,1.7,0.1,3.3,0.2,5
		c0.2,3.3,0.7,6.5,1.3,9.8c0.6,2.9,1.7,5.5,2.8,8.2c0.2,0.6,0.6,1.1,1,1.6c0.8,1.1,1.6,2.2,2.4,3.3c0.3,0.3,0.6,0.7,0.9,0.9
		c1,0.8,2,1.6,3,2.4c0.3-0.1,0.5-0.2,0.8-0.3c0.4,0.2,0.7,0.7,1.4,0.6c0.3,0,0.5,0.3,0.6,0.6c0,0.4,0,0.8,0.1,1.2c0,0.3,0,0.7,0,1
		C352.5,227.9,352.8,228.1,353.1,228.2z"/>
	<path class="st0" d="M265.8,126.6c0.7,1.1,1.3,2.3,1.9,3.3c0.9,1.5,2,3,2.7,4.7c0.8,0.8,0.9,2,1.8,2.7c0.9,1.6,1.8,3.2,2.7,4.8
		c0.1,0.3,0.3,0.5,0.4,0.8c1.2,1.7,2.4,3.4,3.5,5.1c0.8,1.2,1.5,2.4,2.1,3.7c0.1,0.3,0.2,0.7,0.1,1c-0.8,1.8-1.7,3.6-3.6,4.5
		c-0.5,0.3-1.1,0.4-1.6,0.6c-0.6-0.2-0.9-0.6-1.1-1.1c-0.3-1.1-0.9-2.1-1.3-3.1c-0.4-0.8-0.8-1.6-1-2.4c-0.1-0.3-0.2-0.7-0.4-1
		c-1-1.6-1.7-3.4-2.9-5c-0.6-0.8-1-1.7-1.3-2.6c-0.5-1.5-1.3-2.8-2-4.1c-0.8-1.4-1.5-2.9-2.3-4.3c-0.6-1.2-1.4-2.3-2.1-3.4
		c-0.2-0.4-0.6-0.7-0.9-1c-2,0.9-3.9,1.8-5.8,2.7c-0.1,0.1-0.3,0.1-0.4,0.1c-1-0.3-1.8,0.4-2.6,0.8c0,1.1,0,2.2,0.3,3.3
		c0.2,0.8,0.2,1.7,0.3,2.5c0.3,2.7,0.5,5.5,0.8,8.2c0.1,1.2,0.1,2.4,0.1,3.7c0.1,1.2,0.3,2.4,0.9,3.6c-0.1,0.3-0.1,0.6-0.2,0.8
		c-0.1,0.3-0.3,0.5-0.5,0.8c-0.5-0.4-1-0.4-1.7-0.3c-1.2,0.2-2.4,0.6-3.6,0.5c-0.8-0.8-1-1.8-0.8-2.9c0.1-0.6,0-1.3,0-1.9
		c-0.1-1.1-0.1-2.1-0.1-3.2c0-0.4,0-0.8,0-1.2c-0.2-1.7-0.4-3.4-0.6-5.1c-0.2-1.9-0.6-3.8-0.7-5.7c-0.3-3.7-1-7.3-1.3-11
		c-0.1-1.6-0.1-3.2-0.3-4.8c-0.2-1.1-0.2-2.2-0.4-3.2c-0.4-1.7-0.2-3.4-0.4-5.1c-0.1-1.2-0.2-2.4-0.4-3.6c-0.3-2-0.8-4.1-0.7-6.1
		c0-1,0.2-1.2,1.2-1.5c1.1-0.3,2.2-0.2,3.4-0.1c0.4,0,0.8,0.4,1.4,0.7c0.2-0.1,0.5-0.3,0.7-0.6c1-1.3,2.2-2.2,3.7-2.8
		c1.3-0.5,2.5-1.1,3.8-1.6c1.3-0.5,2.6-0.6,3.9-0.1c0.9,0.3,1.8,0.6,2.7,0.9c1.2,0.4,2.2,1,3.2,1.8c0.8,0.7,3,3.3,3.5,4.3
		c0.2,0.4,0.3,0.7,0.4,1.1c0.3,1.3,0.5,2.7,0.7,4.1c0.2,1.4,0.2,2.7,0.4,4.1c0.1,0.8,0,1.5-0.1,2.2c-0.3,1.5-0.6,3-0.9,4.5
		c-0.3,1.3-0.9,2.5-1.8,3.5c-0.8,1-1.5,2.1-2.5,2.9C266.1,126.1,266,126.3,265.8,126.6z M250.9,127.7c1-0.3,1.9-0.7,2.8-0.9
		c2.3-0.6,4.4-1.7,6.4-2.9c1.7-1,3.4-2.1,5.1-3.2c0.4-0.3,0.8-0.8,1-1.2c0.4-0.9,0.8-1.9,1.1-2.9c0.4-1.9,0.7-3.9,0.4-5.8
		c-0.1-0.6-0.2-1.2-0.2-1.8c0-1.4-0.7-2.6-1.2-3.9c-0.2-0.5-0.5-1-0.9-1.4c-1.1-1.3-2.5-2-4.2-2.3c-1-0.2-2-0.2-3.1-0.2
		c-1.8,0.1-3.6,0.4-5.2,1.4c-1.3,0.8-2.6,1.7-3.3,3.3c-0.2,0.4-0.6,0.6-0.9,1c0.2,1.1,0.4,2.3,0.5,3.4c0.2,1.3,0.5,2.6,0.4,4
		c-0.1,2.2,0.5,4.3,0.5,6.5c0,0.6,0,1.3,0.1,1.9c0.2,1.4,0.1,2.9,0.7,4.2C250.9,126.9,250.9,127.2,250.9,127.7z"/>
	<path class="st0" d="M289.4,18.9c0.6,0.2,0.8,0.6,1.1,1.1c0.2,0.4,0.5,0.7,0.6,1.3c0.2,1.7,0.5,3.4,0.4,5.1c-0.1,0.9,0,1.8,0.2,2.6
		c0.4,2.3,0.4,4.7,0.5,7.1c0.1,1.9,0.4,3.8,0.8,5.7c0.1,0.5,0.2,1.1,0.3,1.6c0.3,2.2,1,4.4,1.5,6.6c0.4,1.6,0.5,3.3,0.8,5
		c0.1,0.4,0.1,0.9,0.2,1.3c0.2,1.5,0.4,2.9,0.6,4.4c0.2,1.4,0.3,2.8,0.5,4.3c0.1,0.8,0.1,1.6,0.1,2.4c0.2,3,0.5,6.1,1.1,9.1
		c0.1,0.5,0.1,1.1,0.1,1.6c0,0.5,0.1,0.9,0.3,1.4c0.2,0.8,0.2,1.7,0.3,2.6c0,0.4-0.4,0.8-0.9,0.9c-0.3,0-0.6,0-0.9-0.1
		c-0.9-0.4-1.8-0.4-2.8-0.2c-1.7,0.3-1.6,0.1-2.9-0.3c-0.5-2-0.6-4-0.7-6c-0.6,1-1.2,1.9-1.8,2.9c-1.2,2.1-3.1,3.3-5.3,4.3
		c-1.5,0.6-2.9,0.6-4.5,0.4c-1.8-0.3-3.5-1-5.2-1.7c-1.2-1.1-2.8-1.6-3.8-3c-0.8-1.1-1.5-2.1-2-3.4c-1.1-2.8-1.5-5.7-1.8-8.6
		c-0.2-1.4-0.3-2.8-0.4-4.2c-0.3-3-0.6-6.1-1-9.1c-0.2-1.8-0.4-3.6-0.4-5.4c0-0.4-0.1-0.9-0.2-1.3c-0.2-1.5-0.4-2.9-0.5-4.4
		c-0.1-1.4-0.4-2.7-0.7-4.1c-0.3-1.7-0.3-3.4-0.4-5.1c-0.1-1.9-0.2-3.7-0.3-5.6c0-0.3-0.1-0.6-0.1-0.9c-0.2-1.9-0.5-3.7-0.7-5.6
		c0-0.1,0-0.3,0-0.4c-0.1-1,0.4-1.4,1.2-1.6c1-0.2,2-0.5,2.9-0.9c0.6-0.3,1.3,0.2,1.2,1c-0.1,0.6,0,1.1,0.1,1.6
		c0.1,0.4,0.1,0.9,0.1,1.3c0.2,2,0.3,4,0.5,6c0.2,2.9,0.4,5.8,0.6,8.7c0,0.7,0.1,1.5,0,2.2c-0.1,1.7,0.2,3.3,0.4,5
		c0.2,1.5,0.4,3,0.3,4.6c0,0.7,0.1,1.5,0.2,2.2c0.2,3.5,0.4,7,0.7,10.5c0.4,3.5,0.9,7,1.4,10.5c0.2,1.2,0.3,2.4,1.2,3.3
		c0.5,0.6,1.2,1.2,1.8,1.7c0.5,0.4,1.1,0.7,1.6,1c0.5,0.3,1,0.6,1.6,0.5c0.5,0,1,0.3,1.5,0.3c1.3,0.2,2.6-0.2,3.9-0.3
		c1.5-0.1,2.5-0.9,3.5-1.9c0.1-0.1,0.2-0.2,0.3-0.3c0.5-1.2,1-2.4,1.6-3.6c0.4-0.9,0.4-1.8,0.4-2.7c0.1-2.3,0.1-4.7,0.1-7.1
		c0-1-0.2-2-0.2-2.9c-0.1-1.4-0.2-2.7-0.3-4.1c-0.2-3.1-0.4-6.3-0.6-9.4c0-0.6,0-1.2,0-1.8c-0.1-2.5-0.2-4.9-0.6-7.3
		c0-0.2-0.1-0.4-0.1-0.6c0.1-2-0.1-4-0.4-6c-0.1-0.6,0-1.2,0-1.8c0-0.1,0.1-0.3,0-0.4c-0.4-1.6-0.1-3.2-0.1-4.8
		c0-0.9,0.1-1.9-0.4-2.7c-0.2-0.3,0-0.7,0.4-0.8c0.1,0,0.3-0.1,0.4-0.1C287.9,20.1,288.7,19.5,289.4,18.9z"/>
	<path class="st0" d="M361.5,236.1c-0.7-0.2-1.4-0.5-2.1-0.1c-0.3,0.2-0.6,0.4-1,0.6c-0.7,0.4-1.3,0.3-1.7-0.5
		c-0.4-0.9-0.7-1.8-0.7-2.8c0-1.8-0.2-3.5-0.6-5.3c-0.2-1.2-0.5-2.3-0.5-3.5c0-1.8-0.6-3.5-0.9-5.2c-0.2-1.7-0.6-3.3-0.5-5
		c0-0.2-0.1-0.5-0.1-0.7c-0.2-1.4-0.3-2.8-0.3-4.2c0-0.7-0.1-1.5-0.2-2.2c-0.2-1.4-0.6-2.9-0.8-4.3c-0.4-2.5-0.8-4.9-1.1-7.4
		c-0.1-0.9-0.4-1.7-0.5-2.6c-0.3-1.6-0.5-3.2-0.7-4.8c0-0.1,0-0.3,0-0.4c-0.6-1.8-0.7-3.7-1.2-5.6c-0.3-1.1-0.6-2.3-0.9-3.4
		c-0.3-1.1,0.1-1.7,1.2-1.9c1-0.2,1.8-0.7,2.8-0.8c1.3-0.1,2.5-0.3,3.8-0.4c1.3-0.1,2.7,0,4-0.1c0.3,0,0.7-0.1,1-0.2
		c1.5-0.3,3.1-0.5,4.6-0.2c0.2,0,0.4,0.1,0.6,0c0.8-0.5,1.5,0,2.2,0.4c0.9,0.5,1.8,1.1,2.8,1.5c1.3,0.6,2.3,1.4,3.4,2.3
		c1.4,1.1,2.7,2.3,4,3.5c0.6,0.6,0.9,1.4,1.2,2.1c0.5,1.1,0.8,2.2,1.2,3.3c0.7,1.9,1,3.8,0.9,5.8c-0.1,2.2-0.6,4.4-0.9,6.5
		c-0.2,1.2-1,2.1-1.6,3.1c-0.9,1.4-2.4,2.1-3.8,2.9c-2.5,1.5-5.3,1.9-8,2.9c-1.7,0.2-3.3,0.8-5,0.6c-0.6-0.1-1.3-0.1-1.9,0.3
		c0,0.3,0,0.6,0.1,0.8c0.5,2.7,1.1,5.4,1.6,8.1c0.2,1.1,0.2,2.3,0.3,3.4c0.1,2.1,0.2,4.2,0.5,6.3c0.2,1.4,0.7,2.9,1.1,4.3
		c0.1,0.4,0.3,0.8,0.1,1.3c-0.2,0.4-0.6,0.6-1,0.7C362.3,235.6,361.9,235.9,361.5,236.1z M359.3,205.3c1.5,0.4,2.8,0.5,4.1,0.3
		c1.9-0.4,3.8-0.9,5.6-1.6c1.1-0.4,2.2-1,2.9-1.9c0.2-0.3,0.5-0.4,0.8-0.5c1-0.5,1.9-1.3,2.6-2.1c0.5-0.6,0.8-1.3,1.5-1.8
		c0.3-0.3,0.4-0.9,0.5-1.3c0.1-0.4,0.1-0.8,0.2-1.2c0.4-2.3,0.3-4.6-0.7-6.8c-0.4-1-1-1.8-2-2.3c-1.1-0.6-1.9-1.5-3-2
		c-0.8-0.4-1.5-1.2-2.4-1.6c-1.6-0.7-3.2-1-4.9-0.7c-2.7,0.5-5.2,1.7-7.8,2.8c-0.1,0-0.1,0.1-0.2,0.3c0,0.1,0,0.3,0,0.5
		c0.2,2.3,0.5,4.7,0.7,7c0,0.1,0,0.2,0,0.3c0.8,3.2,0.6,6.5,1.3,9.8c0,0.1,0,0.2,0,0.3C359,203.5,359.1,204.4,359.3,205.3z"/>
	<path class="st0" d="M250.9,235.5c0.1,0.5,0.3,1,0.3,1.4c0,0.3,0,0.6-0.2,0.8c-0.5,0.5-1.2,0.8-2,0.7c-0.6-0.1-1.1-0.1-1.6,0.1
		c-0.6,0.2-1.2-0.1-1.7-0.4c-0.2-0.1-0.5-0.4-0.6-0.6c0-0.9-0.6-1.6-0.5-2.5c0.3-3,0.5-6.1,0.7-9.1c0-0.7-0.1-1.4-0.1-2
		c0-0.3-0.2-0.7-0.2-1c0.2-1.4,0-2.8,0-4.3c0.1-1.2,0.2-2.4,0.2-3.5c0-1.4-0.1-2.7-0.1-4.1c0-1.2-0.1-2.5-0.1-3.7
		c0-3.2-0.1-6.5-0.5-9.7c-0.1-0.8-0.2-1.6-0.4-2.5c-0.2-0.8-0.2-1.7-0.3-2.5c-0.2-1.5-0.5-3-0.7-4.5c0-0.3-0.2-0.6-0.1-0.9
		c0-0.7-0.2-1.4-0.7-1.9c-0.3-0.3-0.3-0.6-0.1-1c0.5-0.7,0.3-1.4,0.3-2.1c0-0.4,0-0.8-0.1-1.1c0.7-0.5,1.4-1,2.1-1.5
		c0.4-0.3,1-0.4,1.5-0.5c0.7-0.2,1.3-0.3,2-0.5c0.6-0.1,1-0.3,1.4-0.7c0.2-0.2,0.6-0.4,0.9-0.4c0.9,0.2,1.7-0.1,2.5-0.3
		c1.8-0.4,3.5-0.3,5.2,0.3c1.4,0.4,2.8,0.9,4.2,1.4c1,0.3,1.7,1,2.4,1.6c1.7,1.4,3.1,3.1,4.1,5.1c0.6,1.3,1.1,2.6,1.2,4
		c0.1,1.6-0.1,3.3-0.4,4.8c-0.2,1.3-0.5,2.6-0.9,3.8c-0.6,1.6-1.5,3.2-2.7,4.5c-1.3,1.4-2.8,2.6-4.3,3.8c-0.3,0.3-0.6,0.6-1,1
		c1.3,2.1,2.5,4.1,3.7,6.2c0.4,0.6,0.6,1.2,0.9,1.8c1,1.8,2,3.6,2.9,5.4c1,2.1,2.3,4.1,3.5,6.1c0.5,0.9,1.2,1.7,1.8,2.5
		c0.4,0.6,0.8,1.1,1.2,1.7c0.7,1.1,0.6,2.1-0.2,3.1c-0.5,0.6-1.1,1.3-1.6,1.9c-0.5,0.6-1,0.9-1.8,0.8c-0.6-1.3-1.3-2.5-2.2-3.6
		c-0.8-1-1.4-2.2-2.2-3.3c-1.3-1.9-2.3-4-3.8-5.8c-0.5-0.6-0.8-1.3-1.3-2c-0.3-0.4-0.6-0.9-0.9-1.3c-0.7-1-1.4-1.9-2.1-2.9
		c-0.8-1.3-1.8-2.4-2.9-3.5c-1.2-1.2-2.4-2.4-3.7-3.7c-0.4,0.2-0.8,0.3-1.1,0.6c-0.5,0.4-0.8,0.9-0.7,1.5c0.1,1.9,0,3.9,0.2,5.8
		c0.3,3.1,0.2,6.1,0.3,9.2c0,0.9,0.1,1.9,0.2,2.8c0,0.3,0.1,0.7,0.2,0.8c0.4,0.5,0.4,1,0.4,1.5C251.7,234.2,251.4,234.9,250.9,235.5
		z M250.5,208c1-0.5,1.9-0.6,2.7-1.1c2.2-0.4,4.1-1.6,5.8-3c0.5-0.4,1.1-0.7,1.7-1.1c0.3-0.2,0.6-0.4,0.8-0.6c0.6-0.5,1.1-1,1.6-1.5
		c1.3-1.2,2.2-2.6,2.4-4.4c0.2-1.4,0.5-2.7,0.7-4.1c0-0.2,0-0.5,0-0.7c-0.1-0.9-0.1-1.8-0.2-2.6c-0.4-2.1-1.1-4-2.9-5.2
		c-0.4-0.3-0.8-0.6-1.2-0.9c-2.2-1.6-4.7-1.9-7.3-1.6c-1.9,0.3-3.5,1.3-5.1,2.3c-0.7,0.4-1.1,1.2-1.2,2.1c-0.1,1.4-0.2,2.8-0.3,4.3
		c0,0.6,0.1,1.3,0.2,1.9c0.2,1.1,0.5,2.1,0.6,3.2c0.2,1.5,0.4,3.1,0.7,4.7c0.4,2,0.5,4,0.6,6C250.2,206.3,250.1,207.1,250.5,208z"/>
	<path class="st0" d="M289.4,136.7c-0.3,1.3-0.7,2.5-0.4,3.8c0.1,0.6,0,1.3-0.1,1.9c-0.3,1.3-0.4,2.6-0.5,3.9
		c-0.1,1.3-0.3,2.5-0.2,3.8c0,0.6-0.2,1.2-0.6,1.8c-0.7,1.1-0.7,2.3-0.2,3.4c0.4,0.8,0.1,1.3-0.3,2c-1.3-0.6-2.5,0.1-3.7,0.4
		c-0.6,0.1-1.1,0.3-1.7,0.1c-0.4-0.1-0.6-0.4-0.6-0.8c0-0.3,0.1-0.6,0.1-0.9c0.2-0.7,0.2-1.4,0.2-2.2c0-0.5,0-1,0.2-1.4
		c0.6-1.3,0.5-2.7,1.1-4c0.1-0.3,0.1-0.7,0.1-1c0.1-1.2,0.3-2.3,0.4-3.5c0.1-1.2,0.3-2.3,0.3-3.5c0.1-2.2,0.5-4.4,0.8-6.6
		c0.4-2.8,0.5-5.7,0.6-8.5c0-2.5,0.4-4.9,0.7-7.3c0.2-1.1,0.1-2.2,0.2-3.4c0.1-1.2,0-2.4,0.3-3.5c0.3-1.4,0.4-2.7,0.5-4.1
		c0.1-0.9,0.2-1.9,0.4-2.8c0.3-1.2,0-2.4-0.3-3.6c-0.1-0.3-0.1-0.7,0-1c0.1-0.4,0.2-0.9,0.3-1.3c0.3-0.2,0.7-0.4,1-0.5
		c1.1-0.2,2.3-0.4,3.5-0.6c0.5-0.1,1.1-0.2,1.6-0.3c0.7-0.2,1.5,0.2,1.6,0.9c0.8,3.8,3,6.8,4.8,10.1c0.9,0.9,1.1,2.1,1.5,3.3
		c0.2,0.7,0.4,1.4,0.7,1.9c0.5,0.8,0.8,1.7,1.2,2.5c0.8,1.9,1.6,3.8,2.4,5.7c0.3,0.6,0.7,1.2,1,1.8c0.6,1.3,1.1,2.6,1.7,3.9
		c0.2,0.5,0.4,1,0.7,1.5c0.1,0.3,0.4,0.6,0.5,0.9c0.4,1.9,1.7,3.4,2.4,5.2c0.1,0.3,0.3,0.5,0.5,0.7c0.7,1.2,1.4,2.5,2,3.8
		c0.5,1.1,0.9,2.3,1.6,3.3c0.7,1,1.3,2.1,1.9,3.1c0.9,1.4,1.8,2.8,2.6,4.3c0.7,1.2,0.4,1.7-0.9,2.2c-0.9,0.3-1.9,0.5-2.8,0.9
		c-0.5,0.2-0.9,0.4-1.4,0.7c-0.6-0.1-1.3-0.3-1.8-0.9c0.2-0.1,0.4-0.3,0.7-0.4c-0.2-0.9-0.4-1.8-0.8-2.7c-0.4-1-0.8-2.1-1.3-3.1
		c-0.4-0.9-0.9-1.8-1.3-2.6c-1.2-2.1-2.4-4.2-3.6-6.2c-0.7-1.3-1.5-2.5-2.2-3.7c-3.6,0.2-7.1,1.1-10.5,1.8c-1,0.2-1.9,0.4-2.9,0.6
		C290.4,136.4,289.9,136.6,289.4,136.7z M292,109.5c0,0.5-0.1,0.7-0.1,0.9c0,1.7,0,3.3,0,5c0,1.7-0.1,3.3-0.2,5
		c-0.1,1.3-0.2,2.6-0.4,4c-0.2,1.3-0.5,2.6-0.7,3.9c-0.3,1.6-0.5,3.2-0.7,4.8c-0.1,0.5-0.1,1-0.1,1.4c0.2,0.1,0.3,0.2,0.4,0.2
		c1.3-0.2,2.6-0.3,3.9-0.5c0.7-0.1,1.5-0.2,2.2-0.4c2.1-0.6,4.3-0.9,6.5-1.1c0.2,0,0.4-0.1,0.6-0.2c-0.1-0.3-0.2-0.6-0.3-0.9
		c-0.4-1-0.9-2.1-1.3-3.1c-0.3-0.8-0.7-1.5-1.2-2.2c-1.4-2-2.7-4.1-3.6-6.4c-0.5-1.1-1-2.2-1.7-3.3c-0.4-0.7-0.7-1.5-1.1-2.2
		c-0.3-0.5-0.5-1-0.7-1.6C293.3,111.7,292.8,110.7,292,109.5z"/>
	<path class="st0" d="M328.5,80.9c-0.5-2.7-0.9-5.2-1.4-7.8c-0.2-1-0.3-2.1-0.3-3.1c0-1.9-0.2-3.8-0.4-5.7c-0.1-1.4-0.1-2.8-0.2-4.1
		c-0.2-1.6-0.2-3.1-0.5-4.7c-0.3-1.3-0.2-2.7-0.3-4.1c0-0.1,0-0.2,0-0.3c-0.3-2.6,0.1-5.1-0.1-7.7c0-0.4-0.1-0.8,0-1.2
		c0.2-1.1,0.1-2.3,0.1-3.4c-0.1-2.5-0.1-5.1-0.6-7.6c-0.1-0.6,0-1.2-0.1-1.8c-0.1-1.8-0.2-3.5-0.3-5.3c-0.1-1-0.2-2-0.3-3.2
		c-0.1-0.1-0.4-0.4-0.6-0.6c-0.4-0.6-0.2-1.3,0.5-1.5c0.4-0.1,0.9-0.2,1.3-0.2c1.9-0.1,3.7-0.2,5.6-0.4c1.1-0.1,2.1-0.6,3.3-0.5
		c1.1,0.1,2.2-0.2,3.2-0.4c1.1-0.2,2.1-0.6,3.1-0.8c1.3-0.2,2.6-0.4,3.9-0.6c0.9,0.3,1.9,0,2.8-0.1c0.4,0,0.9-0.1,1.3-0.3
		c1-0.4,1.7-0.1,2.4,0.6c-0.1,0.6-0.2,1.2-0.4,1.9c0.2,0.1,0.5,0.3,0.8,0.5c-0.3,0.5-0.6,0.9-0.9,1.4c0.3,0.3,0.5,0.7,0.8,0.9
		c0.4,0.3,0.4,0.8,0.4,1.2c0,0.4-0.3,0.7-0.8,0.7c-1.1,0.1-2.1,0.3-3.2,0.4c-1.5,0.2-2.9,0.4-4.4,0.7c-1.8,0.4-3.6,0.6-5.4,0.5
		c-2.1-0.1-4.2,0.1-6.3,0.6c-0.2,0.1-0.5,0.1-0.7,0.2c-1,0.4-1.1,0.5-0.9,1.6c0.3,2,0.3,4.1,0.5,6.1c0.1,1.6,0.3,3.2,0.5,4.8
		c0.2,1.4,0.4,2.8,0.6,4.2c0.1,0.5-0.1,1.1-0.1,1.6c0,0.8,0.3,1.3,1.1,1.3c1,0,2.1,0,3.1,0c1-0.1,2-0.2,2.9-0.3
		c0.3,0,0.6-0.1,0.8-0.1c0.3-0.1,0.6-0.2,0.8-0.1c1,0.2,2,0,2.9-0.1c0.1,0,0.3,0,0.4-0.1c0.6,0,1.1,0.3,1.1,0.9c0,0.4,0,0.9-0.1,1.3
		c-0.2,0.7-0.2,1.3,0,2c0.2,0.7,0.2,1.4,0.1,2.1c-0.5,0.5-1.1,0.5-1.9,0.4c-0.9-0.2-2-0.1-2.9-0.2c-0.5,0-1.1-0.1-1.6-0.1
		c-0.1,0-0.3,0-0.4,0c-1.6,0.5-3.3,0.6-4.9,0.9c-0.1,0-0.3,0.1-0.5,0.3c0,1.3,0.2,2.7,0.5,4c0.1,0.6,0.2,1.3,0.3,1.9
		c0.2,1.5,0.5,3,0.6,4.5c0.2,2.2,0.9,4.2,1.1,6.4c0.1,1.1,0.2,2.3,0.4,3.4c0.3,1.6,0.3,3.2,0.4,4.8c0.1,0.9,0.2,1.8,0.7,2.6
		c0.5,0.7,0.2,1.5-0.7,1.7c-1.2,0.2-2.3,0.3-3.5,0.4c-0.9-0.5-1.8-0.3-2.7-0.3C329.3,81.3,328.9,81,328.5,80.9z"/>
	<path class="st0" d="M239,74.5c0.9-0.1,1.7-0.1,2.5-0.2c0.5,0,1-0.1,1.5-0.1c1.5,0.1,2.9,0.2,4.4,0.3c0.2,0,0.5,0.1,0.7,0
		c1.1-0.4,2.2-0.3,3.3-0.5c1.1-0.2,2.2-0.4,3.3-0.6c0.1,0,0.2-0.1,0.3-0.1c1.2,0.3,2.4-0.1,3.7-0.3c0.5-0.1,1-0.3,1.6-0.4
		c0.3-0.1,0.5-0.2,0.6-0.5c0-0.2,0.4-0.2,0.6-0.3c0.9,0.5,1.1,1.3,0.9,2.3c-0.1,0.4-0.1,0.9-0.2,1.3c-0.1,0.7-0.2,1.5,0.3,2.1
		c0,0.2-0.1,0.3-0.1,0.5c-0.4,1.2-0.4,1.1-1.7,1c-0.5,0-1,0-1.5,0c-2.2,0.2-4.4,0.2-6.4,1.2c-0.6,0.3-1.3,0.4-2,0.5
		c-1.5,0.2-3,0.2-4.5,0.6c-0.4,0.1-0.9,0-1.3,0c-0.9,0-1.8-0.1-2.7,0c-1.8,0.2-3.5,0.2-5.3-0.1c-1-0.2-2-0.3-3.1-0.4
		c-0.7-0.1-1.3-0.4-1.9-0.7c-0.4-0.2-0.6-0.5-0.6-0.9c0-0.7,0-1.5,0-2.2c0.1-1.3,0.2-2.5,0-3.8c-0.2-1.6-0.1-3.1-0.1-4.7
		c0-1.5-0.1-2.9-0.2-4.4c0-0.5,0.1-1,0.1-1.5c0-2.3,0-4.5,0-6.8c0-4.1,0-8.2-0.1-12.2c-0.1-2.8-0.2-5.7-0.5-8.5
		c-0.2-2.1-0.5-4.2-0.5-6.3c0-0.5-0.2-1-0.2-1.4c-0.2-2.4-0.6-4.8-1.1-7.1c-0.1-0.6-0.2-1.2-0.3-1.7c0-0.7,0.7-1.2,1.2-0.9
		c0.7,0.4,1.4,0.4,2.1,0.6c1.4,0.4,2.9,0.6,4.4,0.4c0.3,0,0.6-0.1,0.9,0c0.8,0.1,1.1,0.5,1.1,1.3c0,2,0,3.9,0,5.9c0,1.4,0,2.8,0,4.2
		c0,0.9,0,1.9,0.1,2.8c0.2,2.6,0.2,5.2,0.2,7.8c0,2.6,0.2,5.1,0.2,7.7c0,2.3,0,4.6,0,6.9c0,2.1,0,4.2,0.1,6.3c0,1.2,0,2.4,0,3.5
		c0.1,2.4,0.2,4.7,0.3,7.1C239,72.9,239,73.6,239,74.5z"/>
	<path class="st0" d="M305.3,47c2-0.5,3.9-0.9,5.8-1.3c0.2-0.4,0.3-0.8,0.5-1.2c0.2-0.3,0.5-0.5,0.9-0.4c0.4,0.1,0.6,0.3,0.7,0.7
		c0.1,0.4,0.1,0.9,0.1,1.3c0,2.1,0.4,4.1,0.6,6c0.5,0.2,0.9,0.4,1.4,0.6c0,0.4-0.1,0.7-0.1,0.9c-0.3,1.2-1.4,1.8-2.6,1.6
		c-0.5-0.1-1.1-0.2-1.6-0.2c-1.7,0-3.3,0-5,0c-0.1,0.4-0.1,0.7-0.1,1c0,2.1,0.1,4.1,0.1,6.2c0,0.3,0.1,0.7,0.2,1
		c0.4,2.1,0.3,4.2,0.5,6.3c0,0.6,0.1,1.3,0.1,1.9c0.1,1.2,0.2,2.4,0.4,3.7c0.1,0.4,0.2,0.8,0.4,1.3c1.5-0.3,2.9-0.6,4.3-0.9
		c1-0.2,1.9-0.4,2.9-0.6c1.5-0.2,2.9-0.4,4.4-0.6c0.8-0.1,1.3-0.3,1.7-1c0.2-0.4,0.6-0.7,0.9-1.1c0.4,0.4,0.8,0.6,1.1,1
		c0.2,0.2,0.3,0.5,0.3,0.8c0.1,1.6,0.2,1.8,1,3.4c0.3,0.6,0.9,1.4,0.4,2.2c-0.1,0.1-0.1,0.2-0.2,0.2c-2,0.8-4.1,1.2-6.3,1.4
		c-1.1,0.1-2.3,0.1-3.4,0.1c-1,0-2.1-0.1-3.1-0.2c-0.2,0-0.5,0-0.7,0.1c-1.9,0.2-3.8,0.3-5.7,0.5c-0.3,0-0.6,0.1-0.9,0.1
		c-1.2,0.2-1.9-0.4-1.8-1.6c0.1-1.2-0.2-2.4-0.4-3.7c-0.2-1.3-0.3-2.5-0.5-3.8c-0.4-2.9-0.7-5.7-1.1-8.6c-0.3-2.3-0.3-4.7-0.5-7.1
		c-0.1-1.1-0.2-2.2-0.3-3.4c0-0.2-0.1-0.5,0-0.7c0.2-1.4,0.2-2.7-0.1-4.1c0-0.2-0.1-0.5-0.1-0.7c0.4-1.5-0.1-3-0.3-4.5
		c-0.2-1.8-0.5-3.5-0.6-5.3c-0.2-3-0.4-6-0.9-8.9c-0.1-0.4-0.1-0.9-0.1-1.3c-0.2-1.4-0.4-2.7-0.6-4.1c-0.2-1-0.3-2,0.2-3.1
		c0.6-0.1,1.2-0.2,1.9-0.3c3.1-0.1,6.2-0.5,9.2-1c1.6-0.3,3.3-0.5,4.9-0.8c0.4-0.1,0.7-0.2,1.1-0.4c0.3-0.1,0.7-0.2,1-0.2
		c0.8,0,1.2,0.3,1.2,1.1c0.1,1.1,0,2.2,0.4,3.2c0.1,0.3-0.1,0.7-0.2,1.1c-0.5,0.4-0.9,0.6-1.6,0.4c-0.6-0.2-1.4-0.2-2.1-0.1
		c-1.3,0.2-2.8,0.1-4,0.9c-0.3,0.2-0.8,0.3-1.1,0.3c-1.4,0-2.7,0.3-4.1,0.7c-0.2,0.3-0.3,0.8-0.2,1.2c0.1,0.9,0.3,1.9,0.5,2.8
		c0.5,2.3,0.7,4.6,0.8,6.9c0,1.2,0,2.5,0,3.7c0,1.2,0.2,2.4,0.3,3.5C305.1,45,305.2,45.9,305.3,47z"/>
	<path class="st0" d="M277.6,207.1c0-0.7,0-1.5,0-2.2c0.1-1.9,0.1-3.7,0.4-5.6c0.2-1.6,0.7-3.1,0.9-4.6c0.3-2.2,1.2-4.1,2.1-6.1
		c0.1-0.3,0.3-0.6,0.4-0.9c0.3-1.7,1.2-2.9,2.3-4.1c0.6-0.6,1.2-1.3,1.9-1.8c1.1-0.8,2.1-1.6,3.3-2.1c0.4-0.2,0.8-0.2,1.3-0.2
		c0.7,0.1,1.5,0.1,2.2-0.1c0.2-0.1,0.5,0,0.7,0c0.2,0,0.5,0.1,0.7,0.1c1.3-0.3,2.5,0.1,3.8,0.2c1.5,0.1,2.9,0.6,4,1.6
		c0.6,0.6,1.3,1.1,1.8,1.7c0.5,0.5,0.9,1.1,1.3,1.8c0.5,0.9,1,1.9,1.5,2.9c0.5,1.2,1,2.4,1.4,3.7c1,2.9,1.3,5.9,1.7,8.9
		c0.2,1.9,0.4,3.9,0.6,5.8c0.1,1,0.2,2.1,0.4,3.1c0.5,2.4,0.6,4.8,0.7,7.2c0.1,1.1-0.1,2.2-0.2,3.2c-0.1,1.3-0.1,2.5-0.2,3.8
		c0,0.3,0,0.6-0.2,0.9c-0.2,0.4-0.1,0.7-0.1,1.1c0,0.9-0.1,1.8-0.5,2.7c-0.5,0.9-0.9,1.7-1.2,2.7c-0.7,2-2,3.2-3.9,3.9
		c-0.5,0.2-0.9,0.4-1.3,0.7c-0.1,0-0.2,0.1-0.3,0.1c-1.5-0.2-3,0.4-4.5,0.4c-2.9,0-5.8-0.4-8.5-1.5c-0.5-0.2-0.9-0.6-1.5-0.4
		c-0.1,0-0.3-0.1-0.4-0.2c-0.4-0.3-0.8-0.5-1.2-0.8c-1.3-0.7-2.3-1.7-3.2-2.8c-1-1.3-2.1-2.4-2.9-3.9c-0.8-1.5-1.4-3-1.6-4.7
		c-0.3-2.9-0.8-5.8-1.4-8.7C277.6,210.9,277.7,209,277.6,207.1z M307.6,213.1c-0.1-2.8-0.2-5.6-0.6-8.4c-0.1-1.1-0.5-2.2-0.5-3.3
		c0-2.4-1.1-4.5-1.4-6.8c-0.1-0.6-0.5-1.2-0.7-1.7c-0.5-1-0.9-2.1-1.7-2.9c-0.5-1.3-1.5-2.2-2.3-3.2c-0.5-0.6-1.1-1-2.1-0.8
		c-0.4,0.1-0.9,0-1.3,0c-0.6,0-1.2,0.1-1.8,0.1c-0.2,0-0.5,0-0.7,0c-1.1,0-2.2-0.1-3.3,0.1c-1.5,0.3-2.8,0.9-3.9,2
		c-0.4,0.4-0.8,0.7-1.2,1.1c-0.8,0.8-1.4,1.7-1.7,2.9c-0.2,1.1-0.4,2.1-0.7,3.2c-0.6,2.6-1.3,5.1-2,7.7c-0.2,0.9-0.5,1.8-0.5,2.7
		c-0.1,1.6,0,3.1,0,4.7c0,0.3,0.1,0.6,0.1,0.9c0.1,0.5,0.1,1,0.2,1.5c0.2,2.7,0.4,5.4,0.5,8.1c0,0.3,0.1,0.6,0.1,0.9
		c0.2,1.6,1,3.1,1.7,4.5c0.8,1.8,2.4,2.7,4.1,3.3c1.1,0.4,2.1,0.7,3.2,1c1,0.3,2,0.5,3,0.4c2.2-0.2,4.4-0.7,6.4-1.6
		c1.7-0.7,3.2-1.7,4.2-3.4c0.4-0.8,0.8-1.6,1.2-2.3c0.8-1.4,1.4-2.8,1.2-4.5c0-0.1,0-0.2,0-0.3C307.3,217.1,307.4,215.1,307.6,213.1
		z"/>
	<path class="st0" d="M363.9,154.6c-0.2-0.3-0.4-0.6-0.5-0.8c-0.1-0.1-0.2-0.3-0.2-0.3c0.5-0.6-0.2-1-0.1-1.5c0-0.5,0-1-0.3-1.4
		c-0.2-0.2-0.1-0.6-0.1-0.9c0-1-0.1-1.9-1-2.5c0.2-0.3,0.5-0.6,0.5-0.9c0.1-0.3-0.1-0.7-0.1-1c-0.1-1.4-0.2-2.8-0.4-4.2
		c-0.2-1.3-0.4-2.5-0.6-3.8c0-0.2-0.1-0.5-0.1-0.7c-0.2-2.4-0.5-4.9-0.7-7.3c-0.2-1.6-0.4-3.2-0.6-4.8c-0.1-1.8-0.2-3.5-0.3-5.3
		c0-0.1,0-0.2,0-0.3c-0.4-1.7-0.1-3.5-0.4-5.3c-0.3-1.6-0.6-3.3-0.8-4.9c-0.2-1.9-0.7-3.8-0.8-5.8c0-1-0.3-1.9-0.6-2.9
		c-0.2-1-0.5-1.9-0.5-2.9c0-0.6,0-1.1,0.5-1.4c0.2-0.1,0.2-0.4,0.4-0.6c0.2-0.2,0.4-0.3,0.6-0.3c1.6-0.1,3.1-0.3,4.7-0.6
		c0.9-0.2,1.9-0.2,2.8,0c1,0.2,2,0.3,3,0.5c1,0.2,2,0.5,3,0.9c0.6,0.3,1.2,0.5,1.8,0.6c2.1,0.4,3.9,1.4,5.6,2.6
		c1.6,1.1,3,2.3,4.2,3.9c0.1,0.1,0.1,0.2,0.2,0.2c2,1.5,3,3.8,4.3,5.8c0.2,0.3,0.3,0.6,0.4,0.9c0.5,1.1,0.8,2.3,1.5,3.4
		c0.4,0.8,0.6,1.7,0.8,2.5c0.2,0.7,0.3,1.3,0.6,2c0.6,1.4,0.7,2.9,0.8,4.3c0.1,1.4,0,2.9-0.2,4.4c-0.3,1.4-0.4,2.9-0.9,4.3
		c-0.3,0.8-0.6,1.6-1.1,2.4c-0.6,0.9-1.3,1.7-1.7,2.8c-0.2,0.6-0.7,1.1-1.1,1.6c-1,1.2-2.2,2.4-3.4,3.4c-0.7,0.6-1.4,1.4-2,2.1
		c-1,1.1-2.1,2.2-3.3,3.1c-0.9,0.7-1.8,1.5-2.7,2.3c-1.2,1.2-2.6,1.9-4,2.8c-1.5,1-3.1,1.7-4.5,2.8
		C365.7,154.6,365,154.7,363.9,154.6z M364.8,146.6c0.7-0.1,1.2-0.2,1.7-0.2c0.4,0,0.9-0.2,1.3-0.1c0.8,0.2,1.5,0,2.1-0.4
		c1.4-0.8,2.8-1.7,4.3-2.6c1-0.6,1.6-1.7,2.8-2.1c1.1-1.3,2.5-2.2,3.6-3.5c2-2.3,3.9-4.6,5.3-7.4c0.8-1.5,1.5-3.1,1.8-4.8
		c0.7-2.9,0.2-5.8-0.8-8.5c-0.6-1.7-1.2-3.4-2-5.1c-1.2-2.6-2.4-5.1-4.6-7.1c-1.3-1.2-2.6-2.3-4.3-3.1c-3.1-1.4-6.3-2.3-9.7-2.5
		c-1.2-0.1-2.4,0.1-3.5,0.4c-0.8,0.2-1.6,0.5-2.4,0.8c-0.3,0.1-0.5,0.3-0.8,0.4c0,0.7,0.1,1.3,0.1,1.9c0.3,2.8,0.8,5.5,0.9,8.3
		c0,1.1,0.1,2.3,0.3,3.4c0.4,2.3,0.7,4.7,0.7,7c0,1.1,0.4,2.2,0.3,3.3c0.8,2.2,0.3,4.5,1.1,6.7c-0.1,1.6,0.5,3.2,0.4,4.8
		c0,1.1,0.1,2.1,0.4,3.2c0.2,1.1,0.3,2.2,0.3,3.4C364.3,144.1,364.6,145.3,364.8,146.6z"/>
	<path class="st0" d="M229.3,186.7c-1.8,0.3-1.9,0.2-2.2-1.4c-0.1-0.3-0.1-0.6-0.2-0.9c-0.5-1.5-1.5-2.3-3.1-2.3
		c-2.1,0-4,0.6-5.7,1.7c-1.1,0.7-2,1.9-2.9,2.9c-0.3,0.3-0.5,0.6-0.7,0.9c-1.5,1.7-2.5,3.7-3.3,5.8c-0.5,1.4-0.9,2.8-1.2,4.2
		c-0.3,1.7-0.2,3.4-0.3,5.1c0,1.6,0,3.1,0,4.7c0,1.8,0.1,3.6,0.3,5.4c0.3,3,1.2,5.8,2.4,8.6c0.7,1.6,1.4,3.1,2,4.7
		c0.5,1.3,1.2,2.5,1.7,3.7c0.3,0.8,0.8,1.4,1.1,2.3c0.1,0.3,0.3,0.5,0.5,0.7c0.9,0.7,1.9,1.3,2.9,1.6c1.4,0.4,2.9,0.3,4.3-0.2
		c0.2-0.1,0.4-0.3,0.7-0.3c1.4-0.1,2.3-0.9,3.2-2c0,0,0.1-0.1,0.1-0.1c1.7-1.2,1.7-3,1.8-4.7c0-0.5-0.1-1,0-1.5
		c0.3-1.4,0.3-2.8-0.4-4.2c-0.2-0.4-0.3-0.8-0.1-1.3c0.2-0.4,0.5-0.6,0.9-0.6c0.7,0,1.5,0,2.3-0.1c0.6,0.3,0.9,0.8,0.9,1.7
		c0,1.5,0.3,2.9,0.4,4.4c0.2,1.8,0,3.5-0.3,5.3c-0.3,1.3-1,2.4-1.9,3.5c-0.4,0.6-0.9,1-1.6,1.2c-0.3,0.1-0.6,0.2-0.9,0.4
		c-2.4,1.5-5.1,1.8-7.8,1.3c-1.7-0.3-3.4-0.6-4.9-1.6c-1.1-0.7-2.2-1.5-3.2-2.3c-1.2-1-2.3-2.1-3.3-3.3c-1.1-1.4-2-3-2.5-4.8
		c-0.3-1.3-0.6-2.6-0.9-3.9c-0.3-1.2-0.4-2.5-0.7-3.8c-0.6-2.4-0.8-4.8-1.6-7.2c-0.4-1.3-0.5-2.7-0.4-4.1c0.2-1.7,0.2-3.4,0.5-5.1
		c0.4-2.5,0.3-5,1-7.5c0.7-2.5,1.3-5,2.7-7.3c0.6-1.1,0.9-2.3,1.5-3.4c0.5-0.9,1-1.7,1.7-2.4c0.7-0.8,1.4-1.5,2.2-2.2
		c0.7-0.7,1.4-1.1,2.4-1.3c2.5-0.5,4.9-1,7.4-0.7c1.8,0.2,3.6,0.3,5.3,1.1c0.7,0.3,1,0.7,0.9,1.3c0,0.3-0.1,0.6-0.2,0.9
		c-0.3,0.6-0.5,1.2-0.2,1.8c0.1,0.1,0.1,0.3,0.1,0.4c-0.1,1.3-0.3,2.6-0.5,3.9C229.5,186.4,229.4,186.5,229.3,186.7z"/>
	<path class="st0" d="M394.4,23.9c0,1.1-0.4,1.8-1,2.5c-0.5,0.7-1,1.3-1.3,2.1c-0.2,0.7-0.7,1.3-1.6,1.2c-0.5-0.4-0.6-0.9-0.8-1.4
		c-0.2-0.5-0.5-0.9-1.2-1c-0.3,0-0.7-0.3-0.8-0.5c-0.3-0.7-0.8-1-1.4-1.1c-0.6-0.2-1.3-0.3-2-0.2c-2.7,0.5-4.5,2-5.6,4.5
		c-0.4,0.9-0.9,1.7-1.1,2.7c-0.3,1.5-0.6,3.1-0.8,4.6c-0.2,1.4,0.2,2.7,1.1,3.8c1.1,1.4,2.5,2,4.3,1.9c1.2,0,2.5,0,3.7,0
		c2.1,0.1,4.2,0.6,6.1,1.4c1.3,0.6,2.6,1.5,3.7,2.3c1.1,0.8,1.6,2.1,2.1,3.3c0.4,1,0.6,2,1,2.9c0.3,0.9,0.5,1.9,0.6,2.9
		c0,0.5,0.1,1.1,0.3,1.6c0.3,1.2,0.3,2.4,0.2,3.7c-0.2,1.7-0.6,3.3-1,4.9c-0.1,0.5-0.4,1-0.6,1.5c-0.7,1.4-1.3,2.7-2.2,4
		c-1.3,1.7-3,2.9-4.7,4c-1.3,0.2-2.5,0.8-3.9,0.8c-0.5,0-1.1,0-1.6,0c-1.2,0-2.3-0.4-3.3-1.1c-1.1-0.8-2.2-1.5-3.1-2.5
		c-0.7-0.8-1.3-1.7-2.2-2.4c-0.1-0.1-0.1-0.2-0.2-0.2c-0.6-1.4-1.2-2.8-1-4.3c0.1-1.3-0.2-2.5-0.3-3.8c-0.1-0.4-0.1-0.8-0.1-1.2
		c0-1,0.7-1.5,1.6-1c1.2,0.6,2.5,0.8,3.8,0.8c0.6,0,1.3,0.1,1.8,0.7c0,0.3,0.1,0.7,0,1.1c-0.4,1.5-0.3,3-0.3,4.6
		c0.1,2,0.5,3.9,1.5,5.6c0.3,0.4,0.6,0.6,1.1,0.6c2.4-0.1,4.6-0.6,6.7-2c1.6-1.1,2.6-2.5,3.7-4c0.7-1,1.1-2.2,1.5-3.3
		c0.5-1.1,0.2-2.2,0.2-3.4c0-1.5-0.1-3-0.1-4.4c0-1.9-0.5-3.6-1.7-5c-0.5-0.6-0.8-1.2-1.2-1.9c-0.7-1.2-1.8-1.9-3.2-2.5
		c-1.2-0.5-2.3-0.5-3.6-0.5c-1.5,0.1-3,0-4.6,0c-1.8,0-3.5-0.4-5.2-1c-1.6-0.6-2.5-1.8-3.1-3.4c-0.1-0.1,0-0.3-0.1-0.4
		c-1.1-1.6-0.9-3.5-1.1-5.3c0-0.7-0.1-1.4,0-2.1c0-0.8,0.1-1.7,0.2-2.5c0.2-1,0.5-1.9,0.7-2.8c0.1-0.3,0.2-0.7,0.4-0.9
		c0.7-0.8,1.1-1.8,1.8-2.7c0.9-1.1,1.9-2.1,2.8-3.2c0.2-0.2,0.4-0.3,0.5-0.5c1-1.3,2.4-2,4-2.2c1.6-0.2,3.2,0,4.8,0.4
		c1.6,0.4,2.6,1.5,3.8,2.4C392.9,23.1,393.7,23.4,394.4,23.9z"/>
	<path class="st0" d="M468.3,126.9c0.9,0.1,1.6,0.2,2.3,0.5c0.7,0.3,1.3,0.6,2.1,0.4c0.7-0.1,1.2,0.4,1.1,1.2
		c-0.2,1.7-0.3,3.5-0.1,5.3c0,0.3,0,0.7,0,1c-0.3,1.4-0.6,2.9-1.3,4.2c-0.4,0.6-0.8,1.1-1.3,1.5c-0.2,0.1-0.4,0.2-0.5,0.3
		c-0.8,1-1.9,1.7-3,2.3c-1.3,0.7-2.6,1.1-4,1.2c-1.1,0.1-2.3-0.1-3.4-0.2c-1.6-0.2-3-1-4.1-2.2c-1.3-1.4-2.7-2.7-3.9-4.2
		c-1-1.3-1.7-2.6-2.2-4.1c-0.4-1.1-0.7-2.1-1.1-3.2c-0.1-0.4-0.2-0.8-0.3-1.1c-0.2-2.2-0.6-4.4-0.7-6.6c0-1.9,0.3-3.7,0.4-5.6
		c0.1-1.3,0.3-2.6,0.7-3.9c0.3-1.1,0.5-2.2,0.8-3.3c0.7-2.6,2.1-4.8,3.7-6.8c0.4-0.5,0.8-1,1.3-1.5c0.8-0.9,1.7-1.7,2.9-2.2
		c1.1-0.5,2.2-0.9,3.2-1.4c0.9-0.4,2-0.1,2.8-0.8c1.3,0.7,2.9,0.1,4.1,1.2c0.4,0.4,1,0.4,1.4,0.8c0.4,0.4,0.9,0.5,1.6,0.6
		c0,0.4,0,0.7,0,1.1c0,0.3,0,0.6,0,0.9c-0.5,0.4-1,0.9-1,1.6c-0.1,0.6-0.5,1.1-0.9,1.7c-0.3,0.4-0.8,0.4-1.2,0
		c-0.1-0.1-0.2-0.3-0.3-0.5c-0.6-0.8-1.4-1-2.2-0.8c-0.9,0.2-1.9,0.4-2.6,0.9c-1.1,0.8-2.6,1.2-3.3,2.5c-0.6,0.4-1.2,0.9-1.9,1.2
		c-0.5,0.2-1,0.5-1.3,0.9c-1.1,1.6-2.4,3.1-2.5,5.2c0,0.7-0.4,1.4-0.3,2.2c0,0.7-0.1,1.4-0.3,2c-0.4,1.3-0.3,2.6-0.2,3.9
		c0.1,2,0.2,3.9,0.3,5.9c0,0.2,0,0.5,0.1,0.7c0.7,2.4,1.4,4.7,2.1,7.1c0.2,0.5,0.3,1,0.5,1.6c0.2,0.7,0.6,1.3,1.1,1.7
		c1.9,1.6,4.1,2.5,6.6,2.4c0.3,0,0.7,0,0.9-0.4c0-0.1,0.2-0.2,0.3-0.2c0.8,0.1,1-0.4,1.3-0.9c0.1-0.2,0.2-0.4,0.3-0.5
		c1-1.1,1.2-2.4,1.5-3.7c0.4-2,0.7-3.9,0.4-6c-0.1-0.9,0-1.8,0-2.6C468.1,127.6,468.2,127.3,468.3,126.9z"/>
	<path class="st0" d="M368.5,77.4c-0.2,0.5-0.5,0.8-1.1,0.8c-0.5,0-1,0.2-1.4,0.3c-1.6,0.5-2.9,0.5-4.6,0.1
		c-0.3-0.4-0.4-0.8-0.2-1.2c0.6-1.4,0.2-2.9,0.2-4.4c0-0.6-0.1-1.2-0.2-1.8c-0.1-1.1-0.3-2.1-0.4-3.2c-0.2-1.4-0.3-2.7-0.5-4.1
		c-0.2-1.2-0.4-2.3-0.5-3.5c-0.1-1.1-0.3-2.2-0.3-3.3c0-1.7-0.2-3.3-0.4-5c-0.2-3-0.5-6.1-0.7-9.1c-0.1-0.8,0.1-1.6,0.1-2.4
		c-0.4-3.5,0-7-0.3-10.5c-0.1-0.8-0.2-1.6-0.4-2.3c-0.4-1.5-0.8-3-1.2-4.4c-0.2-0.5-0.1-1.1-0.2-1.6c-0.2-1.2-0.3-2.3-0.6-3.5
		c-0.3-1,0-1.6,0.9-2.2c1.4,0.5,2.9-0.5,4.4-0.2c0.7,0.6,0.8,1.3,0.7,2c-0.2,1.9,0.1,3.7,0.3,5.6c0.1,0.6,0.1,1.2,0.1,1.8
		c0,1.9,0,3.8,0.3,5.7c0.3,1.8,0.3,3.6,0.6,5.4c0.3,2,0.4,4.1,0.8,6.1c0.2,1.2,0.2,2.4,0.3,3.6c0,0.5,0.2,1.1,0.2,1.6
		c0,1.6,0.3,3.2,0.5,4.8c0.2,1.6,0.3,3.1,0.4,4.7c0.1,0.7,0.1,1.4,0.3,2c0.5,2.7,0.6,5.4,1.1,8c0.1,0.4,0.1,0.9,0.3,1.3
		c0.2,0.5,0.1,1,0.2,1.4c0.1,1.4,0.3,2.7,0.6,4.1C367.8,75.4,368.2,76.4,368.5,77.4z"/>
	<path class="st0" d="M401.2,152.9c-1.5-0.2-2.9-0.4-4.3-0.5c-0.4-0.4-0.5-0.9-0.5-1.4c0.1-1.9,0-3.7-0.3-5.6c-0.1-0.6,0-1.2,0-1.8
		c-0.2-1.9-0.2-3.9-0.7-5.8c-0.2-0.7-0.2-1.4-0.3-2c-0.1-0.6-0.3-1.2-0.3-1.9c-0.1-0.8-0.2-1.7-0.2-2.5c0-2.1,0-4.1-0.2-6.2
		c-0.1-1.3-0.1-2.6-0.1-3.8c0-0.6-0.1-1.3-0.1-1.9c0-0.5-0.1-1-0.1-1.5c0-1.6-0.3-3.1-0.5-4.7c-0.3-2.2-0.6-4.5-0.9-6.7
		c-0.2-1.1-0.4-2.2-0.6-3.3c0-0.1-0.1-0.3-0.1-0.4c0.2-1,0.2-2.2,0.8-3.1c1.1,0.2,2.2,0.5,3.3,0.7c0.6,0.1,1.1,0.3,1.7,0
		c0.4-0.1,0.7,0.1,0.8,0.5c0.1,0.3,0.2,0.7,0.2,1c0.1,1.5,0.2,2.9,0.2,4.4c0,0.3,0,0.7,0,1c0.4,1.7,0.2,3.4,0.3,5.1
		c0.1,1.5,0.2,3,0.3,4.6c0.1,0.8,0.3,1.5-0.2,2.2c0,1.2-0.1,2.5-0.1,3.7c0.1,1.7,0.4,3.3,0.6,4.9c0.3,2.4,0.3,4.9,0.6,7.3
		c0.3,2.3,0.3,4.5,0.3,6.8c0,0.2,0,0.4,0,0.6c0.4,2.9,0.6,5.9,0.8,8.8C401.8,152.1,401.8,152.1,401.2,152.9z"/>
	<path class="st0" d="M474.7,126.2c-0.4-0.4-0.9-0.6-1.4-0.4c-2.1,0.5-4.3,0.2-6.5,0.2c-0.6,0-1.2-0.1-1.7-0.3
		c-2-0.4-3.9-0.3-5.8,0.4c-0.3-0.2-0.6-0.4-1-0.6c0.3-1.5-0.6-2.9-0.2-4.5c0.9-0.3,1.9-0.3,2.8-0.5c0.5-0.1,1.1-0.2,1.6-0.4
		c0.8-0.3,1.7-0.5,2.6-0.5c2.1,0,4.1,0,6.2,0c0.5,0,1-0.1,1.5-0.1c0.9-0.1,1.7-0.2,2.6-0.4c0.8-0.1,1.6,0.3,2.5,0.1
		c0.6-0.1,1.1,0.4,1.3,1c0.4,1.5,0.9,3,0.9,4.6c0.1,2.2,0.3,4.3,0.6,6.5c0.3,1.7,0.4,3.4,0.6,5.1c0.2,1.6,0.4,3.2,0.9,4.8
		c0.1,0.3,0.2,0.6,0.2,0.9c0,1.6,0.6,3.1,1,4.6c0.2,0.6,0.5,1.2,0.5,1.8c0,0.2,0,0.4-0.1,0.6c-0.7,0.9-1.3,1.8-2.6,2
		c-0.8,0.1-1.5,0.4-2.3,0.4c-0.6,0-1.3-0.1-1.8-0.3c-0.6-0.2-0.8-0.8-0.7-1.4c0.3-2.3,0.2-4.7-0.1-7c-0.1-0.7,0.1-1.4-0.1-2.1
		c-0.3-2.1-0.2-4.2-0.2-6.3c0-1.6-0.3-3.2-0.6-4.8C475.2,128.4,475,127.3,474.7,126.2z"/>
	<path class="st0" d="M238.5,238.1c-0.9,0-1.5-0.1-2-0.1c-0.1-0.1-0.2-0.2-0.2-0.3c-0.1-2.6-0.6-5.3-0.5-7.9c0-0.9-0.1-1.8-0.2-2.6
		c0-1.1-0.2-2.2-0.1-3.4c0.1-0.5-0.1-1-0.1-1.4c-0.1-1.4-0.2-2.7-0.3-4.2c-0.8-0.2-1.6-0.5-2.4-0.4c-2.1,0.2-4.2,0.3-6.3,0.5
		c-0.9,0.1-1.8,0.2-2.6,0.3c-0.2,0-0.4,0.1-0.6,0.1c-0.7,0-1-0.2-1.2-0.9c-0.4-1.9-0.8-3.8-1.3-5.7c-0.2-0.6,0-1.1,0.2-1.6
		c0.1-0.2,0.5-0.4,0.7-0.3c1.2,0.3,2.4,0.2,3.6-0.1c0.3-0.1,0.6,0,0.9,0c1.6,0,3.1,0,4.7-0.3c1.2-0.2,2.4,0,3.5,0.1
		c0.8,0.1,1.6,0.2,2.3,0.3c0.2,0,0.5,0,0.7,0c0.2,0,0.4-0.1,0.6-0.1c1.3,0,2,0,1.8,1.7c0,0.4,0,0.9,0.1,1.3c0.2,1.3,0.2,2.6,0.1,4
		c-0.1,1.3-0.1,2.5-0.1,3.8c0,0.3,0.1,0.7,0.2,1c0.4,1.8,0.3,3.6,0.4,5.4c0,1.8,0.2,3.6,0.4,5.4c0.1,0.4,0,0.9,0,1.3
		c0,0.5,0,1,0,1.5c0,0.4,0,0.8,0,1.2c-0.1,0.5-0.4,0.9-1,1C239.2,237.5,238.8,237.8,238.5,238.1z"/>
	<g>
		<path class="st0" d="M145,162.3c0.7-0.2,1.1-0.7,1.5-1.1c0.3-0.3,0.5-0.7,0.8-1.1c0.6-0.6,0.8-1.3,0.8-2.1c0-1.2,0.6-2,1.6-2.6
			c0-0.3-0.3-0.6-0.1-1c0.5-1,0.9-1.9,1.2-3c0.1-0.3,0.3-0.6,0.5-0.9c0.3-0.3,0.3-0.7,0.3-1.1c0-0.6,0.2-1.1,0.2-1.7
			c0-0.3,0.1-0.5,0.4-0.7c0.1-0.1,0.3-0.3,0.3-0.4c-0.2-0.7,0.3-1.1,0.8-1.6c-0.5-0.6-0.4-1.3-0.4-1.9c0-0.6,0-1.3,0-1.9
			c1.1-0.1,1.3,0.1,1.4,1c0.1,1.3-0.2,2.4-0.6,3.6c-0.2,0.6-0.5,1.1-0.6,1.6c-0.1,0.2,0,0.4,0,0.6c0.5-0.2,0.7-0.7,0.8-1
			c1.1-2.9,2.2-5.8,2.9-8.8c0.8-3.7,1.6-7.5,1.8-11.3c0.1-2,0.2-4,0-6c-0.1-1.5-0.2-2.9-0.3-4.4c0-0.3,0-0.8,0.1-1
			c0.8-0.8,0.5-1.7,0.5-2.7c-0.9-0.6-2-0.6-3-0.8c-0.7-0.1-1.5-0.2-2.2-0.3c-1.1-0.2-2.2-0.3-3.4-0.3c-1,0-2.1-0.2-3.1-0.3
			c-1.4-0.1-2.8-0.1-4.1-0.1c-0.2,0-0.5,0-0.7,0c-2.9-0.2-5.7-0.2-8.6-0.2c-1.8,0-3.5-0.2-5.3-0.2c-1.5,0-2.9,0.2-4.4,0.3
			c-1.4,0-2.8,0.1-4.1-0.1c-1.6-0.2-3,0-4.5,0.3c-0.2,0-0.4,0.1-0.6,0.1c-0.4,0-0.7-0.1-0.8-0.5c-0.1-0.3-0.1-0.7,0.1-1
			c0.1-0.2,0.3-0.2,0.4-0.4c0.2-0.2,0.3-0.3,0.5-0.5c0.7-1.1,0.8-1.1,2.1-1c0.8,0.1,1.6,0,2.4,0c0.1-0.4-0.1-0.5-0.4-0.4
			c-0.6,0.2-1.2,0.2-1.7-0.1c-0.3-0.1-0.5-0.3-0.5-0.6c0-0.4,0.2-0.7,0.6-0.8c0.4-0.1,0.8-0.1,1.2,0c0.3,0,0.7,0.1,1,0.1
			c0.1-0.5-0.1-0.6-0.4-0.7c-0.4-0.1-0.8,0-1.2-0.1c-0.7-0.1-0.9-0.3-0.8-1.1c0-0.1,0.1-0.2,0.1-0.4c0.4-0.1,0.8-0.1,1.2-0.2
			c0.2-0.6,0-1.4,0.8-1.8c-0.8-0.1-1.5-0.3-2.1-0.2c-0.6,0-1.1-0.2-1.4-0.7c-0.3-0.5-0.6-0.8-1.1-1c-0.2-0.1-0.3-0.3-0.4-0.6
			c-0.1-0.3,0.1-0.6,0.4-0.7c0.5-0.1,1-0.3,1.6-0.3c0.4,0,0.8-0.1,1.1-0.5c-0.9-0.2-1.8-0.4-2.7-0.6c-0.2-0.1-0.4-0.2-0.6-0.4
			c-0.2-0.3-0.1-0.9,0.3-1c1-0.4,1.8-0.9,3-0.7c2.5,0.6,5.1,1,7.6,1.7c1.3,0.3,2.6,0.7,4,1c-1.1-0.5-2.3-1-3.5-1.3
			c-2.2-0.7-4.4-1.5-6.6-2.2c-0.9-0.3-1.8-0.6-2.7-0.8c-0.6-0.2-1.2-0.3-1.4-1.1c-0.1-0.4-0.5-0.5-0.8-0.5c-0.3-0.1-0.6,0-0.9,0
			c-0.6-0.1-1-0.6-0.8-1.2c0.2-0.6,0-1.4,0.8-1.8c3.3,0.3,6.6,1,9.8,1.8c1.6,0.4,3.2,0.6,4.7,1.3c0.4,0.2,0.9,0.2,1.3,0.3
			c1.3,0.1,2.6,0.6,3.9,0.9c0.6,0.1,1.1,0.2,1.7,0.3c0.2,0,0.4,0,0.6,0.1c2.3,1,4.8,1.5,7.2,2.3c1,0.3,2,0.5,3,0.9
			c1.6,0.5,3.2,1.1,4.7,1.6c1.7,0.6,3.5,1.1,5.2,1.7c0.6,0.2,1.3,0.4,2,0.7c0-0.3,0-0.6-0.1-0.8c-0.7-2.4-1.1-4.9-1.7-7.3
			c-0.6-2.4-1-4.9-2.4-7.1c-0.2-0.4-0.4-0.8-0.5-1.2c-0.3-0.8-0.7-1.6-1.2-2.3c-1-1.5-2.1-3-3.1-4.5c-0.9-1.5-1.8-3.1-2.7-4.6
			c-0.2-0.4-0.5-0.9-0.7-1.3c-1.1-1.5-2.1-3.1-3.2-4.6c-0.6-0.8-1.3-1.5-1.9-2.3c-0.3-0.4-0.7-0.8-1-1.3c-0.5-0.8-1-1.4-1.9-1.8
			c-0.4-0.2-0.8-0.6-1-1c-0.5-0.9-1.1-1.7-1.9-2.4c-0.2-0.2-0.2-0.5-0.4-0.7c-1.2-1.3-2.4-2.6-3.6-3.9c-0.7-0.7-1.7-1.2-2.5-1.8
			c-0.4-0.3-0.7-0.5-1-0.9c-1.6-1.7-3.6-2.9-5.4-4.3c-1.1-0.2-1.6-1.3-2.6-1.6c-0.5-0.2-0.7-0.9-1.4-1c-1-1.1-2.5-1.3-3.7-2.2
			c-0.2-0.2-0.6-0.2-0.9-0.3c-0.5-0.4,0-0.9-0.1-1.4c-0.8-0.7-1.8-1-2.8-1.3c-1.7-0.5-3.3-1.2-5-1.8c-0.8-0.3-1.6-0.4-2.4-0.7
			c-0.8-0.2-1.7-0.4-2.5-0.8c-1-0.4-1.9-0.7-2.9-1c-1.1-0.2-2.2-0.5-3.2-1.1c-0.6-0.4-1.4-0.5-2.1-0.7c-1.6-0.5-3.2-0.9-4.8-1.4
			c-1.1-0.3-2.3-0.6-3.5-0.5c-0.4,0-0.9-0.1-1.3-0.1c-2-0.3-4.1-0.5-6.1-0.8c-2.5-0.3-5-0.3-7.5-0.4c-0.7,0-1.5,0.1-2.2,0.3
			c-2.1,0.5-4.2,0.8-6.2,1.5c-1,0.3-2,0.4-2.9,1c-1.7,0.2-3.1,1.1-4.7,1.7c-0.7,0.3-1.3,0.7-1.8,1.2c0.4,0.9,1.1,1.5,1.7,2
			c0.9,0.8,1.9,1.6,2.9,2.2c1.1,0.6,1.9,1.5,2.8,2.3c0.6,0.6,1.2,1.2,1.9,1.6c1,0.6,1.9,1.3,2.6,2.2c1.4,1.8,3.2,3,4.7,4.6
			c1,1,2,2,2.9,3.1c0.3,0.3,0.4,0.9,0.5,1.3c-0.9,1.1-1,1.1-2.2,0.2c-0.4,0.4-0.6,0.9-1.2,1.1c-4.6,1.5-9,3.4-13.4,5.4
			c-1.2,0.5-2.4,1-3.6,1.5c-0.6,0.2-0.6,0.2-1.4,1.1c-0.3-0.1-0.7-0.1-1.1-0.2c-0.4-0.1-0.7-0.4-0.7-0.9c0-0.3,0.2-0.7,0.7-0.8
			c0.5-0.2,1-0.3,1.5-0.4c2.5-0.7,4.8-2.1,7.2-3c0.8-0.3,1.6-0.8,2.4-1.2c-0.7-2.1-1.6-4-2.8-5.8c-1.1-1.7-2-3.4-2.7-5.2
			c-0.5-1.3-1.3-2.4-2-3.6c-1-1.6-2-3.1-3-4.7c-0.3-0.4-0.6-0.9-1.1-1.2c-0.7-0.5-1-1.3-1.7-1.7c-0.2-0.1-0.2-0.6-0.4-0.9
			c1-1.1,2-2.1,3-3.1c0.5-0.5,1.2-1,1.8-1.2c2-0.8,3.8-1.9,5.7-2.9c1.3-0.7,2.7-1,4.1-1.6c1-0.4,1.9-0.7,2.9-1
			c1.1-0.3,2-0.8,3.2-0.9c1.3,0,2.5-0.4,3.8-0.6c1.7-0.2,3.4-0.1,5.2,0c0.8,0.1,1.7,0.2,2.5,0.2c0.8-0.1,1.5,0.3,2.3,0.1
			c0.2-0.1,0.5,0,0.7,0.1c0.6,0.4,1.3,0.4,2,0.4c1.6,0.2,3.1,0.1,4.7,0.3c1.8,0.2,3.5,0.5,5.2,0.9c1,0.2,2,0.7,3,1.1
			c2,0.8,4.1,1.5,6,2.4c2,1,3.9,2.2,5.8,3.2c1.7,0.9,3.3,1.7,5.1,2.3c0.5,0.1,1.1,0.2,1.6,0.3c0.2-0.3,0.3-0.5,0.6-0.9
			c1.3,0.3,2.5-0.2,3.7-0.8c2-0.9,4-1.9,6-2.8c2.3-1,4.6-1.9,6.7-3.3c1.5-1,2.9-2,4.4-3c1.9-1.3,3.6-2.8,5.4-4.2
			c3.1-2.5,6.2-5,9.3-7.5c0.5-0.4,1-0.9,1.5-1.4c0.9-1,1.8-2,2.7-2.9c0.5-0.5,1.1-0.9,1.5-1.4c0.6-0.7,1.1-1.5,1.7-2.2
			c0.2-0.2,0.3-0.5,0.6-0.7c1.1-0.8,1.8-1.9,2.6-3c0.1-0.1,0.2-0.2,0.3-0.3c0.4-0.4,1.1-0.2,1.3,0.4c0.1,0.3,0.1,0.6,0.2,0.8
			c-1.1,2.1-2.1,4.2-2.8,6.5c-0.5,1.7-1.1,3.4-1.8,5c-0.6,1.4-1.1,2.8-1.5,4.3c-0.4,1.7-1,3.3-1.6,4.9c-0.9,2.3-1.6,4.7-2.3,7.1
			c-0.1,0.5-0.2,1-0.4,1.4c-0.3,1.1-0.6,2.2-0.5,3.3c0,0.5-0.1,1-0.1,1.5c-0.1,0.7-0.2,1.5-0.2,2.2c-0.1,2-0.2,3.9-0.2,5.9
			c0,0.6,0.1,1.3,0.2,1.9c0.3,3.1,0.8,6.2,1.7,9.3c0.9,3.1,1.6,6.3,2.7,9.3c0.8,2.3,1.8,4.5,2.6,6.7c0.4,1.1,0.9,2.2,1.3,3.3
			c0.5,1.2,0.9,2.4,1.4,3.6c0.2,0.6,0.4,1.1,0.6,1.7c0.1,0.3,0.2,0.7,0.3,1c1.4,2.4,1.9,5.1,2.4,7.7c0.2,1.1,0.4,2.1,0.5,3.2
			c0.4,2.2,0.6,4.5,0.4,6.7c0,0.5,0.1,1.1,0.2,1.6c0.1,0.7,0,1.3-0.6,1.7c-0.4,0.3-0.9,0.3-1.1-0.1c-0.3-0.4-0.4-0.9-0.4-1.4
			c0-1.1,0-2.2,0-3.3c0.1-1.6-0.1-3.1-0.3-4.7c-0.3-1.9-0.6-3.8-1-5.7c-0.4-1.6-1-3.1-1.5-4.6c-0.8-2-1.6-4-2.4-6
			c-0.7-1.6-1.3-3.3-2-4.9c0-0.1-0.2-0.2-0.4-0.3c-0.1,0.4-0.1,0.8-0.2,1.2c-0.2,0-0.3,0.1-0.4,0c-0.3-0.1-0.5-0.2-0.8-0.4
			c-1.4-1.2-3-1.9-4.6-2.5c-0.3-0.1-0.6-0.3-0.7-0.6c-0.2-0.5,0-0.8,0.4-0.9c0.6-0.1,1.2-0.1,1.7,0.3c0.9,0.6,1.9,1.1,2.8,1.6
			c0.5,0.3,1.1,0.6,1.9,1.1c-0.2-0.7-0.3-1.1-0.5-1.6c-0.2-0.5-0.4-0.9-0.5-1.4c-0.9-2.5-1.9-5-2.5-7.5c-0.4-1.7-1-3.3-1.4-5
			c-0.7-2.9-1.2-5.9-1.5-8.9c-0.3-3,0-5.9,0.1-8.8c0-1.8,0.3-3.6,0.6-5.4c0.1-0.7,0.4-1.3,0.6-2c0.4-1.6,0.8-3.2,1.3-4.7
			c0.6-1.7,1.3-3.4,1.9-5.1c0.2-0.6,0.5-1.1,0.6-1.7c0.4-2,1.1-3.9,1.9-5.8c0.7-1.6,1.2-3.2,1.8-4.8c0.2-0.5,0.4-0.9,0.2-1.4
			c-0.1,0-0.2,0-0.3,0.1c-1.6,2-3.6,3.6-5.1,5.6c-0.4,0.6-1,0.9-1.5,1.4c-1.8,1.7-3.8,3.2-5.9,4.7c-0.7,0.5-1.4,1-2,1.6
			c-1.6,1.5-3.6,2.6-5.1,4.2c-0.1,0.1-0.3,0.3-0.4,0.4c-1.7,0.9-3.1,2.2-4.7,3.3c-1.7,1.1-3.5,2.1-5.4,2.9c-1.1,0.5-2.3,0.9-3.4,1.4
			c-1.6,0.7-3.2,1.4-4.6,2.3c-1.3,0.8-2.8,1.3-4.2,1.7c-0.3,0.1-0.5,0.2-0.6,0.5c-0.1,0.2-0.3,0.4-0.4,0.6c2.2,1.4,4.4,2.9,6.5,4.5
			c2.2,1.7,4.3,3.4,6.2,5.5c0.9,0.9,1.7,1.9,2.6,2.8c0.7,0.7,1.5,1.3,2.1,2c1.1,1.2,2.1,2.5,3.2,3.7c2.1,2.5,4.1,5.2,5.9,7.9
			c0.7,1,1.6,2,2.4,3c1.9,2.4,3.6,4.9,5.1,7.6c1.1,1.9,2.1,3.8,3.5,5.6c0.8,1,1.5,2.2,2.2,3.3c0.5,0.9,0.8,2,1.2,3
			c0.1,0.3,0.2,0.6,0.3,0.8c0.4,0.6,0.6,1.2,0.8,1.9c0.5,2,1,3.9,1.5,5.8c0.4,1.4,0.6,2.8,0.9,4.2c0.2,1,0.5,2.1,0.9,3.3
			c0.9,0.7,2.2,1,3.4,1.4c1,0.4,2,0.8,3,1.2c1.6,0.6,3.1,1.3,4.6,1.9c1,0.4,2,0.9,3,1.4c2.6,1.2,5,2.7,7.9,3.2
			c0.3,0.1,0.9,0.2,0.9,0.8c0.1,0.7,0.5,1,1,1.4c0.6,0.4,1.2,0.8,1.8,1.1c1.6,0.8,3.2,1.5,4.8,2.3c1.1,0.6,2.2,1.4,3.2,2
			c0.2,0.2,0.5,0.4,0.7,0.6c0.3,0.3,0.4,0.6,0.2,0.9c-0.2,0.3-0.5,0.5-0.9,0.4c-0.3,0-0.6-0.2-0.8-0.3c-2.2-1-4.5-1.6-6.9-2.1
			c-1.1-0.2-2.2-0.6-3.3-0.5c-0.2,0-0.4,0-0.6-0.1c-2.4-0.9-5-1-7.5-1.6c-2-0.4-4.1-0.7-6.1-1.1c-2.1-0.4-4.1-0.9-6.2-1.3
			c-0.2,0-0.5-0.1-0.8-0.1c0,1.4-0.2,2.8,0,4.1c0.2,1.7,0.1,3.4,0,5.1c-0.2,1.8-0.4,3.5-0.6,5.3c-0.2,2.6-0.7,5.2-1.3,7.7
			c0,0.2-0.1,0.4-0.1,0.6c-0.2,2.4-1,4.6-1.7,6.8c-0.9,2.8-2.2,5.5-3.2,8.3c-0.8,2-1.8,3.9-2.9,5.8c-0.5,0.8-0.9,1.6-1.3,2.4
			c-0.6,1.3-1.5,2.5-2.5,3.6c-0.6,0.6-1.3,1.2-2,1.7c-0.6,0.4-1.3,0.6-1.8,1.2c-0.3,0.3-0.8,0.1-1-0.3c-0.3-0.6-0.4-1.3,0-1.8
			c1.2-1.5,1.6-3.4,2.4-5.1c0.4-0.9,0.8-1.8,1-2.8c0.5-1.8,1-3.6,1.3-5.4c0.3-1.3,0.4-2.7,0.6-4.1c0-0.4,0.1-0.8,0.1-1.2
			c0.1-2.2,0.2-4.3,0.2-6.5c0-2.2-0.1-4.4-0.3-6.6c-0.1-0.9-0.3-1.7-0.5-2.6c-0.3-1.5-0.5-3-0.6-4.5c-0.1-1.3-0.4-2.7-0.6-4.1
			c0-0.3-0.1-0.6-0.1-0.9c0.1-2.4-0.8-4.4-2-6.4c-0.1-0.1-0.1-0.2-0.2-0.2c-0.3-0.5-0.3-1,0-1.2c0.4-0.3,0.8-0.4,1.2-0.2
			c0.3,0.2,0.7,0.5,0.8,0.8c0.5,0.8,0.8,1.7,1.3,2.5c0.6,1.1,0.9,2.3,0.8,3.5c0,1.2,0.1,2.5,0.3,3.7c0.2,1.7,0.4,3.3,0.6,5
			c0.1,1,0.4,1.9,0.6,2.9c0.1,0.5,0.2,1.1,0.2,1.6c0,2.1,0.1,4.1,0.1,6.2c0,0.5,0,1.1,0,1.6c0.1,2.7-0.1,5.3-0.4,7.9
			c-0.2,1.8-0.5,3.5-0.9,5.2c-0.4,1.7-0.9,3.3-1.6,4.9c-0.6,1.4-1.2,2.8-1.8,4.2C145,162,145,162.2,145,162.3z M142.9,98.6
			c-0.5-0.2-1-0.4-1.5-0.5c-0.6-0.2-1.2-0.3-1.8-0.4c-0.2-0.1-0.5-0.1-0.7-0.1c1,0.5,2.1,0.8,3.2,1.1
			C142.3,98.6,142.6,98.5,142.9,98.6c1.2,0.6,3.8,1.2,4.8,1.2c0,0,0-0.1-0.1-0.1c-0.9-0.2-1.8-0.5-2.7-0.7
			C144.2,98.7,143.6,98.5,142.9,98.6z M158.5,106.5c-0.7-0.9-1.7-0.8-2.4-1.2c-0.8-0.4-1.7-0.6-2.5-0.9c-0.8-0.3-1.6-0.5-2.4-0.7
			c1.1,0.6,2.3,1.1,3.5,1.5C155.9,105.6,157,106.4,158.5,106.5z M169.3,110c-0.6-0.3-0.9-0.5-1.3-0.7c-1.9-0.6-3.7-1.1-5.6-1.6
			c0.6,0.5,1.2,0.8,1.9,1c1.4,0.5,2.9,0.9,4.4,1.3C168.8,110.1,168.9,110,169.3,110z"/>
		<path class="st0" d="M63.6,223.3c-0.4,0.2-0.8,0.3-1.3,0.4c-1.3,0.4-2.6,0.9-3.9,1.3c-1.4,0.4-2.7,0.8-4.1,1.1
			c-3.2,0.6-6.5,1.4-9.8,1.3c-1,0-2,0-2.9,0c-3.6,0.2-7.1-0.8-10.7-1.1c-1.4-0.1-2.9-0.1-4.3,0c-2.4,0.2-4.7,0.6-7,1.2
			c-1.4,0.3-2.7,0.9-4,1.6c-2.2,1.1-4.4,2.2-6.5,3.4c-0.1,0-0.2,0.1-0.3,0.1c-1.6,1.2-3.4,2.1-4.9,3.6c0.4,1.8-1,2.5-2.1,3.3
			c-0.4,0.3-0.8,0.1-1.2-0.2c-0.4-0.3-0.7-0.7-0.5-1.1c0.3-0.9,0.4-1.8,0.9-2.7c0.8-1.4,1.5-3,2.2-4.5c0.1-0.2,0.1-0.4,0.2-0.5
			c1-1.3,1.7-2.9,2.5-4.3c0.1-0.1,0.2-0.2,0.2-0.4c0.4-1.4,1.2-2.6,1.9-3.8c0.8-1.3,1.5-2.6,2.3-4c-0.3-0.8,0-1.6,0.7-2.2
			c0.7-0.6,1.3-1.3,2-1.9c0.3-0.3,0.7-0.7,1-1.1c0.1-0.1,0.1-0.2,0.1-0.3c1.2-0.8,1.8-2.1,2.8-3c0.4-0.3,0.8-0.8,1.1-1.2
			c1.1-1.2,2.4-2.1,3.7-2.9c2-1.4,4-2.6,6.1-4c0.9-0.6,1.7-1.2,2.5-1.8c1.3-1,2.8-1.6,4.2-2.4c1.9-1,3.8-2,5.8-3
			c1.2-0.6,2.4-1.1,3.7-1.5c3.6-1.2,7.1-2.7,10.7-3.8c2.7-0.8,5.4-1.5,8.2-2.1c2.7-0.6,5.5-0.9,8.4-1c2.9-0.1,5.7,0,8.5,0.2
			c0.3,0,0.7,0.1,1,0.1c0.2,0,0.4,0.1,0.5,0.2c0.4,0.2,0.6,0.7,0.5,1.2c-0.1,0.4-0.5,0.7-1,0.7c-0.9-0.1-1.7-0.3-2.6-0.4
			c-1-0.1-2.1-0.2-3.1-0.3c-2.1,0-4.2,0-6.3,0.1c-0.7,0-1.4,0.2-2,0.3c-1.5,0.3-3,0.6-4.5,0.9c-5.3,1.1-10.5,2.7-15.5,4.8
			c-1.2,0.5-2.4,0.9-3.6,1.4c-1.8,0.8-3.7,1.7-5.5,2.6c-1.3,0.6-2.5,1.3-3.8,2.1c-1.8,1.1-3.7,2.3-5.5,3.5c-2.1,1.4-4.3,2.9-6.4,4.3
			c-0.6,0.4-1.2,0.9-1.7,1.4c-1,1.1-2.1,2-2.8,3.4c-0.3,0.5-0.8,0.8-1.3,1.2c-0.4,0.3-0.7,0.6-0.5,1.2c0.1,0.4,0,0.7-0.3,0.9
			c-0.3,0.3-0.6,0.7-0.9,1c-0.9,0.6-1.5,1.4-2,2.3c-0.6,0.9-1.4,1.7-2,2.7c-0.9,1.4-1.6,2.9-2.3,4.4c-0.6,1.4-1.5,2.8-2.2,4.2
			c-0.3,0.6-0.6,1.2-0.9,1.8c0,0.1,0,0.2,0.1,0.4c0.3-0.2,0.5-0.3,0.7-0.4c1.3-1,2.8-1.7,4.2-2.4c0.1-0.1,0.3-0.1,0.4-0.2
			c2.3-1.5,4.8-2.4,7.3-3.5c1.3-0.6,2.7-0.8,4.1-1.1c1.1-0.2,2.1-0.4,3.2-0.5c2.5-0.3,5-0.2,7.5,0.1c2.4,0.4,4.8,0.9,7.2,0.9
			c2.5,0,4.9,0.1,7.4-0.2c1.7-0.2,3.4-0.3,5.1-0.7c2.1-0.5,4.3-1,6.4-1.6c1.9-0.6,3.8-1.2,5.6-2.2c0.3-0.1,0.5-0.2,0.8-0.3
			c0.7-0.2,1,0.1,1,0.8c0,0.8-0.1,0.9-1.4,1.5c0.9,0.9,1.4,2.1,1.8,3.3c0.4,1,0.7,2.1,1,3.2c0.6,2.2,1.2,4.3,1.8,6.5
			c0.2,0.5,0.3,1,0.4,1.6c0.5,2.2,1,4.4,1.5,6.6c0.3,1.5,0.4,3,0.4,4.5c0,1.2,0,2.5-0.1,3.7c-0.2,2.4-0.4,4.8-0.8,7.2
			c-0.4,2.5-1.2,4.9-2.1,7.2c-0.5,1.2-0.8,2.4-1.3,3.6c-0.9,2.2-1.8,4.5-2.9,6.6c-0.8,1.7-1.8,3.4-2.6,5.1c-0.1,0.2-0.2,0.3-0.2,0.5
			c0.3,0.3,0.5,0.2,0.7,0c0.9-0.6,1.7-1.2,2.6-1.7c0.8-0.5,1.6-1,2.3-1.5c0.4-0.2,0.8-0.5,1.1-0.7c1-0.7,1.9-1.3,3-1.8
			c0.8-0.3,1.5-0.8,2.1-1.3c1.9-1.4,3.8-2.8,5.6-4.4c1.5-1.2,2.8-2.6,4.1-4c0.6-0.6,0.9-1.5,1.3-2.3c0.2-0.3,0.1-0.8,0.1-1.1
			c0-0.4,0-0.8,0.4-1.1c0.2,0,0.5,0,0.9,0c0.5-1,1.1-2,1.3-3.1c0.1-0.5,0.3-0.9,0.7-1c0.7-0.2,0.9-0.8,1.2-1.2
			c1.3-1.9,2.5-3.9,3.4-6c1.1-2.7,2.4-5.4,2.9-8.4c0.2-1.2,0.7-2.3,0.9-3.4c0.5-2,1.1-4,1.4-6c0.1-0.8,0.2-1.6,0.3-2.3
			c0.5-3.7,0.2-7.4-0.5-11c-0.8-4.2-2.2-8.2-3.5-12.2c-0.4-1.2-1.1-2.2-2-3c-0.3-0.3-0.3-0.6-0.1-0.9c0.5-0.7,1.3-0.8,1.9-0.1
			c1,1.2,1.7,2.5,2.2,4c0.6,1.9,1.3,3.8,1.8,5.7c0.5,1.6,0.9,3.3,1.3,5c0.2,0.7,0.3,1.4,0.5,2c0.5,1.8,0.6,3.6,0.5,5.4
			c0,1.9,0.1,3.8-0.2,5.8c-0.4,2.6-1.1,5.1-1.8,7.6c-0.5,1.8-1,3.5-1.3,5.3c-0.1,0.8-0.5,1.6-0.8,2.4c-0.7,1.8-1.3,3.7-2.2,5.5
			c-0.9,1.8-1.9,3.6-2.9,5.3c-1.1,1.7-2,3.6-3.1,5.4c-1.1,1.9-2,4-3.5,5.6c-0.3,0.4-0.6,0.8-1,1.1c-2.2,2-4.3,4.2-6.8,5.8
			c-0.8,0.5-1.5,1.2-2.2,1.7c-0.9,0.6-1.9,1.2-2.9,1.7c-0.9,0.5-1.8,1-2.6,1.6c-1.4,1-2.8,1.9-4.3,2.8c-1.3,0.8-2.6,1.5-4,2.3
			c-0.7,0.4-1.3,1-1.7,1.8c-0.1,0.3-0.3,0.5-0.5,0.7c-0.4,0.5-0.9,0.5-1.3,0.3c-0.4-0.3-0.5-0.7-0.4-1.2c0.1-0.4,0.3-0.9,0.5-1.2
			c0.5-0.7,1.1-1.3,1.7-2c0-0.3-0.1-0.7,0-1.1c0.2-0.4,0.5-0.8,0.8-1.2c0.7-1,1.4-2,2-3c0.7-1.3,1.4-2.6,1.9-4
			c0.8-1.9,1.7-3.8,2.4-5.7c0.8-2.5,1.9-4.8,2.5-7.4c0.6-2.6,1.1-5.2,1.3-7.8c0.1-1.7,0.2-3.4,0.2-5.1c0-1.6-0.1-3.2-0.6-4.8
			c-0.5-2-0.9-4-1.2-6.1c-0.3-1.5-0.9-2.9-1.2-4.4c-0.4-1.5-0.8-2.9-1.2-4.4c-0.3-0.9-0.7-1.8-1.1-2.8
			C64.3,225.2,64,224.3,63.6,223.3z"/>
		<path class="st0" d="M66,90.6c0.3,0.1,0.5,0.2,0.7,0.3c0.9,0.5,0.9,1.1,0.1,1.7c-0.2,0.2-0.5,0.3-0.7,0.5
			c-0.1,0.1-0.1,0.2-0.2,0.6c0.6-0.4,1.1-0.8,1.7-1.1c0.5-0.3,1.1-0.5,1.7-0.7c0.2,0.4,0.4,0.7,0.6,1c0.3,0.3,0.6,0.4,1,0.7
			c-0.4,0.6-0.8,1.2-1.3,2.1c0.5-0.1,0.8-0.2,1.1-0.3c0.3-0.1,0.6,0,0.8,0.2c0.3,0.3,0.4,0.7,0.1,0.9c-0.3,0.3-0.7,0.5-1.1,0.7
			c-1.4,0.7-2.9,1.3-4.3,2.1c-1.9,1.1-3.7,2.2-5.6,3.3c-1.2,0.7-2.4,1.5-3.9,2.4c0.4,0,0.6,0.1,0.7,0c1.6-0.8,3.2-1.5,4.8-2.3
			c0.6-0.3,1.2-0.6,1.9-0.9c0.6-0.3,1.2-0.5,1.5-1.1c0.1-0.2,0.4-0.4,0.7-0.5c0.4-0.2,0.9-0.4,1.3-0.6c1.1-0.4,2.1-0.8,3.3-1.2
			c0.2,0.2,0.5,0.3,0.6,0.6c0.3,0.5,0.1,0.9-0.3,1.1c-0.9,0.5-1.9,0.9-2.8,1.3c-1.9,0.9-3.7,1.8-5.5,2.7c0,0.5,0.3,0.5,0.5,0.4
			c0.5-0.1,0.9-0.2,1.4-0.3c0.8-1.5,2.2-0.8,3.4-1.1c0.2,0,0.5,0.1,0.6,0.3c0.2,0.3,0.4,0.4,0.7,0.5c0.7,0.3,0.9,0.9,0.4,1.5
			c-0.3,0.4-0.7,0.7-1.2,0.9c-0.7,0.3-1.5,0.6-2.2,0.8c-2.1,0.4-4.1,1.2-6.1,1.8c-3.2,0.9-6.3,1.9-9.5,2.6c-1.6,0.3-3.2,0.7-4.7,1.2
			c-2,0.6-3.9,1.2-5.9,1.9c-1.7,0.6-3.3,1.3-4.9,2c-1.2,0.5-2.5,0.9-3.8,1.3c-2.2,0.7-4.5,1.4-6.7,2.2c-1.6,0.6-3.2,0.8-4.9,1.2
			c-0.7,0.2-1.2,0-1.7-0.5c-0.1-0.1-0.3-0.2-0.5-0.4c-0.7-0.7-0.6-1.1,0.1-1.7c0.9-0.6,1.8-1.2,2.7-1.8c1.5-0.9,2.8-1.9,4.1-3.1
			c1.3-1.2,2.7-2.4,4.2-3.5c1.7-1.2,3.5-2.1,5.3-3.2c0.6-0.4,1.2-0.8,1.9-1.2c1.9-1.3,3.9-2.5,5.8-3.7c1.9-1.2,3.9-2.1,5.9-3
			c1.5-0.7,2.8-1.6,4.3-2.3c1.8-1,3.6-2.1,5.2-3.3c0.8-0.6,1.8-0.8,2.4-1.7c1.9-0.6,3.2-2.2,4.9-3.2c0.3-0.2,0.6-0.3,0.9-0.4
			c0.6-0.2,1,0.2,0.9,0.8C66.4,89.5,66.2,90,66,90.6z M55,100.5c2.5-1,4.9-2.3,7.5-4C61,97,56.8,99.2,55,100.5z M30.6,113.7
			c1.3,0,2.2-0.8,3.2-1.3c-0.5-0.4-0.7-0.5-0.9-0.3c-0.6,0.6-1.3,0.9-2,1.2C30.8,113.4,30.7,113.6,30.6,113.7z"/>
		<path class="st0" d="M109.6,152.3c0.3-0.3,0.7-0.6,1.1-0.9c0.7,0.1,0.9,0.7,0.9,1.5c0,1.8-0.2,3.5-0.7,5.2c-0.3,1.3-0.6,2.7-0.9,4
			c0,0.1-0.1,0.3-0.1,0.4c-0.6,1.1-0.7,2.3-1.4,3.4c-0.2,0.4-0.3,0.8-0.5,1.2c-0.2,0.5-0.4,1-0.7,1.5c-1.5,2.4-2.9,4.9-4.4,7.3
			c-0.1,0.2-0.2,0.3-0.3,0.5c-0.9,1.1-1.9,2.3-2.8,3.4c-1.5,1.8-3.1,3.6-4.9,5.1c-1.6,1.4-3.2,2.8-4.8,4.2c-0.9,0.8-1.9,1.4-2.9,2
			c-0.5,0.4-1,0.7-1.5,1.1c0.2,0.4,0.4,0.2,0.6,0.2c0.1,0,0.3-0.1,0.4-0.2c1.5-1.4,3.5-2,5.2-3.1c0.2-0.1,0.4-0.1,0.5-0.3
			c0.8-0.8,1.9-1.2,2.8-1.9c0.4-0.3,0.9-0.6,1.3-1c0.9-0.7,1.9-1.4,2.8-2.2c0.8-0.7,1.6-1.3,2.1-2.3c0.3-0.6,0.8-1,1.2-1.4
			c0.9-0.8,1.6-1.8,2.3-2.8c0.5-0.7,0.8-1.5,1.2-2.2c0.2-0.4,0.5-0.7,0.8-1.1c0.1-0.1,0.2-0.1,0.2-0.2c0.5-1.7,1.7-2.9,2.4-4.5
			c0.2-0.4,0.3-0.9,0.6-1.3c0.3-0.5,0.8-1,1.2-1.5c-0.2-0.8,0-1.4,0.5-2.1c0.2-0.2,0.7,0,0.5-0.4c-0.1-0.3,0-0.4,0-0.7
			c0.5-1.8,1-3.6,1.4-5.4c0.1-0.5,0.2-1,0.2-1.5c0.1-1.5,0.3-3,0.4-4.5c0-0.6,0.3-0.8,0.8-0.8c0.4,0.2,0.7,0.6,0.6,1.1
			c-0.1,1-0.3,1.9-0.4,2.9c-0.1,0.4-0.3,0.8-0.2,1.1c0.1,1.5-0.4,2.9-0.7,4.4c-0.1,0.4-0.2,0.9-0.3,1.3c-0.1,0.4-0.1,0.9-0.3,1.1
			c-0.5,0.6-0.4,1.3-0.8,1.9c-0.4,0.6-0.6,1.2-0.9,1.9c-0.1,0.3-0.3,0.5-0.3,0.8c-0.1,0.5-0.2,0.9-0.5,1.2c-0.1,0.1-0.2,0.2-0.3,0.4
			c-0.7,1.9-2.1,3.3-2.9,5.1c-0.2,0.4-0.4,0.9-0.6,1.3c0,0.1,0,0.2-0.1,0.3c-1.2,1.4-1.8,3.2-3.1,4.5c-0.3,0.3-0.6,0.7-0.8,1
			c-1.3,1.6-2.7,3.1-4.4,4.2c-0.7,1-2,1.4-2.8,2.3c-0.5,0.5-1.1,0.9-1.7,1.2c-1.1,0.5-2,1.3-3.2,1.8c-1.6,0.7-3,1.8-4.4,3
			c-0.5,0.4-1,0.8-1.6,0.7c-0.7-0.4-0.4-1.1-0.5-1.7c-0.3,0-0.5,0-0.6,0.1c-2.9,1.8-6,3.4-8.4,6.2c0.5,0.1,0.8-0.1,1.1-0.2
			c1.9-0.6,3.9-1.2,5.8-1.7c2.6-0.7,5.3-1.1,8-1.4c4.8-0.6,9.7-1.3,14.4-2.4c3.3-0.8,6.5-1.6,9.6-2.7c1.1-0.4,2.2-1,3.2-1.4
			c0.4-0.2,0.6-0.4,0.8-0.9c0.3-0.8,0.8-1.2,1.7-1.3c0.6-0.1,1.3-0.5,1.8-1c0.7-0.6,1.4-1,2.1-1.6c1.4-1.2,2.8-2.4,4-3.7
			c1.1-1.1,2.2-2.3,2.9-3.7c0.2-0.5,0.7-0.9,1.1-1.1c0.3-0.1,0.6,0,0.7,0.3c0.1,0.5,0.3,1-0.1,1.6c-0.4,0.5-0.7,1.2-1.2,1.6
			c-0.4,0.4-0.8,0.9-1.2,1.3c-0.7,0.8-1.4,1.5-2.1,2.3c-0.5,0.6-1.1,1.1-1.6,1.7c-0.4,0.4-0.9,0.8-1.3,1.2c-0.6,0.5-1.2,0.9-1.6,1.5
			c-0.3,0.3-0.7,0.5-1.1,0.8c-0.7,0.4-1.5,0.8-2.1,1.3c-1.7,1.3-3.7,2.1-5.6,2.8c-2.8,1.1-5.7,1.8-8.6,2.5c-2.4,0.6-4.9,1.1-7.3,1.6
			c-2.9,0.5-5.9,0.8-8.8,1.3c-2.6,0.5-5.2,0.9-7.8,1.5c-2.6,0.7-5.1,1.6-7.6,2.4c-0.4,0.1-0.9,0.1-1.5,0.1c-0.4,0.5-0.9,1-1.4,1.6
			c-0.3,0-0.5,0-0.7,0c-0.7-0.2-0.9-0.8-0.5-1.3c0.6-0.7,1.2-1.5,1.8-2.1c0.9-0.9,1.9-1.8,2.5-3c0.2-0.4,0.7-0.9,1.2-1.1
			c1-0.4,1.9-1.1,2.8-1.6c2-1.2,3.9-2.5,5.9-3.7c2-1.2,3.9-2.7,5.7-4.2c1.6-1.4,3.3-2.8,4.8-4.3c1.7-1.6,3.1-3.4,4.6-5.2
			c1.2-1.5,2-3.1,3-4.7c0.4-0.6,0.9-1.2,1.2-1.8c1.3-2.2,2.5-4.5,3.4-6.9c0.5-1.3,0.9-2.6,1-4c0.1-0.8,0.4-1.5,0.6-2.3
			c0.1-0.5,0.3-1,0.4-1.6C109.7,154.5,109.6,153.4,109.6,152.3z"/>
		<path class="st0" d="M88.1,127.2c-0.1-0.3,0-0.7-0.2-1c-0.4-0.8-0.4-1.8-0.8-2.6c-0.3-0.5-0.3-1.2-0.4-1.9c-0.1-0.3-0.1-0.7-0.2-1
			c-0.6-1.3-0.8-2.8-1.1-4.2c-0.2-1.1-0.5-2.2-0.9-3.3c-0.9-2.7-1.3-5.5-1.6-8.4c-0.3-2.3-0.6-4.7-0.9-7c0-0.1,0-0.2,0-0.3
			c0.2-1.8-0.3-3.5-0.5-5.3c-0.2-1.6-0.3-3.1-0.2-4.7c0.1-1.4,0.1-2.7,0.1-4.1c0-0.4-0.2-0.7-0.3-1.2c0.1-0.2,0.3-0.5,0.4-0.7
			c0.6-0.2,1.4,0.4,1.4,1c0,0.6,0,1.2,0,1.8c0,0.8,0,1.6,0,2.4c0,0.3,0.1,0.6,0,0.9c-0.4,1.2-0.2,2.5,0,3.7c0.3,1.7,0.3,3.4,0.4,5.1
			c0.1,1.2,0.2,2.4,0.3,3.5c0.2,1.8,0.5,3.6,0.7,5.4c0.1,0.5,0.2,1.1,0.3,1.6c0.1,0.5,0.2,1.1,0.3,1.6c0.1,0.2,0.2,0.5,0.2,0.7
			c0.4,2.9,1.3,5.7,2,8.5c0.4,1.7,0.7,3.4,1.3,5c0.8,2.3,1.2,4.8,2.4,7c0.6,1,0.8,2.2,1.4,3.3c0.7,1.3,1.4,2.5,2.2,3.6
			c0.9,1.3,1.9,2.6,3,3.9c1.8,2.2,3.7,4.2,5.7,6.1c0.2,0.2,0.5,0.3,0.7,0.5c0.3,0.2,0.6,0.4,0.8,0.6c0.4,0.4,0.5,0.8,0.3,1.3
			c-0.1,0.3-0.2,0.5-0.3,0.7c-0.7,0.3-1.2,0.2-1.6-0.4c-0.7-1-1.6-1.8-2.6-2.6c-0.6-0.5-1-1.1-1.5-1.6c-1-1.1-1.9-2.2-2.9-3.3
			c-0.3-0.4-0.6-0.7-0.8-1.2c-0.5-0.8-1.1-1.5-1.7-2.3c-1-1.3-2.1-2.5-3-3.8c-0.6-0.9-1.2-1.8-1.7-2.7c-0.5-0.8-1-1.6-1.5-2.4
			c-0.8-1.4-1.7-2.7-2.3-4.1c-0.4-0.8-0.8-1.6-1.1-2.4c-0.3-0.8-0.8-1.5-0.9-2.3c-0.2-1.4-1.1-2.4-1.3-3.7c-1-1.6-1.2-3.4-1.6-5.1
			c-0.1-0.4-0.2-0.8-0.4-1.1c-0.7-1.6-1.1-3.2-1.7-4.9c-0.6-1.8-0.9-3.7-1.2-5.6c-0.4-2.2-0.6-4.5-1-6.7c-0.2-1.1-0.1-2.2-0.5-3.3
			c-0.2-0.5,0-1.1-0.1-1.6c0-0.6,0.1-1.3-0.3-1.9c-0.1-0.1-0.1-0.3,0-0.4c0.3-0.9,0.1-1.9-0.1-2.8c-0.1-0.3,0-0.6,0-0.9
			c0-0.3,0.2-0.6,0.5-0.7c0.4-0.1,0.7,0,0.9,0.3c0.2,0.3,0.3,0.6,0.3,1c0.1,1.6,0.1,3.1,0.2,4.7c0,0.3,0,0.6,0.1,0.9
			c0.1,0.4,0.2,0.9,0.2,1.3c0.2,2,0.4,4,0.6,6c0,0.3,0.1,0.6,0.2,0.9c0.1,0.4,0.1,0.9,0.2,1.3c0.2,1.2,0.4,2.4,0.6,3.6
			c0.1,0.4,0.3,0.8,0.3,1.1c0.1,1.5,0.7,2.9,1.1,4.4c0.2,0.6,0.4,1.1,0.7,1.6c0.6,1.3,0.9,2.7,1.2,4.1c0.3,1.4,0.8,2.6,1.4,3.9
			c0.2,0.6,0.6,1.1,0.5,1.8c0,0.3,0.3,0.7,0.5,1c0.5,1.2,0.9,2.5,1.3,3.7c0.1,0.3,0.3,0.5,0.5,0.7c0.5,0.9,0.9,1.7,1.3,2.6
			c0.1,0.2,0.3,0.4,0.4,0.6C87.9,127.3,88,127.3,88.1,127.2z"/>
		<path class="st0" d="M90.5,233.7c-0.4-0.4-0.6-0.8-0.5-1.2c0.1-0.4,0.1-0.9,0.2-1.3c0-0.2,0.1-0.5,0.1-0.7
			c-0.4-1.2-0.3-2.3-0.2-3.5c0.1-1.4,0-2.8-0.1-4.2c-0.1-1.1-0.2-2.2-0.1-3.3c0.1-1.1,0.1-2.2,0.3-3.4c0.1-0.5-0.1-1-0.2-1.5
			c0-0.3-0.1-0.7-0.1-1c0-1.8-0.6-3.5-1.3-5.1c-0.1-0.2-0.2-0.5-0.4-0.6c-0.6-0.4-0.6-0.9-0.3-1.4c0.1-0.2,0.2-0.4,0.3-0.6
			c0.6-0.2,1.1,0.1,1.7,0.2c0.1,0.3,0.1,0.6,0.2,0.9c0.1,0.3,0,0.6,0.2,0.9c1.1,1.9,1.1,4.1,1.2,6.1c0.2,2.8,0.1,5.6,0.2,8.4
			c0.1,2.5,0.3,4.9,0.4,7.4c0,1.3,0.1,2.6-0.2,4c-0.2,0.8-0.1,1.6-0.3,2.5c-0.1,0.5-0.2,1-0.3,1.4c-0.2,0.8-0.3,1.6-0.5,2.4
			c-0.6,2-1.3,3.9-1.9,5.9c0,0.1-0.1,0.3-0.1,0.4c-0.2,1.4-0.8,2.6-1.4,3.9c-1.1,2.2-2.3,4.4-3.4,6.7c-0.7,1.4-1.6,2.6-2.4,3.9
			c-1,1.6-2.3,3.1-3.5,4.5c0,0-0.1,0.1-0.1,0.1c-1.2,1.9-3,3.5-4,5.6c-0.2,0.5-0.5,0.8-1.1,0.9c-0.6,0.1-1.1-0.3-1.1-0.9
			c0-0.2,0.1-0.5,0.2-0.7c0.5-0.7,0.9-1.5,1.5-2.2c0.6-0.7,1.2-1.3,1.5-2.2c0.1-0.2,0.2-0.4,0.3-0.5c1.1-1.2,2.3-2.3,3.2-3.6
			c1-1.3,1.9-2.7,2.8-4.2c1.4-2.5,2.8-5.1,4.1-7.6c0.7-1.3,1.1-2.7,1.6-4.1c0.1-0.3,0.1-0.7,0.3-1c0.8-1.9,1.3-3.9,1.8-5.9
			c0.4-1.5,0.6-3,0.9-4.5C89.9,234.2,89.9,233.8,90.5,233.7z"/>
		<path class="st0" d="M74.3,190.4c0.3,1.6,0.1,1.9-1.3,1.7c-1.5-0.2-3,0-4.5,0.5c-1.4,0.5-2.9,0.8-4.4,1.3
			c-0.8,0.3-1.7,0.6-2.5,0.9c-1.4,0.6-2.7,1.1-4.1,1.7c-0.6,0.3-1.3,0.6-1.9,0.9c-0.2,0.1-0.3,0.2-0.5,0.3c-2.5,0.7-4.7,2.1-7.1,3.1
			c-2.8,1.2-5.5,2.8-8.2,4.2c-1.7,0.9-3.3,2-4.9,3c-1,0.6-1.9,1.2-2.8,1.9c-0.5,0.3-1,0.7-1.5,1c-1.8,1.2-3.1,2.9-4.6,4.3
			c-0.5,0.4-0.9,0.9-1.3,1.4c-0.5,0.6-1.1,0.7-1.7,0.6c-0.6-0.1-0.9-0.4-0.7-1c0.1-0.2,0.2-0.5,0.3-0.6c0.2-0.2,0.4-0.3,0.6-0.5
			c1-0.9,2.2-1.7,3-2.8c0.5-0.6,1.1-1.1,1.8-1.5c1-0.6,2-1.4,3-2.1c3-2,5.9-4.1,9.2-5.6c0.7-0.3,1.4-0.8,2.1-1.1
			c1.2-0.6,2.5-1.2,3.7-1.8c1.1-0.6,2.3-1.1,3.4-1.7c2.2-1,4.3-1.9,6.5-2.8c0.9-0.4,1.8-0.6,2.6-1c0.9-0.4,1.7-0.9,2.7-1.3
			c1.7-0.6,3.5-1.1,5.2-1.6c0.5-0.1,1-0.2,1.4-0.4c1.1-0.4,2.2-0.6,3.3-0.6c0.2,0,0.5,0,0.7-0.1C72.5,190.3,73.4,190.5,74.3,190.4z"
			/>
		<path class="st0" d="M94.6,61.9c-0.5,0.4-0.6,0.9-0.6,1.5c0,1.7-0.2,3.4-0.9,5c-0.2,0.5-0.5,0.9-0.8,1.4c-1.4,1.8-2.9,3.5-4.4,5.1
			c-0.9,1-2,2-3.4,2.3c-1,0.3-2,0.5-3,0.8c-2.7,0.7-5.4,1.5-8.2,1.7c-1.2,0.1-2.5,0-3.7-0.1c-1.5,0-2.9-0.5-4.3-0.8
			c-0.7-0.2-1.3-0.4-2-0.5c-1.7-0.3-3.4-0.8-5.1-1.5c-0.6-0.2-1-0.5-1.6-0.8c-2.2-1.3-4.2-2.9-6.2-4.4c-0.7-0.6-1.3-1.2-1.8-2
			c-0.2-0.3-0.4-0.7-0.5-1.1c-0.1-0.3-0.1-0.6,0.2-0.8c0.2-0.2,0.5-0.3,0.8-0.1c0.4,0.2,0.8,0.5,0.8,1c0,0.5,0.3,0.7,0.7,0.9
			c1,0.7,1.9,1.6,2.9,2.2c1.7,1.1,3.2,2.4,5,3.3c1.4,0.7,2.7,1.3,4.3,1.4c1,0.1,1.9,0.5,2.8,0.7c0.6,0.1,1.2,0.1,1.7,0.4
			c0.6,0.3,1.1,0.3,1.7,0.4c3,0.6,5.9,0.3,8.8-0.5c1.9-0.5,3.9-1.1,5.8-1.6c1.2-0.3,2.1-1,3-1.8c1.5-1.6,2.8-3.3,4.2-5
			c0.3-0.4,0.6-0.8,0.8-1.2c0.6-1.6,1.1-3.2,0.9-4.9c-0.1-0.5-0.1-1-0.1-1.5c0-0.5,0.4-0.9,0.7-1c0.4-0.1,0.9,0.2,1.2,0.6
			C94.4,61.3,94.5,61.5,94.6,61.9z"/>
		<path class="st0" d="M98.2,59.7c1.2,0,2.3,0,3.4,0c0.7,0,1.4,0.2,2,0.3c1.2,0.3,2.4,0.7,3.5,1.1c0.2,0.1,0.4,0.2,0.6,0.2
			c1.4,0.1,2.6,0.6,3.7,1.3c0.4,0.2,0.9,0.4,1.3,0.6c1.2,0.5,2.4,0.9,3.5,1.5c1.9,0.9,3.9,1.7,5.7,2.8c0.4,0.3,0.9,0.4,1.4,0.6
			c0.4,0.2,0.8,0.4,1.2,0.6c1,0.7,2,1.4,3,2.1c0.7,0.6,1.3,1.3,2.1,1.8c2.4,1.6,4.6,3.6,6.8,5.4c1.1,0.9,2,2,2.9,3.1
			c0.8,0.9,1.5,1.8,2.2,2.8c0.8,1.1,1.8,2.1,2.1,3.5c0,0.2,0.2,0.3,0.3,0.5c-0.4,0.5-1,0.5-1.6,0.5c-0.4-0.4-0.6-0.7-0.8-1.2
			c-0.2-0.8-0.8-1.5-1.3-2.1c-1.3-1.7-2.6-3.3-4-5c-0.2-0.2-0.4-0.3-0.5-0.5c-0.9-0.7-1.7-1.5-2.6-2.2c-1.3-1-2.6-2-3.8-3
			c-0.7-0.6-1.5-1.2-2.1-1.8c-0.6-0.5-1.2-1.1-2-1.5c-0.7-0.3-1.1-1-1.9-1.4c-1.1-0.5-2.2-1.1-3.3-1.6c-0.5-0.2-0.9-0.5-1.4-0.8
			c-0.3-0.2-0.6-0.3-0.9-0.4c-0.7-0.3-1.5-0.5-2.2-0.9c-0.9-0.5-2-0.7-3-1.1c-0.3-0.1-0.6-0.1-0.8-0.3c-1.5-1.2-3.4-1.6-5.2-2.1
			c-0.6-0.2-1.3-0.2-1.9-0.4c-0.4-0.1-0.8-0.1-1.1-0.3c-0.3-0.1-0.6-0.4-0.9-0.4c-1.2-0.2-2.4-0.3-3.7-0.3c-0.8,0-1-0.3-0.8-1.1
			C98.1,59.9,98.2,59.7,98.2,59.7z"/>
		<path class="st0" d="M76.7,32.6c0.3,0.2,0.7,0.2,0.8,0.4c0.5,0.8,1.3,0.9,2.2,1c0.6,0,1.1,0.2,1.6,0.7c0.7,0.7,1.4,1.4,2,2.1
			c0.7,0.9,1,1.9,1,3c0,1.1,0,2.3-0.3,3.4c-0.2,0.9-0.6,1.8-1.4,2.5c-0.9,0.9-1.9,1.3-3,1.8c-1.4,0.6-2.8,0.4-4.2,0.1
			c-1.2-0.3-2.3-1.2-2.9-2.3c-1-2-1.4-4-1-6.3c0.4-1.9,1.1-3.5,2.4-5c0.4-0.5,1-0.8,1.6-1C75.8,32.8,76.2,32.7,76.7,32.6z
			 M77.3,45.9c0.7-0.1,1.6-0.2,2.4-0.5c0.7-0.2,1.3-0.6,1.5-1.5c0.3-1,0.7-2,1-3.1c0.4-1.5-0.1-2.8-1.3-3.7c-0.4-0.3-0.7-0.5-1-0.8
			c-0.9-0.7-2.4-0.8-3.3-0.2c-1.4,0.9-1.8,2.5-1.8,4c-0.1,1.5,0.3,3,0.7,4.5C75.7,45.5,76.2,45.9,77.3,45.9z"/>
		<path class="st0" d="M95.9,67.4c0-0.3,0-0.5,0-0.6c0.4-1.4,0.6-1.5,2.1-1.4c2.1,0.2,4.1,1,6,1.8c2.5,1,4.7,2.4,7,3.8
			c3,2,6.1,4,9.1,6c1.5,1,3,2,4.5,3c0.4,0.3,0.8,0.6,1.2,0.9c1.2,1,2.5,2,3.7,3.2c0.9,0.9,1.9,1.7,2.5,2.9c0.2,0.4,0.2,0.7,0,1.1
			c-0.1,0-0.1,0.1-0.1,0c-1.6-0.2-1.6-0.2-2.6-1.5c-0.7-0.9-1.4-1.7-2.3-2.3c-1.5-1.2-2.9-2.5-4.6-3.5c-1.9-1.1-3.6-2.4-5.4-3.6
			c-1.1-0.7-2.2-1.5-3.3-2.2c-2.3-1.5-4.7-2.9-7-4.3c-1.8-1.1-3.8-2.1-5.9-2.6c-1.3-0.3-2.6-0.7-3.9-0.5
			C96.5,67.6,96.2,67.5,95.9,67.4z"/>
		<path class="st0" d="M75.5,249.1c0.1-0.8,0.1-1.4,0.2-2.1c0.1-0.6,0.1-1.2,0.4-1.9c0.2-0.6-0.1-1.3,0.3-1.9
			c0.1-1.8,0.7-3.5,0.3-5.3c-0.1-0.3-0.1-0.6,0-0.9c0.3-2.6,0.7-5.2,1-7.7c0.1-0.6,0.1-1.3,0.1-1.9c0-1,0.1-2.1,0.6-3
			c0.3-0.5,0.1-1,0.1-1.4c-0.1-1.6-0.3-3.2-0.5-4.8c-0.2-2.3-0.5-4.5-1.2-6.7c0-0.1,0-0.2-0.1-0.3c-0.1-0.5,0-0.9,0.4-1
			c0.4-0.1,0.9,0.1,1.1,0.5c0.2,0.5,0.5,1.1,0.6,1.7c0.3,1.8,0.5,3.6,0.7,5.4c0.1,1.3,0.1,2.5,0.1,3.8c0,1.7-0.1,3.3-0.2,5
			c-0.3,2.8-0.7,5.6-1,8.5c0,0.3-0.1,0.6-0.1,0.9c0.2,1.4-0.2,2.8,0.1,4.3c0,0.2,0,0.4-0.1,0.6c-0.4,2.6-0.8,5.2-0.8,7.9
			c0,0.2-0.1,0.5-0.2,0.7c-0.3,0.6-1,0.6-1.5,0.1C75.7,249.4,75.6,249.2,75.5,249.1z"/>
		<path class="st0" d="M147.9,20.6c0.4,0,0.8-0.1,1.2-0.1c0.4,0.3,0.7,0.6,0.6,1c-0.1,0.4-0.2,0.9-0.7,1.1c-0.9,0.3-1.4,1-2,1.6
			c-0.7,0.7-1.4,1.3-2.2,1.9c-1.2,0.9-2.5,1.7-3.8,2.6c-0.5,0.3-0.9,0.5-1.5,0.6c-0.5,0.8-1.5,1-2.1,1.5c-1,0.8-2,1.4-3.1,2
			c-1.2,0.7-2.5,1.2-3.7,1.7c-1.7,0.6-3.5,1.1-5.2,1.6c-0.8,0.2-1.5,0.4-2.2,0.7c-1.3,0.6-2.7,0.6-4,0.8c-0.1,0-0.3,0-0.4,0
			c-0.7,0-1.2-0.4-1.3-0.8c0-0.6,0.1-1.1,0.7-1.4c0.1-0.1,0.3-0.1,0.5-0.2c0.7,0.6,1.5,0.6,2.3,0.3c1.6-0.5,3.2-0.9,4.8-1.4
			c1.3-0.4,2.7-0.7,3.9-1.2c1-0.4,2-0.9,3-1.2c1.6-0.6,2.9-1.6,4.3-2.5c1-0.7,2.1-1.2,3-1.9c1.2-1,2.7-1.6,3.8-2.8
			c0.4-0.4,1-0.6,1.4-1C146,22.7,146.9,21.6,147.9,20.6z"/>
		<path class="st0" d="M41.5,216.1c-0.9-0.2-1.1-0.4-1.2-1.1c0-0.4,0.1-0.8,0.5-1c0.4-0.2,0.8-0.4,1.2-0.6c1.5-0.7,2.6-1.9,3.9-2.9
			c1.9-1.4,3.8-2.7,5.8-3.7c1.3-0.6,2.5-1.3,3.7-2.2c1.3-0.9,2.7-1.6,4.1-2.3c1-0.5,2-1,3-1.5c0.3-0.1,0.6-0.3,0.9-0.4
			c1.2-0.3,2.3-0.9,3.4-1.4c0.9-0.4,1.7-0.7,2.7-0.5c0.4,0,0.7,0.1,0.7,0.6c0.1,0.5-0.2,0.8-0.7,1c-0.5,0.1-1.1,0.2-1.6,0.3
			c-0.4,0-0.7,0.2-1.1,0.4c-0.6,0.4-1.3,0.7-2,0.9c-1.4,0.6-2.8,1.1-4.2,1.7c-0.3,0.1-0.6,0.3-0.9,0.5c-0.9,0.5-1.7,1.1-2.6,1.6
			c-0.9,0.5-1.7,0.9-2.5,1.5c-0.7,0.6-1.6,0.9-2.4,1.3c-1.4,0.8-2.8,1.6-4.1,2.6c-1.4,1-2.7,2.2-4,3.2
			C43.4,214.9,42.5,215.5,41.5,216.1z"/>
		<path class="st0" d="M50.7,218.2c0-0.3,0.1-0.7,0.1-1c0.9-0.5,1.7-1,2.5-1.4c0.8-0.4,1.7-0.7,2.6-1.1c1.4-0.6,2.7-1.1,4.1-1.8
			c1.7-0.9,3.6-1.6,5.2-2.8c0.4-0.3,0.8-0.6,1.1-1c0.4-0.4,0.8-0.5,1.3-0.5c0.2,0,0.5,0.1,0.6,0.3c0.1,0.2,0,0.5-0.1,0.7
			c-0.1,0.2-0.3,0.3-0.4,0.4c-0.7,0.6-1.5,1.3-2.2,1.9c-0.6,0.5-1.3,0.9-2,1.2c-1.5,0.7-3.1,1.1-4.5,1.9c-1.3,0.7-2.6,1.1-3.9,1.7
			c-0.3,0.1-0.7,0.3-0.9,0.5c-0.4,0.5-1,0.7-1.4,1.1C52,218.9,51.4,218.8,50.7,218.2z"/>
		<path class="st0" d="M70.8,210.8c0.3,0,0.6-0.1,0.8-0.1c0.4,0,0.6,0.2,0.6,0.7c0,0.9,0.1,1.9-0.1,2.8c-0.2,1-0.2,2-0.2,2.9
			c0,0.1,0.1,0.3,0.1,0.4c0.6,1.7,0.8,3.5,0.9,5.4c0,0.3,0,0.6-0.1,0.9c-0.1,0.3-0.3,0.5-0.5,0.7c-0.4,0.3-0.8,0.3-1.2-0.2
			c-0.2-0.2-0.3-0.5-0.5-0.7c0-0.2,0-0.3,0-0.4c0.6-1.5,0.3-3.1,0-4.6c-0.3-1.5-0.6-3-0.2-4.5c0.2-0.6,0.1-1.3,0.1-1.9
			C70.7,211.7,70.7,211.2,70.8,210.8z"/>
		<path class="st0" d="M140.8,36.6c0.9,0.4,0.9,0.4,1.1,1.5c-0.2,0-0.5,0.1-0.7,0.1c-0.8-0.2-1.5,0.2-2.2,0.5
			c-1.3,0.7-2.5,1.5-3.9,1.9c-0.8,0.3-1.7,0.5-2.5,0.7c-0.7,0.2-1.3,0.4-2,0.5c-0.4,0.1-0.8,0.1-1.2,0.1c-0.6,0-1.2,0-1.7,0.4
			c-0.4,0.3-1,0.1-1.3-0.3c-0.2-0.2-0.2-0.7,0-0.8c0.5-0.3,1-0.7,1.6-0.7c1.9,0,3.6-0.5,5.4-1c1.9-0.5,3.7-1.1,5.4-2.2
			C139.5,37,140.1,36.9,140.8,36.6z"/>
		<path class="st0" d="M152.9,115.4c0.7,0.1,1,0.6,1.1,1.2c0,0.5,0.1,0.9,0.4,1.2c0.1,0.1,0.2,0.3,0.1,0.4c-0.4,0.4,0,0.7,0.1,0.9
			c0.4,0.7,0.4,1.4,0.4,2.1c0,0.3,0,0.7,0,1c-0.2,0.2-0.4,0.3-0.7,0.6c0.4,0.1,0.6,0.1,0.9,0.2c-0.1,0.9,0.3,1.8-0.1,2.7
			c-0.2,0.5-0.1,1.1,0.2,1.6c0.4,0.7,0.4,0.7,0.2,1.6c-0.4,0.1-0.8,0.2-1.2,0.3c-0.5-1.8-0.5-2.1,0-3.2c-0.3-0.6-0.8-1.2-0.2-2
			c0.1-0.1-0.1-0.4-0.2-0.6c-0.1-0.2-0.3-0.4-0.3-0.6c-0.2-0.6,0.1-1.4-0.4-2c-0.1-0.2,0.2-0.7,0.1-1c-0.2-0.4,0.1-0.8-0.2-1.2
			c-0.2-0.3,0.1-0.7-0.2-1.1c-0.3-0.3-0.4-0.7-0.6-1.1c-0.1-0.2-0.1-0.4-0.2-0.6C152.5,115.7,152.7,115.6,152.9,115.4L152.9,115.4z"
			/>
		<path class="st0" d="M144.6,49.7c-0.4-1.1-0.5-1.2-1.3-1.1c-0.7,0-1.4,0.1-2.1,0.1c0,0-0.1,0-0.1,0c-1.2-0.1-2.4,0.2-3.6,0.3
			c-0.8,0.1-1.7-0.3-2.4-0.4c-0.4-0.6-0.2-1,0-1.4c0.1,0,0.3-0.1,0.4-0.1c1.2,0.1,2.4,0.5,3.6,0.4c0.2,0,0.5,0.4,0.8,0.6
			c0.1-0.2,0.3-0.5,0.5-0.7c0.2-0.2,0.6-0.2,0.8-0.2c1,0,2.1,0,3.1,0c0.3,0,0.6,0.2,0.8,0.3c0.5,0.3,0.5,0.7,0.3,1.1
			C145.2,48.9,144.9,49.2,144.6,49.7z"/>
		<path class="st0" d="M154.4,129.8c0.4,0,0.8,0,1.2,0.1c-0.1,0.3-0.2,0.6-0.3,1c0,0.3,0.1,0.6,0.2,0.9c0,0.4,0,0.8,0,1.2
			c-0.1,0.5-0.2,1.1-0.3,1.6c-0.1,0.7,0,1.4-0.9,1.7c0.2,0.4,0.4,0.6,0.5,0.8c0.1,0.2,0.2,0.5,0.1,0.7c-0.5,0.8-0.4,1.8-0.7,2.7
			c0,0-0.1,0-0.1,0.1c-0.1,0-0.2,0-0.3-0.1c-0.2-0.2-0.4-0.4-0.6-0.6c0.2-1.7,0.6-3.4,0.6-5C153.9,133.1,154.5,131.5,154.4,129.8z"
			/>
		<path class="st0" d="M149.8,58.2c0.1,0.5,0.1,1,0.1,1.5c-0.3,0.1-0.6,0.2-0.9,0.2c-1.2-0.2-2.3-0.4-3.5-0.5
			c-0.8-0.1-1.4-0.6-2.2-0.7c-0.4,0-0.7-0.6-0.6-1c0-0.3,0.2-0.5,0.3-0.9c0.5,0.2,0.9,0.3,1.3,0.5c1.5,0.9,3.2,1.2,4.9,1.1
			C149.3,58.2,149.5,58.2,149.8,58.2z"/>
		<path class="st0" d="M159.1,80.6c-0.3,0.3-0.4,0.6-0.7,0.8c-0.5,0.3-1,0.2-1.3-0.3c-0.1-0.1-0.1-0.2-0.1-0.3
			c-0.4-1.3-1.5-2-2.6-2.6c-0.2-0.1-0.5-0.2-0.6-0.4c-0.1-0.2-0.3-0.4-0.2-0.6c0-0.2,0.2-0.5,0.4-0.5c0.4-0.2,0.8-0.2,1.1,0.1
			c0.7,0.7,1.6,1.1,2.3,1.7C158,79.1,158.4,79.8,159.1,80.6z"/>
		<path class="st0" d="M152.9,115.4c-0.8,0.1-1.3-0.1-1.4-1c-0.1-0.5-0.5-1-0.7-1.6c-0.1-0.1,0-0.4,0.2-0.5c0.1-0.1,0.5-0.2,0.5-0.1
			c0.4,0.4,0.8,0.9,1.2,1.4C153.3,114.2,153.1,114.8,152.9,115.4L152.9,115.4z"/>
	</g>
</g>
</svg>
