<!-- Generator: Adobe Illustrator 24.2.3, SVG Export Plug-In  -->
<svg version="1.1" xmlns="http://www.w3.org/2000/svg" xmlns:xlink="http://www.w3.org/1999/xlink" x="0px" y="0px" width="959.3px"
	 height="937.6px" viewBox="0 0 959.3 937.6" style="overflow:visible;enable-background:new 0 0 959.3 937.6;"
	 xml:space="preserve">
<style type="text/css">
	.st0{fill:none;
    stroke:#92D3FF;
    stroke-miterlimit:10;}
</style>
<defs>
</defs>
<g>
	<path class="st0" d="M467.2,19.4c0.9,0.8,1.7,1.7,2.6,2.5c0.7,0.8,1.5,1.6,2.3,2.3c14.7,13.2,30.5,20.4,44.1,20.4l0,0
		c13.6,0,25-6.7,34-19.9c4.9-7.1,8.8-15.7,11.2-24.2H561c-2.4,8.5-6.2,16.9-11.1,24c-9,13.1-20.3,19.7-33.7,19.7l0,0
		c-13.6,0-29.2-7.2-43.9-20.3c-0.8-0.7-1.5-1.5-2.3-2.3c-0.8-0.9-1.7-1.7-2.6-2.6c-6.6-5.8-13.7-11.1-20.6-16.2
		c-1-0.8-2-1.5-3.1-2.3h-0.7c1.2,0.9,2.4,1.8,3.6,2.7C453.5,8.3,460.6,13.6,467.2,19.4z"/>
	<path class="st0" d="M29.6,62.2c9.6-8.9,19.5-18.1,25.8-31.3c3.2-6.7,6.3-17.3,7.8-30.4h-0.5c-1.4,13-4.6,23.6-7.7,30.2
		C48.7,43.8,38.9,53,29.3,61.9C18.2,72.2,6.7,82.9,1,99.8c-0.2,0.5-0.4,1-0.5,1.5v1.5c0.3-1,0.6-2,0.9-2.9
		C7.1,83.2,18.5,72.5,29.6,62.2z"/>
	<path class="st0" d="M513,24.1L513,24.1c4.7,0,9.2-1.6,13.4-4.8c3.9-3,5.8-6,7.9-9.1c0.8-1.3,1.7-2.7,2.8-4.1
		c0.8-1.8,1.5-3.7,2-5.6h-0.5c-0.6,1.8-1.2,3.6-1.9,5.4c-1.1,1.4-1.9,2.8-2.8,4.1c-2,3.1-3.9,6-7.7,9c-4.2,3.2-8.6,4.8-13.2,4.8l0,0
		c-12.3,0-24.1-11-34.6-20.6c-1-0.9-1.9-1.7-2.8-2.6h-0.7c1,1,2.1,1.9,3.1,2.9C488.5,13.1,500.5,24.1,513,24.1z"/>
	<path class="st0" d="M8.6,140c2.2-11.5,4.3-22.4,7.5-30c5.4-13.1,16.6-24.1,28.4-35.7c7.3-7.1,14.8-14.5,21.2-22.7
		c7.9-10.1,13.3-18.9,17.7-29.3c2.6-6.1,4.9-13.2,7.1-20c0.2-0.6,0.4-1.2,0.6-1.8h-0.5c-0.2,0.6-0.4,1.1-0.6,1.7
		c-2.2,6.8-4.4,13.9-7,19.9c-4.4,10.3-9.7,19.1-17.7,29.2c-6.3,8.1-13.9,15.5-21.1,22.6C32.3,85.6,21,96.6,15.6,109.8
		c-3.2,7.7-5.3,18.6-7.5,30.1c-2.1,11.1-4.3,22.6-7.6,31c0,0.1-0.1,0.1-0.1,0.2v1.2c0.1-0.4,0.3-0.8,0.5-1.2
		C4.3,162.6,6.5,151.1,8.6,140z"/>
	<path class="st0" d="M44.8,283.2c15.4,6.2,34.6,13.8,42,29.5c0.5,8.5-2.5,15.8-5.7,23.5c-4.5,10.8-9.6,23-6.7,42
		c2.2,14.5,10.7,23.8,20.6,34.5c4.1,4.4,8.2,9,12.2,14.2c10.4,13.7,17.5,29.1,23,42.5c5.5,13.3,9.9,23.7,24.4,27.2
		c8.7,2.1,20.9,3.6,29.2,4.4c4.6,0.5,8.9,0.8,12.8,0.8c6.4,0,11.9-0.7,16.6-2.1c9.9-2.9,16.1-11,24-21.1c2.4-3,4.8-6.1,7.5-9.4
		c1.9-2.3,4.3-4.7,6.9-7.4c5.4-5.5,11.1-11.2,12.6-15.7c0.6-1.8,0.4-3.4,0.3-5.2c-0.1-1.4-0.3-2.9-0.1-4.8l0-0.1l-0.1-0.1
		c-5.3-7-11.7-12.6-17.9-18c-10.5-9.2-20.5-17.9-24.3-32.3c-2-7.5-1.3-15.6,2.2-24.7c3.7-9.6,12.3-20.1,24.2-29.6
		c5.4-4.3,11.1-8.7,17.1-13.5c27.7-21.6,59.2-46.1,76.4-67.5l0-0.1c0.6-2.6,0.4-5.6-0.4-8.9c-2.2-9-9.2-19.6-19.3-29.3
		c-9.6-9.1-20.4-16-29.1-18.4c-0.7-0.2-2.1-0.6-3.5-0.9c-11.6-2.6-23.6-0.8-35.1,0.9c-10,1.5-19.5,2.9-28.7,1.7
		c-19.9-2.6-34.2-15.9-39.3-36.5c-6.6-27,11.7-44,29.5-60.5c13.1-12.2,26.7-24.7,30.2-41.2c3.4-15.6-1-32.4-4-43.5
		c-1.2-4.5-2.6-9-4.1-13.4h-0.5c1.6,4.5,3,9,4.2,13.6c2.9,11.1,7.3,27.8,4,43.3c-3.5,16.4-17,28.9-30.1,41
		c-17.8,16.5-36.3,33.6-29.6,60.9c5.1,20.8,19.6,34.2,39.7,36.8c9.2,1.2,18.7-0.2,28.8-1.7c11.5-1.7,23.5-3.5,34.9-0.9
		c1.4,0.3,2.8,0.7,3.5,0.9c17.2,4.7,43.2,28,48,47.3c0.8,3.3,1,6.2,0.5,8.7c-17.2,21.3-48.6,45.8-76.3,67.4
		c-6.1,4.7-11.8,9.2-17.2,13.5c-12,9.6-20.6,20.1-24.3,29.8c-3.5,9.1-4.2,17.3-2.2,24.9c3.8,14.4,13.8,23.3,24.4,32.5
		c6.2,5.4,12.5,11,17.8,17.8c-0.2,1.8,0,3.4,0.1,4.7c0.2,1.8,0.3,3.3-0.2,5c-1.5,4.5-7.1,10.1-12.5,15.6c-2.6,2.6-5.1,5.1-6.9,7.4
		c-2.8,3.3-5.2,6.4-7.6,9.4c-7.9,10.1-14.1,18.1-23.8,21c-7.4,2.2-16.9,2.6-29.1,1.3c-8.4-0.9-20.5-2.4-29.2-4.4
		c-14.3-3.4-18.7-13.8-24.1-26.9c-5.5-13.4-12.6-28.8-23.1-42.6c-4-5.2-8.2-9.8-12.2-14.2c-9.8-10.7-18.3-20-20.5-34.3
		c-2.9-18.9,2.2-31.1,6.6-41.8c3.2-7.7,6.2-15,5.7-23.7l0-0.1C79.8,296.7,60.5,289,45,282.8c-4.2-1.7-8.6-3.4-13.3-4.4
		c-11-2.4-21.4-3.7-31.2-4.1v0.5c9.8,0.3,20.2,1.7,31.1,4C36.3,279.8,40.7,281.5,44.8,283.2z"/>
	<path class="st0" d="M270.1,13.4c1.2,4.6,2.6,9.2,4,13.7c2.9,9.9,5.7,19.2,6.8,27.5c0.8,5.9,0.8,12.1,0,16.4
		c-2.3,12.9-11,22.9-19.3,32.7c-9.6,11.1-19.5,22.7-20.3,38.7c1,14.3,17.1,16.4,34.2,18.5c3.1,0.4,6.4,0.8,9.5,1.3
		c12.5,2,26.9,6,41.6,11.5c5.1,2,10.1,4.4,14.9,6.7c9.2,4.6,17.8,8.9,28,10c1.3,0.1,2.6,0.2,4,0.2c6.9,0,12.9-1.9,18-3.8
		c5.2-1.8,9.6-3.8,13.9-5.7c9.3-4.1,18-7.9,31.5-9.1c2.4-0.3,4.9-0.4,7.3-0.4c14.6,0,26.9,3.9,38.8,7.6c10.2,3.3,20,6.3,30,6.3
		c2,0,4-0.1,5.9-0.4c15.3-1.9,27-9.8,35.9-24.2c7.8-12.7,12.3-28.7,16-44.2c1.1-4.5,3-13,3.7-19.1c0.7-5.8-0.2-10-2.8-12.9
		c-4.6-5.3-13.9-5.7-24.6-6c-4.9-0.2-9.9-0.3-14.9-1c-21.1-2.7-38.8-5.4-58.4-13.7c-16.1-6.7-32.3-15.1-43-20.9
		c-18-9.9-38.4-22.1-52.8-42.6h-0.5c14.4,20.8,34.9,33.1,53.1,43c10.7,5.8,26.8,14.2,43,21c19.6,8.2,37.4,10.9,58.6,13.7
		c5,0.6,10.1,0.8,14.9,1c10.6,0.3,19.8,0.6,24.3,5.8c2.4,2.8,3.3,6.9,2.7,12.6c-0.7,6.1-2.6,14.6-3.7,19.1
		c-7.4,30.7-18.1,63.9-51.6,68.1c-1.9,0.2-3.9,0.3-5.8,0.3c-10,0-19.7-3-29.9-6.2c-11.9-3.7-24.2-7.6-38.9-7.6
		c-2.4,0-4.9,0.1-7.3,0.3c-13.6,1.2-22.3,5.1-31.6,9.2c-4.3,1.9-8.8,3.9-13.9,5.7c-5.1,1.8-11.1,3.7-17.8,3.7
		c-1.3,0-2.6-0.1-3.9-0.2c-10-1.1-18.7-5.4-27.8-9.9c-4.8-2.4-9.8-4.9-14.9-6.8c-14.7-5.5-29.2-9.5-41.7-11.5
		c-3.2-0.5-6.4-0.9-9.5-1.3c-16.8-2.2-32.8-4.3-33.8-18.2c0.8-15.8,10.7-27.3,20.2-38.4c8.4-9.7,17.1-19.9,19.5-32.8
		c0.8-4.4,0.7-10.5,0-16.5c-1.1-8.4-3.9-17.7-6.8-27.6c-1.3-4.5-2.7-9.1-4-13.7c-0.8-3-1.6-6-2.5-8.9c-0.4-1.3-0.7-2.6-1.1-3.9h-0.5
		c0.4,1.4,0.8,2.7,1.1,4C268.5,7.4,269.3,10.4,270.1,13.4z"/>
	<path class="st0" d="M31.5,30C36,23,40,14.6,40.1,0.5h-0.4c-0.1,14-4.1,22.4-8.6,29.3c-5.7,8.8-14,14.1-22.7,19.7
		c-2.6,1.7-5.3,3.4-7.9,5.2v0.5c2.7-1.9,5.4-3.6,8.1-5.3C17.4,44.2,25.7,38.9,31.5,30z"/>
	<path class="st0" d="M299.2,40.3c2.7,6,5.5,12.2,6.4,18.7c2.6,17.7-6.5,29.3-15.4,40.5c-6.1,7.6-11.8,14.8-13.5,23.6
		c-0.5,2.2-0.3,3.6-0.2,5.4c0.1,0.9,0.1,1.9,0.1,3.3v0.1c2.3,6.3,9,10.7,14.3,13.3c19.1,9.4,50.1,13.9,72.8,17.1
		c3.4,0.5,6.8,0.7,10.3,0.7l0,0c8.8,0,17-1.5,25.6-3.1c9.2-1.7,18.8-3.4,29.8-3.4c2.9,0,5.9,0.1,8.8,0.4c0.6,0.1,2.3,0.2,4.4,0.3
		c3.1,0.2,7,0.4,9.8,0.6c9.2,0.7,16.5,2.3,23.6,3.9c9.4,2.1,18.3,4.1,31.4,4.1c1.4,0,2.8,0,4.2-0.1c10.4-1.6,20-12.6,23.8-27.4
		c3.2-12.2,2.4-28.4-9.1-37.4c-13.5-10.5-52.9-19.8-74.1-21.5c-4.5-0.4-8.3-0.4-11.9-0.4c-4.1,0-8.2-0.1-13.6-0.5
		c-14.6-1.3-26.6-7.1-40.4-19.2c-17-15.1-26.2-26.7-39.3-49.8c-1.4-2.5-2.8-5.5-4-9h-0.5c1.3,3.5,2.6,6.6,4.1,9.2
		c13.2,23.1,22.4,34.8,39.4,50c13.8,12.2,25.9,18,40.6,19.3c5.4,0.5,9.6,0.5,13.7,0.5c3.8,0,7.3,0.1,11.9,0.4
		c21.1,1.7,60.4,10.9,73.9,21.4c11.3,8.8,12,24.8,8.9,36.9c-3.8,14.5-13.2,25.4-23.5,27c-1.4,0-2.8,0.1-4.1,0.1
		c-13,0-21.9-2-31.3-4.1c-7.1-1.6-14.4-3.2-23.6-3.9c-2.8-0.2-6.7-0.5-9.8-0.6c-2.1-0.1-3.8-0.2-4.4-0.2c-2.9-0.3-5.9-0.4-8.8-0.4
		c-11.1,0-20.7,1.7-29.9,3.4c-8.6,1.6-16.8,3-25.5,3l0,0c-3.5,0-6.9-0.2-10.3-0.7c-22.6-3.3-53.6-7.7-72.6-17.1
		c-5.2-2.5-11.8-6.9-14-13c0-1.3-0.1-2.3-0.1-3.3c-0.2-1.7-0.3-3.1,0.2-5.2c1.8-8.7,7.4-15.8,13.4-23.4
		c8.9-11.2,18.1-22.9,15.5-40.8c-1-6.5-3.8-12.8-6.5-18.8c-1.1-2.4-2.2-4.8-3.2-7.3c-3.5-8.7-7.6-20.3-10.2-32.4h-0.4
		c2.6,12.1,6.7,23.9,10.2,32.6C297.1,35.5,298.1,38,299.2,40.3z"/>
	<path class="st0" d="M46.5,219.5c6.1-6.8,11.6-14.1,17.4-21.9c9.2-12.2,18.6-24.8,30.9-35.3c0.9-0.8,1.7-1.7,2.5-2.5
		c0.7-0.8,1.5-1.6,2.3-2.3c8-7,17.1-12.7,25.9-18.1c6.1-3.8,12.5-7.7,18.4-12.1c4.7-3.5,9.5-7.1,14-10.7
		c6.9-5.4,14.1-10.9,21.4-15.9c3.4-2.4,7-4.6,10.8-7c18.5-11.8,39.4-25.1,42.6-49.3c1.7-12.8-1.7-29.2-8.8-44h-0.5
		c7.1,14.7,10.5,31.2,8.8,43.9c-3.2,23.9-24,37.2-42.4,48.9c-3.8,2.4-7.3,4.7-10.7,7c-7.3,5-14.4,10.6-21.4,15.9
		c-4.6,3.5-9.3,7.2-14.1,10.7c-5.9,4.4-12.2,8.3-18.3,12c-8.8,5.5-18,11.1-25.9,18.2c-0.9,0.7-1.6,1.6-2.4,2.4
		c-0.8,0.8-1.6,1.7-2.5,2.5c-12.3,10.5-21.8,23.1-30.9,35.3c-5.8,7.7-11.3,15-17.4,21.8C34,232.7,18,241.8,0.5,245.5v0.5
		C18.1,242.2,34.3,233,46.5,219.5z"/>
	<path class="st0" d="M19.3,202.3c5.9-8.7,6-24.4,5.3-37.2c-0.5-10.3-0.3-30,6.4-46.3c5.2-12.5,17.6-23.6,29.5-34.3
		c1.8-1.7,3.6-3.3,5.4-4.9c23.9-21.8,35.8-41.5,46.3-64.1c0.9-1.9,1.7-4,2.4-6c0.9-2.5,1.9-5,3.2-7.5c0.2-0.5,0.5-1,0.7-1.5h-0.5
		c-0.2,0.4-0.4,0.8-0.7,1.2c-1.2,2.5-2.2,5-3.1,7.5c-0.8,2-1.5,4-2.5,5.9c-10.4,22.7-22.3,42.3-46.2,64c-1.8,1.6-3.6,3.2-5.4,4.9
		c-12,10.8-24.4,21.9-29.6,34.5c-6.8,16.4-6.9,36.2-6.4,46.5c0.6,12.7,0.6,28.4-5.3,36.9c-4.3,6.1-11,10.5-18.4,14.3v0.5
		C8,213,14.9,208.6,19.3,202.3z"/>
	<path class="st0" d="M7.1,12.7c2.9-3,4.1-7.6,4.1-12.2h-0.5c0,4.5-1.2,9.1-3.9,11.9c-1.9,2-4.1,3-6.3,3v0v0.5l0,0
		C2.9,15.8,5.1,14.8,7.1,12.7z"/>
	<path class="st0" d="M143.6,7.5c-6.3,7.4-10.9,17.6-15.4,27.4c-0.7,1.5-1.4,3-2,4.5c-6.5,14-14.6,31.5-23.4,43.4
		C98,89.4,90,94,81.7,99c-11.9,7-24.1,14.3-28.9,27.6c-1.7,4.8-1.8,10.1-0.1,16.7c1.7,3.7,4.6,5.5,8.5,5.5l0,0
		c6.6,0,14.4-5.1,17.5-7.8c6.3-5.4,11.9-12.8,17.3-20c2.9-3.8,5.8-7.8,8.9-11.5c1.5-1.7,6.6-7.5,10.9-10.1c10.2-6,23.2-10.6,37-15.4
		c19.2-6.7,38.9-13.6,51.3-24.9c6.6-5.9,10.5-15.2,10.8-25.4c0.3-11-3.5-21.4-10.8-29.3c-1.3-1.4-2.7-2.8-4.2-3.9h-0.7
		c1.6,1.3,3.2,2.7,4.6,4.3c7.2,7.8,11,18.1,10.6,29c-0.3,10.1-4.1,19.3-10.6,25.1c-12.3,11.2-32.1,18.1-51.1,24.8
		c-13.8,4.9-26.8,9.4-37,15.4c-4.4,2.6-9.5,8.5-11,10.2c-3.1,3.6-6.1,7.6-9,11.5c-5.3,7.1-10.9,14.5-17.2,19.8
		c-3.2,2.7-10.8,7.7-17.3,7.7c-3.8,0-6.5-1.8-8.1-5.3c-1.6-6.4-1.6-11.7,0.1-16.4c4.7-13.2,16.9-20.4,28.7-27.4
		c8.4-5,16.3-9.7,21.2-16.3c8.8-11.9,16.9-29.4,23.4-43.4c0.7-1.5,1.3-3,2-4.5c4.5-9.8,9.1-19.9,15.3-27.3c2.4-2.8,5.1-5.2,8.1-7.3
		h-0.8C148.4,2.5,145.8,4.9,143.6,7.5z"/>
	<path class="st0" d="M319.2,121.2L319.2,121.2c0.8,0.9,1.3,2.1,1.7,3.2l0.1,0.2l0.1,0.1c3.3,3,8.1,4.7,13.7,4.7l0,0
		c7.9,0,15.8-3.4,19.7-8.3c2.3-3,3.1-6.4,2.2-10c-1.7-6.6-8-8.7-14.8-10.5l0,0l0,0C330.1,102.4,318.1,109.5,319.2,121.2L319.2,121.2
		z M341.8,101.1c6.7,1.8,12.8,3.8,14.4,10.2c0.8,3.4,0.1,6.7-2.1,9.6c-3.8,4.9-11.5,8.1-19.3,8.1l0,0c-5.4,0-10.2-1.7-13.4-4.6
		l-0.1-0.2c-0.5-1.2-0.9-2.4-1.7-3.3C318.5,108.1,333.6,102.3,341.8,101.1z"/>
	<path class="st0" d="M439.5,128.8l0.2,0.3l0.1,0c7.1,4.5,19,7.5,29.4,7.5l0,0c6.9,0,18.9-1.4,22-10.6v0c0.1-3.2-1.1-6.1-3.5-8.5
		c-4.5-4.6-13.5-7.5-23.4-7.5c-12.6,0-26.2,4.9-26.4,15.6v0.1l0.1,0.1C438.7,126.5,439.2,127.7,439.5,128.8z M464.2,110.3
		c9.8,0,18.7,2.9,23.2,7.4c2.3,2.4,3.4,5.1,3.4,8.2c-3.1,9-14.9,10.3-21.6,10.3l0,0c-10.3,0-22-3-29.1-7.4l-0.1-0.2
		c-0.5-1.1-0.9-2.3-1.7-3.2C438.5,115.1,451.9,110.3,464.2,110.3z"/>
	<path class="st0" d="M123.2,340.9c-2.5,10.8-5.1,22-4.1,38.8c8.4,29.1,18.3,51.1,30.3,67.3c2.8,3.8,6.2,8,10.5,11.5
		c6.2,4.9,15,7.9,23.5,7.9l0,0c8.5,0,15.8-2.9,20.6-8.3c5.2-5.9,7.2-14.5,5.7-25.4c-0.8-6.1-3.1-12.6-5.2-18.8
		c-2.2-6.2-4.5-12.6-5.2-18.7c-3.2-23.8,6.9-48.4,27.1-65.8c8.5-7.4,17.4-13.5,25.8-19.3c9.2-6.3,18.7-12.9,27.7-21.1
		c13.7-12.4,29.2-26.5,31.7-47.7v-0.1v0c-1.6-10-4.7-20.4-16.2-27.7c-6.5-4.2-13.6-6.2-22.6-6.2c-7.6,0-15.4,1.4-23.7,2.9
		c-8.9,1.6-18.2,3.3-27.8,3.3c-2.4,0-4.7-0.1-6.9-0.3c-4.6-0.4-10.3-1.8-16.3-3.3c-8.1-2-16.5-4-23.2-4c-1.4,0-2.7,0.1-3.8,0.3
		c-9,1.4-18.5,9.1-25.7,15.7c-12.1,11-23.6,22.5-25.4,31.9c-0.7,3.7-0.5,9.6,0,13.9c0.7,6.5,2.1,12,3.4,17.3
		c2.4,9.5,4.8,19.3,3.6,35C126.3,327.6,124.8,334.1,123.2,340.9z M123.7,284.8c-1.3-5.3-2.7-10.8-3.4-17.3c-0.5-4.3-0.7-10.1,0-13.8
		c1.9-9.3,13.3-20.7,25.3-31.7c7.2-6.5,16.7-14.3,25.5-15.6c1.1-0.2,2.4-0.2,3.8-0.2c6.6,0,15,2,23.1,4c6,1.5,11.8,2.9,16.3,3.3
		c2.3,0.2,4.6,0.3,7,0.3c9.6,0,18.9-1.7,27.8-3.3c8.3-1.5,16.1-2.9,23.7-2.9c8.8,0,15.9,2,22.4,6.1c11.3,7.3,14.3,17.5,15.9,27.5
		c-2.6,21-17.9,35-31.6,47.4c-9,8.1-18.5,14.6-27.7,21c-8.5,5.8-17.3,11.9-25.9,19.4c-20.3,17.5-30.5,42.3-27.2,66.2
		c0.8,6.1,3.1,12.6,5.3,18.8c2.2,6.2,4.5,12.7,5.2,18.7c1.5,10.8-0.5,19.2-5.6,25.1c-4.6,5.3-11.8,8.2-20.2,8.2l0,0
		c-8.4,0-17-2.9-23.2-7.8c-4.3-3.4-7.7-7.7-10.4-11.4c-11.9-16.1-21.8-38.1-30.2-67.1c-1.1-16.6,1.6-27.8,4.1-38.5
		c1.6-6.9,3.1-13.4,3.7-21.1C128.5,304.2,126.1,294.4,123.7,284.8z"/>
	<path class="st0" d="M151,339.8c0.5,2,0.8,4,1.1,6.1c1.2,7.6,2.6,16.4,10.5,20.5l0.1,0h0.1c9.5-0.7,15.5-9.2,21.9-18.1
		c2.3-3.2,4.6-6.5,7.1-9.4c14.1-16.2,29.9-27,45.2-37.4c10.8-7.3,21-14.3,30-22.7c2.9-1.4,4.9-3.9,6.7-6.3c1.4-1.8,2.9-3.7,4.8-5.2
		c8.2-10.3,11-22.4,6.9-30.7c-2.5-5.2-8.8-11.5-24.6-11.5c-2.1,0-4.4,0.1-6.6,0.3c-5.1,0.5-10.9,1.6-16.9,2.7
		c-6.8,1.2-14.4,2.6-22.2,3.5c-1.6,0.2-3.2,0.3-4.7,0.5c-20.7,2.1-33.1,3.4-45.5,18c-8.8,10.5-13.6,23.4-14.9,40.7
		c-0.8,11.1-0.2,23.3,0.4,33.9C150.6,330.2,150.9,335.3,151,339.8z M150.4,290.9c1.3-17.2,6-30.1,14.7-40.4
		c12.3-14.6,24-15.7,45.2-17.9c1.5-0.1,3.1-0.3,4.7-0.5c7.8-0.8,15.4-2.2,22.2-3.5c6.1-1.1,11.9-2.2,16.9-2.7
		c2.3-0.2,4.5-0.4,6.6-0.4c15.5,0,21.7,6.1,24.2,11.3c3.9,8.2,1.2,20-6.9,30.1c-1.9,1.5-3.4,3.4-4.9,5.2c-1.9,2.5-3.7,4.9-6.5,6.2
		l-0.1,0c-9,8.4-19.2,15.4-30,22.7c-15.3,10.5-31.2,21.2-45.3,37.5c-2.5,2.9-4.9,6.2-7.1,9.4c-6.3,8.9-12.3,17.3-21.6,17.9
		c-7.6-4-8.9-12.2-10.2-20.1c-0.4-2.2-0.7-4.2-1.1-6.1c-0.1-4.5-0.4-9.6-0.6-14.9C150.2,314.1,149.6,301.9,150.4,290.9z"/>
	<path class="st0" d="M438.2,286.8c3.4,31.6,6.6,61.4,31.2,82.7c16.5,14.3,43.3,29.6,68.9,29.6l0,0c15.6,0,28.4-5.8,38.1-17.2
		c8.4-9.9,12.7-21.5,17.6-35c0.5-1.5,1.1-3,1.7-4.6c1-2.6,2-5.1,2.9-7.7c5.5-14.5,10.7-28.2,12-39.6c2.9-25.1-6.2-35.2-17.5-44.9
		c-17.5-15.2-40.4-16.3-64.5-17.5c-5.7-0.3-12.5-0.9-19.6-1.6c-11.3-1-24-2.2-34.6-2.2c-11.5,0-19,1.3-23.1,4
		c-17.1,11.4-15.1,39-13.5,50.3L438.2,286.8z M451.5,233.3c4-2.7,11.5-4,22.9-4c10.6,0,23.4,1.2,34.6,2.2c7.1,0.6,13.9,1.3,19.6,1.5
		c24.1,1.2,46.9,2.4,64.3,17.4c11.2,9.7,20.2,19.7,17.3,44.6c-1.3,11.3-6.5,25-12,39.5c-1,2.6-2,5.1-2.9,7.7c-0.6,1.5-1.2,3-1.7,4.6
		c-4.9,13.4-9.2,24.9-17.6,34.8c-9.6,11.3-22.3,17.1-37.8,17.1c-25.4,0-52.1-15.2-68.6-29.5c-24.5-21.2-27.7-50.9-31-82.4l-0.4-3.7
		C436.6,271.8,434.6,244.5,451.5,233.3z"/>
	<path class="st0" d="M461.7,292c3,27.2,5.5,50.8,27.5,68.2c10.2,8.1,28.7,17.6,47,17.6l0,0c9.1,0,16.8-2.4,22.9-7
		c17.2-13.3,24.7-41,25.9-60.7c1.4-22.7-7-42.7-22.3-53.3c-14.1-9.8-31.9-10.8-50.9-11.8c-4.2-0.2-8.3-0.4-12.4-0.4
		c-11.9,0-26.6,1.5-34.1,13.1c-4.3,8.8-4.1,19.1-3.8,29.1C461.7,288.5,461.7,290.2,461.7,292z M465.8,257.8
		c7.4-11.4,21.9-12.9,33.7-12.9c4.1,0,8.2,0.2,12.4,0.5c18.8,1,36.7,2,50.7,11.7c15.1,10.6,23.4,30.4,22.1,52.9
		c-1.2,19.6-8.6,47.2-25.7,60.4c-6,4.6-13.6,7-22.6,7l0,0c-18.2,0-36.6-9.5-46.8-17.6c-21.9-17.3-24.3-39.7-27.3-67.9
		c0-1.7-0.1-3.5-0.2-5.2C461.8,276.8,461.5,266.5,465.8,257.8z"/>
	<path class="st0" d="M190.8,287.7L190.8,287.7c0.8,0.5,1.3,1.1,1.9,1.7c0.7,0.7,1.4,1.5,2.3,1.9l0,0h0.1c12.6-2.2,26.9-8.8,37.4-17
		c4.2-3.3,9-7.8,10-13.4l0-0.1l-0.1-0.1c-0.6-0.8-1.4-1.6-2.1-2.3c-0.6-0.5-1.1-1-1.6-1.6l0-0.1h-0.1c-1.9-0.2-3.9-0.3-5.9-0.3
		c-11,0-25.9,3.3-34.9,12.6C192.9,274.2,190.5,280.4,190.8,287.7L190.8,287.7z M198.1,269.3c8.8-9.2,23.6-12.5,34.5-12.5
		c2,0,4,0.1,5.8,0.3c0.5,0.6,1,1.1,1.5,1.6c0.7,0.7,1.4,1.4,2,2.2c-1,5.4-5.7,9.8-9.8,13c-10.4,8.2-24.6,14.7-37.1,17
		c-0.8-0.4-1.4-1.1-2-1.8c-0.6-0.6-1.1-1.2-1.8-1.7C191,280.4,193.3,274.4,198.1,269.3z"/>
	<path class="st0" d="M507.8,347.8c7.4,4.8,15.6,7.4,23.3,7.4l0,0c10.1,0,18.5-4.4,24.5-12.6c13.9-19.2,7.6-55.6-12.4-70.7
		c-5.4-4.2-14.7-9.1-27.9-9.1c-3.1,0-6.3,0.3-9.5,0.8c-14,2.4-21.3,13.4-21,31.9C485,309.6,488.2,335.1,507.8,347.8z M505.8,264
		c3.2-0.5,6.4-0.8,9.5-0.8c13.1,0,22.3,4.8,27.7,8.9c9.4,7.2,16.2,19.4,18.7,33.7c2.4,13.9,0,27.5-6.5,36.4
		c-5.9,8.1-14.3,12.4-24.1,12.4l0,0c-7.5,0-15.7-2.6-23-7.3c-19.4-12.6-22.7-37.9-22.9-51.9C485,277.3,492.1,266.4,505.8,264z"/>
	<path class="st0" d="M56.4,471.8c1.8,3.3,3.6,6.5,5.7,9.1l0.1,0.1c2.9,3.8,7.8,10,14.6,9c7.4-1.1,17.1-9.9,15.3-22.8
		c-1.4-10.3-8.3-17.8-21.8-23.7c-0.9-0.4-1.7-0.8-2.6-1.1c-6.5-2.7-12.6-5.3-15.4-11.5c-2.9-12.2-3.5-28.7-4.1-46.2
		c-0.5-14.5-1-29.5-3-42.3c-3.8-24.7-16.4-39.4-38.6-45c-1.9-0.5-4-1-6.1-1.3v0.5c2.1,0.3,4.1,0.7,6,1.2c22,5.5,34.5,20.1,38.3,44.6
		c1.9,12.8,2.5,27.8,3,42.3c0.6,17.5,1.2,34,4.1,46.3c2.9,6.4,9.1,9,15.7,11.7c0.9,0.4,1.8,0.7,2.6,1.1
		c13.3,5.8,20.1,13.2,21.5,23.4c1.7,12.6-7.7,21.2-14.9,22.2c-6.6,1-11.4-5.1-14.3-8.7l-0.1-0.1c-2.1-2.7-3.8-5.8-5.6-9.1
		c-5.7-10.4-11.7-21.2-28.7-18.3c-8,1.3-17.1,5.6-27.6,13v0.6c10.6-7.5,19.6-11.8,27.6-13.1C44.8,450.9,50.7,461.6,56.4,471.8z"/>
	<path class="st0" d="M11.5,412.9c9.8-10.8,15.1-26.8,14.4-44c-0.7-16.5-6.8-31.6-16.5-40.4c-2.9-2.1-5.9-3.5-8.9-4.2v0.4
		c2.9,0.8,5.8,2.1,8.6,4.1c9.6,8.8,15.7,23.7,16.4,40.1c0.7,17-4.6,33-14.3,43.7c-3.3,3.6-6.9,6.5-10.7,9.2v0.5
		C4.5,419.7,8.2,416.6,11.5,412.9z"/>
	<path class="st0" d="M410.6,415.8c-0.4-3-1.8-6.5-2.9-9.3c-9.4-23.3-31.4-47.8-47.3-61.6c-11-9.5-20.1-15-27-16.4
		c-1.5-0.3-3.1-0.5-4.8-0.5c-19.1,0-42.5,19.4-43.9,36.4c0.1,0.8,0.3,1.7,0.5,2.5c0.3,1.3,0.6,2.5,0.5,3.9v0.1l0,0
		c6.8,15.9,14.5,31,22.9,44.8c3.8,6.2,7.6,12.2,12.6,17.2c12.1,12.1,33.2,20.6,51.3,20.6l0,0c10,0,18.3-2.5,24.8-7.4
		C408,437.9,412.5,427.7,410.6,415.8z M372.4,453L372.4,453c-17.9,0-38.9-8.4-50.9-20.5c-5-4.9-8.8-10.9-12.6-17.1
		c-8.4-13.8-16.1-28.8-22.9-44.7c0.1-1.4-0.2-2.8-0.5-4c-0.2-0.8-0.4-1.6-0.5-2.4c1.5-16.8,24.7-35.9,43.5-35.9
		c1.7,0,3.3,0.1,4.8,0.4c6.9,1.4,15.9,6.9,26.8,16.3c15.9,13.8,37.8,38.2,47.2,61.4c1.1,2.8,2.5,6.3,3,9.2
		c1.8,11.7-2.7,21.8-13.4,29.9C390.5,450.5,382.2,453,372.4,453z"/>
	<path class="st0" d="M368.9,378.4c-9.6-8.8-21-15.1-29.9-16.5c-1.7-0.3-3.3-0.4-4.8-0.4c-5.5,0-9.9,1.7-13.2,5.1
		c-3.8,4-5.7,10.2-5.4,17.5c3.9,16.7,7.8,30.3,19.6,39.9c7.4,6.1,18.8,10.1,29,10.1l0,0c12.2,0,20.7-5.6,23.2-15.3
		c0.7-2.9,0.6-7.1,0.2-10C386.1,399,379.3,388,368.9,378.4z M387,418.5c-2.5,9.6-10.7,15-22.8,15l0,0c-10.1,0-21.4-3.9-28.7-9.9
		c-11.6-9.5-15.5-23-19.4-39.6c-0.3-7.1,1.6-13.2,5.3-17.1c3.1-3.3,7.5-4.9,12.9-4.9c1.5,0,3.1,0.1,4.7,0.4
		c18.4,3,45.1,26,48.2,46.4C387.6,411.6,387.7,415.7,387,418.5z"/>
	<path class="st0" d="M476,454.2L476,454.2l-0.2-0.1c-1.2-0.2-2.4-0.2-3.5-0.2c-2.6,0-5,0.4-7.7,1.2c-14.1,4.1-28.2,16.3-32.9,28.3
		c-3.3,8.5-1.9,17.8-0.6,26.9c1.2,8.4,2.4,16.3,0.1,23.2c-3.6,10.7-13.2,17.4-22.5,23.9c-9.8,6.9-20,14-22.5,25.8
		c-1.5,8.3,0.7,16.2,6.2,22.8c7.8,9.3,22.2,15.4,36.6,15.4l0,0c9.4,0,17.6-2.5,23.9-7.2c4.9-3.7,8.3-8.8,11.8-14.1l0.6-0.9
		c3.5-7,4.7-15.3,5.9-24.3c1.1-7.7,2.2-15.7,5-23.7c1.6-4.7,3.4-8.6,5-12.4c5.1-11.6,9.4-21.7,7.3-46.3
		C487.4,478.4,484.9,461.3,476,454.2z M480.8,538.7c-1.7,3.8-3.4,7.7-5,12.5c-2.7,8-3.9,16-5,23.8c-1.3,8.9-2.5,17.2-5.9,24.1
		l-0.5,0.8c-3.7,5.6-6.9,10.4-11.8,14.1c-6.1,4.6-14.3,7.1-23.6,7.1c-14.2,0-28.5-6-36.3-15.2c-5.4-6.5-7.6-14.3-6.1-22.5
		c2.5-11.6,12.1-18.3,22.3-25.4c9.4-6.6,19-13.4,22.7-24.2c2.4-7.1,1.2-15,0-23.4c-1.4-9-2.7-18.4,0.6-26.7
		c4.6-11.9,18.6-24,32.6-28c2.7-0.8,5.1-1.1,7.6-1.1c1.1,0,2.2,0.1,3.4,0.2c8.7,7,11.2,24,12.4,38
		C490.2,517.2,485.9,527.2,480.8,538.7z"/>
	<path class="st0" d="M67.3,542.3c-2.2-1.9-4.6-2.8-7.2-2.8c-4.4,0-9.4,2.8-13.6,7.6c-5.1,6-8,13.8-7.1,19.3
		c2,9.5,10.7,14.5,18.2,14.5l0,0c5.2,0,9.8-2.3,12.8-6.4C76.5,566.2,74.8,548.7,67.3,542.3z M70.1,574.3c-2.9,4-7.3,6.2-12.5,6.2
		l0,0c-7.3,0-15.7-4.9-17.7-14.1c-0.8-5.4,2-13.1,7-19c4.1-4.7,8.9-7.4,13.2-7.4c2.5,0,4.8,0.9,6.9,2.7
		C74.4,548.9,76,566.1,70.1,574.3z"/>
	<path class="st0" d="M229,600.7c-0.3-0.7-0.7-1.4-0.9-2.1l0-0.1l0-0.1c-1.7-1.2-3.8-1.9-5.8-1.9c-3.2,0-6.5,1.5-8.9,4.1
		c-2.2,2.4-3.3,5.3-3,8.3l0,0.1c1.6,3.1,4.2,4.8,7.6,4.8l0,0c5.2,0,11.6-4.5,12.1-10.6v0v0C229.9,602.3,229.4,601.5,229,600.7z
		 M217.9,613.4L217.9,613.4c-3.2,0-5.7-1.6-7.2-4.6c-0.3-2.8,0.8-5.6,2.9-7.9c2.3-2.4,5.4-3.9,8.5-3.9c2,0,3.9,0.7,5.5,1.8
		c0.2,0.8,0.6,1.5,1,2.1c0.4,0.8,0.8,1.5,1,2.3C229,609.1,223,613.4,217.9,613.4z"/>
	<path class="st0" d="M828.8,8.7c10.7,5.2,23.4,5.7,33.8,1.5c5.2-2.2,9.7-5.5,13.1-9.7h-0.5c-3.3,4-7.5,7.1-12.7,9.2
		c-10.4,4.3-22.9,3.8-33.5-1.4c-3.5-1.7-6.7-4.3-9.8-7.8h-0.6C821.8,4.3,825.2,7,828.8,8.7z"/>
	<path class="st0" d="M448.3,26.9c4.2,3,8.2,6.1,12,9.1c9.3,7.3,18.1,14.2,27.8,17.4c10.9,5.4,21.3,8.1,31.2,8.1
		c8.2,0,16.1-1.9,23.5-5.6c21.9-11,34.2-35,38.9-55.5h-0.5c-4.7,20.3-16.9,44.2-38.6,55.1c-16.2,8.2-34.5,7.3-54.3-2.5
		c-9.7-3.2-18.4-10.1-27.7-17.4c-3.9-3-7.8-6.1-12.1-9.1c-4.5-3.2-9.2-6.3-13.8-9.3c-8.2-5.5-16.3-10.8-23.4-16.7h-0.7
		c7.2,6.1,15.5,11.5,23.9,17.1C439.1,20.6,443.8,23.7,448.3,26.9z"/>
	<path class="st0" d="M605.3,35.3c3,7.2,9.5,10.7,19.9,10.7c5.3,0,10.8-0.9,15.2-1.6h0.1c1-0.2,2-0.2,3.1-0.2
		c4.2,0,8.4,1.2,12.5,2.4c2.1,0.6,4.3,1.3,6.4,1.7c1.7,0.4,3.4,0.7,5.1,1.1c7,1.4,14.3,2.8,20.9,5.8c2.6,1.2,5.2,2.4,7.8,3.5
		c12.8,5.5,26.1,11.3,34.7,22.5c0.5,0.7,1,1.4,1.5,2.1c6,8.9,11.2,18.5,16.2,27.7c5.6,10.5,11.5,21.2,18.5,31
		c6.8,9.6,16,20.2,24.8,30.5c3.1,3.6,6,7,8.8,10.3c14.1,16.7,27.4,32.4,51.9,32.4h0c6.3,0,12.9-1,20.4-3c21.2-5.7,58.7-20,71.5-51
		c3.4-8.2,5.6-19.7,8-31.8c1.8-9.1,3.7-18.6,6.1-26.5v-1.5c-2.6,8.2-4.6,18.2-6.5,27.9c-2.4,12.1-4.7,23.5-8,31.7
		c-12.8,30.8-50.1,45-71.2,50.7c-7.4,2-14.1,3-20.3,3h0c-24.3,0-37.5-15.6-51.5-32.3c-2.8-3.3-5.7-6.7-8.8-10.3
		c-8.8-10.3-18-20.9-24.8-30.4c-7-9.8-12.8-20.6-18.5-31c-5-9.3-10.2-18.9-16.2-27.8c-0.5-0.7-1-1.5-1.5-2.1
		c-8.7-11.2-22-17-34.8-22.6c-2.6-1.1-5.3-2.3-7.8-3.5c-6.6-3.1-13.9-4.5-21-5.9c-1.7-0.3-3.4-0.7-5.1-1c-2.1-0.5-4.3-1.1-6.4-1.7
		c-4.1-1.2-8.4-2.5-12.6-2.5c-1.1,0-2.2,0.1-3.2,0.2l-0.2,0c-4.4,0.7-9.8,1.6-15,1.6c-10.2,0-16.6-3.4-19.5-10.3
		c-3-7.1-2-19.3-1.1-30c0.1-1.6,0.3-3.2,0.4-4.7h-0.5c-0.1,1.5-0.2,3-0.3,4.6C603.3,15.9,602.3,28.1,605.3,35.3z"/>
	<path class="st0" d="M789,14.1c13.2,17.9,36.6,28.5,62.6,28.5c6.5,0,12.8-0.7,18.7-2c23.1-5.1,30.5-20.9,33.8-40.2h-0.4
		c-1,6.1-2.5,11.8-4.7,17c-5.3,12.4-14.5,19.6-28.8,22.8c-5.9,1.3-12.2,2-18.6,2c-25.9,0-49.1-10.6-62.2-28.3
		c-1.5-3.8-2.7-8.4-3.9-13.4H785C786.2,5.6,787.5,10.2,789,14.1L789,14.1z"/>
	<path class="st0" d="M662.9,23.5c11.8,1.7,23,5.2,33.8,8.6c7,2.2,14.2,4.5,21.6,6.2c4.7,1.1,9.4,2,13.5,2.7c4.3,0.6,8,1,11.1,1l0,0
		c6.4,0,10.3-1.3,11.5-4c3.3-7.1,5.8-22.5,5.9-37.4h-0.4c-0.1,14.9-2.7,30.1-5.9,37.2c-1.1,2.5-4.9,3.7-11.1,3.7
		c-3.1,0-6.8-0.3-11.1-0.9c-4.2-0.6-8.8-1.5-13.5-2.7c-7.3-1.8-14.5-4-21.5-6.2c-10.9-3.4-22.1-6.9-33.9-8.6
		c-11.6-1.7-20.9-9.6-26.3-22.5h-0.5C641.6,13.6,651,21.7,662.9,23.5z"/>
	<path class="st0" d="M921.9,12c-0.6,16.3-1.1,30.5-12,38.8c-11.3,8.7-31,11.2-45.4,13c-1.4,0.2-2.9,0.4-4.2,0.6
		c-2.5,0.3-5.1,0.5-7.7,0.5l0,0c-14.7,0-30.3-4.9-45.5-9.7c-13.6-4.2-27.5-8.6-40.6-9.4h0l0,0c-7.5,2.1-9.3,10.1-8.6,16.8
		c2.1,26.3,11.4,47.9,32.1,74.4c4.1,5.3,8.1,10.7,11.8,16c6.4,8.8,12.5,17.2,19.6,25.1c10.6,11.9,23.9,17.9,39.5,17.9l0,0
		c18.1,0,38.5-8.4,56-23.2c18-19.5,20.7-45.2,21.9-70c0.1-1.9,0.1-3.9,0.2-6.1c0.3-9.9,0.6-22.3,5.4-28.4c4.3-5.4,9.3-9.5,14.5-13.2
		v-0.5c-5.3,3.7-10.5,7.9-14.9,13.5c-4.9,6.2-5.2,18.6-5.5,28.6c-0.1,2.2-0.1,4.2-0.2,6.1c-1.2,24.6-3.9,50.4-21.8,69.7
		c-17.3,14.7-37.6,23.1-55.6,23.1c-15.5,0-28.7-6-39.2-17.8c-7-7.9-13.1-16.3-19.5-25.2c-3.8-5.2-7.7-10.6-11.8-15.9
		c-20.6-26.5-29.9-48-32-74.2c-0.7-6.5,1-14.3,8.2-16.3c13,0.8,26.9,5.1,40.5,9.4c15.2,4.8,30.9,9.7,45.6,9.7l0,0
		c2.7,0,5.3-0.2,7.8-0.5c1.3-0.2,2.8-0.4,4.2-0.5c14.4-1.8,34.3-4.4,45.6-13.1c11.1-8.5,11.6-22.7,12.2-39.2c0.1-3.4,0.2-7,0.5-10.5
		c0.1-0.3,0.1-0.6,0.1-1h-0.5c0,0.3,0,0.6,0,0.9C922.2,5,922.1,8.5,921.9,12z"/>
	<path class="st0" d="M928.9,232.1L928.9,232.1c-3.1,2.5-7.7,6.1-7.2,11.2l0,0.1l0.1,0.1c1,0.8,1.9,1.7,2.6,2.5l0,0.1h0.1
		c5.6,1.1,11.4,1.7,17.1,1.7l0,0c5.8,0,11.7-0.6,17.3-1.8v-0.5c-5.7,1.2-11.5,1.8-17.3,1.8c-5.7,0-11.4-0.6-16.9-1.7
		c-0.8-0.8-1.6-1.7-2.5-2.5c-0.4-4.8,3.9-8.2,7-10.7l0.1-0.1c5.4-4.3,12.5-7.5,20-11c3.3-1.5,6.5-3,9.7-4.6v-0.5
		c-3.3,1.6-6.6,3.2-9.9,4.6C941.4,224.4,934.3,227.7,928.9,232.1z"/>
	<path class="st0" d="M948.2,4.3c0.5,6.1,5.5,11.6,10.7,11.6v-0.5c-5,0-9.7-5.2-10.2-11.2c-0.1-1.3-0.1-2.5,0-3.7h-0.4
		C948.1,1.7,948.1,3,948.2,4.3z"/>
	<path class="st0" d="M886.2,86.5c-3,0-6,0.3-9.1,0.9c-6.8,1.3-14,3.5-21.7,5.7c-8.6,2.5-17.6,5.2-26.1,6.6
		c-7.9,1.4-11.3,4.9-10.4,10.7v0c2.8,5.8,4.9,12.3,7.1,19.1c4.9,14.9,9.9,30.4,22.2,38.4c5.8,3.8,12.8,5.7,20.4,5.7l0,0
		c12.3,0,24.8-5.1,33.6-13.7c7.2-7.1,12.5-18.7,14.1-30.9c1.7-12.9-0.9-25.2-7.1-33.6C905,90,896.2,86.5,886.2,86.5z M901.9,159.8
		c-8.7,8.5-21.2,13.6-33.3,13.6c-7.5,0-14.4-2-20.1-5.7c-12.2-7.9-17.1-23.3-22-38.2c-2.2-6.8-4.3-13.3-7.1-19.1
		c-0.8-5.6,2.3-8.8,10-10.2c8.5-1.5,17.5-4.1,26.2-6.7c7.6-2.3,14.9-4.4,21.6-5.7c3.1-0.6,6.1-0.9,9-0.9c9.8,0,18.5,3.4,22.6,8.9
		C922.5,114.2,916.2,145.8,901.9,159.8z"/>
	<path class="st0" d="M377.4,284.3c2.3,4.3,4.6,8.7,6.5,13.1c1.7,3.8,3.5,7.7,5.1,11.6c10.3,23.5,21,47.8,36.5,67.3
		c5.9,7.5,13.2,14.6,20.1,21.6c6.7,6.6,13,12.8,18,19.1c2.5,3,4.6,6.3,6.6,9.5c4.3,6.6,8.3,12.9,15.1,17.2l0.1,0l1.9-0.1
		c25.8-1.5,48.1-2.9,71.8-7.2c16.9-3.1,28.8-6.3,35.4-9.7c13.7-7,17.4-19.5,21.4-32.8c0.4-1.4,0.9-2.8,1.3-4.2
		c5.8-18.8,14.2-37.9,35.8-49.8l0.1-0.1c0.2-0.2,0.3-0.4,0.5-0.6c4.5-2.4,9-4.8,13.5-7.1c7.8-4.1,15.9-8.4,23.9-12.6
		c3.5-1.8,6.9-3.7,10.3-5.4c5.2-2.8,10.7-5.7,16.1-8.4c3.7-1.8,7-4.3,10.3-6.7c0.8-0.6,1.6-1.2,2.4-1.8c3-2.2,6.3-4.4,10.1-5.9
		c7.1-2.8,15-3.1,22.6-3.5c6.6-0.3,13.4-0.6,19.7-2.5c6.1-1.8,10.3-3.3,13.8-8.5c11.4-16.6,5.6-29-3.7-44.7
		c-9.8-16.5-21.8-29.3-35.6-38.2c-2.5-1.6-5.1-2.9-7.7-4.1c-2.9-1.4-5.8-2.8-8.5-4.6c-3.1-2.1-6.1-4.5-9-6.7
		c-2.4-1.8-4.8-3.7-7.2-5.5c-10-7.2-22-15.2-35.4-19.9c-4.4-1.6-9.7-1.9-13.4-1.9c-3.7,0-7.5,0.3-10.8,1c-4.2,0.8-7.5,2.6-11.1,4.6
		c-1.5,0.8-3.1,1.7-4.7,2.5c-1.8,0.8-3.7,1.4-5.4,2.1c-2.4,0.8-4.7,1.6-6.9,2.9c-5.4,3-10.7,6.5-15.8,9.9c-4.9,3.3-10,6.6-15.2,9.5
		c-24.6,13.9-45.8,21.7-66.3,24.6c-6.1,0.9-12.4,1.4-18.5,1.4c-7.7,0-15.3-0.7-22.7-2.1c-5.8-1.1-11.7-2.7-17.5-4.4
		c-10.1-2.8-20.6-5.7-30.8-5.7c-5.6,0-10.7,0.8-15.5,2.6c-9.8,3.6-18.5,11-27.7,18.9c-4.7,4-9.6,8.2-14.8,12.1
		c-1.2,0.9-2.7,1.9-4.4,3.1c-3.8,2.7-8.4,5.9-12.5,9.3c-7.5,6.4-9.5,12.3-7.1,20.3C370,270.3,373.6,277.1,377.4,284.3z M375.3,243.8
		c4-3.4,8.7-6.6,12.5-9.3c1.7-1.2,3.2-2.2,4.4-3.1c5.3-3.9,10.2-8.1,14.9-12.1c9.2-7.9,17.8-15.3,27.5-18.9
		c4.8-1.7,9.8-2.6,15.4-2.6c10.2,0,20.6,2.9,30.7,5.8c5.8,1.6,11.8,3.3,17.6,4.4c7.4,1.4,15.1,2.1,22.8,2.1c6.1,0,12.4-0.4,18.5-1.4
		c20.7-3,41.8-10.9,66.5-24.7c5.2-2.9,10.3-6.3,15.2-9.5c5.1-3.4,10.4-6.8,15.7-9.8c2.2-1.2,4.6-2.1,6.8-2.8
		c1.8-0.6,3.7-1.3,5.5-2.1c1.7-0.8,3.3-1.7,4.8-2.5c3.6-1.9,6.9-3.8,10.9-4.6c3.3-0.6,7.1-1,10.8-1c3.6,0,8.8,0.4,13.3,1.9
		c13.3,4.7,25.3,12.7,35.2,19.9c2.4,1.8,4.9,3.6,7.2,5.5c2.9,2.2,5.9,4.6,9,6.7c2.7,1.9,5.7,3.3,8.6,4.6c2.6,1.2,5.2,2.4,7.6,4
		c13.8,8.8,25.7,21.6,35.4,38c9.3,15.6,15,27.9,3.8,44.3c-3.5,5.1-7.6,6.6-13.6,8.3c-6.3,1.9-13.1,2.2-19.6,2.5
		c-7.6,0.3-15.5,0.7-22.8,3.5c-3.8,1.5-7.1,3.7-10.1,5.9c-0.9,0.6-1.7,1.2-2.5,1.8c-3.2,2.4-6.5,4.9-10.2,6.7
		c-5.4,2.7-10.9,5.5-16.1,8.3c-3.4,1.8-6.8,3.7-10.3,5.4c-8,4.2-16.1,8.4-23.9,12.6c-4.5,2.4-9,4.8-13.5,7.2l-0.1,0
		c-0.2,0.2-0.4,0.4-0.6,0.6c-21.8,12.1-30.2,31.2-36,50.1c-0.4,1.4-0.9,2.8-1.3,4.2c-4,13.2-7.7,25.6-21.2,32.5
		c-6.6,3.4-18.5,6.7-35.3,9.7c-23.7,4.3-46,5.6-71.8,7.2l-1.8,0.1c-6.6-4.3-10.7-10.4-14.9-17c-2-3.2-4.2-6.5-6.6-9.5
		c-5.1-6.3-11.4-12.6-18-19.2c-6.9-7-14.2-14.1-20.1-21.6c-15.5-19.5-26.2-43.7-36.5-67.2c-1.7-3.9-3.4-7.8-5.1-11.6
		c-2-4.4-4.3-8.8-6.6-13.1c-3.8-7.2-7.3-13.9-9.4-20.5C366,255.8,368,250.1,375.3,243.8z"/>
	<path class="st0" d="M416.7,314.4l0.9,3.3c9,33.5,22.4,53.3,49.3,73.1l0.6,0.5c14.5,10.6,27.1,19.9,41,24.3
		c7,2.3,15.5,3.4,24.6,3.4c0,0,0,0,0,0c12.1,0,24.5-2.1,33-5.6c22.6-9.3,30.8-29.1,40.3-52c12.5-30,34.4-68.8,67.6-83.3
		c6-2.6,11.8-3.2,18-3.7c2.4-0.2,4.8-0.5,7.3-0.8c9.4-1.3,19.9-3.3,32.2-5.9c1.7-0.3,3.5-0.7,5.2-1.1c9-2,20.8-7.6,24.7-16.9
		c2.9-6.9,2.5-13.2-1.2-18.6c-10.8-16.3-48.1-21.9-63.4-21.9h-0.3c-6.8,0-13.7,0.7-20.4,1.4c-3.8,0.4-7.7,0.8-11.5,1.1
		c-6.4,0.5-11.7,2.3-18.2,6.3c-6.7,4.2-13.9,6.2-22.5,6.2c-6.5,0-13.1-1.1-20-2.2c-2.1-0.4-4.3-0.7-6.5-1
		c-9.1-1.3-18.8-1.9-30.7-1.9c-7.4,0-14.8,0.2-22,0.5c-7.1,0.2-14.5,0.4-21.7,0.4c-13.2,0-23.8-0.8-33.6-2.5c-2.9-0.5-5.9-1.3-9.2-2
		c-7-1.7-15-3.6-23-3.6c-4.4,0-8.4,0.5-12.1,1.7c-18.5,5.6-34,28.2-36.8,45.9c-1.1,6.6-0.9,13.4,0.5,21.3
		C410.8,292.6,413.7,303.2,416.7,314.4z M408.7,259.3c2.8-17.5,18.1-40,36.5-45.5c3.8-1.1,7.6-1.7,12-1.7c8,0,15.9,1.9,22.9,3.6
		c3.3,0.8,6.4,1.5,9.3,2.1c9.8,1.7,20.4,2.5,33.6,2.5c7.2,0,14.6-0.2,21.7-0.4c7.2-0.2,14.6-0.5,22-0.5c11.8,0,21.6,0.6,30.7,1.9
		c2.2,0.4,4.4,0.7,6.5,1c7,1.1,13.6,2.1,20.1,2.1c8.7,0,16-2,22.8-6.2c6.4-4,11.6-5.8,17.9-6.3c3.8-0.3,7.7-0.7,11.5-1.1
		c6.7-0.7,13.7-1.4,20.4-1.4h0.3c15.2,0,52.3,5.5,63,21.7c3.6,5.3,4,11.5,1.1,18.3c-3.8,9.1-15.5,14.7-24.4,16.7
		c-1.7,0.4-3.4,0.7-5.1,1.1c-12.3,2.6-22.8,4.6-32.2,5.9c-2.5,0.3-4.9,0.6-7.3,0.8c-6.2,0.6-12.1,1.1-18.1,3.8
		c-33.3,14.6-55.3,53.5-67.8,83.6c-9.5,22.8-17.7,42.5-40.1,51.7c-8.5,3.5-20.8,5.6-32.9,5.6h0c-9.1,0-17.6-1.2-24.5-3.4
		c-13.9-4.4-26.4-13.6-40.9-24.2l-0.6-0.5C440.3,370.8,427,351,418,317.6l-0.9-3.3c-3.1-11.2-5.9-21.9-8-33.9
		C407.8,272.5,407.6,265.8,408.7,259.3z"/>
	<path class="st0" d="M918.3,306.3L918.3,306.3c-1.1,2-2.1,3.6-3,4.9c-3.1,5-5,8.1-5.9,16.4c-0.7,6.6-0.5,13.3-0.2,19.9
		c0.3,7.7,0.6,15.7-0.7,23.6c-4.6,27.8-26.7,56.5-51.6,66.7c-2.4,1-5.7,2.2-7.9,2.7c-1.8,0.3-3.5,0.5-5.1,0.5l0,0
		c-14.6,0-17.9-14.4-21.2-28.2c-0.8-3.1-1.5-6.3-2.4-9.2c-3.3-11.4-7.8-18.9-14.5-24.5c-6.7-5.5-15.8-9.1-29.4-11.6
		c-5.5-1-10.6-1.5-15.5-1.5c-9.5,0-18.5,1.8-30.2,5.9c-0.5,0.2-1,0.3-1.5,0.5c-6.5,2.2-12.1,4.2-16,10.2
		c-7.5,11.8-13.6,30.8-10.7,44.2c2.8,13.2,12.4,15.8,22.5,18.6c2,0.5,3.9,1.1,5.9,1.7c3.1,1,5.5,2.1,7.7,3.3
		c15.3,8.6,32.1,16.3,53.1,24.4c17.8,6.9,26.4,22,34.8,36.6c8.1,14.1,16.5,28.8,33.2,35.8c2.6,1.1,5.4,1.6,8.5,1.6l0,0
		c3.7,0,7.8-0.8,12.2-2.3c11.9-4.2,22.6-16.9,30.6-27.6c12.5-16.7,28-37.6,46.4-51c0.5-0.3,1-0.7,1.5-1v-0.6
		c-0.6,0.4-1.1,0.8-1.7,1.2c-18.4,13.4-33.9,34.2-46.5,51c-7.9,10.6-18.5,23.4-30.3,27.5c-4.4,1.5-8.4,2.3-12,2.3l0,0
		c-3.1,0-5.8-0.5-8.4-1.6c-16.5-6.9-24.9-21.5-33-35.6c-8.4-14.6-17.1-29.8-35-36.7c-21-8.1-37.8-15.9-53-24.4
		c-2.2-1.2-4.6-2.3-7.8-3.3c-1.9-0.6-4-1.2-5.9-1.7c-10-2.8-19.4-5.4-22.2-18.3c-2.9-13.4,3.2-32.2,10.7-43.9
		c3.8-5.9,9.3-7.9,15.7-10c0.5-0.2,1-0.4,1.5-0.5c11.7-4.2,20.6-5.9,30-5.9c4.9,0,9.9,0.5,15.4,1.5c26.2,4.8,37.2,13.9,43.6,35.8
		c0.9,2.9,1.6,6.1,2.3,9.2c3.3,14.1,6.7,28.5,21.6,28.5l0,0c1.6,0,3.4-0.1,5.1-0.5c2.3-0.4,5.6-1.7,8-2.7
		c12.3-5,24.3-14.7,33.8-27.1c9.4-12.3,15.8-26.4,18-39.9c1.3-7.9,1-15.9,0.7-23.6c-0.3-6.5-0.5-13.3,0.2-19.8
		c0.9-8.2,2.8-11.2,5.9-16.2c0.8-1.4,1.8-3,2.9-4.8c8.7-7.1,19.1-10.8,30.8-10.8c3.1,0,6.2,0.3,9.4,0.8v-0.5
		c-3.2-0.5-6.3-0.8-9.4-0.8C937.6,295.4,927.1,299.1,918.3,306.3z"/>
	<path class="st0" d="M934.1,339.1c-2.3,6.7-2.7,13.6-3.2,21.6c-0.2,2.8-0.3,5.6-0.6,8.8c-1.1,12.1-3.4,24.5-5.7,36.6
		c-2.2,11.9-4.4,23.2-4.7,32.1v0.1l0.1,0.1c1.4,1,2.9,2,4.7,2c0.3,0,0.7,0,1-0.1l0.1,0c4.5-2.6,9.2-4.9,13.8-7.1
		c6.6-3.2,13.3-6.4,19.4-10.6v-0.5c-6.2,4.2-13,7.5-19.6,10.7c-4.6,2.3-9.4,4.6-13.9,7.2c-0.3,0.1-0.5,0.1-0.8,0.1
		c-1.6,0-3.1-0.9-4.4-1.8c0.4-8.8,2.5-20,4.7-31.9c2.3-12.1,4.6-24.5,5.7-36.6c0.3-3.1,0.5-6,0.6-8.8c0.5-8,0.9-14.8,3.2-21.5
		c3.1-9.1,10.7-15.1,19.4-15.1c1.6,0,3.3,0.2,4.9,0.6v-0.4c-1.6-0.4-3.3-0.6-4.9-0.6C945.1,323.7,937.4,329.7,934.1,339.1z"/>
	<path class="st0" d="M762.4,399c-8.4,0-16.8,4.1-16.9,13.3v0.1c2.6,9,15.1,20,26,20l0,0c2.7,0,5.1-0.7,7.3-2c3.1-2,5-5,5.7-8.7
		c0.9-4.7-0.6-10.4-3.6-14.5C777.1,402.2,770,399,762.4,399z M784,421.6c-0.6,3.5-2.6,6.4-5.5,8.4c-2,1.3-4.4,2-7,2
		c-10.7,0-23-10.8-25.6-19.7c0.1-8.9,8.3-12.9,16.5-12.9c7.5,0,14.4,3.1,18.1,8C783.4,411.5,784.8,417.1,784,421.6z"/>
	<path class="st0" d="M908.4,454.2l-0.1,0c-0.8-0.3-1.7-0.4-2.6-0.4c-3.8,0-7.8,2.4-11.7,4.6c-1.5,0.8-3,1.7-4.4,2.4
		c-0.8,0.4-1.7,0.8-2.6,1.3c-12.8,6.3-30.4,14.9-29.1,35.4c1.8,6.4,7.1,12.8,15,12.8l0,0c0.7,0,1.5-0.1,2.3-0.2
		c14.4-5.9,22.9-22.6,28.8-36.5l0.4-1C907.1,466.3,910.1,459.3,908.4,454.2L908.4,454.2z M904,472.4l-0.4,1
		c-5.9,13.8-14.4,30.4-28.6,36.2c-0.7,0.1-1.4,0.2-2.1,0.2l0,0c-7.6,0-12.8-6.3-14.5-12.4c-1.2-20.2,16.2-28.7,28.9-34.9
		c0.9-0.4,1.8-0.8,2.6-1.3c1.5-0.7,3-1.6,4.4-2.4c3.8-2.3,7.8-4.6,11.5-4.6c0.8,0,1.6,0.1,2.4,0.3
		C909.6,459.4,906.6,466.3,904,472.4z"/>
	<path class="st0" d="M750.8,611.4c-4.2-3.9-8.5-5.9-12.6-5.9c-9.7,0-16.2,11.1-17.6,22.1c-1,8.3-0.8,17.3,0.6,24.7
		c1.4,7.3,4.3,10.9,10.4,13c1.4,0.5,3,0.9,5,1.3c3.2,0.7,6,1,8.7,1l0,0c7,0,12.1-2.4,15.2-7.2c3.6-5.5,3-18.2,2.1-24.9
		C761.3,626,757,617.2,750.8,611.4z M760.1,660.2c-3,4.6-8,7-14.8,7c-2.6,0-5.4-0.3-8.6-1c-2-0.4-3.6-0.8-5-1.3
		c-5.9-2-8.7-5.4-10-12.7c-1.5-7.3-1.7-16.3-0.6-24.5c1.3-10.8,7.6-21.7,17.1-21.7c4,0,8.1,1.9,12.3,5.8
		c6.1,5.7,10.4,14.4,11.7,23.8C763,641.7,763.6,654.8,760.1,660.2z"/>
	<path class="st0" d="M47.4,759.5c4.3-0.8,7.8-1.7,11.3-2.5c4.3-1,8.3-2,13.5-2.8c4.8-0.7,9.8-1.1,14.6-1.4
		c10.9-0.7,22.2-1.5,31.9-6.5c12.1-6.3,13.4-22.5,9.2-35.7c-7-22.4-16-37.8-27.6-47.2c-4.6-3.7-8.8-7.9-13-12.1
		c-8.3-8.3-16.9-16.8-28.1-21.4c-8.5-3.5-18.4-6-27.9-8.5c-5.7-1.5-11.7-3.1-17.3-4.8c-2.6-0.8-5.5-1.8-8.5-3
		c-1.6-0.6-3.3-1.2-5-1.8v0.5c1.7,0.6,3.3,1.2,4.9,1.8c3,1.1,5.9,2.2,8.5,3c5.6,1.7,11.6,3.3,17.3,4.8c9.5,2.5,19.3,5,27.9,8.5
		c11.1,4.5,19.7,13.1,27.9,21.3c4.1,4.1,8.5,8.4,13,12.1c11.5,9.4,20.5,24.7,27.5,47.1c4.1,13,2.9,28.9-9,35.1
		c-9.6,5-20.8,5.8-31.7,6.5c-4.9,0.3-9.9,0.7-14.7,1.4c-5.2,0.8-9.4,1.8-13.5,2.8c-3.5,0.9-7,1.7-11.3,2.5
		c-7.8,1.4-15.7,2.5-23.5,3.5c-8.1,1.1-16,2.2-23.4,3.5v0.5c7.3-1.4,15.2-2.5,23.4-3.5C31.6,761.9,39.6,760.9,47.4,759.5z"/>
	<path class="st0" d="M37.3,732.6c10.1-2.9,20.5-5.8,30.5-10.1c9.8-4.3,19.7-9.2,24.1-19.3c5.7-13.1,0.1-27.2-14.9-37.7
		c-2.6-1.8-5.1-3.6-7.5-5.4c-10.1-7.4-19.6-14.4-33.4-17c-8.9-1.7-22.1-2.7-35.6-3v0.5c13.5,0.3,26.6,1.3,35.5,3
		c13.6,2.7,23.1,9.6,33.2,17c2.4,1.8,4.9,3.6,7.5,5.4c14.9,10.4,20.4,24.2,14.8,37.1c-4.3,9.9-14.2,14.9-23.9,19
		c-9.9,4.4-20.3,7.3-30.4,10.1c-5.2,1.5-10.7,3-16,4.7c-6.8,2.2-13.9,3.6-20.7,4.9v0.5c6.9-1.3,14-2.7,20.8-4.9
		C26.6,735.6,32.1,734.1,37.3,732.6z"/>
	<path class="st0" d="M34.1,785.5c10.2,0.4,20.7,0.7,31-0.3c9.4-1,18.1-2.9,26.5-4.8c2.1-0.4,4.2-0.9,6.3-1.4c1.6-0.4,3.1-0.7,4.7-1
		c16-3.4,32.6-6.9,46.1-16.1c15.7-10.7,17.8-33,10.6-48.5c-6.5-14.2-17.5-25.3-28.1-36.2c-8.8-8.9-17.9-18.2-24.4-29.2
		c-3-4-5.4-7.8-7.8-11.6c-7.7-12-13.8-21.4-30-25.2c-31.2-7.3-58.1-13.6-63.1-44.6c-1.8-11,0.7-19.6,3-27.9
		c1.9-6.6,3.6-12.9,3.2-19.9l0-0.1l-0.1,0c-0.8-0.8-1.6-1.6-2.4-2.4c-1-1.1-2.1-2.2-3.3-3.1l-0.1-0.1H6.1c-2.1,0.1-4,0.4-5.6,0.8
		v0.4c1.6-0.3,3.4-0.6,5.5-0.8c1.1,0.9,2.2,1.9,3.2,3c0.8,0.8,1.5,1.6,2.4,2.3c0.4,7-1.3,13.2-3.2,19.7c-2.3,8.4-4.7,17-3,28.1
		c5.1,31.4,32.1,37.7,63.4,45c16,3.7,22.1,13.1,29.7,25c2.4,3.8,4.9,7.6,7.9,11.6c6.5,11,15.6,20.3,24.4,29.3
		c10.6,10.8,21.5,21.9,28.1,36c7,15.3,5.1,37.4-10.5,48c-13.5,9.1-30,12.7-45.9,16c-1.6,0.3-3.2,0.7-4.7,1c-2.1,0.5-4.2,0.9-6.3,1.4
		c-8.4,1.9-17,3.8-26.5,4.8c-10.2,1.1-20.7,0.7-30.9,0.3c-11.8-0.4-23-0.8-33.6,0.8v0.5C11.2,784.7,22.4,785.1,34.1,785.5z"/>
	<path class="st0" d="M344.4,684.9c1.5,0.7,2.8,1.3,3.9,2.2c5.2,3.8,9.7,9,12.5,12.7c7.1,9.3,11.4,18.3,14.1,30.1
		c3.9,16.4,14.2,23,30.7,28.7c9.4,3.3,19.9,5,30.3,5c5.2,0,10.4-0.5,15.2-1.3c17.8-3.2,29.2-13.9,31.3-29.6c0.5-3.3,1.1-6.7,1.7-10
		c2.4-13.3,4.9-27-2.8-39.3c-6.3-10-18.2-11.4-30.2-11.4c-2.3,0-4.6,0.1-6.8,0.1c-2.2,0.1-4.5,0.1-6.6,0.1c-4.3,0-7.5-0.2-10.2-0.6
		c-9.5-1.5-19-3.9-28.1-6.1c-15.1-3.7-29.4-7.2-43.6-7.2c-3,0-6,0.2-8.8,0.5c-3.6,0.4-6.9,3.6-8.8,8.4c-1.8,4.5-2.3,10.6,0.5,14
		C340,682.8,342.2,683.8,344.4,684.9z M338.4,667.2c1.9-4.7,5-7.7,8.4-8.1c2.8-0.3,5.8-0.5,8.8-0.5c14.2,0,28.4,3.5,43.5,7.2
		c9.2,2.3,18.6,4.6,28.2,6.1c2.8,0.5,6,0.6,10.3,0.6c2.1,0,4.4,0,6.6-0.1c2.2-0.1,4.6-0.1,6.8-0.1c11.8,0,23.6,1.3,29.8,11.1
		c7.6,12.1,5.1,25.8,2.8,39c-0.6,3.3-1.2,6.7-1.7,10c-2.1,15.4-13.4,26.1-31,29.3c-4.8,0.9-9.9,1.3-15.1,1.3
		c-10.3,0-20.7-1.7-30.1-4.9c-16.4-5.7-26.6-12.1-30.4-28.4c-2.8-11.8-7-20.8-14.3-30.2c-2.8-3.7-7.3-8.9-12.5-12.8
		c-1.2-0.9-2.6-1.5-4-2.2c-2.2-1-4.4-2.1-5.7-3.7C336.5,678,336.4,672.4,338.4,667.2z"/>
	<path class="st0" d="M426.4,744.8c5.3,0,10.8-0.9,13.4-1.8c0.8-0.3,1.6-0.6,2.3-0.9c4.3-2,6.8-5.5,6.9-9.7c0.1-3.3-1.4-6.8-3.9-9.4
		c-3.4-3.5-8.2-4.8-12.9-3.4c-5,1.5-15.4,7.5-18.5,14c-1.1,2.3-1.2,4.4-0.4,6.3C414.9,743.9,421.3,744.8,426.4,744.8z M414,733.8
		c3.1-6.4,13.4-12.3,18.3-13.8c1.2-0.4,2.5-0.5,3.6-0.5c3.3,0,6.4,1.3,8.8,3.8c2.5,2.5,3.9,5.9,3.8,9.1c-0.1,4-2.5,7.3-6.6,9.3
		c-0.7,0.3-1.4,0.6-2.2,0.9c-2.6,0.8-8,1.7-13.3,1.7c-7.1,0-11.6-1.6-12.7-4.5C412.9,738,413,736,414,733.8z"/>
	<path class="st0" d="M563.9,912.9c-0.1-1-0.1-2.1,0-3.2c0-1.2,0.1-2.3-0.1-3.5c-0.9-7.2-3.8-16.1-6.9-25.5
		c-3.2-9.6-6.5-19.4-8-28.9c-0.6-4-1.1-8.3-1.5-12.4c-1.3-13.6-2.6-27.5-12.1-33.7c-4.3-2.9-10.6-4.1-19.7-4.1
		c-5.1,0-10.6,0.4-16,0.8c-2.1,0.1-4.2,0.3-6.3,0.4c-18.7,1.1-57.6,6-71.2,16.3c-18.5,14.1-20.8,38.2-20.5,60
		c2.2,27.4,20.9,42.8,41.6,58.2h0.7c-20.7-15.5-39.6-30.8-41.9-58.3c-0.3-21.6,2-45.6,20.4-59.6c13.5-10.2,52.3-15.1,71-16.2
		c2.1-0.1,4.2-0.3,6.3-0.4c5.4-0.4,10.9-0.8,16-0.8c9.1,0,15.2,1.3,19.5,4.1c9.3,6.1,10.6,20,11.9,33.4c0.4,4.2,0.8,8.5,1.5,12.5
		c1.6,9.5,4.8,19.4,8,29c3.1,9.3,6.1,18.1,6.9,25.3c0.1,1.2,0.1,2.4,0.1,3.5c0,1.2-0.1,2.2,0.1,3.3c0.9,7.1-0.1,15.6-2.5,24.2h0.5
		C563.8,928.6,564.8,920,563.9,912.9z"/>
	<path class="st0" d="M63.8,916.1c-0.3-6.3-0.1-12.7,0.1-18.8c0.3-9.4,0.6-18.3-1-25.5c-4-17.6-26.2-30.2-45.7-36.1
		c-5.8-1.8-11.1-2.4-16.8-1.9v0.4c5.6-0.4,10.9,0.2,16.7,1.9c19.4,5.9,41.4,18.4,45.3,35.8c1.6,7.1,1.3,16,1,25.4
		c-0.2,6.2-0.4,12.5-0.1,18.8c0.3,7.5,0.1,14.6-0.7,21h0.5C63.9,930.7,64.2,923.6,63.8,916.1z"/>
	<path class="st0" d="M540.8,908.8c-0.8-4.3-2.4-9.5-4.1-15c-2.4-7.9-5.1-16.9-6.4-26.1c-0.4-2.6-0.7-5-1.1-7.4
		c-2.2-15.6-3.9-27.9-14.3-36.1c-7.1-5.5-20.4-8.9-35.5-8.9c-18.4,0-35.6,4.6-45.9,12.5c-16.9,12.8-17.6,35.3-15.2,52
		c3.7,17.8,16.5,26.9,32.7,38.6c7.5,5.4,15.3,11,23.3,18.2c0.2,0.2,0.4,0.4,0.6,0.6h0.7c-0.4-0.3-0.7-0.6-1-0.9
		c-7.9-7.2-16.1-13.1-23.3-18.2c-16.1-11.5-28.8-20.7-32.5-38.3c-2.4-16.5-1.8-38.9,15-51.6c10.2-7.7,27.2-12.3,45.6-12.3
		c15,0,28.2,3.3,35.3,8.8c10.3,8,12,20.3,14.1,35.8c0.4,2.4,0.7,4.9,1.1,7.4c1.4,9.2,4.1,18.2,6.5,26.1c1.7,5.5,3.2,10.7,4,14.9
		c1.7,9.1,1.1,19.1-1.8,28.2h0.5C541.9,927.9,542.5,917.9,540.8,908.8z"/>
	<path class="st0" d="M217.9,882.4c-1.9-6.5-3.3-18.8-2.2-27.4c0.2-1.7,0.7-3.6,1.2-5.6c1.8-6.9,4-15.5-4.7-21.7l-0.1,0h0
		c-16.1-1.9-25.8,11.3-34.4,22.9c-2.3,3.1-4.4,5.9-6.5,8.5c-7.8,8.2-18.5,14.1-29.8,20.4c-17.5,9.7-35.6,19.8-44.1,39.4
		c-2.5,5.5-4.6,11.9-6.6,18.2H91c2-6.2,4.1-12.6,6.5-18c8.5-19.5,26.5-29.5,44-39.2c11.3-6.3,22-12.2,29.9-20.5
		c2.2-2.6,4.4-5.5,6.6-8.5c8.5-11.5,18.2-24.6,34-22.8c8.3,6,6.3,14.1,4.5,21.2c-0.5,2-1,3.9-1.3,5.6c-1,8.6,0.4,21,2.3,27.5
		c2.9,10.1,7,20.2,11.4,30.9c3.2,7.7,6.4,15.7,9.2,23.7h0.5c-2.8-8.1-6.1-16.1-9.3-23.9C224.9,902.5,220.8,892.4,217.9,882.4z"/>
	<path class="st0" d="M472.2,828.8c-10,0-19.8,2.9-26.3,7.8c-8.4,6.3-13.5,14-12.6,32.5c5.7,23.6,31.4,36.3,52.5,36.3l0,0
		c2.8,0,5.4-0.2,8-0.6h0.1l0,0c2.9-2.4,5.6-5.3,8.4-9l0-0.1c7.8-24,7.4-44-1-54.7C495.6,833.3,484.9,828.8,472.2,828.8z
		 M502.1,895.6c-2.7,3.6-5.4,6.5-8.2,8.8c-2.6,0.4-5.2,0.6-7.9,0.6l0,0c-21.1,0-46.4-12.6-52.1-35.9c-0.9-18.3,4.1-25.9,12.3-32.1
		c6.4-4.9,16.1-7.7,26-7.7c12.5,0,23,4.4,28.9,12C509.5,851.9,509.8,871.8,502.1,895.6z"/>
	<path class="st0" d="M363,895c-3.4-16.1-6.8-32.8-17.3-46c-5.4-6.8-12.1-9.4-20.6-8.2c-17.4,2.6-38.1,18.3-49.2,26.8
		c-12.5,13-17.1,28.7-14.4,48c1,6.9,2.9,14.3,4.9,21.5h0.5c-2-7.3-4-14.7-4.9-21.6c-2.8-19.2,1.9-34.8,14.2-47.7
		c11.1-8.4,31.7-24.1,49-26.7c1.3-0.2,2.6-0.3,3.8-0.3c6.5,0,11.8,2.7,16.3,8.3c10.5,13.2,13.9,29.7,17.2,45.8
		c3,14.4,6,29.4,14.3,41.5c0.1,0.2,0.2,0.4,0.4,0.6h0.5c-0.2-0.2-0.4-0.5-0.6-0.8C369,924.3,366,909.4,363,895z"/>
	<path class="st0" d="M474.4,859.2L474.4,859.2c-1.7-2.9-4.4-4.6-7.1-4.6c-0.9,0-1.8,0.2-2.7,0.5l0,0c-1.7,1.2-2.8,3.3-3,5.1
		c-0.1,1.4,0.3,2.6,1.2,3.6c0.6,0.5,1.2,1,1.7,1.7l0,0h0.1c0.9,0.3,1.8,0.5,2.6,0.5l0,0c2.9,0,5.6-1.7,7.2-4.5l0-0.1
		C474.4,860.8,474.4,860,474.4,859.2L474.4,859.2z M473.9,861.5c-1.5,2.7-4,4.2-6.7,4.2l0,0c-0.8,0-1.6-0.1-2.5-0.4
		c-0.6-0.6-1.2-1.2-1.7-1.6c-0.8-0.9-1.2-2-1-3.3c0.2-1.8,1.3-3.7,2.8-4.8c0.9-0.3,1.7-0.5,2.5-0.5c2.6,0,5.1,1.6,6.7,4.2
		C474,860,474,860.8,473.9,861.5z"/>
	<path class="st0" d="M22.6,879.1c-5.5-6.8-10.7-9.6-22.1-11.7v0.5c11.1,2.1,16.2,4.8,21.7,11.5c9.7,11.9,15.6,34.1,17,49.7
		c0.3,2.9,0.4,5.6,0.4,8.1h0.4c0-2.5-0.1-5.2-0.4-8.1C38.3,913.4,32.3,891.1,22.6,879.1z"/>
	<path class="st0" d="M308.4,884.9c-0.6,0-1.3,0-2,0.1c-6.1,0.5-11.4,3.3-15.5,8.1c-5.8,6.9-8.4,17.5-7.3,29.7
		c0.4,4.7,1.2,9.5,2.3,14.3h0.4c-1-4.8-1.8-9.5-2.3-14.3c-1.1-12.2,1.4-22.6,7.2-29.4c4-4.7,9.2-7.5,15.2-8c0.7,0,1.3-0.1,1.9-0.1
		c18,0,24.7,21.5,30.6,40.4c1.2,4,2.4,7.9,3.7,11.4h0.5c-1.3-3.5-2.5-7.5-3.8-11.5C333.5,906.5,326.8,884.9,308.4,884.9z"/>
	<path class="st0" d="M185.9,902.8c-3-0.4-6.1-0.6-9.1-0.6c-12.2,0-24.2,3.3-34.6,9.6c-10.2,6.2-18.5,14.9-24,25.3h0.5
		c11.4-21.3,33.5-34.5,58.2-34.5c3,0,6.1,0.2,9.1,0.6c13.1,1.8,26.1,12.7,35.4,29.9c0.7,1.3,1.5,2.7,2.1,4.1h0.5
		c-0.7-1.4-1.4-2.9-2.2-4.3C212.2,915.6,199.2,904.6,185.9,902.8z"/>
	<path class="st0" d="M1.1,921.8c-0.2,0-0.4,0-0.6,0v0.4c0.2,0,0.4,0,0.6,0c3.5,0,6.3,2.2,8,6.3c1,2.5,1.6,5.5,1.6,8.6h0.5
		c0-3.1-0.6-6.2-1.7-8.7C7.7,924.2,4.8,921.8,1.1,921.8z"/>
	<path class="st0" d="M151.3,937.1h0.8c7-4.8,15.6-7.6,24.3-7.6c8.6,0,16.5,2.7,22.9,7.6h0.7c-6.5-5.2-14.7-8-23.6-8
		C167.3,929.1,158.5,932,151.3,937.1z"/>
	<path class="st0" d="M795.1,894c-5.2-9.6-10.7-19.6-15-30c-2.4-5.6-4.6-11.8-6.8-18.4c-9.8-28.1-20.8-59.9-55.1-59.9
		c-0.4,0-0.9,0-1.4,0c-12.5,0.3-24.2,4.6-31.8,8.3c-1.9,0.8-3.8,1.7-5.7,2.7c-5.7,2.6-11.7,5.4-17,8.3
		c-15.6,8.6-33.4,12.8-50.7,16.9l-0.2,0c-1.5,0.4-3,0.7-4.7,1c-11.6,2.5-25.9,5.5-30.5,19c-3.5,10.4-0.3,23.6,2.8,36.4
		c1.1,4.7,2.2,9.1,2.9,13.3c2.5,14.5,2.7,28.2,0.5,40.7c-0.3,1.6-0.6,3.2-1,4.9h0.5c0.4-1.6,0.7-3.2,1-4.8
		c2.2-12.5,2.1-26.2-0.5-40.8c-0.8-4.2-1.8-8.6-2.9-13.3c-3.1-12.8-6.3-25.9-2.8-36.2c4.5-13.2,18.7-16.2,30.2-18.6
		c1.7-0.4,3.2-0.7,4.7-1.1l0.2,0c17.3-4.1,35.2-8.3,50.8-16.9c5.3-2.9,11.2-5.7,17-8.3c2-0.9,3.9-1.8,5.7-2.6
		c7.6-3.6,19.3-7.9,31.7-8.2c0.5,0,0.9,0,1.4,0c33.9,0,44.9,31.7,54.7,59.6c2.3,6.5,4.4,12.8,6.8,18.4c4.4,10.4,9.8,20.3,15.1,30
		c4.5,8.2,8.7,15.9,12.4,23.9c3.6,8,7.4,14.3,11.5,18.9h0.6c-4.1-4.7-8-11-11.7-19.1C803.8,910,799.6,902.3,795.1,894z"/>
	<path class="st0" d="M946.6,810c-28.2,10.7-47.1,30.8-54.5,58.2c-2.1,7.6-3.5,17.4-4.9,26.9c-1.8,11.8-3.6,23.9-6.5,32.4
		c-1.3,3.6-3.1,6.8-5.4,9.6h0.5c2.3-2.8,4.1-5.9,5.3-9.5c3-8.5,4.8-20.7,6.6-32.5c1.4-9.5,2.9-19.3,4.9-26.9
		c7.4-27.2,26.1-47.3,54.2-57.9c2.3-0.9,6.3-2,9.7-2.7c0.8-0.1,1.6-0.3,2.4-0.4v-0.5c-0.9,0.2-1.7,0.3-2.5,0.4
		C952.9,808,948.9,809.1,946.6,810z"/>
	<path class="st0" d="M919.1,607.3c-9,2-17.7,6.4-26.1,10.7c-8.4,4.3-17.1,8.7-26.1,10.6c-23.2,5-31.8-15.3-39.4-33.3
		c-1.1-2.6-2.1-5-3.2-7.4c-4.3-9.4-9.2-18-14.6-25.6c-10.9-15.2-23.4-27.4-37.2-36.1c-12.8-8.1-23.6-12.5-33.9-13.9
		c-16.7-2.2-28.6,3-42.3,8.9c-3,1.3-6,2.7-9.2,3.9c-9,3.7-19.3,7.8-26.3,16.8c-5.2,6.8-9.2,15-13,23l-0.9,1.8
		c-7.1,14.6-12.3,29.1-17.7,44.4c-1.2,3.5-2.5,7-3.7,10.4c-3.3,9.5-6.7,19.3-10.8,28.5c-3.1,7.1-7.8,13.2-12.4,19.2
		c-2.6,3.3-5.2,6.7-7.5,10.3c-5.9,9-15.1,16.8-24,24.4c-3.2,2.8-6.3,5.3-9.1,8c-1.8,1.6-3.7,3.3-5.7,5c-9.2,8-19.7,17-22.5,28.5
		c-0.4,1.5-0.7,3.1-1,4.5c-3,12.8-5.5,23.9-18.4,32c-12.1,7.6-26.9,10.1-39.9,12.2c-6.1,1-12.4,1.8-18.4,2.7
		c-11.2,1.4-21.7,2.8-31.2,5.3c-21.8,5.8-35.1,20.9-39.5,45c-4.3,23.5,0.1,52.1,4.9,63.9c4.4,10.6,11.7,18.8,20.5,26.2h0.7
		c-9-7.4-16.4-15.8-20.8-26.4c-4.8-11.6-9.2-40.2-4.9-63.6c4.4-23.9,17.5-38.9,39.2-44.6c9.5-2.6,20-3.9,31.2-5.4
		c6-0.8,12.3-1.6,18.4-2.6c13-2.2,27.8-4.6,40-12.3c13-8.1,15.5-19.3,18.5-32.2c0.4-1.5,0.7-3,1.1-4.5c2.7-11.3,13.2-20.3,22.3-28.2
		c2-1.8,4-3.4,5.7-5c2.9-2.6,5.9-5.2,9.1-7.9c8.9-7.6,18.2-15.4,24-24.5c2.3-3.5,4.9-6.9,7.5-10.3c4.5-6,9.3-12.2,12.5-19.3
		c4.1-9.3,7.5-19.1,10.8-28.6c1.2-3.4,2.4-7,3.7-10.4c5.5-15.2,10.7-29.7,17.7-44.3l0.8-1.8c3.8-7.9,7.8-16.1,13.1-22.9
		c6.9-8.9,17.1-13,26.1-16.6c3.2-1.3,6.2-2.7,9.2-3.9c13.7-6,25.4-11.1,42.1-8.9c10.2,1.4,20.9,5.7,33.7,13.8
		c13.8,8.7,26.2,20.8,37.1,36.1c5.4,7.5,10.2,16.1,14.5,25.5c1.1,2.3,2.1,4.8,3.2,7.4c3.7,8.7,7.8,18.5,13.9,25.3
		c7,7.8,15.5,10.5,26,8.3c9-1.9,17.7-6.4,26.2-10.7c8.4-4.2,17.1-8.6,26-10.6c14.7-3.3,28.3,0.5,39.6,4.6v-0.5
		C947.5,607.8,933.9,604.1,919.1,607.3z"/>
	<path class="st0" d="M895.7,775.2c-10.5,10.2-20.5,19.9-33.5,23.7c-18.1,5.3-31.9-8-45.1-21c-0.8-0.8-1.6-1.6-2.4-2.4
		c-6.7-6.5-14.8-11.5-22.6-16.2c-5.6-3.4-11.4-7-16.6-11.1c-3.9-3.1-8.1-5.9-12.1-8.7c-2.7-1.9-5.5-3.9-8.2-5.8
		c-4.5-3.3-7.5-8.4-10.6-13.4c-1.6-2.7-3.3-5.4-5.2-7.8c-5.1-6.6-12.3-11.6-19.3-16.4c-12.8-8.8-24.9-17.2-25.8-34.5
		c-0.5-10.3,1.8-23.1,6.4-35.2c4.4-11.4,12.6-23.8,22.6-33.9c6.8-6.9,13.7-10.1,20.5-9.6c12.1,1,22.5,13.8,30.1,24.9
		c4.5,6.5,6.3,12.8,8.2,19.4c1.1,3.9,2.2,7.8,4,12c1.7,4.2,3.8,8.3,5.8,12.3c3.2,6.3,6.4,12.8,8.4,19.7c3.4,11.6,4.1,28.4-1.2,38.1
		c-5.1,9.4-2.7,25.3,2.7,33.6c4.9,7.6,17.1,12.4,26.9,16.3c2.2,0.9,4.3,1.7,6.1,2.5c0.9,0.4,1.8,0.8,2.6,1.2c3.2,1.4,5.9,2.7,9,3.3
		c15.2,3.1,25.8-4.2,32.1-22.3c6.7-19.1,2.1-36.4-13-48.9c-4.6-3.8-9.8-6.6-14.9-9.4c-2.3-1.3-4.7-2.6-7-4c-0.6-0.4-1.2-0.7-1.8-1.1
		c-6.6-4-14.9-8.9-19.4-14.6c-6.8-8.6-12.4-17.8-16.6-27.6c-2.1-5-3.8-10.1-5.6-15.5c-1.3-3.9-2.6-7.9-4.2-11.9
		c-3.5-9.2-8.8-17.4-12.6-22.7c-7.2-9.8-20.1-22.9-33-27.7c-20.3-7.5-47.7,12.5-61.1,27.8c-7.5,8.6-12.4,19.3-16.2,28.6
		c-1,2.5-2,5.1-3.1,7.6c-5.5,14-10.8,27.1-19.6,39.3c-2.8,3.9-5.1,8.1-7.4,12.2c-1.6,2.9-3.3,5.9-5.1,8.8
		c-4.7,7.4-11.9,11.8-19,15.4c-3.3,1.7-6.6,3.3-9.9,4.8c-9.4,4.4-19.2,9-27.1,16.4c-5.1,4.8-7,9.8-6,15c1.8,8.6,11.3,15.1,19.7,18.2
		c17.4,6.5,37.6,4.2,55.4,2l2.3-0.2c1.4-0.2,2.8-0.3,4.2-0.5c7.8-0.8,15.3-1.6,22.7-5.8c1.2-0.7,2.4-1.3,3.5-2
		c11.3-6.4,21-12,33.9-14.8c8.1-1.8,20.2-1.7,27.5,3c3.7,2.3,5.2,5.7,6.9,9.4c1,2.3,2.1,4.6,3.6,6.6c6.2,8.1,14.5,14.4,22.6,20.6
		c7.9,6,16.1,12.3,22.3,20.1c3.7,4.7,6.8,10.5,9.8,16.1c3,5.6,6.1,11.4,9.7,15.8c7.3,9.1,17.3,12.2,28.2,8.8c9.4-3,19.9-11,30-18.7
		c1.6-1.2,3.1-2.4,4.6-3.5c5.3-4,10.4-8.2,15.4-12.2c13.7-11.1,26.6-21.7,41.2-27.6c5.8-2.3,12.4-4,19.5-5.4V766
		c-7.2,1.4-13.8,3.1-19.6,5.4c-14.6,5.9-27.6,16.5-41.4,27.6c-5,4.1-10.1,8.2-15.4,12.2c-1.5,1.1-3,2.3-4.5,3.5
		c-10.1,7.7-20.5,15.7-29.9,18.6c-10.7,3.3-20.5,0.3-27.7-8.7c-3.5-4.4-6.5-9.9-9.6-15.7c-3-5.6-6.2-11.5-9.9-16.2
		c-6.2-7.9-14.4-14.2-22.4-20.2c-8-6.1-16.3-12.5-22.5-20.5c-1.5-2-2.5-4.3-3.6-6.5c-1.7-3.7-3.3-7.2-7-9.6
		c-7.5-4.7-19.7-4.9-27.9-3c-13,2.9-22.8,8.5-34,14.9c-1.2,0.6-2.4,1.3-3.5,2c-7.3,4.2-14.7,4.9-22.6,5.7c-1.4,0.2-2.8,0.3-4.2,0.5
		l-2.3,0.3c-17.8,2.1-37.9,4.4-55.2-2.1c-10.4-3.9-18-10.9-19.4-17.9c-1-5.1,0.9-10,5.9-14.6c7.8-7.4,17.6-12,26.9-16.4
		c3.3-1.5,6.7-3.1,10-4.8c7.1-3.7,14.4-8.1,19.1-15.6c1.8-2.9,3.5-5.9,5.1-8.8c2.3-4.1,4.6-8.2,7.4-12.1
		c8.8-12.2,14.1-25.4,19.7-39.4c1-2.5,2-5,3.1-7.6c3.8-9.2,8.7-19.9,16.1-28.4c13.4-15.2,40.5-35.1,60.7-27.7
		c12.8,4.7,25.6,17.8,32.7,27.5c3.8,5.2,9.1,13.4,12.6,22.6c1.5,4,2.9,8,4.1,11.9c1.8,5.4,3.5,10.5,5.6,15.5
		c4.2,9.8,9.8,19.1,16.6,27.7c4.6,5.8,12.9,10.7,19.5,14.7c0.6,0.3,1.2,0.7,1.9,1.1c2.3,1.4,4.7,2.7,7,4c5,2.8,10.3,5.6,14.8,9.4
		c14.9,12.3,19.5,29.5,12.9,48.4c-6.3,17.9-16.6,25.1-31.7,22c-3-0.6-5.7-1.8-8.9-3.3c-0.8-0.4-1.7-0.8-2.6-1.2
		c-1.8-0.8-4-1.6-6.1-2.5c-9.8-3.9-22-8.7-26.7-16.1c-5.3-8.2-7.7-23.9-2.7-33.1c5.3-9.8,4.6-26.8,1.2-38.5
		c-2-6.9-5.3-13.5-8.4-19.8c-2-4-4.1-8.1-5.8-12.3c-1.7-4.2-2.9-8.1-4-11.9c-1.9-6.7-3.7-13-8.2-19.5c-7.7-11.1-18.2-24-30.5-25
		c-6.9-0.6-13.9,2.7-20.9,9.7c-10.1,10.2-18.3,22.7-22.7,34.1c-4.6,12.1-6.9,25-6.4,35.4c0.9,17.5,13.6,26.3,26,34.9
		c7,4.8,14.2,9.8,19.3,16.3c1.9,2.3,3.5,5,5.1,7.8c3,4.9,6.1,10.1,10.6,13.4c2.7,2,5.5,3.9,8.2,5.8c4,2.8,8.1,5.7,12.1,8.7
		c5.2,4.1,11.1,7.7,16.7,11.1c7.8,4.8,15.8,9.7,22.5,16.2c0.9,0.8,1.6,1.6,2.5,2.4c13.4,13,27.2,26.5,45.6,21.1
		c13.1-3.8,23.1-13.5,33.7-23.8c10-9.8,20.5-19.9,34.5-25.8c9-3.8,18.7-5.9,28.3-7.9v-0.5c-9.6,2-19.4,4.1-28.5,8
		C916.3,755.2,905.9,765.4,895.7,775.2z"/>
	<path class="st0" d="M912.1,642.7c-7.2,1.5-14.6,5.2-22.4,9c-13,6.4-26.3,13-38.6,9.1c-22.2-6.9-30.7-30.5-38.2-51.2
		c-1.6-4.3-3-8.2-4.5-12.1c-3.4-8.5-7.7-16.5-12.8-23.5c-7.9-11-17.5-17.7-27.8-24.9c-1.6-1.1-3.1-2.2-4.7-3.3
		c-9-6.4-20-12.7-32.7-10.9c-4,0.6-8.1,2.7-12.1,4.8c-2.5,1.3-4.9,2.5-7.2,3.4c-1.7,0.6-3.5,1.3-5.3,2c-13.6,4.9-27.6,10-37.3,21
		c-2.8,3.2-5.1,7.3-7.4,11.2c-1.2,2.1-2.3,4-3.5,5.9c-4.8,7.3-8.9,15.4-12.4,24.1c-3.7,9.4-5.8,19.5-7.9,29.2
		c-2.3,10.5-4.6,21.5-8.8,31.4c-4.3,10.2-15.8,17.5-26,23.9c-2.8,1.8-5.4,3.4-7.7,5.1c-6.9,4.8-12.9,10.6-18.7,16.3
		c-3.8,3.7-7.7,7.5-11.9,11c-9.6,8.1-13.9,22-11.3,36.1c4.6,24.8,14.3,28.9,35.2,32.4c15.9,2.6,34.5,2,56.7-1.9
		c12.8-2.3,24.9-10.5,36.7-18.5c4.3-2.9,8.3-5.6,12.3-8c16.5-10,36-7.9,52.3,5.5c2.1,1.7,4.2,3.4,6.3,5c12.4,9.9,24,19.2,30.3,34.1
		c2.8,6.5,4.6,13.4,6.3,20.1c1.7,6.5,3.5,13.3,6.1,19.7c4,9.6,11.8,20.3,20.4,27.8c7.4,6.5,18.6,13.6,30,10.3
		c10.6-3.1,16.8-15.1,23.4-27.8c4.2-8.1,8.6-16.4,14.3-23.3c7.5-9,17.5-17.1,24.3-22.5l0.7-0.6c14.7-11.4,28.6-22.3,47-25.9
		c1.2-0.3,2.4-0.5,3.6-0.6v-0.5c-1.2,0.2-2.4,0.4-3.7,0.6c-18.5,3.7-32.4,14.6-47.1,26l-0.8,0.6c-6.9,5.3-16.9,13.6-24.4,22.6
		c-5.8,6.9-10.1,15.3-14.4,23.4c-6.5,12.6-12.8,24.5-23.1,27.5c-11.1,3.3-22.2-3.7-29.6-10.1c-8.4-7.4-16.4-18.3-20.3-27.7
		c-2.7-6.4-4.4-13.2-6.1-19.7c-1.8-6.7-3.6-13.6-6.3-20.2c-6.3-14.9-18.6-24.7-30.5-34.2c-2-1.6-4.1-3.3-6.2-5
		c-16.4-13.6-36.2-15.6-52.8-5.6c-4,2.4-8,5.1-12.2,8c-11.8,8-23.9,16.2-36.6,18.4c-22.1,3.9-40.6,4.5-56.5,1.9
		c-20.7-3.4-30.3-7.5-34.9-32.1c-2.6-14,1.7-27.7,11.1-35.7c4.2-3.6,8.1-7.4,11.9-11.1c5.7-5.6,11.7-11.5,18.6-16.2
		c2.3-1.6,5-3.3,7.7-5c10.2-6.4,21.8-13.8,26.2-24c4.3-10,6.6-20.9,8.8-31.5c2.1-9.8,4.2-19.8,7.9-29.1c3.4-8.6,7.5-16.7,12.3-24
		c1.2-1.8,2.3-3.8,3.5-5.9c2.3-3.9,4.6-8,7.4-11.1c9.6-10.9,23.6-16,37.1-20.9c1.8-0.7,3.5-1.3,5.3-1.9c2.4-0.9,4.8-2.2,7.2-3.4
		c4-2.1,8.1-4.2,12-4.7c12.6-1.8,23.4,4.5,32.4,10.8c1.6,1.1,3.1,2.2,4.7,3.2c10.2,7.2,19.9,13.9,27.7,24.8
		c5.1,7,9.3,14.9,12.8,23.5c1.5,3.8,3,7.8,4.5,12.1c7.5,20.8,16.1,44.5,38.5,51.5c12.5,3.9,25.9-2.8,38.9-9.2
		c7.8-3.9,15.1-7.4,22.3-9c10.1-2.2,28.7-3,46.7-2.6v-0.5C940.8,639.7,922.2,640.6,912.1,642.7z"/>
	<path class="st0" d="M903,287.6c-12.1,8.4-19.4,20.3-21.6,35.4c-0.9,5.9-0.2,12.3,0.5,18.5c0.7,6.5,1.4,13.2,0.4,19.6
		c-1.1,7.3-5.1,13.8-10,16.7c-3.5,2.1-7.3,2.3-11.4,0.8c-13.1-15.2-23.8-25.3-39.9-31.9c-4.6-1.9-9.3-3.5-15.1-5.3
		c-2.8-0.9-5.7-1.8-8.4-2.7c-17.5-5.7-35.6-11.7-65.1-9.2c-14.2,1.2-24.8,3.8-34.1,13.2c-6.1,6.2-10.8,13.7-15.2,20.9
		c-3.3,5.2-6.6,10.6-10.4,15.4c-2,2.5-4.3,4.9-6.5,7.2c-3.3,3.5-6.7,7.1-9.3,11.1c-5.2,8.3-5.4,22.1-3.5,31.3
		c2.6,12.1,10.3,22.5,18.1,32.2c1.9,2.4,3.7,5,5.7,7.8c5.2,7.4,10.6,15.1,18,19.1c8.2,4.3,17.8,4.4,26.9,3.7
		c3.2-0.2,6.3-1.1,9.5-1.9c4.6-1.2,9.3-2.5,13.8-1.7c16.2,2.9,34.5,14.2,46.2,23.8c6.4,5.2,12.2,11,17.2,17.4
		c3.9,5,7.7,10,11.7,15.4c6.8,9.2,13.9,18.6,22,28c7.5,8.7,17.2,17,32.5,11.7c8.7-3,16.1-8.2,23.1-13.3
		c10.3-7.6,19.6-18.2,28.6-28.5c8.2-9.4,16-18.3,23.7-23.8c2.1-1.5,4.6-2.9,8.5-3.8v-0.4c-4.1,0.9-6.7,2.4-8.8,3.9
		c-7.7,5.5-15.5,14.4-23.8,23.9c-8.9,10.2-18.2,20.9-28.5,28.4c-7.1,5.3-14.3,10.3-23,13.2c-15,5.2-24.6-2.9-32-11.5
		c-8-9.4-15.1-18.9-21.9-28c-4-5.4-7.8-10.4-11.7-15.4c-5-6.4-10.8-12.3-17.2-17.5c-11.8-9.6-30.2-20.9-46.4-23.8
		c-4.6-0.8-9.4,0.4-14,1.7c-3.1,0.8-6.2,1.7-9.4,1.9c-9,0.6-18.5,0.6-26.6-3.7c-7.4-3.9-12.7-11.6-17.9-18.9
		c-1.9-2.8-3.8-5.4-5.7-7.8c-7.7-9.5-15.5-19.9-18-32c-1.9-9.2-1.7-22.8,3.5-31c2.5-4,5.9-7.5,9.2-11c2.2-2.3,4.6-4.8,6.5-7.2
		c3.9-4.9,7.2-10.3,10.4-15.5c4.5-7.2,9.1-14.7,15.2-20.8c9.2-9.3,19.8-11.9,33.8-13.1c29.4-2.4,47.5,3.5,64.9,9.2
		c2.8,0.9,5.6,1.8,8.4,2.7c5.8,1.8,10.5,3.4,15,5.3c16.1,6.5,26.8,16.6,39.8,31.8l0,0l0.1,0c4.3,1.6,8.2,1.3,11.9-0.8
		c5-3,9.1-9.6,10.2-17c1-6.4,0.3-13.1-0.4-19.7c-0.6-6.2-1.3-12.6-0.5-18.4c2.2-14.9,9.4-26.7,21.4-35.1c13.7-9.5,32.9-14,55.6-13.1
		v-0.5C936,273.5,916.8,278,903,287.6z"/>
	<path class="st0" d="M261.7,43.2c0.8,6.2,1.7,17.8-0.4,25.6c-3.6,12.8-14,23.9-23.9,34.5c-14.1,15-28.8,30.6-24.3,51.5
		c2.4,11.2,8.5,18.2,18.6,21.4c8.8,2.8,19.6,2.4,31.7,1.7c22.2-1.2,37.2,2.4,46,5.7c8.8,3.4,16.9,9,24.8,14.4
		c10.6,7.3,20.6,14.2,31.9,15.7c4.5,0.6,8.2,0.5,12.5-0.5c10.6-2.3,18.5-7.6,27-13.3c14.4-9.5,29.2-19.4,57.9-13.7
		c6.3,1.2,12.6,3.1,19.2,5.1c21.2,6.3,43.1,12.7,67.6-0.3c22.2-11.1,36.1-31.6,49.6-51.3c6.3-9.2,12.8-18.8,20-27.1
		c9.2-10.7,21.7-25.3,37.1-20.3c6.2,2,12.6,3,18.7,4c9.8,1.6,19.9,3.2,29,8.9c6.5,4.1,11.6,9.9,16.5,15.5c2.3,2.6,4.7,5.3,7.2,7.9
		c5.5,5.5,10,12.1,14.3,18.4c3.7,5.4,7.5,10.9,11.9,15.8c6,5.3,11.2,9.9,17.3,15.4c7.4,6.7,14.1,14.7,20.6,22.5
		c12.5,14.9,24.2,28.8,39.6,33.3c10.9,3.2,22.1,2.8,36.4-1.3c7.6-2.2,17.7-6.5,24.8-9.8c14.4-6.5,30.7-15.5,43.4-23.9
		c9.9-6.6,17.5-15.8,22.1-26.9v-1.2c-4.5,11.4-12.2,21-22.3,27.6c-12.8,8.4-29,17.4-43.4,23.9c-7.1,3.2-17.1,7.5-24.7,9.7
		c-14.3,4.1-25.4,4.5-36.2,1.4c-15.2-4.5-27-18.4-39.4-33.2c-6.5-7.7-13.3-15.7-20.7-22.5c-6.1-5.5-11.3-10.2-17.3-15.4
		c-4.4-4.9-8.2-10.4-11.9-15.8c-4.3-6.3-8.8-12.9-14.3-18.4c-2.5-2.5-4.9-5.2-7.2-7.9c-4.9-5.6-10-11.5-16.6-15.6
		c-9.2-5.8-19.3-7.4-29.2-8.9c-6.2-1-12.6-2-18.6-4c-15.7-5.1-28.4,9.6-37.6,20.4c-7.2,8.4-13.7,17.9-20,27.2
		c-13.5,19.8-27.3,40.2-49.4,51.2c-24.4,12.9-46.2,6.5-67.4,0.2c-6.6-2-12.9-3.8-19.3-5.1c-28.9-5.7-43.8,4.2-58.2,13.8
		c-8.4,5.6-16.3,10.9-26.9,13.2c-4.1,0.9-7.8,1.1-12.3,0.5c-11.2-1.5-21.2-8.3-31.7-15.6c-7.9-5.4-16.1-11.1-24.9-14.4
		c-8.7-3.3-23.9-7-46.1-5.8c-20.8,1.2-44.5,2.5-49.9-22.7c-4.4-20.6,10.1-36.1,24.2-51.1c10.1-10.7,20.5-21.8,24-34.7
		c2.1-7.4,1.4-18.1,0.5-25.8c-1.5-12.3-5.1-25-9-38.3c-0.4-1.4-0.8-2.9-1.2-4.3h-0.5c0.4,1.5,0.9,3,1.3,4.5
		C256.6,18.3,260.2,30.9,261.7,43.2z"/>
	<path class="st0" d="M909.3,888c-1.7,8.9-2.4,18-3.2,26.9c-0.7,7.7-1.3,15.2-2.5,22.3h0.4c1.2-7,1.9-14.6,2.5-22.2
		c0.8-8.9,1.6-18,3.2-26.9c5.7-30.8,21.2-49.3,44.6-53.3c1.5-0.3,3-0.4,4.5-0.6v-0.4c-1.5,0.1-3,0.3-4.6,0.6
		C930.7,838.4,915.1,856.9,909.3,888z"/>
	<path class="st0" d="M779.6,912.5c-2.6-9.1-6.8-18.6-10.8-27.7l-0.7-1.6c-2.6-6-4.8-12.4-7-19.2c-4.6-13.9-9.4-28.3-18.9-38.7
		c-8.4-9.2-22.1-14.4-37.7-14.4c-8.7,0-17.1,1.7-24.2,4.9c-8.4,3.8-15.2,8.2-20.8,13.7c-4.7,4.6-11.5,6.9-18.1,9.3
		c-4.4,1.5-9,3.1-13,5.3c-12,6.8-19.6,16.4-21.9,27.7c-2.1,10.5-1.9,24.1-1.7,37.2c0.1,8,0.3,16.2-0.1,23.9
		c-0.1,1.3-0.2,2.8-0.3,4.2h0.5c0.1-1.4,0.2-2.9,0.3-4.2c0.4-7.6,0.2-15.9,0.1-23.9c-0.2-13.1-0.4-26.7,1.7-37.2
		c2.3-11.2,9.7-20.6,21.7-27.4c3.9-2.2,8.5-3.8,12.9-5.3c6.6-2.3,13.5-4.7,18.3-9.3c5.6-5.4,12.4-9.9,20.7-13.6
		c7.1-3.2,15.3-4.8,24-4.8c15.4,0,29,5.2,37.3,14.3c9.4,10.3,14.2,24.6,18.8,38.5c2.3,6.8,4.4,13.3,7.1,19.2l0.7,1.6
		c4,9.1,8.2,18.5,10.8,27.6c1.5,5.1,2.7,10.8,4,16.3c0.6,2.8,1.2,5.5,1.9,8.2h0.5c-0.6-2.6-1.3-5.4-1.9-8.3
		C782.4,923.3,781.1,917.6,779.6,912.5z"/>
	<path class="st0" d="M759.3,920.5c-1.1-7.2-2.3-15.4-5.2-22.5c-1.2-2.9-3-5.3-4.7-7.7c-1.4-1.8-2.7-3.6-3.8-5.7
		c-1.6-2.9-2.9-6.2-4.2-9.7c-3.9-9.9-7.8-20.1-18.7-23c-2.6-0.7-6-1-10.4-1c-4.6,0-9.5,0.4-13.9,0.7c-1.7,0.1-3.3,0.2-4.8,0.4
		c-14.1,0.9-29.2,6.2-40.4,14.4c-13.5,9.8-17.4,26.4-19.2,38.1c-1.3,8.4-2.5,20.8,1.5,31.3c0.2,0.4,0.4,0.9,0.5,1.3h0.5
		c-0.2-0.5-0.4-1-0.6-1.5c-4-10.4-2.8-22.7-1.5-31.1c1.8-11.6,5.6-28.1,19-37.8c11.2-8.1,26.2-13.5,40.2-14.4
		c1.5-0.1,3.1-0.2,4.8-0.3c4.4-0.4,9.2-0.8,13.8-0.8c4.3,0,7.7,0.4,10.3,1.1c10.7,2.8,14.6,12.9,18.4,22.6c1.4,3.6,2.7,6.8,4.2,9.8
		c1.1,2.1,2.5,3.9,3.8,5.7c1.7,2.4,3.5,4.8,4.7,7.6c2.9,7.1,4.1,15.2,5.2,22.5c0.8,5.1,1.1,10.8,1,16.6h0.4
		C760.3,931.3,760,925.6,759.3,920.5z"/>
	<path class="st0" d="M958.4,867.3L958.4,867.3c-21.1,1.9-32.8,24.8-35.9,69.8h0.5c3.1-44.7,14.7-67.5,35.4-69.4
		c0.1,0,0.3,0.1,0.4,0.1v-0.4C958.7,867.3,958.6,867.3,958.4,867.3L958.4,867.3z"/>
	<path class="st0" d="M953.2,923.9c-2.3,3.8-4.6,8.2-5,13.3h0.4c0.5-4.9,2.7-9.2,4.9-13c1.9-1.1,3.7-1.8,5.3-1.9v-0.4
		C957.1,922,955.2,922.6,953.2,923.9L953.2,923.9z"/>
	<path class="st0" d="M245.7,877.2c3.5-11.3,9.3-18.1,18.6-28.3c1.4-1.6,3-3.2,4.7-5c6.6-6.8,14.1-14.5,15.7-22.6
		c3.3-16.1-6.6-25.5-16.8-32.6c-5.1-3.5-10.7-6.2-16.2-8.9c-7.1-3.5-14.4-7-20.5-12.3c-6.4-5.6-12-13.5-16.5-23.6
		c-2.1-4.5-3-9.4-3.9-14.1c-0.9-4.6-1.8-9.3-3.7-13.7c-8.9-19.9-20.5-42.5-39.5-58.2c-8.3-6.8-18.7-17.7-21.5-30.6
		c-1.8-8.5,0.7-15.9,2.7-21.8l0.3-1.1c4.5-13.4,18-45.4,46.2-53.5c5-1.5,11.3-2.5,17.8-3.7c8.2-1.4,16.8-2.9,23-5.2
		c9.7-3.6,16.6-8.5,23.9-14.1l1.1-0.8c7-5.4,15.7-12.1,27.1-11.2c9.9,0.8,21.2,5.9,30.9,14.2c9.9,8.3,16.4,18.4,18.1,27.6
		c1.1,6,1.6,10.8,2,15.4c0.4,4,0.8,7.8,1.5,12c3.7,20.9,13.7,37.6,29.9,49.6c13.2,9.7,30.7,16.5,52.1,20.2
		c27.8,4.8,51.5-4.3,60.3-8.4c14.1-6.6,29.2-22.4,42.2-36.7c13-14.3,19.8-22.7,21.3-45.3c0.5-7.3-0.1-14.3-0.7-21.1
		c-0.2-2.7-0.5-5.4-0.6-8.1c-0.1-2-0.3-4-0.5-6.1c-0.6-6.9-1.2-14,0-21.3c2.6-15.1,11.3-21.8,26.7-20.3c20,1.9,37.6,15.1,44.6,33.8
		c5.6,14.9,1.1,30.4-2.5,43l-0.6,2.1c-5.9,20.8-14.1,36.9-24.7,49.5c-6.1,7.1-12.8,13.7-19.3,20.2c-2.4,2.4-4.9,4.8-7.3,7.3
		c-3.4,3.4-7.1,6.6-10.8,9.6c-4.6,3.8-9.3,7.8-13.3,12.3c-5.7,6.4-9.9,13.7-13.3,19.9c-11.1,20.5-18.9,38.5-23.7,55.1
		c-4.4,14.9-16.4,26.8-32.2,31.8c-20.4,6.3-49.5,5.6-86.7-2.2c-18.2-3.9-29.1-14.3-32.2-31.1c-3.6-19.1-16.5-28.7-30.2-38.7
		c-3.5-2.6-7.1-5.3-10.7-8.1c-14.5-11.9-7.3-23.1,0.4-35.1c3.4-5.3,6.9-10.8,8.4-16.4c2.4-8.8-0.7-18-3.7-27
		c-1.6-4.7-3-9.1-3.8-13.4c-3.5-20.7-7-37-17.6-43.7c-5.6-3.6-12.9-4.1-22.2-1.5c-1.5,0.4-3.2,0.9-4.9,1.4c-3.6,1.1-7.7,2.3-11,3
		c-5.8,1.3-11.9,2.1-18.3,2.9c-6.8,0.9-13.8,1.7-21.6,3.4c-11.7,2.4-22.1,8.1-29.8,16.3c-7.6,8.1-12.5,18.3-14.1,29.6
		c-0.7,4.8-0.9,8.9,0.5,13.4c3.9,13.1,15.7,22.3,26.2,30.5c2.4,1.9,4.7,3.6,6.9,5.4l0.4,0.3c10.1,8.4,22.8,18.8,22.3,33.1
		c-0.5,14.7,1.4,25.4,6.3,35.8c7.7,16.3,18.6,26.2,37.5,34.1c1.4,0.6,2.8,1.2,4.3,1.7c6.5,2.7,13.2,5.4,19.4,9
		c5.1,2.9,8.5,6.4,12.1,10.2c2,2.1,4.1,4.3,6.4,6.3c2.8,2.5,5.5,5.7,8.3,9.2c7.1,8.8,15.2,18.8,27.8,16.4
		c6.4-1.2,12.7-5.6,19.4-10.3c5.8-4.1,11.9-8.3,18.7-11c11.5-4.5,27.8-5.6,45-6.7c10.4-0.7,21.3-1.4,31.1-3
		c22.5-3.6,37.6-11.4,46.4-24.1c2.6-3.7,4.4-7.9,6-12c1.3-3.2,2.6-6.4,4.3-9.4c1.3-2.3,3.3-4.1,5.2-5.8c1.1-0.9,2.2-2,3.2-3.1
		c1.8-2,3.5-4.1,5.2-6.1c1.9-2.3,3.8-4.6,5.8-6.8c3.2-3.5,6.8-6.7,10.3-9.8c3.2-2.9,6.6-5.9,9.6-9.2c2.5-2.7,4.6-5.5,6.5-8.3
		c2.2-3.2,4.4-6.4,7.5-9.4c5.1-5.1,10.5-10.6,14.7-16.8c3.7-5.3,5.3-10.5,7.1-15.9c0.5-1.7,1.1-3.4,1.7-5.2c1.4-4,3.9-7.7,6.2-11.4
		c1.4-2.2,2.9-4.4,4.1-6.5c4.5-8.3,8.4-16.7,11.6-24.8c0.9-2.3,1.7-4.6,2.5-6.9c0.3-1,0.7-1.9,1-2.9c1.6-4.3,3.2-8.7,4.9-13
		c4.6-12.3,9.5-25,12-36.7c1.6-7.4,3-15.3,1.3-23.1c-5.8-26.8-31.8-54.7-55.6-59.9c-11-2.3-24.9-2.2-39.1,0.5
		c-23.6,4.4-32.3,15.8-31.1,40.6c0.3,5.8,0.8,11.6,1.3,17.3c1.1,12.2,2.2,23.8,0.9,34.9c-0.7,6.4-2.9,12.2-4.4,15.9
		c-3.5,8.3-11.4,22.6-21.2,38c-9.7,15.2-22.8,26.2-35.8,30.4c-24.8,7.9-58.1,0.1-77.4-18.2c-9.7-9.1-20-24.8-14.3-47.2
		c0.4-1.4,0.9-2.7,1.6-4.2c0.8-1.7,1.6-3.6,2-5.5c3-5.2,6.7-9.8,10.4-14.3c8.2-10.2,16-19.8,13-33.6c-0.5-2.5-1.7-5.2-2.9-8.1
		c-2.4-5.9-4.9-12-2-15.6c5.1-6.4,12.1-13,19.5-20c12.8-12.2,26-24.8,29.8-36.6c3.8-11.9-4-23.6-7.3-28.6c-3.6-5.4-7.7-11-12-17
		c-3.4-4.6-6.8-9.3-10.1-14.1c-2.7-4-5.4-7.7-8-11.5c-6-8.7-11.8-16.9-17.6-25.6c-2.3-3.5-4.6-7.2-6.9-10.8
		c-3.8-6-7.7-12.3-11.7-17.5c-8.6-11.6-18.4-16.3-29-14.1c-10.6,2.2-22,10.3-32,17.8c-1.4,1-2.7,2-4,3
		c-18.5,13.9-39.6,29.7-45.1,47.2c-4.7,14.9,4,21.9,13.2,29.2c1,0.8,2,1.6,3,2.4c6.1,5,10.8,10.2,14.5,14.6
		c5.1,6,9.7,13.2,14.1,20.2c3.1,4.9,6,9.6,8.9,13.5c10.1,13.2,23.1,19,35.7,24.7c12.4,5.5,25.1,11.2,34.8,23.8c0,0.5,0,0.9,0,1.4
		c0,1.3,0.1,2.7-0.3,3.9c-11.5,12.4-25.7,15.5-43.6,9.6c-5.4-1.8-10.8-4.7-16.5-7.8c-12.8-6.9-25.9-14-41.1-9.4
		c-10.9,3.3-18.5,11-25.8,18.4c-7.2,7.4-14.7,15-25.5,18.8c-6.3,2.2-12.9,2.8-22.1,3.5c-23.2,1.8-34.4,4.4-43.9,16.5
		c-12.6,16-28,44.2-32.8,55.8c-1.9,4.6-3,8.1-3.6,10.7c-4.1,20.3,8.4,36.2,19.7,47.8c2.7,2.8,5.7,5.3,8.6,7.8
		c2.6,2.2,5.3,4.5,7.8,6.9c5.1,5,9.1,11.1,13,16.9c2,3,4,6,6.2,8.9c15.6,20.8,20.3,38.9,15.2,58.7c-3.7,14.3-12,32.3-31.1,37.2
		c-7,1.8-14.6,2.7-22.6,3.6c-7.4,0.9-15.1,1.8-22.6,3.5c-6.6,1.5-12.8,3.4-18.8,5.3c-8.4,2.6-16.3,5.1-24.5,6.1
		c-14.4,1.9-27.1-1.1-39.5-3.9c-10.9-2.6-21.3-4.9-31.5-3.6v0.5c10.2-1.4,20.5,1,31.4,3.5c12.4,2.9,25.2,5.8,39.7,4
		c8.3-1.1,16.2-3.6,24.6-6.2c6-1.9,12.2-3.8,18.8-5.3c7.5-1.7,15.1-2.6,22.5-3.5c8-0.9,15.6-1.8,22.6-3.6
		c15.3-4,26.1-16.9,31.4-37.5c5.1-20,0.4-38.2-15.3-59.2c-2.1-2.9-4.1-5.9-6.1-8.8c-4-5.8-8-11.9-13.1-16.9c-2.5-2.5-5.1-4.8-7.7-7
		c-2.9-2.5-5.9-5-8.6-7.8c-11.2-11.5-23.6-27.3-19.6-47.4c0.5-2.5,1.7-6,3.5-10.6c4.7-11.6,20.2-39.8,32.7-55.7
		c9.4-12,20.6-14.6,43.6-16.4c9.2-0.7,15.8-1.3,22.2-3.6c10.9-3.8,18.4-11.4,25.7-18.8c7.6-7.8,14.8-15.1,25.6-18.3
		c15-4.6,28.2,2.5,40.8,9.4c5.7,3.1,11.1,6,16.6,7.9c18.1,6,32.5,2.9,44.1-9.7l0-0.1c0.4-1.4,0.3-2.8,0.2-4.1c0-0.5,0-1,0-1.4v-0.1
		L376,490c-9.7-12.8-22.6-18.5-35-24c-12.6-5.6-25.6-11.4-35.5-24.5c-2.9-3.8-5.8-8.5-8.9-13.5c-4.4-7-8.9-14.1-14.1-20.2
		c-3.8-4.4-8.4-9.6-14.6-14.7c-1-0.8-2-1.6-3-2.4c-9.1-7.3-17.6-14.1-13-28.7c5.5-17.4,26.5-33.1,44.9-46.9c1.4-1,2.7-2,4.1-3.1
		c9.9-7.4,21.3-15.5,31.8-17.7s20.1,2.6,28.6,14c4,5.2,7.8,11.5,11.7,17.5c2.3,3.6,4.6,7.3,6.9,10.8c5.8,8.8,11.6,17,17.6,25.7
		c2.6,3.7,5.3,7.6,8,11.5c3.3,4.7,6.7,9.5,10.1,14.1c4.4,5.9,8.5,11.6,12,16.9c3.3,5,11,16.6,7.3,28.3c-3.8,11.8-17,24.2-29.7,36.4
		c-7.4,7-14.4,13.7-19.5,20.1c-3.1,3.9-0.5,10.1,2,16.1c1.2,2.9,2.3,5.6,2.8,8c3,13.6-4.8,23.1-13,33.2c-3.7,4.6-7.4,9.2-10.4,14.4
		l0,0.1c-0.4,2-1.2,3.8-2,5.5c-0.6,1.5-1.2,2.9-1.6,4.2c-4.5,17.7,0.6,34.6,14.4,47.6c19.4,18.4,52.8,26.2,77.8,18.3
		c13.2-4.2,26.3-15.3,36-30.6c9.9-15.5,17.9-29.8,21.3-38.1c1.6-3.8,3.7-9.5,4.4-16c1.3-11.2,0.2-22.8-0.9-35
		c-0.5-5.6-1.1-11.5-1.3-17.2c-0.6-12.6,1.3-21.4,6-27.6c4.8-6.3,12.6-10.3,24.6-12.5c14.1-2.7,28-2.8,38.9-0.5
		c23.7,5,49.5,32.8,55.2,59.5c1.7,7.7,0.3,15.5-1.3,22.9c-2.5,11.6-7.3,24.3-12,36.6c-1.6,4.3-3.3,8.7-4.8,13
		c-0.4,1-0.7,1.9-1.1,2.9c-0.8,2.3-1.6,4.6-2.5,6.9c-3.1,8.1-7,16.4-11.5,24.7c-1.2,2.2-2.7,4.4-4.1,6.5c-2.4,3.7-4.9,7.4-6.3,11.5
		c-0.6,1.8-1.2,3.6-1.8,5.2c-1.7,5.4-3.4,10.6-7,15.8c-4.3,6.2-9.6,11.7-14.7,16.7c-3,3-5.3,6.2-7.5,9.4c-1.9,2.8-4,5.7-6.4,8.3
		c-3,3.2-6.4,6.3-9.7,9.2c-3.5,3.2-7.1,6.4-10.3,9.9c-2,2.2-4,4.6-5.8,6.8c-1.7,2-3.4,4.1-5.2,6.1c-1,1.1-2.1,2.1-3.1,3.1
		c-2,1.8-3.9,3.6-5.2,5.9c-1.8,3-3.1,6.3-4.4,9.4c-1.6,4.1-3.3,8.3-5.9,12c-8.7,12.6-23.8,20.3-46.1,23.9c-9.8,1.6-20.6,2.3-31.1,3
		c-17.2,1.2-33.5,2.2-45.1,6.8c-6.8,2.7-13,6.9-18.8,11c-6.6,4.6-12.9,9-19.2,10.2c-12.3,2.4-20.3-7.5-27.4-16.2
		c-2.9-3.5-5.5-6.8-8.4-9.3c-2.4-2.1-4.4-4.2-6.4-6.3c-3.7-3.8-7-7.4-12.2-10.3c-6.3-3.5-13-6.3-19.5-9c-1.4-0.6-2.8-1.2-4.3-1.7
		c-18.8-7.9-29.6-17.7-37.2-33.8c-4.9-10.3-6.7-21-6.2-35.6c0.5-14.5-12.3-25-22.5-33.5l-0.4-0.3c-2.2-1.8-4.4-3.6-6.9-5.5
		c-10.9-8.5-22.3-17.3-26.1-30.2c-1.3-4.4-1.1-8.5-0.4-13.2c3.2-23.1,19.9-40.6,43.5-45.5c7.7-1.6,14.7-2.5,21.5-3.3
		c6.4-0.8,12.5-1.6,18.3-2.9c3.4-0.7,7.4-1.9,11.1-3c1.7-0.5,3.4-1,4.9-1.4c9.2-2.6,16.3-2.1,21.9,1.5c10.4,6.5,13.9,22.9,17.3,43.4
		c0.7,4.4,2.2,8.8,3.8,13.5c3,8.9,6,18.1,3.7,26.7c-1.5,5.6-5,11-8.4,16.3c-7.7,12.1-15.1,23.5-0.3,35.6c3.5,2.9,7.1,5.6,10.7,8.1
		c13.6,10,26.5,19.5,30,38.5c3.2,16.9,14.1,27.5,32.6,31.4c37.2,7.9,66.4,8.6,86.8,2.2c16-5,28.1-17,32.5-32.1
		c4.8-16.6,12.6-34.5,23.7-55c3.4-6.2,7.6-13.4,13.3-19.8c4-4.5,8.7-8.5,13.3-12.3c3.6-3.1,7.4-6.2,10.8-9.6
		c2.4-2.5,4.9-4.9,7.3-7.3c6.5-6.4,13.3-13.2,19.3-20.2c10.7-12.6,18.8-28.8,24.8-49.7l0.6-2.1c3.7-12.6,8.1-28.2,2.5-43.2
		c-7.1-18.8-24.7-32.2-45-34.1c-15.6-1.5-24.5,5.3-27.1,20.7c-1.3,7.3-0.7,14.5,0,21.4c0.2,2.1,0.3,4.1,0.5,6.1
		c0.2,2.8,0.4,5.4,0.6,8.1c0.6,6.8,1.2,13.9,0.7,21.1c-1.6,22.5-8.4,30.9-21.2,45c-13,14.3-28.1,30.1-42.1,36.6
		c-8.8,4.1-32.4,13.2-60.1,8.4c-47.6-8.2-75-31.6-81.6-69.4c-0.7-4.1-1.1-8-1.5-12c-0.5-4.7-1-9.5-2.1-15.5
		c-1.7-9.4-8.3-19.5-18.3-27.9c-9.8-8.2-21.2-13.5-31.2-14.2c-11.6-0.9-20.4,5.8-27.4,11.3l-1,0.8c-7.4,5.6-14.2,10.6-23.9,14.1
		c-6.1,2.3-14.7,3.7-22.9,5.2c-6.5,1.1-12.8,2.2-17.8,3.7c-28.4,8.1-42,40.3-46.6,53.8l-0.3,1.1c-2.1,6-4.6,13.4-2.7,22.1
		c2.8,13,13.3,23.9,21.6,30.8c18.9,15.7,30.6,38.1,39.4,58.1c1.9,4.3,2.8,9,3.7,13.5c0.9,4.7,1.8,9.6,3.9,14.2
		c4.6,10.2,10.2,18.2,16.6,23.8c6,5.3,13.5,8.8,20.6,12.3c5.5,2.7,11.1,5.4,16.1,8.9c10.1,7,19.9,16.3,16.6,32.1
		c-1.6,7.9-9,15.6-15.6,22.3c-1.7,1.8-3.3,3.4-4.7,5.1c-9.3,10.2-15.1,17-18.6,28.4c-2.6,8.5-2.8,23.7-0.4,34.6
		c1.9,8.8,4.2,17.3,6.6,25.4h0.5c-2.4-8.2-4.7-16.6-6.6-25.5C243,900.8,243.2,885.6,245.7,877.2z"/>
</g>
</svg>
