<!-- Generator: Adobe Illustrator 24.2.3, SVG Export Plug-In  -->
<svg version="1.1" xmlns="http://www.w3.org/2000/svg" xmlns:xlink="http://www.w3.org/1999/xlink" x="0px" y="0px" width="325.5px"
	 height="194px" viewBox="0 0 325.5 194" style="overflow:visible;enable-background:new 0 0 325.5 194;" xml:space="preserve">
<style type="text/css">
	.st0{fill:#064980;}
</style>
<defs>
</defs>
<g>
	<path class="st0" d="M214.6,65.9c0.4,0.2,0.7,0.6,0.9,0.9c0.4,0.7,0.8,1.4,1.1,2.1c0.4,0.7,0.8,1.4,1.2,2.2
		c0.3,0.5,0.6,1.1,0.9,1.6c0.4,0.8,0.8,1.6,1.4,2.2c0.4,0.4,0.6,1,0.9,1.6c0.2,0.3,0.3,0.7,0.5,0.9c0.7,0.9,1.2,1.8,1.6,2.9
		c0.4,1,1,1.9,1.6,2.7c0.9,1.2,1.8,2.3,2.6,3.5c0.3,0.3,0.4,0.8,0.7,1.1c0.4,0.6,0.8,1.1,1.2,1.7c0.7,1.2,1.4,2.4,2.2,3.5
		c0.3,0.4,0.6,0.9,0.9,1.3c0.5,0.8,0.9,1.6,1.4,2.4c0,0,0.1,0.1,0.2,0.1c0-0.1,0.1-0.2,0.1-0.3c-0.2-0.8-0.2-1.6-0.2-2.5
		c0-0.4-0.1-0.9-0.1-1.3c-0.2-1.7-0.3-3.4-0.5-5.1c0-0.4-0.3-0.7-0.3-1.1c0-0.4-0.1-0.8-0.1-1.2c-0.1-0.4-0.2-0.8-0.2-1.2
		c-0.2-0.9-0.3-1.9-0.5-2.8c-0.1-0.4-0.2-0.8-0.3-1.3c-0.1-0.9-0.3-1.9-0.4-2.8c-0.1-0.5-0.2-1-0.3-1.4c-0.2-1.2-0.3-2.5-0.3-3.7
		c0-0.9-0.1-1.7-0.2-2.6c0-0.1-0.1-0.3-0.1-0.4c0.1-1.1,0-2.2-0.1-3.4c0-0.2,0-0.5,0.1-0.7c0.1-0.4,0.3-0.7,0.7-0.8
		c0.8-0.2,1.5-0.4,2.3-0.3c0.5,0.1,1,0.2,1.4,0.4c0.6,0.2,0.6,0.4,0.5,1c-0.1,0.6-0.1,1.2-0.2,1.8c0,0.2,0,0.4,0.1,0.6
		c0.2,1.1,0.4,2.2,0.4,3.3c0,0.9,0.2,1.8,0.2,2.6c0,0.3,0.1,0.6,0.1,0.9c0.1,1.6,0.3,3.3,0.4,4.9c0.1,1.6,0.2,3.2,0.2,4.9
		c0,0.2,0.1,0.5,0.1,0.7c0,0.3,0.1,0.6,0.1,0.9c0,0.9,0.2,1.8,0.3,2.8c0.2,1.7,0.7,3.4,0.7,5.2c0,1.3,0.3,2.6,0.5,3.9
		c0.1,0.9,0.2,1.7,0.3,2.6c0.1,0.8,0.2,1.6,0.3,2.5c-0.2,0.2-0.5,0.4-0.7,0.7c-0.3-0.1-0.6-0.3-0.9-0.2c-0.7,0.2-1.8,0.1-2.5-0.1
		c-0.2,0-0.4,0-0.6,0c-0.5,0-0.9-0.1-1.2-0.5c-0.5-0.7-0.9-1.4-1.4-2.1c-0.1-0.2-0.3-0.4-0.5-0.5c-0.4-0.4-0.7-0.8-1-1.2
		c-0.4-0.6-0.8-1.3-1.2-1.9c-0.8-1.2-1.6-2.3-2.4-3.5c-0.9-1.4-1.6-2.8-2.4-4.2c-0.8-1.5-1.6-3-2.7-4.4c-0.6-0.8-1.1-1.7-1.7-2.6
		c-0.7-1.1-1.4-2.2-2.2-3.3c-0.1-0.1-0.2-0.4-0.4-0.4c0,0.1-0.1,0.1-0.1,0.2c0.4,1.5,0.4,3,0.8,4.5c0.2,0.6,0.2,1.2,0.3,1.8
		c0.1,0.7,0.1,1.4,0.2,2.1c0.1,0.7,0.2,1.4,0.2,2.2c0,0.7,0.2,1.4,0.2,2.1c0,0.4,0.1,0.9,0.1,1.3c0.2,1.3,0.2,2.6,0.2,3.8
		c0,0.4,0.1,0.7,0.2,1.1c0.2,0.7,0.1,1.4,0.2,2.1c0,0.9,0,1.7,0,2.6c0,0.7-0.2,1.4-0.8,2c-0.6-0.1-1.3-0.1-1.9-0.2
		c-0.4,0-0.6-0.3-0.7-0.6c-0.2-0.3-0.4-0.7-0.3-1.1c0-0.1,0-0.3,0-0.4c-0.2-1.2-0.2-2.5-0.3-3.8c-0.1-1.1-0.2-2.2-0.3-3.4
		c0-0.5,0-0.9,0-1.4c-0.1-1.1-0.2-2.3-0.5-3.4c-0.1-0.5-0.1-1-0.1-1.5c-0.1-1.5-0.3-3-0.4-4.5c-0.1-1.2-0.4-2.5-0.5-3.7
		c-0.1-0.9-0.2-1.8-0.3-2.6c-0.2-1.5-0.5-2.9-0.8-4.4c-0.2-1.2-0.6-2.4-0.6-3.6c0-0.5,0-1-0.1-1.4c-0.2-0.5-0.1-0.8,0.1-1.2
		c0.2-0.6,0.9-1.1,1.5-0.9C213.8,66,214.2,65.9,214.6,65.9z"/>
	<path class="st0" d="M291.9,93.4c-0.1-1.4-0.3-2.9-0.4-4.3c-0.1-1.7-0.3-3.4-0.4-5.1c-0.1-0.9-0.2-1.8-0.2-2.7c0-0.5,0-1-0.1-1.5
		c0-0.6-0.1-1.2-0.2-1.8c-0.3-1.2-0.2-2.5-0.3-3.7c-0.1-1.1-0.2-2.1-0.4-3.1c-0.3-1.2-0.3-2.4-0.7-3.6c-0.1-0.2-0.1-0.5-0.1-0.7
		c0-0.3-0.1-0.6-0.2-0.9c-0.3-0.5-0.2-0.8,0.3-1c0.4-0.2,0.8-0.4,1.2-0.4c1-0.2,2-0.3,3-0.4c0.3,0.3,0.4,0.7,0.4,1.1
		c0,1,0,1.9,0,2.9c0,0.7,0.1,1.4,0.2,2.2c0.3,1.5,0.4,3,0.4,4.5c0,1.2,0.1,2.4,0.3,3.6c0,0.3,0,0.7,0.1,1c0.1,1.6,0.2,3.2,0.4,4.8
		c0,0.2,0.1,0.3,0.1,0.5c0.3,1.2,0.5,2.4,0.6,3.6c0,0.7,0.2,1.3,0.3,1.9c0.1,0.4,0.2,0.8,0.2,1.3c0,1.1,0.2,2.2,0.4,3.2
		c0.1,0.4,0.1,0.8,0.1,1.2c0.1,1.2,0.2,2.5,0.5,3.7c0.2,0.5,0.2,1,0.3,1.6c-0.2,0.4-0.5,0.6-1.1,0.5c-0.7-0.1-1.5-0.1-2.2-0.1
		c-0.2,0-0.3,0-0.5,0c-0.4,0-0.8-0.2-1.2-0.1c-0.3,0-0.7,0.3-1,0.3c-0.6,0.1-1.1,0-1.4-0.6c-0.7-1.5-1.8-2.8-2.6-4.2
		c-0.5-0.9-1-1.8-1.6-2.6c-0.4-0.6-0.7-1.2-1.2-1.7c-1-1.3-2-2.6-2.9-4c-0.5-0.8-1.1-1.4-1.5-2.2c-0.8-1.3-1.5-2.7-1.9-4.2
		c-0.1-0.4-0.3-0.8-0.5-1.2c-0.3,0-0.3,0.2-0.3,0.3c0.1,1.1,0.3,2.2,0.4,3.3c0.1,0.6,0.1,1.1,0,1.7c-0.1,0.7,0,1.5,0.1,2.2
		c0,0.3,0.1,0.5,0.1,0.8c-0.1,1.8,0.2,3.6,0.3,5.4c0.2,1.5,0.2,3,0.3,4.5c0,0.4,0.1,0.9,0.1,1.3c0,0.4,0,0.9,0.1,1.3
		c0,0.5-0.2,0.8-0.6,1c-0.4,0.2-0.8,0.3-1.2,0.3c-0.2,0-0.4-0.1-0.6-0.1c-0.5,0.1-0.9,0.1-1.1-0.4c-0.2-0.3-0.4-0.6-0.4-1.1
		c0-1.2-0.1-2.3-0.2-3.5c-0.1-1.5-0.1-3-0.1-4.4c-0.1-1.5-0.2-2.9-0.3-4.4c0-1.1,0.1-2.1,0.1-3.2c0-0.9-0.1-1.8-0.1-2.8
		c0-0.5-0.1-0.9-0.1-1.4c-0.1-1.1-0.2-2.2-0.2-3.4c-0.1-0.9-0.1-1.7-0.2-2.6c-0.1-1.1-0.2-2.1-0.3-3.1c-0.1-1.4-0.4-2.8-0.8-4.2
		c-0.1-0.2-0.1-0.4,0-0.6c0.1-0.7,0.3-1.2,1.3-1.2c0.8,0,1.6,0.3,2.3,0.4c0.3,0,0.6,0.3,0.5,0.6c0,0.8,0.4,1.5,0.7,2.2
		c0.6,1.3,1.2,2.6,2,3.8c0.2,0.2,0.3,0.5,0.4,0.8c0.2,0.4,0.4,0.9,0.7,1.3c1,1.4,2,2.8,2.8,4.3c0.6,1,1.2,2,1.9,2.9
		c0.1,0.2,0.3,0.4,0.4,0.7c0.2,0.6,0.6,1.1,0.9,1.6c0.8,1.1,1.4,2.3,2,3.4c0.3,0.6,0.7,1.2,1.2,1.8c0.4,0.6,0.8,1.2,1.2,1.8
		c0.2,0.2,0.3,0.5,0.5,0.7C291.8,93.4,291.9,93.4,291.9,93.4z"/>
	<path class="st0" d="M287.7,36.4c-0.5,0.1-0.9,0.2-1.4,0.2c-0.4,0-0.8,0.1-1.2,0c-2-0.3-4.1-0.2-6.2-0.1c-0.7,0-1.5,0.1-2.2,0.2
		c-0.4,0.1-0.9,0.3-1.4,0.4c0.1,0.5,0.1,1,0.2,1.5c0.1,1.1,0.2,2.2,0.4,3.2c0,0.2,0,0.4,0,0.6c-0.1,0.9,0,1.7,0.1,2.6
		c0,0.4,0,0.7,0,1.1c0,0.9,0.1,1.7,0.1,2.6c0,0.6,0,1.1,0,1.7c0,0.3-0.1,0.6,0.1,0.9c0.2,0.3,0.1,0.6-0.1,0.9
		c-0.1,0.2-0.2,0.4-0.4,0.7c-0.3,0.3-0.9,0.4-1.5,0.5c-0.2,0.1-0.5,0-0.8-0.1c-0.3,0-0.4-0.2-0.4-0.5c0-0.2-0.1-0.5-0.1-0.7
		c0-1.4,0.1-2.8,0.1-4.2c0-1.2,0-2.4-0.4-3.6c-0.1-0.3,0-0.7-0.1-1.1c-0.2-1.4-0.5-2.8-0.7-4.2c-0.1-1-0.2-2-0.3-3
		c-0.1-0.5-0.1-1.1-0.2-1.6c-0.2-1-0.2-2.1-0.3-3.2c0-0.8-0.1-1.7-0.2-2.5c-0.2-1.3-0.1-2.6-0.2-4c-0.1-1.6-0.3-3.2-0.4-4.8
		c0-0.3-0.1-0.7-0.1-1c-0.1-1.6,0.1-3.2-0.2-4.7c-0.1-0.3-0.1-0.7-0.2-1c-0.2-0.5-0.2-0.9,0.2-1.2c0.7-0.1,1.3-0.2,2-0.2
		c0.4,0,0.9,0,1.3,0.1c0.5,0.1,0.6,0.4,0.5,0.9c-0.2,0.7-0.2,1.4-0.1,2c0.1,0.7,0.2,1.4,0.2,2.1c0.1,0.9,0,1.9,0.2,2.8
		c0.2,1.2,0.1,2.4,0.2,3.5c0.1,1.7,0,3.4,0.4,5c0.1,0.4,0.1,0.9,0.1,1.3c0,0.6,0,1.1,0.3,1.7c0.2,0,0.4,0.1,0.6,0
		c1.4-0.2,2.8-0.4,4.1-0.5c1.5-0.1,3-0.2,4.5,0.1c0.5,0.1,1-0.1,1.5,0c0.2,0.1,0.5,0,0.8,0c0.1-0.8,0-1.6-0.1-2.5
		c-0.1-1.1-0.2-2.2-0.3-3.3c-0.2-2.5-0.4-5-0.7-7.4c-0.2-1.5-0.5-2.9-0.8-4.4c-0.1-0.3-0.3-0.7-0.4-1c-0.3-0.6-0.2-0.8,0.5-0.9
		c0.4-0.1,0.4-0.1,0.8-0.5c0.6,0.1,1.1,0.1,1.5-0.4c0.2-0.3,0.7-0.2,1,0.1c0.1,0.1,0.3,0.3,0.4,0.5c0.4,0,0.8-0.2,1.2-0.3
		c0.6-0.2,0.8-0.1,1.1,0.6c-0.7,1-0.8,2.2-0.7,3.4c0.1,1.6,0.1,3.2,0.3,4.8c0.2,1.6,0.1,3.2,0.3,4.7c0.1,0.7,0,1.4,0,2.1
		c0,0.7,0.1,1.4,0.2,2.2c0.1,1.2,0.2,2.4,0.3,3.7c0.2,1.8,0.3,3.7,0.7,5.5c0.2,0.9,0.2,1.8,0.3,2.7c0.1,1.2,0.2,2.4,0.4,3.5
		c0.1,0.8,0.1,1.6,0.3,2.5c0.2,1.4,0.5,2.8,0.7,4.2c0,0.3,0.1,0.6,0.2,0.9c0,0.2-0.1,0.5-0.3,0.6c-0.9,0.3-1.8,0.9-2.8,0.7
		c-0.7-0.1-1.3-0.5-1.4-1.3c-0.1-1.1-0.3-2.2-0.5-3.3c-0.3-1.3-0.3-2.7-0.5-4c-0.2-1.2,0-2.4-0.2-3.7
		C288.1,39.3,288.1,37.9,287.7,36.4z"/>
	<path class="st0" d="M152.2,81.3c0.9,0.3,1.6,0.4,2.2,0.6c1,0.4,2,0.8,3,1.3c0.3,0.1,0.6,0.4,0.8,0.7c0.5,0.7,0.9,1.4,1.4,2
		c0.3,0.4,0.5,0.9,0.6,1.3c0.3,1,0.8,1.9,1,2.9c0.1,0.6,0.3,1.2,0.4,1.8c0.1,0.7,0.1,1.4,0,2.2c-0.2,1.6-0.9,2.9-1.5,4.3
		c-0.6,1.4-1.6,2.6-2.7,3.7c-0.4,0.4-0.8,0.8-1.1,1.3c-0.3,0.3-0.5,0.6-1,0.6c-0.3,0-0.6,0.2-0.9,0.2c-0.2,0-0.3,0.1-0.5,0.1
		c-1.5-0.3-3,0-4.5,0.2c-0.6,0.1-1.2,0.3-1.8-0.1c-0.8,0.1-1.5-0.3-2.3-0.1c-0.5-0.2-1-0.2-1.5-0.2c-1.1-0.1-2.2,0-3.2,0.3
		c-0.5,0.1-1,0.2-1.6,0.2c-0.4,0.1-0.7,0.1-1.1,0.2c-0.2,0-0.4,0-0.6,0c-0.3,0-0.5-0.2-0.5-0.5c-0.1-0.7-0.2-1.4-0.2-2.2
		c-0.1-1.5-0.2-3.1-0.6-4.6c-0.1-0.4-0.1-0.8-0.1-1.3c0-0.8-0.1-1.6-0.2-2.5c-0.1-1.2-0.4-2.4-0.4-3.6c0-1.5-0.2-2.9-0.1-4.4
		c0-0.6-0.1-1.3-0.1-1.9c0-1.1-0.1-2.3-0.2-3.4c-0.1-1.8,0-3.6-0.3-5.3c-0.2-1.5-0.2-3-0.2-4.4c0-0.5,0-0.9,0-1.4
		c0-0.4,0.1-0.9,0.1-1.3c0-0.5,0-1-0.1-1.5c0-0.5,0-0.9,0.2-1.3c0.4-0.2,0.8-0.4,1.1-0.7c1.7-1.3,3.6-1.9,5.8-2.1
		c0.9-0.1,1.7-0.2,2.6-0.3c0.5,0,1.1,0.1,1.7,0.2c0.5,0.1,0.9,0.2,1.4,0.3c1.2,0.1,2.2,0.5,3.3,1c0.9,0.4,1.7,1,2.5,1.6
		c1,0.7,1.6,1.7,2.3,2.6c0.4,0.6,0.6,1.3,0.7,2c0.2,1.4,0.4,2.9,0.1,4.3c0,0.1,0,0.3,0,0.4c0,1.5-0.5,2.7-1.4,3.8
		c-0.6,0.7-1.2,1.3-1.6,2.1C152.8,80.8,152.6,81,152.2,81.3z M140.7,102.3c0.8,0.1,1.5,0.3,2.2,0.3c1,0,2,0.1,3.1,0.3
		c0.4,0.1,0.8,0.1,1.2,0.1c0.8,0,1.6-0.1,2.4-0.2c1-0.1,2-0.3,2.9-0.4c0.6-0.1,1.1-0.4,1.6-0.8c0.7-0.5,1.4-1,2-1.7
		c0.5-0.6,1-1.2,1.4-1.9c0.4-0.9,0.6-1.9,0.9-2.9c0.1-0.4,0.1-0.9,0.1-1.3c0-0.9-0.1-1.8-0.3-2.6c-0.2-1.1-0.6-2-1.1-3
		c-0.5-0.9-1.2-1.6-2.2-2.1c-0.7-0.3-1.4-0.6-2.1-0.9c-1.2-0.5-2.4-0.7-3.6-0.2c-1.1,0.5-2.3,0.9-3.4,1.4c-0.4,0.1-0.7,0.3-1.1,0.5
		c-1.1,0.6-2.2,1.2-3.4,1.9c-0.6,0.3-1.2,0.6-1.8,0.9c0.1,0.7,0.2,1.3,0.3,2c0.1,0.4,0.2,0.8,0.2,1.2c0,1.4,0.2,2.8,0.5,4.2
		c0.2,1.1,0.3,2.2,0.2,3.3C140.5,101,140.6,101.6,140.7,102.3z M139.1,86.8c0.3-0.3,0.5-0.4,0.7-0.6c0.2-0.2,0.3-0.4,0.5-0.4
		c0.8-0.2,1.3-0.8,2-1c1-0.6,2.2-0.9,3.1-1.7c0.2-0.1,0.4-0.2,0.6-0.3c0.6-0.2,1.1-0.5,1.7-0.7c0.6-0.2,1-0.7,1.6-0.9
		c0.6-0.3,1.1-0.7,1.5-1.2c0.8-1.1,1.7-2.2,2.3-3.4c0.3-0.6,0.6-1.3,0.8-1.9c0.3-1.2,0.3-2.4-0.3-3.6c-0.7-1.4-1.8-2.4-3-3.4
		c-0.5-0.4-1-0.7-1.6-0.8c-1.7-0.4-3.4-0.8-5.2-0.9c-0.7,0-1.4,0.1-2.2,0.2c-1,0.1-2,0.3-3,0.6c-0.3,0.1-0.5,0.3-0.8,0.4
		c-0.3,0.1-0.4,0.4-0.4,0.7c0,1,0.2,2,0.3,3.1c0.2,1.3,0.4,2.7,0.5,4c0.1,1.4,0.4,2.8,0.3,4.2c-0.1,0.9,0.1,1.8,0.1,2.7
		C138.9,83.4,139,85,139.1,86.8z"/>
	<path class="st0" d="M132.4,54.6c-0.3,0.3-0.6,0.6-0.9,0.9c-0.2-0.2-0.4-0.3-0.5-0.4c-0.1-0.1-0.2-0.2-0.4-0.3
		c-0.2,0.1-0.4,0.2-0.6,0.2c-0.2-0.1-0.4-0.2-0.6-0.4c-0.2-0.2-0.2-0.4-0.2-0.6c0.3-1.9,0.2-3.9,0.2-5.8c0-1-0.1-1.9-0.2-2.9
		c0-1-0.1-2-0.1-3c0-0.7,0-1.3,0-2c0-0.1,0-0.3,0-0.4c0-0.7,0.1-1.4,0-2.1c-0.1-1.7-0.2-3.4-0.3-5.1c0-0.2,0-0.4,0-0.6
		c0-0.7,0.1-1.4-0.2-2c-0.1-0.3-0.1-0.7,0-1.1c0.2-1.3,0.2-2.7,0.2-4.1c0-0.8-0.1-1.5-0.1-2.3c0-0.1,0-0.2,0-0.3
		c0.3-1.4-0.1-2.7-0.1-4.1c0-0.9-0.2-1.8-0.3-2.7c-0.1-0.6-0.1-1.2-0.1-1.8c0-0.4,0-0.4,0.4-1.1c0.4,0,0.8,0.2,1.1-0.4
		c0.1-0.1,0.3-0.1,0.4-0.2c0.3-0.1,0.7-0.3,1-0.4c0.3-0.1,0.5-0.4,0.8-0.2c0.1,0,0.2,0,0.3-0.1c1.3-0.5,2.6-0.7,4-0.8
		c1-0.1,2-0.1,3,0c0.4,0,0.9,0.2,1.3,0.4c1,0.4,2,0.7,2.9,1.3c0.6,0.4,1.1,0.9,1.7,1.4c1.3,1,2,2.4,2.6,3.9c0,0.1,0,0.1,0.1,0.2
		c0.6,0.8,0.6,1.8,0.9,2.7c0.3,0.9,0.4,1.9,0.5,2.8c0.1,1.7-0.4,3.2-1.1,4.7c-0.3,0.6-0.7,1.3-1,1.9c-0.2,0.4-0.4,0.7-0.7,0.9
		c-0.5,0.4-0.8,0.9-1.3,1.4c0.1,0.1,0.2,0.2,0.3,0.2c1,0.2,1.7,0.7,2.3,1.4c0.5,0.6,1.1,1.1,1.7,1.6c0.1,0.1,0.3,0.2,0.4,0.4
		c0.4,0.5,0.8,1.1,1.1,1.6c0.3,0.5,0.7,1.1,1,1.6c0,0.1,0,0.2,0,0.3c0,0.2,0,0.5,0.1,0.7c0.5,1,0.5,2.1,0.7,3.2
		c0.2,1.3,0.1,2.7-0.5,4c-0.3,0.6-0.6,1.2-1,1.7c-0.6,0.8-1.2,1.7-1.9,2.5c-0.5,0.6-1.1,1.2-2,1.4c-0.3,0.1-0.6,0.3-0.9,0.4
		c-1.2,0.7-2.5,0.8-3.8,1.1c-0.2,0.1-0.5,0.1-0.7,0.1c-1.6,0.5-3.2,0.7-4.8,0.7c-0.7,0-1.3-0.1-2-0.2c-0.2,0-0.4,0-0.6-0.1
		c-0.4,0-0.8,0-1.2-0.1C133.1,54.9,132.7,54.7,132.4,54.6z M132.7,53.1c0.1,0,0.1,0.1,0.1,0.1c1.3-0.1,2.6-0.3,3.9-0.3
		c1.7-0.1,3.4,0,5.2,0c1.6,0,3.1-0.4,4.5-1c0.7-0.3,1.4-0.7,1.9-1.3c0.9-1,1.4-2.1,1.7-3.4c0.2-1,0.4-2.1,0.6-3.1
		c0.2-0.9,0.3-1.8-0.1-2.7c-0.1-0.1-0.1-0.3-0.1-0.5c-0.2-1.1-0.5-2-1.2-2.9c-0.4-0.5-0.7-1-1.1-1.4c-0.3-0.4-0.8-0.7-1.1-1.1
		c-0.5-0.6-1.2-1-1.9-1.2c-0.7-0.3-1.5-0.5-2.3-0.1c-0.9,0.4-1.8,0.8-2.7,1.3c-0.5,0.3-1.2,0.3-1.5,0.8c0,0-0.1,0-0.2,0
		c-1.3,0.3-2.7,0.5-4,0.8c-0.3,0.1-0.5,0.2-0.8,0.3c0.1,1.1-0.2,2.2,0.1,3.2c0,0.1,0,0.3,0,0.4c-0.1,1.2-0.1,2.3-0.2,3.5
		c0,0.5-0.1,0.9-0.1,1.4c0,1.3,0,2.5-0.1,3.8c0,0.4,0,0.6,0.2,0.9c-0.1,0.5-0.4,0.7-0.8,0.9C132.8,52,132.5,52.6,132.7,53.1z
		 M133.4,33.7c0.2,0,0.4,0.1,0.5,0c1.1-0.1,2.2-0.1,3.3-0.2c0.3,0,0.6,0,0.9-0.1c1-0.4,2-0.4,2.9-1.1c1.1-0.7,2.1-1.5,2.9-2.5
		c0.3-0.4,0.6-0.8,0.8-1.2c0.5-0.9,0.5-2,0.4-3c-0.1-0.9-0.3-1.7-0.4-2.5c-0.1-1-0.5-1.9-1-2.7c-0.7-1.3-1.5-2.6-2.2-4
		c-0.6-1-1.3-2-2.5-2.5c-0.4-0.2-0.8-0.3-1.2-0.5c-0.2-0.1-0.5-0.1-0.8-0.2c-1.1-0.5-2.3-0.6-3.4-0.1c-0.2,0.3-0.1,0.6-0.1,0.9
		c0.2,0.6,0.2,1.3,0.2,2c-0.1,1.7-0.2,3.5-0.3,5.2c0,0.5-0.1,0.9-0.1,1.4c0,0.8,0,1.5-0.1,2.3c0,0.6,0.1,1.3,0,1.9
		c-0.2,1.2-0.1,2.5-0.1,3.7c0,0.5,0,1.1,0,1.6C133.4,32.7,133.4,33.2,133.4,33.7z"/>
	<path class="st0" d="M237.5,153.5c0.2,0.6,0.1,1.1-0.4,1.5c-0.1,0.1-0.2,0.3-0.3,0.5c-0.2,0.5-0.3,0.9-0.5,1.3
		c-0.6,0.4-1.2,0.4-1.8,0.3c-1-0.1-1.9-0.1-2.8-0.6c-1-0.5-1.9-1.1-2.3-2.2c-0.1-0.2-0.1-0.4-0.3-0.5c-0.3-0.4-0.5-0.8-0.7-1.3
		c-0.2-0.6-0.5-1.2-0.7-1.8c-0.1,0.1-0.2,0.3-0.3,0.5c-0.2,0.7-0.5,1.3-0.9,1.9c-0.4,0.5-0.8,1.1-1.3,1.5c-0.3,0.3-0.7,0.5-1.1,0.8
		c-0.7,0.4-1.4,0.7-2.2,0.8c-0.7,0.1-1.3,0.1-2,0.2c-0.7,0.1-1.3-0.3-2-0.6c-0.5-0.2-0.9-0.6-1.3-0.9c-0.8-0.5-1.4-1.2-1.6-2.1
		c-0.1-0.4-0.3-0.9-0.5-1.3c-0.7-2.1-1.2-4.3-1.7-6.4c-0.3-1.1-0.5-2.2-0.7-3.3c-0.1-0.5-0.2-1-0.2-1.6c0-1.2-0.3-2.3-0.4-3.4
		c-0.1-0.7-0.2-1.4-0.2-2.2c0-1.1-0.2-2.2-0.4-3.2c0-0.3-0.1-0.6,0-0.9c0.1-0.9-0.1-1.7-0.3-2.5c-0.4-1.5-0.7-3.1-0.8-4.7
		c0-0.4,0-0.5,0.4-0.7c0,0,0.1,0,0.1,0c0.4-0.1,0.8-0.1,1.2-0.2c0.4-0.1,0.8-0.4,1.2-0.3c0.1,0,0.3-0.1,0.5-0.1
		c0.6-0.2,1.1,0,1.3,0.6c0.1,0.5,0.2,1,0.2,1.5c0,0.6,0,1.2,0,1.8c0.1,0.9,0.2,1.8,0.3,2.7c0.2,1.9,0.4,3.7,0.5,5.6
		c0.2,2.1,0.5,4.1,0.7,6.2c0.1,1,0.2,1.9,0.4,2.8c0.1,0.4,0.1,0.9,0.2,1.3c0.4,2.1,0.8,4.2,1.6,6.2c0.3,0.7,0.8,1.2,1.2,1.8
		c0.3,0.4,0.7,0.6,1.2,0.7c0.4,0.1,0.8,0.2,1.2,0.3c0.5-0.2,0.7-0.8,0.9-1.2c0.5-1,0.8-2.2,0.7-3.4c0-1,0-2-0.1-3
		c-0.1-0.6-0.1-1.2,0-1.8c0.1-0.8,0-1.5,0-2.3c0-0.6,0.1-1.3,0-1.9c0-0.5,0-1,0-1.5c0-1.3,0-2.7-0.1-4c-0.1-1.3-0.3-2.6-0.5-3.9
		c-0.2-1.2-0.5-2.3-0.6-3.5c-0.1-1.3-0.2-2.7-0.6-4c-0.1-0.4,0.1-0.6,0.2-1c0.7,0,1.4-0.2,2.2-0.1c0.7,0.1,1.5,0.2,2.3-0.2
		c0.5,0.3,0.7,0.8,0.7,1.4c0,0.2,0,0.5-0.1,0.7c-0.2,0.8-0.2,1.6-0.2,2.5c0,1.3,0.1,2.5,0.1,3.8c0,1.1,0,2.2,0.1,3.4
		c0.2,2.2,0.4,4.4,0.9,6.6c0.4,1.9,1.2,3.7,1.9,5.5c0.2,0.4,0.4,0.8,0.7,1.1c0.5,0.8,1.1,1.5,1.6,2.2c0.2,0.2,0.4,0.5,0.6,0.6
		c0.7,0.5,1.3,1.1,2,1.6c0.2-0.1,0.3-0.1,0.5-0.2c0.3,0.1,0.5,0.5,0.9,0.4c0.2,0,0.4,0.2,0.4,0.4c0,0.3,0,0.5,0,0.8
		c0,0.2,0,0.5,0,0.7C237.1,153.3,237.3,153.4,237.5,153.5z"/>
	<path class="st0" d="M178.8,85.1c0.4,0.8,0.9,1.5,1.3,2.2c0.6,1,1.3,2,1.8,3.2c0.5,0.5,0.6,1.3,1.2,1.8c0.6,1.1,1.2,2.1,1.8,3.2
		c0.1,0.2,0.2,0.3,0.3,0.5c0.8,1.1,1.6,2.3,2.4,3.4c0.5,0.8,1,1.6,1.4,2.5c0.1,0.2,0.1,0.5,0.1,0.7c-0.5,1.2-1.1,2.4-2.4,3
		c-0.4,0.2-0.7,0.3-1.1,0.4c-0.4-0.1-0.6-0.4-0.7-0.8c-0.2-0.7-0.6-1.4-0.9-2.1c-0.2-0.5-0.5-1.1-0.7-1.6c0-0.2-0.1-0.5-0.3-0.6
		c-0.7-1.1-1.1-2.3-1.9-3.3c-0.4-0.5-0.7-1.1-0.9-1.8c-0.3-1-0.9-1.9-1.3-2.8c-0.5-1-1-1.9-1.5-2.9c-0.4-0.8-0.9-1.5-1.4-2.3
		c-0.2-0.2-0.4-0.4-0.6-0.7c-1.3,0.6-2.6,1.2-3.9,1.8c-0.1,0-0.2,0.1-0.3,0.1c-0.7-0.2-1.2,0.3-1.8,0.5c0,0.7,0,1.5,0.2,2.2
		c0.1,0.5,0.1,1.1,0.2,1.7c0.2,1.8,0.4,3.7,0.5,5.5c0.1,0.8,0,1.6,0.1,2.5c0,0.8,0.2,1.6,0.6,2.4c0,0.2-0.1,0.4-0.2,0.6
		c-0.1,0.2-0.2,0.3-0.3,0.5c-0.4-0.3-0.7-0.3-1.1-0.2c-0.8,0.1-1.6,0.4-2.4,0.3c-0.5-0.6-0.6-1.2-0.5-1.9c0.1-0.4,0-0.8,0-1.3
		c-0.1-0.7,0-1.4-0.1-2.2c0-0.3,0-0.5,0-0.8c-0.1-1.1-0.2-2.3-0.4-3.4c-0.2-1.3-0.4-2.6-0.5-3.8c-0.2-2.5-0.7-4.9-0.9-7.4
		c-0.1-1.1,0-2.2-0.2-3.3c-0.1-0.7-0.1-1.5-0.3-2.2c-0.2-1.1-0.1-2.3-0.2-3.4c-0.1-0.8-0.1-1.6-0.2-2.4c-0.2-1.4-0.5-2.7-0.5-4.1
		c0-0.7,0.1-0.8,0.8-1c0.8-0.2,1.5-0.1,2.3-0.1c0.3,0,0.6,0.3,0.9,0.5c0.1-0.1,0.3-0.2,0.5-0.4c0.7-0.9,1.5-1.5,2.5-1.9
		c0.8-0.4,1.7-0.7,2.6-1c0.9-0.3,1.7-0.4,2.6-0.1c0.6,0.2,1.2,0.4,1.8,0.6c0.8,0.2,1.5,0.7,2.2,1.2c0.6,0.5,2,2.2,2.3,2.9
		c0.1,0.2,0.2,0.5,0.3,0.7c0.2,0.9,0.4,1.8,0.5,2.7c0.1,0.9,0.1,1.8,0.3,2.8c0.1,0.5,0,1-0.1,1.5c-0.2,1-0.4,2-0.6,3
		c-0.2,0.9-0.6,1.7-1.2,2.4c-0.5,0.7-1,1.4-1.7,2C179,84.8,178.9,85,178.8,85.1z M168.8,85.9c0.7-0.2,1.3-0.5,1.9-0.6
		c1.6-0.4,2.9-1.2,4.3-2c1.2-0.7,2.3-1.4,3.4-2.2c0.3-0.2,0.5-0.5,0.7-0.8c0.3-0.6,0.6-1.3,0.7-1.9c0.3-1.3,0.5-2.6,0.3-3.9
		c-0.1-0.4-0.1-0.8-0.1-1.2c0-1-0.5-1.8-0.8-2.6c-0.1-0.3-0.3-0.6-0.6-0.9c-0.7-0.9-1.7-1.4-2.8-1.6c-0.7-0.1-1.4-0.2-2.1-0.1
		c-1.2,0-2.4,0.3-3.5,1c-0.9,0.6-1.8,1.2-2.2,2.2c-0.1,0.2-0.4,0.4-0.6,0.7c0.1,0.7,0.2,1.5,0.3,2.3c0.1,0.9,0.3,1.8,0.3,2.7
		c-0.1,1.5,0.3,2.9,0.3,4.3c0,0.4,0,0.9,0,1.3c0.1,0.9,0,1.9,0.5,2.8C168.8,85.4,168.7,85.6,168.8,85.9z"/>
	<path class="st0" d="M194.7,12.7c0.4,0.1,0.5,0.4,0.7,0.7c0.2,0.3,0.4,0.5,0.4,0.8c0.1,1.1,0.4,2.3,0.3,3.4c0,0.6,0,1.2,0.1,1.8
		c0.3,1.6,0.3,3.2,0.4,4.7c0.1,1.3,0.3,2.6,0.5,3.8c0.1,0.4,0.1,0.7,0.2,1.1c0.2,1.5,0.7,3,1,4.4c0.2,1.1,0.4,2.2,0.5,3.3
		c0,0.3,0.1,0.6,0.1,0.9c0.1,1,0.3,2,0.4,2.9c0.1,1,0.2,1.9,0.3,2.9c0,0.5,0,1.1,0.1,1.6c0.1,2,0.4,4.1,0.7,6.1
		c0.1,0.4,0.1,0.7,0.1,1.1c0,0.3,0.1,0.6,0.2,1c0.2,0.6,0.2,1.2,0.2,1.8c0,0.3-0.3,0.6-0.6,0.6c-0.2,0-0.4,0-0.6-0.1
		c-0.6-0.3-1.2-0.2-1.9-0.1c-1.1,0.2-1.1,0.1-2-0.2c-0.3-1.3-0.4-2.7-0.5-4.1c-0.4,0.6-0.8,1.3-1.2,2c-0.8,1.4-2.1,2.3-3.6,2.9
		c-1,0.4-2,0.4-3,0.2c-1.2-0.2-2.3-0.7-3.5-1.1c-0.8-0.7-1.9-1.1-2.5-2c-0.5-0.7-1-1.4-1.3-2.3c-0.7-1.9-1-3.8-1.2-5.8
		c-0.1-0.9-0.2-1.9-0.3-2.8c-0.2-2-0.4-4.1-0.7-6.1c-0.2-1.2-0.2-2.4-0.2-3.7c0-0.3-0.1-0.6-0.1-0.9c-0.1-1-0.2-2-0.3-3
		c-0.1-0.9-0.3-1.8-0.5-2.7c-0.2-1.1-0.2-2.3-0.3-3.5c-0.1-1.2-0.1-2.5-0.2-3.7c0-0.2,0-0.4-0.1-0.6c-0.2-1.2-0.3-2.5-0.5-3.7
		c0-0.1,0-0.2,0-0.3c-0.1-0.7,0.3-1,0.8-1.1c0.7-0.2,1.3-0.3,2-0.6c0.4-0.2,0.9,0.1,0.8,0.6c-0.1,0.4,0,0.7,0.1,1.1
		c0.1,0.3,0.1,0.6,0.1,0.9c0.1,1.4,0.2,2.7,0.3,4.1c0.1,1.9,0.3,3.9,0.4,5.8c0,0.5,0,1,0,1.5c-0.1,1.1,0.1,2.2,0.2,3.4
		c0.1,1,0.3,2,0.2,3.1c0,0.5,0.1,1,0.1,1.5c0.2,2.3,0.3,4.7,0.5,7c0.2,2.4,0.6,4.7,1,7.1c0.1,0.8,0.2,1.6,0.8,2.2
		c0.4,0.4,0.8,0.8,1.2,1.1c0.3,0.3,0.7,0.5,1.1,0.7c0.3,0.2,0.7,0.4,1.1,0.3c0.3,0,0.7,0.2,1,0.2c0.9,0.1,1.8-0.1,2.7-0.2
		c1-0.1,1.7-0.6,2.3-1.3c0.1-0.1,0.1-0.1,0.2-0.2c0.4-0.8,0.7-1.6,1.1-2.4c0.3-0.6,0.3-1.2,0.3-1.8c0.1-1.6,0.1-3.2,0.1-4.7
		c0-0.7-0.1-1.3-0.2-2c-0.1-0.9-0.2-1.8-0.2-2.8c-0.1-2.1-0.3-4.2-0.4-6.3c0-0.4,0-0.8,0-1.2c0-1.6-0.2-3.3-0.4-4.9
		c0-0.1-0.1-0.3-0.1-0.4c0-1.4-0.1-2.7-0.3-4c-0.1-0.4,0-0.8,0-1.2c0-0.1,0.1-0.2,0-0.3c-0.3-1.1-0.1-2.2-0.1-3.2
		c0-0.6,0.1-1.3-0.3-1.8c-0.1-0.2,0-0.5,0.2-0.6c0.1,0,0.2-0.1,0.3-0.1C193.7,13.5,194.2,13.1,194.7,12.7z"/>
	<path class="st0" d="M243.1,158.8c-0.4-0.1-0.9-0.3-1.4,0c-0.2,0.1-0.4,0.3-0.7,0.4c-0.5,0.3-0.9,0.2-1.1-0.3
		c-0.3-0.6-0.5-1.2-0.5-1.9c0-1.2-0.2-2.4-0.4-3.5c-0.2-0.8-0.3-1.6-0.3-2.4c0-1.2-0.4-2.3-0.6-3.5c-0.2-1.1-0.4-2.2-0.4-3.3
		c0-0.2,0-0.3-0.1-0.5c-0.1-0.9-0.2-1.9-0.2-2.9c0-0.5-0.1-1-0.1-1.5c-0.2-1-0.4-1.9-0.5-2.9c-0.3-1.7-0.6-3.3-0.8-5
		c-0.1-0.6-0.3-1.2-0.4-1.7c-0.2-1.1-0.3-2.2-0.5-3.2c0-0.1,0-0.2,0-0.3c-0.4-1.2-0.5-2.5-0.8-3.8c-0.2-0.8-0.4-1.5-0.6-2.3
		c-0.2-0.7,0-1.1,0.8-1.3c0.7-0.1,1.2-0.5,1.9-0.5c0.9,0,1.7-0.2,2.6-0.3c0.9-0.1,1.8,0,2.7,0c0.2,0,0.5-0.1,0.7-0.1
		c1-0.2,2.1-0.3,3.1-0.1c0.1,0,0.3,0.1,0.4,0c0.6-0.3,1,0,1.5,0.3c0.6,0.4,1.2,0.8,1.9,1c0.9,0.4,1.6,1,2.3,1.5
		c0.9,0.7,1.8,1.5,2.7,2.4c0.4,0.4,0.6,0.9,0.8,1.4c0.3,0.7,0.5,1.5,0.8,2.2c0.5,1.3,0.7,2.6,0.6,3.9c-0.1,1.5-0.4,2.9-0.6,4.4
		c-0.1,0.8-0.7,1.4-1.1,2.1c-0.6,1-1.6,1.4-2.6,2c-1.7,1-3.6,1.3-5.4,1.9c-1.1,0.1-2.2,0.5-3.3,0.4c-0.4,0-0.9,0-1.3,0.2
		c0,0.2,0,0.4,0.1,0.6c0.4,1.8,0.8,3.6,1.1,5.4c0.1,0.7,0.1,1.5,0.2,2.3c0.1,1.4,0.1,2.9,0.3,4.3c0.1,1,0.5,1.9,0.7,2.9
		c0.1,0.3,0.2,0.5,0.1,0.9c-0.1,0.3-0.4,0.4-0.7,0.5C243.7,158.5,243.4,158.7,243.1,158.8z M241.7,138.1c1,0.3,1.9,0.4,2.8,0.2
		c1.3-0.2,2.6-0.6,3.8-1.1c0.7-0.3,1.5-0.6,2-1.3c0.2-0.2,0.4-0.3,0.6-0.4c0.7-0.3,1.3-0.8,1.8-1.4c0.3-0.4,0.6-0.9,1-1.2
		c0.2-0.2,0.3-0.6,0.4-0.9c0.1-0.3,0.1-0.5,0.1-0.8c0.3-1.6,0.2-3.1-0.4-4.6c-0.3-0.7-0.7-1.2-1.3-1.6c-0.7-0.4-1.3-1-2-1.4
		c-0.6-0.3-1-0.8-1.6-1.1c-1.1-0.5-2.1-0.7-3.3-0.5c-1.8,0.3-3.5,1.1-5.2,1.9c-0.1,0-0.1,0.1-0.2,0.2c0,0.1,0,0.2,0,0.3
		c0.2,1.6,0.3,3.2,0.5,4.7c0,0.1,0,0.1,0,0.2c0.5,2.2,0.4,4.4,0.9,6.6c0,0.1,0,0.1,0,0.2C241.4,136.9,241.6,137.5,241.7,138.1z"/>
	<path class="st0" d="M168.7,158.4c0.1,0.3,0.2,0.6,0.2,1c0,0.2,0,0.4-0.1,0.5c-0.4,0.4-0.8,0.6-1.3,0.5c-0.4,0-0.7-0.1-1.1,0
		c-0.4,0.1-0.8-0.1-1.1-0.3c-0.2-0.1-0.4-0.3-0.4-0.4c0-0.6-0.4-1.1-0.3-1.7c0.2-2,0.3-4.1,0.5-6.1c0-0.5-0.1-0.9-0.1-1.4
		c0-0.2-0.1-0.5-0.1-0.7c0.2-1,0-1.9,0-2.9c0-0.8,0.1-1.6,0.1-2.4c0-0.9-0.1-1.8-0.1-2.8c0-0.8-0.1-1.7-0.1-2.5
		c0-2.2-0.1-4.4-0.3-6.5c-0.1-0.6-0.2-1.1-0.3-1.7c-0.1-0.6-0.1-1.1-0.2-1.7c-0.2-1-0.3-2-0.5-3c0-0.2-0.1-0.4-0.1-0.6
		c0-0.5-0.1-0.9-0.4-1.3c-0.2-0.2-0.2-0.4-0.1-0.6c0.3-0.5,0.2-0.9,0.2-1.4c0-0.3,0-0.5,0-0.8c0.5-0.4,0.9-0.7,1.4-1
		c0.3-0.2,0.7-0.3,1-0.4c0.4-0.1,0.9-0.2,1.3-0.3c0.4-0.1,0.7-0.2,1-0.5c0.2-0.1,0.4-0.3,0.6-0.2c0.6,0.1,1.1-0.1,1.7-0.2
		c1.2-0.2,2.4-0.2,3.5,0.2c0.9,0.3,1.9,0.6,2.8,0.9c0.6,0.2,1.1,0.7,1.6,1.1c1.2,1,2.1,2.1,2.8,3.4c0.4,0.9,0.7,1.7,0.8,2.7
		c0.1,1.1-0.1,2.2-0.3,3.3c-0.2,0.9-0.3,1.8-0.6,2.6c-0.4,1.1-1,2.2-1.8,3c-0.9,0.9-1.9,1.8-2.9,2.6c-0.2,0.2-0.4,0.4-0.7,0.6
		c0.9,1.4,1.7,2.8,2.5,4.2c0.2,0.4,0.4,0.8,0.6,1.2c0.7,1.2,1.4,2.4,2,3.7c0.7,1.4,1.5,2.8,2.4,4.1c0.4,0.6,0.8,1.1,1.2,1.7
		c0.3,0.4,0.6,0.7,0.8,1.1c0.5,0.7,0.4,1.4-0.2,2.1c-0.4,0.4-0.8,0.8-1.1,1.3c-0.3,0.4-0.7,0.6-1.2,0.5c-0.4-0.8-0.9-1.7-1.5-2.4
		c-0.5-0.7-1-1.5-1.5-2.2c-0.9-1.3-1.5-2.7-2.6-3.9c-0.3-0.4-0.6-0.9-0.8-1.3c-0.2-0.3-0.4-0.6-0.6-0.9c-0.5-0.6-1-1.3-1.4-1.9
		c-0.6-0.9-1.2-1.6-2-2.4c-0.8-0.8-1.6-1.6-2.5-2.5c-0.3,0.1-0.5,0.2-0.7,0.4c-0.3,0.3-0.5,0.6-0.5,1c0,1.3,0,2.6,0.1,3.9
		c0.2,2.1,0.1,4.1,0.2,6.2c0,0.6,0.1,1.3,0.1,1.9c0,0.2,0,0.4,0.2,0.6c0.3,0.3,0.2,0.6,0.3,1C169.3,157.5,169.1,158,168.7,158.4z
		 M168.5,139.9c0.6-0.3,1.3-0.4,1.8-0.7c1.5-0.3,2.7-1.1,3.9-2c0.4-0.3,0.8-0.5,1.2-0.8c0.2-0.1,0.4-0.3,0.6-0.4
		c0.4-0.3,0.7-0.7,1.1-1c0.9-0.8,1.5-1.8,1.6-3c0.1-0.9,0.3-1.8,0.5-2.7c0-0.2,0-0.3,0-0.5c0-0.6,0-1.2-0.1-1.8
		c-0.3-1.4-0.8-2.7-2-3.5c-0.3-0.2-0.5-0.4-0.8-0.6c-1.5-1.1-3.1-1.3-4.9-1c-1.3,0.2-2.3,0.9-3.4,1.5c-0.5,0.3-0.8,0.8-0.8,1.4
		c-0.1,1-0.2,1.9-0.2,2.9c0,0.4,0.1,0.9,0.1,1.3c0.1,0.7,0.3,1.4,0.4,2.1c0.2,1,0.3,2.1,0.4,3.1c0.2,1.3,0.4,2.7,0.4,4
		C168.3,138.8,168.2,139.3,168.5,139.9z"/>
	<path class="st0" d="M194.6,92c-0.2,0.9-0.5,1.7-0.3,2.6c0.1,0.4,0,0.9-0.1,1.3c-0.2,0.9-0.3,1.8-0.3,2.6c0,0.9-0.2,1.7-0.2,2.6
		c0,0.4-0.2,0.8-0.4,1.2c-0.5,0.7-0.5,1.5-0.1,2.3c0.2,0.5,0.1,0.9-0.2,1.3c-0.9-0.4-1.7,0-2.5,0.2c-0.4,0.1-0.8,0.2-1.2,0.1
		c-0.3-0.1-0.4-0.3-0.4-0.5c0-0.2,0-0.4,0.1-0.6c0.1-0.5,0.2-1,0.1-1.5c0-0.3,0-0.7,0.2-1c0.4-0.8,0.4-1.8,0.7-2.7
		c0.1-0.2,0.1-0.5,0.1-0.7c0.1-0.8,0.2-1.6,0.3-2.4c0.1-0.8,0.2-1.6,0.2-2.4c0-1.5,0.3-3,0.5-4.4c0.2-1.9,0.3-3.8,0.4-5.7
		c0-1.7,0.2-3.3,0.5-4.9c0.1-0.7,0.1-1.5,0.1-2.3c0.1-0.8,0-1.6,0.2-2.4c0.2-0.9,0.3-1.8,0.3-2.7c0.1-0.6,0.1-1.3,0.2-1.9
		c0.2-0.8,0-1.6-0.2-2.4c-0.1-0.2,0-0.5,0-0.7c0-0.3,0.1-0.6,0.2-0.9c0.2-0.1,0.4-0.3,0.7-0.3c0.8-0.1,1.6-0.2,2.3-0.4
		c0.4-0.1,0.7-0.2,1.1-0.2c0.5-0.1,1,0.1,1.1,0.6c0.5,2.5,2,4.6,3.2,6.8c0.6,0.6,0.8,1.4,1,2.2c0.1,0.4,0.2,0.9,0.5,1.3
		c0.4,0.5,0.5,1.1,0.8,1.7c0.5,1.3,1,2.6,1.6,3.8c0.2,0.4,0.5,0.8,0.7,1.2c0.4,0.9,0.7,1.7,1.1,2.6c0.1,0.3,0.3,0.7,0.5,1
		c0.1,0.2,0.3,0.4,0.3,0.6c0.3,1.3,1.2,2.3,1.6,3.5c0.1,0.2,0.2,0.3,0.3,0.5c0.5,0.8,0.9,1.7,1.3,2.5c0.3,0.7,0.6,1.5,1.1,2.2
		c0.5,0.7,0.9,1.4,1.3,2.1c0.6,1,1.2,1.9,1.7,2.9c0.5,0.8,0.3,1.2-0.6,1.5c-0.6,0.2-1.3,0.4-1.9,0.6c-0.3,0.1-0.6,0.3-0.9,0.5
		c-0.4-0.1-0.9-0.2-1.2-0.6c0.2-0.1,0.3-0.2,0.5-0.3c-0.1-0.6-0.3-1.2-0.5-1.8c-0.3-0.7-0.6-1.4-0.9-2.1c-0.3-0.6-0.6-1.2-0.9-1.7
		c-0.8-1.4-1.6-2.8-2.4-4.2c-0.5-0.9-1-1.7-1.5-2.5c-2.5,0.1-4.8,0.7-7.1,1.2c-0.6,0.1-1.3,0.2-1.9,0.4
		C195.3,91.8,195,91.9,194.6,92z M196.4,73.6c0,0.3-0.1,0.5-0.1,0.6c0,1.1,0,2.3,0,3.4c0,1.1,0,2.2-0.1,3.4
		c-0.1,0.9-0.2,1.8-0.3,2.7c-0.1,0.9-0.3,1.7-0.5,2.6c-0.2,1.1-0.3,2.2-0.5,3.2c0,0.3-0.1,0.6-0.1,1c0.1,0,0.2,0.1,0.3,0.1
		c0.9-0.1,1.8-0.2,2.6-0.4c0.5-0.1,1-0.1,1.5-0.3c1.4-0.4,2.9-0.6,4.4-0.7c0.1,0,0.2-0.1,0.4-0.1c-0.1-0.2-0.1-0.4-0.2-0.6
		c-0.3-0.7-0.6-1.4-0.9-2.1c-0.2-0.5-0.5-1-0.8-1.5c-0.9-1.4-1.8-2.8-2.4-4.3c-0.3-0.8-0.7-1.5-1.1-2.2c-0.3-0.5-0.5-1-0.7-1.5
		c-0.2-0.4-0.4-0.7-0.4-1.1C197.3,75.1,196.9,74.4,196.4,73.6z"/>
	<path class="st0" d="M220.9,54.4c-0.3-1.8-0.6-3.5-0.9-5.2c-0.1-0.7-0.2-1.4-0.2-2.1c0-1.3-0.1-2.6-0.3-3.9c-0.1-0.9,0-1.9-0.2-2.8
		c-0.1-1-0.2-2.1-0.4-3.1c-0.2-0.9-0.2-1.8-0.2-2.8c0-0.1,0-0.1,0-0.2c-0.2-1.7,0-3.4-0.1-5.2c0-0.3,0-0.5,0-0.8
		c0.1-0.8,0.1-1.5,0-2.3c-0.1-1.7-0.1-3.4-0.4-5.1c-0.1-0.4,0-0.8-0.1-1.2c-0.1-1.2-0.1-2.4-0.2-3.6c0-0.7-0.1-1.4-0.2-2.2
		c-0.1-0.1-0.3-0.3-0.4-0.4c-0.3-0.4-0.1-0.9,0.3-1c0.3-0.1,0.6-0.1,0.9-0.1c1.3,0,2.5-0.1,3.8-0.2c0.7-0.1,1.4-0.4,2.2-0.3
		c0.7,0.1,1.4-0.1,2.2-0.3c0.7-0.1,1.4-0.4,2.1-0.5c0.9-0.2,1.8-0.3,2.6-0.4c0.6,0.2,1.2,0,1.9-0.1c0.3,0,0.6-0.1,0.9-0.2
		c0.7-0.3,1.1-0.1,1.6,0.4c-0.1,0.4-0.2,0.8-0.3,1.3c0.1,0.1,0.3,0.2,0.6,0.3c-0.2,0.4-0.4,0.6-0.6,1c0.2,0.2,0.3,0.5,0.6,0.6
		c0.3,0.2,0.3,0.5,0.3,0.8c0,0.3-0.2,0.5-0.5,0.5c-0.7,0.1-1.4,0.2-2.2,0.3c-1,0.1-2,0.3-2.9,0.5c-1.2,0.3-2.4,0.4-3.6,0.3
		c-1.4,0-2.8,0-4.2,0.4c-0.2,0-0.3,0.1-0.5,0.1c-0.7,0.3-0.7,0.3-0.6,1.1c0.2,1.4,0.2,2.7,0.3,4.1c0.1,1.1,0.2,2.2,0.4,3.2
		c0.1,0.9,0.3,1.9,0.4,2.8c0,0.4,0,0.7-0.1,1.1c0,0.5,0.2,0.8,0.7,0.9c0.7,0,1.4,0,2.1,0c0.7,0,1.3-0.1,2-0.2c0.2,0,0.4-0.1,0.6-0.1
		c0.2,0,0.4-0.1,0.6-0.1c0.7,0.2,1.3,0,2-0.1c0.1,0,0.2,0,0.3,0c0.4,0,0.7,0.2,0.8,0.6c0,0.3,0,0.6-0.1,0.9c-0.1,0.5-0.1,0.9,0,1.4
		c0.1,0.4,0.2,0.9,0,1.4c-0.4,0.3-0.7,0.4-1.3,0.2c-0.6-0.1-1.3-0.1-2-0.1c-0.4,0-0.7-0.1-1.1-0.1c-0.1,0-0.2,0-0.3,0
		c-1.1,0.4-2.2,0.4-3.3,0.6c-0.1,0-0.2,0.1-0.3,0.2c0,0.9,0.2,1.8,0.3,2.7c0.1,0.4,0.1,0.8,0.2,1.3c0.1,1,0.3,2,0.4,3
		c0.1,1.5,0.6,2.8,0.8,4.3c0.1,0.8,0.2,1.5,0.3,2.3c0.2,1.1,0.2,2.2,0.3,3.3c0,0.6,0.1,1.2,0.5,1.7c0.3,0.5,0.1,1-0.4,1.2
		c-0.8,0.2-1.6,0.2-2.4,0.3c-0.6-0.3-1.2-0.2-1.8-0.2C221.5,54.7,221.2,54.5,220.9,54.4z"/>
	<path class="st0" d="M160.7,50.1c0.6,0,1.1-0.1,1.7-0.1c0.3,0,0.7-0.1,1,0c1,0.1,2,0.1,3,0.2c0.2,0,0.3,0.1,0.5,0
		c0.7-0.3,1.5-0.2,2.2-0.3c0.7-0.1,1.5-0.3,2.2-0.4c0.1,0,0.1-0.1,0.2-0.1c0.8,0.2,1.6-0.1,2.5-0.2c0.4,0,0.7-0.2,1.1-0.3
		c0.2-0.1,0.3-0.1,0.4-0.4c0-0.1,0.3-0.2,0.4-0.2c0.6,0.4,0.7,0.9,0.6,1.5c-0.1,0.3-0.1,0.6-0.1,0.9c-0.1,0.5-0.1,1,0.2,1.4
		c0,0.1-0.1,0.2-0.1,0.3c-0.3,0.8-0.3,0.8-1.1,0.7c-0.3,0-0.7,0-1,0c-1.5,0.1-3,0.1-4.3,0.8c-0.4,0.2-0.9,0.3-1.3,0.3
		c-1,0.1-2,0.2-3,0.4c-0.3,0.1-0.6,0-0.9,0c-0.6,0-1.2-0.1-1.8,0c-1.2,0.1-2.4,0.1-3.6-0.1c-0.7-0.1-1.4-0.2-2.1-0.3
		c-0.5,0-0.9-0.3-1.3-0.4c-0.3-0.1-0.4-0.3-0.4-0.6c0-0.5,0-1,0-1.5c0.1-0.9,0.1-1.7,0-2.6c-0.1-1-0.1-2.1-0.1-3.2c0-1-0.1-2-0.1-3
		c0-0.3,0-0.7,0-1c0-1.5,0-3,0-4.5c0-2.7,0-5.5-0.1-8.2c0-1.9-0.1-3.8-0.3-5.7c-0.1-1.4-0.4-2.8-0.4-4.2c0-0.3-0.1-0.6-0.2-1
		c-0.1-1.6-0.4-3.2-0.7-4.8c-0.1-0.4-0.2-0.8-0.2-1.2c0-0.4,0.4-0.8,0.8-0.6c0.4,0.3,0.9,0.3,1.4,0.4c1,0.2,1.9,0.4,2.9,0.3
		c0.2,0,0.4,0,0.6,0c0.5,0.1,0.7,0.4,0.7,0.9c0,1.3,0,2.6,0,4c0,1,0,1.9,0,2.9c0,0.6,0,1.3,0,1.9c0.2,1.8,0.1,3.5,0.1,5.3
		c0,1.7,0.1,3.4,0.1,5.1c0,1.6,0,3.1,0,4.7c0,1.4,0,2.8,0,4.3c0,0.8,0,1.6,0,2.4c0.1,1.6,0.2,3.2,0.2,4.8
		C160.8,49,160.7,49.5,160.7,50.1z"/>
	<path class="st0" d="M205.3,31.6c1.4-0.3,2.6-0.6,3.9-0.9c0.1-0.3,0.2-0.5,0.4-0.8c0.1-0.2,0.3-0.3,0.6-0.3
		c0.2,0.1,0.4,0.2,0.5,0.5c0,0.3,0.1,0.6,0.1,0.9c0,1.4,0.3,2.7,0.4,4.1c0.3,0.1,0.6,0.3,0.9,0.4c0,0.2,0,0.4-0.1,0.6
		c-0.2,0.8-0.9,1.2-1.7,1.1c-0.4-0.1-0.7-0.2-1.1-0.2c-1.1,0-2.2,0-3.4,0c0,0.3-0.1,0.5-0.1,0.7c0,1.4,0,2.8,0.1,4.2
		c0,0.2,0.1,0.5,0.1,0.7c0.3,1.4,0.2,2.8,0.3,4.3c0,0.4,0,0.9,0.1,1.3c0.1,0.8,0.1,1.6,0.2,2.5c0,0.3,0.2,0.6,0.2,0.9
		c1-0.2,1.9-0.4,2.9-0.6c0.6-0.1,1.3-0.3,1.9-0.4c1-0.2,2-0.3,2.9-0.4c0.5,0,0.9-0.2,1.2-0.6c0.2-0.2,0.4-0.4,0.6-0.7
		c0.3,0.2,0.5,0.4,0.7,0.7c0.1,0.1,0.2,0.4,0.2,0.5c0.1,1.1,0.2,1.2,0.7,2.3c0.2,0.4,0.6,0.9,0.3,1.5c0,0.1-0.1,0.1-0.1,0.2
		c-1.4,0.5-2.8,0.8-4.2,1c-0.8,0.1-1.5,0.1-2.3,0.1c-0.7,0-1.4-0.1-2.1-0.1c-0.2,0-0.3,0-0.5,0c-1.3,0.1-2.6,0.2-3.9,0.3
		c-0.2,0-0.4,0.1-0.6,0.1c-0.8,0.1-1.3-0.3-1.2-1.1c0.1-0.8-0.1-1.6-0.2-2.5c-0.1-0.9-0.2-1.7-0.3-2.5c-0.3-1.9-0.5-3.9-0.7-5.8
		c-0.2-1.6-0.2-3.2-0.3-4.7c0-0.8-0.2-1.5-0.2-2.3c0-0.2,0-0.3,0-0.5c0.1-0.9,0.1-1.8-0.1-2.8c0-0.2-0.1-0.3,0-0.5
		c0.2-1-0.1-2-0.2-3c-0.2-1.2-0.3-2.4-0.4-3.5c-0.1-2-0.3-4-0.6-6c0-0.3,0-0.6-0.1-0.9c-0.1-0.9-0.3-1.8-0.4-2.7
		c-0.1-0.7-0.2-1.4,0.1-2.1c0.4-0.1,0.8-0.2,1.3-0.2c2.1-0.1,4.2-0.3,6.2-0.7c1.1-0.2,2.2-0.3,3.3-0.5c0.3,0,0.5-0.2,0.8-0.2
		c0.2-0.1,0.4-0.1,0.7-0.1c0.6,0,0.8,0.2,0.8,0.8c0,0.7,0,1.4,0.3,2.2c0.1,0.2-0.1,0.5-0.1,0.7c-0.3,0.3-0.6,0.4-1.1,0.2
		c-0.4-0.1-0.9-0.1-1.4,0c-0.9,0.2-1.9,0.1-2.7,0.6c-0.2,0.1-0.5,0.2-0.8,0.2c-0.9,0-1.8,0.2-2.8,0.5c-0.2,0.2-0.2,0.5-0.1,0.8
		c0.1,0.6,0.2,1.2,0.3,1.9c0.3,1.5,0.5,3.1,0.5,4.6c0,0.8,0,1.7,0,2.5c0,0.8,0.1,1.6,0.2,2.4C205.2,30.3,205.3,30.9,205.3,31.6z"/>
	<path class="st0" d="M186.7,139.3c0-0.5,0-1,0-1.5c0.1-1.3,0.1-2.5,0.3-3.8c0.1-1,0.5-2.1,0.6-3.1c0.2-1.5,0.8-2.8,1.4-4.1
		c0.1-0.2,0.2-0.4,0.3-0.6c0.2-1.1,0.8-2,1.6-2.8c0.4-0.4,0.8-0.9,1.3-1.2c0.7-0.5,1.4-1,2.3-1.4c0.3-0.1,0.6-0.2,0.9-0.1
		c0.5,0.1,1,0.1,1.5-0.1c0.1-0.1,0.3,0,0.5,0c0.2,0,0.3,0.1,0.5,0.1c0.9-0.2,1.7,0.1,2.6,0.1c1,0.1,1.9,0.4,2.7,1.1
		c0.4,0.4,0.9,0.7,1.2,1.1c0.3,0.4,0.6,0.8,0.9,1.2c0.4,0.6,0.7,1.3,1,1.9c0.3,0.8,0.7,1.6,0.9,2.5c0.7,1.9,0.9,4,1.1,6
		c0.2,1.3,0.3,2.6,0.4,3.9c0.1,0.7,0.1,1.4,0.3,2.1c0.3,1.6,0.4,3.2,0.5,4.8c0,0.7-0.1,1.4-0.1,2.2c-0.1,0.9-0.1,1.7-0.1,2.6
		c0,0.2,0,0.4-0.1,0.6c-0.1,0.3-0.1,0.5-0.1,0.8c0,0.6,0,1.2-0.3,1.8c-0.3,0.6-0.6,1.2-0.8,1.8c-0.4,1.3-1.3,2.2-2.6,2.6
		c-0.3,0.1-0.6,0.3-0.9,0.4c-0.1,0-0.1,0.1-0.2,0.1c-1-0.1-2,0.3-3,0.3c-2,0-3.9-0.3-5.7-1c-0.3-0.1-0.6-0.4-1-0.3
		c-0.1,0-0.2-0.1-0.3-0.1c-0.3-0.2-0.5-0.4-0.8-0.5c-0.9-0.5-1.5-1.1-2.1-1.9c-0.7-0.9-1.4-1.6-2-2.6c-0.5-1-1-2-1.1-3.2
		c-0.2-2-0.5-3.9-0.9-5.9C186.7,141.9,186.8,140.6,186.7,139.3z M206.9,143.3c0-1.9-0.2-3.8-0.4-5.6c-0.1-0.8-0.3-1.5-0.4-2.3
		c0-1.6-0.7-3-1-4.6c-0.1-0.4-0.3-0.8-0.5-1.2c-0.3-0.7-0.6-1.4-1.2-1.9c-0.3-0.9-1-1.5-1.6-2.2c-0.3-0.4-0.8-0.7-1.4-0.5
		c-0.3,0.1-0.6,0-0.9,0c-0.4,0-0.8,0.1-1.2,0.1c-0.2,0-0.3,0-0.5,0c-0.7,0-1.5-0.1-2.2,0.1c-1,0.2-1.9,0.6-2.6,1.3
		c-0.3,0.3-0.5,0.5-0.8,0.7c-0.6,0.5-1,1.2-1.1,1.9c-0.2,0.7-0.3,1.4-0.5,2.1c-0.4,1.7-0.9,3.5-1.3,5.2c-0.2,0.6-0.3,1.2-0.3,1.8
		c-0.1,1.1,0,2.1,0,3.2c0,0.2,0.1,0.4,0.1,0.6c0,0.3,0.1,0.7,0.1,1c0.1,1.8,0.2,3.6,0.4,5.4c0,0.2,0.1,0.4,0.1,0.6
		c0.2,1.1,0.7,2.1,1.1,3.1c0.5,1.2,1.6,1.8,2.8,2.2c0.7,0.3,1.4,0.5,2.2,0.7c0.7,0.2,1.3,0.4,2.1,0.3c1.5-0.1,2.9-0.5,4.3-1
		c1.1-0.5,2.2-1.2,2.8-2.3c0.3-0.5,0.6-1,0.8-1.6c0.5-0.9,1-1.9,0.8-3c0-0.1,0-0.1,0-0.2C206.7,146,206.8,144.7,206.9,143.3z"/>
	<path class="st0" d="M244.8,104c-0.1-0.2-0.3-0.4-0.4-0.5c0-0.1-0.1-0.2-0.1-0.2c0.3-0.4-0.1-0.7-0.1-1c0-0.3,0-0.6-0.2-0.9
		c-0.1-0.1-0.1-0.4-0.1-0.6c0-0.6,0-1.3-0.7-1.7c0.1-0.2,0.3-0.4,0.3-0.6c0-0.2,0-0.5-0.1-0.7c-0.1-1-0.1-1.9-0.2-2.9
		c-0.1-0.9-0.3-1.7-0.4-2.5c0-0.2-0.1-0.3-0.1-0.5c-0.2-1.6-0.3-3.3-0.5-4.9c-0.1-1.1-0.3-2.2-0.4-3.2c-0.1-1.2-0.1-2.4-0.2-3.6
		c0-0.1,0-0.1,0-0.2c-0.3-1.2-0.1-2.4-0.2-3.5c-0.2-1.1-0.4-2.2-0.5-3.3c-0.1-1.3-0.5-2.6-0.5-3.9c0-0.7-0.2-1.3-0.4-1.9
		c-0.2-0.6-0.3-1.3-0.3-2c0-0.4,0-0.7,0.4-0.9c0.1-0.1,0.1-0.3,0.3-0.4c0.1-0.1,0.3-0.2,0.4-0.2c1.1-0.1,2.1-0.2,3.1-0.4
		c0.6-0.1,1.3-0.1,1.9,0c0.7,0.1,1.4,0.2,2,0.3c0.7,0.2,1.4,0.3,2,0.6c0.4,0.2,0.8,0.4,1.2,0.4c1.4,0.2,2.6,0.9,3.8,1.7
		c1,0.8,2,1.6,2.8,2.6c0,0.1,0.1,0.1,0.1,0.2c1.3,1,2,2.5,2.9,3.9c0.1,0.2,0.2,0.4,0.3,0.6c0.3,0.7,0.6,1.5,1,2.3
		c0.3,0.5,0.4,1.1,0.6,1.7c0.1,0.4,0.2,0.9,0.4,1.3c0.4,0.9,0.5,1.9,0.5,2.9c0,1,0,2-0.2,3c-0.2,1-0.3,2-0.6,2.9
		c-0.2,0.6-0.4,1.1-0.7,1.6c-0.4,0.6-0.9,1.2-1.1,1.9c-0.2,0.4-0.5,0.8-0.8,1.1c-0.7,0.8-1.4,1.6-2.3,2.3c-0.5,0.4-0.9,0.9-1.4,1.4
		c-0.7,0.8-1.4,1.5-2.2,2.1c-0.6,0.5-1.2,1-1.8,1.6c-0.8,0.8-1.8,1.3-2.7,1.9c-1,0.7-2.1,1.2-3,1.9C246,104,245.5,104.1,244.8,104z
		 M245.4,98.6c0.5-0.1,0.8-0.1,1.2-0.1c0.3,0,0.6-0.1,0.9-0.1c0.5,0.1,1,0,1.4-0.3c1-0.6,1.9-1.2,2.9-1.7c0.7-0.4,1.1-1.1,1.9-1.4
		c0.7-0.8,1.7-1.5,2.4-2.3c1.3-1.6,2.6-3.1,3.6-5c0.5-1,1-2.1,1.2-3.2c0.4-2,0.1-3.9-0.5-5.7c-0.4-1.2-0.8-2.3-1.4-3.4
		c-0.8-1.7-1.6-3.4-3.1-4.8c-0.9-0.8-1.7-1.6-2.9-2.1c-2.1-0.9-4.3-1.6-6.6-1.7c-0.8,0-1.6,0-2.4,0.3c-0.5,0.2-1.1,0.4-1.6,0.5
		c-0.2,0.1-0.3,0.2-0.5,0.3c0,0.5,0,0.9,0.1,1.3c0.2,1.9,0.6,3.7,0.6,5.6c0,0.8,0.1,1.5,0.2,2.3c0.3,1.6,0.4,3.1,0.5,4.7
		c0,0.8,0.3,1.5,0.2,2.3c0.5,1.4,0.2,3,0.8,4.5c-0.1,1.1,0.3,2.1,0.3,3.2c0,0.7,0.1,1.4,0.2,2.2c0.2,0.7,0.2,1.5,0.2,2.3
		C245,96.9,245.2,97.7,245.4,98.6z"/>
	<path class="st0" d="M154.3,125.6c-1.2,0.2-1.3,0.2-1.5-0.9c0-0.2,0-0.4-0.1-0.6c-0.3-1-1-1.5-2.1-1.5c-1.4,0-2.7,0.4-3.8,1.2
		c-0.8,0.5-1.3,1.3-2,2c-0.2,0.2-0.3,0.4-0.5,0.6c-1,1.2-1.7,2.5-2.2,3.9c-0.4,0.9-0.6,1.9-0.8,2.9c-0.2,1.1-0.2,2.3-0.2,3.5
		c0,1.1,0,2.1,0,3.2c0,1.2,0.1,2.4,0.2,3.7c0.2,2,0.8,3.9,1.6,5.8c0.4,1.1,1,2.1,1.4,3.2c0.3,0.9,0.8,1.7,1.2,2.5
		c0.2,0.5,0.6,1,0.7,1.5c0.1,0.2,0.2,0.3,0.4,0.5c0.6,0.5,1.2,0.9,2,1.1c1,0.3,2,0.2,2.9-0.1c0.2,0,0.3-0.2,0.5-0.2
		c0.9-0.1,1.6-0.6,2.1-1.3c0,0,0-0.1,0.1-0.1c1.2-0.8,1.1-2,1.2-3.2c0-0.3,0-0.7,0-1c0.2-1,0.2-1.9-0.3-2.8c-0.1-0.3-0.2-0.5,0-0.8
		c0.1-0.3,0.3-0.4,0.6-0.4c0.5,0,1,0,1.6-0.1c0.4,0.2,0.6,0.6,0.6,1.1c0,1,0.2,2,0.3,3c0.1,1.2,0,2.4-0.2,3.5
		c-0.2,0.9-0.7,1.6-1.3,2.3c-0.3,0.4-0.6,0.7-1.1,0.8c-0.2,0.1-0.4,0.2-0.6,0.3c-1.6,1-3.4,1.2-5.3,0.9c-1.2-0.2-2.3-0.4-3.3-1.1
		c-0.7-0.5-1.5-1-2.2-1.6c-0.8-0.7-1.6-1.4-2.2-2.2c-0.8-0.9-1.3-2-1.7-3.2c-0.2-0.9-0.4-1.7-0.6-2.6c-0.2-0.8-0.3-1.7-0.5-2.5
		c-0.4-1.6-0.5-3.3-1.1-4.8c-0.3-0.9-0.4-1.8-0.2-2.7c0.1-1.1,0.2-2.3,0.3-3.5c0.3-1.7,0.2-3.4,0.7-5c0.5-1.7,0.9-3.4,1.8-4.9
		c0.4-0.7,0.6-1.5,1-2.3c0.3-0.6,0.7-1.1,1.1-1.6c0.4-0.5,1-1,1.5-1.5c0.5-0.4,1-0.7,1.6-0.9c1.7-0.4,3.3-0.7,5-0.5
		c1.2,0.1,2.4,0.2,3.6,0.8c0.4,0.2,0.6,0.4,0.6,0.9c0,0.2-0.1,0.4-0.2,0.6c-0.2,0.4-0.3,0.8-0.1,1.2c0,0.1,0,0.2,0,0.3
		c-0.1,0.9-0.2,1.8-0.3,2.7C154.4,125.4,154.3,125.4,154.3,125.6z"/>
	<path class="st0" d="M265.3,16.1c0,0.7-0.3,1.2-0.7,1.7c-0.3,0.4-0.7,0.9-0.9,1.4c-0.1,0.5-0.5,0.9-1.1,0.8
		c-0.3-0.3-0.4-0.6-0.6-0.9c-0.1-0.3-0.3-0.6-0.8-0.7c-0.2,0-0.5-0.2-0.6-0.3c-0.2-0.5-0.6-0.7-1-0.8c-0.4-0.1-0.9-0.2-1.4-0.1
		c-1.8,0.3-3,1.3-3.8,3c-0.3,0.6-0.6,1.2-0.7,1.8c-0.2,1-0.4,2.1-0.5,3.1c-0.1,1,0.1,1.8,0.8,2.6c0.8,0.9,1.7,1.3,2.9,1.3
		c0.8,0,1.7,0,2.5,0c1.4,0,2.8,0.4,4.1,1c0.9,0.4,1.7,1,2.5,1.6c0.7,0.5,1.1,1.4,1.4,2.2c0.3,0.6,0.4,1.3,0.6,2
		c0.2,0.6,0.3,1.3,0.4,1.9c0,0.4,0.1,0.7,0.2,1.1c0.2,0.8,0.2,1.6,0.1,2.5c-0.1,1.1-0.4,2.2-0.7,3.3c-0.1,0.3-0.2,0.7-0.4,1
		c-0.5,0.9-0.9,1.8-1.5,2.7c-0.9,1.1-2,1.9-3.2,2.7c-0.9,0.1-1.7,0.5-2.6,0.5c-0.4,0-0.7,0-1.1,0c-0.8,0-1.6-0.3-2.2-0.7
		c-0.7-0.5-1.5-1-2.1-1.7c-0.4-0.6-0.9-1.2-1.5-1.6c-0.1,0-0.1-0.1-0.1-0.2c-0.4-0.9-0.8-1.9-0.7-2.9c0.1-0.9-0.1-1.7-0.2-2.5
		c0-0.3-0.1-0.5-0.1-0.8c0-0.7,0.5-1,1.1-0.7c0.8,0.4,1.7,0.6,2.6,0.5c0.4,0,0.8,0.1,1.2,0.5c0,0.2,0,0.5,0,0.7
		c-0.2,1-0.2,2-0.2,3.1c0,1.3,0.3,2.6,1,3.8c0.2,0.3,0.4,0.4,0.7,0.4c1.6-0.1,3.1-0.4,4.5-1.3c1.1-0.7,1.8-1.7,2.5-2.7
		c0.5-0.7,0.7-1.5,1-2.2c0.3-0.7,0.1-1.5,0.1-2.3c0-1-0.1-2-0.1-3c0-1.3-0.3-2.4-1.1-3.4c-0.3-0.4-0.5-0.8-0.8-1.3
		c-0.5-0.8-1.2-1.3-2.1-1.7c-0.8-0.3-1.6-0.4-2.4-0.3c-1,0-2.1,0-3.1,0c-1.2,0-2.4-0.2-3.5-0.7c-1.1-0.4-1.7-1.2-2.1-2.3
		c0-0.1,0-0.2-0.1-0.3c-0.7-1.1-0.6-2.3-0.7-3.5c0-0.5,0-0.9,0-1.4c0-0.6,0.1-1.1,0.2-1.7c0.1-0.6,0.3-1.3,0.5-1.9
		c0.1-0.2,0.2-0.5,0.3-0.6c0.5-0.6,0.8-1.2,1.2-1.8c0.6-0.7,1.3-1.4,1.9-2.2c0.1-0.1,0.3-0.2,0.4-0.3c0.7-0.9,1.6-1.4,2.7-1.5
		c1.1-0.1,2.1,0,3.2,0.2c1,0.2,1.8,1,2.6,1.6C264.3,15.5,264.8,15.7,265.3,16.1z"/>
	<path class="st0" d="M315,85.4c0.6,0,1.1,0.1,1.5,0.4c0.4,0.2,0.9,0.4,1.4,0.3c0.5-0.1,0.8,0.3,0.7,0.8c-0.2,1.2-0.2,2.4-0.1,3.5
		c0,0.2,0,0.5,0,0.7c-0.2,1-0.4,1.9-0.9,2.8c-0.2,0.4-0.5,0.7-0.9,1c-0.1,0.1-0.3,0.1-0.3,0.2c-0.5,0.7-1.3,1.1-2,1.5
		c-0.9,0.4-1.8,0.8-2.7,0.8c-0.8,0-1.5-0.1-2.3-0.1c-1.1-0.1-2-0.7-2.8-1.5c-0.9-1-1.8-1.8-2.6-2.8c-0.7-0.8-1.1-1.8-1.5-2.8
		c-0.2-0.7-0.5-1.4-0.7-2.2c-0.1-0.3-0.2-0.5-0.2-0.8c-0.2-1.5-0.4-3-0.4-4.4c0-1.2,0.2-2.5,0.3-3.8c0.1-0.9,0.2-1.8,0.5-2.6
		c0.2-0.7,0.4-1.5,0.6-2.2c0.5-1.7,1.4-3.2,2.5-4.6c0.3-0.3,0.6-0.7,0.8-1c0.6-0.6,1.2-1.2,2-1.5c0.7-0.3,1.5-0.6,2.2-1
		c0.6-0.3,1.3-0.1,1.9-0.5c0.9,0.5,2,0.1,2.8,0.8c0.3,0.2,0.7,0.3,0.9,0.5c0.3,0.2,0.6,0.3,1,0.4c0,0.3,0,0.5,0,0.7
		c0,0.2,0,0.4,0,0.6c-0.4,0.3-0.6,0.6-0.7,1.1c0,0.4-0.3,0.8-0.6,1.1c-0.2,0.3-0.5,0.3-0.8,0c-0.1-0.1-0.2-0.2-0.2-0.3
		c-0.4-0.5-0.9-0.6-1.5-0.5c-0.6,0.1-1.3,0.3-1.8,0.6c-0.8,0.5-1.8,0.8-2.2,1.7c-0.4,0.3-0.8,0.6-1.3,0.8c-0.3,0.2-0.6,0.3-0.9,0.6
		c-0.8,1.1-1.6,2.1-1.7,3.5c0,0.5-0.2,0.9-0.2,1.4c0,0.4-0.1,0.9-0.2,1.4c-0.2,0.9-0.2,1.7-0.1,2.6c0.1,1.3,0.1,2.6,0.2,4
		c0,0.2,0,0.3,0.1,0.5c0.5,1.6,0.9,3.2,1.4,4.8c0.1,0.3,0.2,0.7,0.3,1c0.1,0.5,0.4,0.9,0.7,1.2c1.3,1.1,2.7,1.7,4.5,1.6
		c0.2,0,0.5,0,0.6-0.3c0-0.1,0.2-0.2,0.2-0.2c0.5,0.1,0.7-0.3,0.9-0.6c0.1-0.1,0.1-0.3,0.2-0.3c0.7-0.7,0.8-1.6,1-2.5
		c0.3-1.3,0.5-2.7,0.2-4c-0.1-0.6,0-1.2,0-1.8C314.8,85.9,314.9,85.6,315,85.4z"/>
	<path class="st0" d="M247.9,52.1c-0.1,0.3-0.3,0.6-0.7,0.6c-0.3,0-0.7,0.1-1,0.2c-1.1,0.3-1.9,0.4-3.1,0.1
		c-0.2-0.2-0.3-0.5-0.1-0.8c0.4-1,0.1-2,0.1-2.9c0-0.4-0.1-0.8-0.1-1.2c-0.1-0.7-0.2-1.4-0.3-2.2c-0.1-0.9-0.2-1.8-0.3-2.8
		c-0.1-0.8-0.2-1.6-0.3-2.4c-0.1-0.7-0.2-1.5-0.2-2.3c0-1.1-0.2-2.2-0.2-3.4c-0.2-2-0.3-4.1-0.5-6.1c0-0.5,0.1-1.1,0-1.6
		c-0.2-2.3,0-4.7-0.2-7c0-0.5-0.1-1-0.3-1.6c-0.2-1-0.5-2-0.8-3c-0.1-0.4-0.1-0.7-0.1-1.1c-0.1-0.8-0.2-1.6-0.4-2.3
		c-0.2-0.7,0-1.1,0.6-1.5c1,0.3,1.9-0.4,3-0.1c0.4,0.4,0.5,0.9,0.5,1.4c-0.1,1.3,0,2.5,0.2,3.7c0,0.4,0.1,0.8,0.1,1.2
		c0,1.3,0,2.6,0.2,3.9c0.2,1.2,0.2,2.4,0.4,3.6c0.2,1.4,0.2,2.8,0.5,4.1c0.2,0.8,0.1,1.6,0.2,2.5c0,0.4,0.2,0.7,0.1,1.1
		c0,1.1,0.2,2.2,0.3,3.2c0.1,1,0.2,2.1,0.3,3.2c0,0.5,0.1,0.9,0.2,1.4c0.3,1.8,0.4,3.6,0.7,5.4c0,0.3,0.1,0.6,0.2,0.9
		c0.1,0.3,0.1,0.6,0.1,1c0.1,0.9,0.2,1.8,0.4,2.7C247.4,50.7,247.6,51.4,247.9,52.1z"/>
	<path class="st0" d="M269.8,102.8c-1-0.1-1.9-0.2-2.9-0.4c-0.3-0.3-0.3-0.6-0.3-0.9c0-1.3,0-2.5-0.2-3.7c-0.1-0.4,0-0.8,0-1.2
		c-0.1-1.3-0.1-2.6-0.5-3.9c-0.1-0.4-0.1-0.9-0.2-1.4c-0.1-0.4-0.2-0.8-0.2-1.3c-0.1-0.6-0.1-1.1-0.1-1.7c0-1.4,0-2.8-0.1-4.2
		c-0.1-0.9-0.1-1.7-0.1-2.6c0-0.4,0-0.9-0.1-1.3c0-0.3-0.1-0.7-0.1-1c0-1.1-0.2-2.1-0.3-3.1c-0.2-1.5-0.4-3-0.6-4.5
		c-0.1-0.7-0.3-1.5-0.4-2.2c0-0.1-0.1-0.2-0.1-0.3c0.2-0.7,0.1-1.5,0.6-2.1c0.7,0.2,1.5,0.3,2.2,0.5c0.4,0.1,0.8,0.2,1.2,0
		c0.2-0.1,0.5,0.1,0.5,0.3c0.1,0.2,0.2,0.4,0.2,0.7c0.1,1,0.1,2,0.1,3c0,0.2,0,0.5,0,0.7c0.3,1.1,0.1,2.3,0.2,3.5c0,1,0.1,2,0.2,3.1
		c0,0.5,0.2,1-0.2,1.5c0,0.8-0.1,1.7,0,2.5c0,1.1,0.2,2.2,0.4,3.3c0.2,1.6,0.2,3.3,0.4,4.9c0.2,1.5,0.2,3,0.2,4.6c0,0.1,0,0.3,0,0.4
		c0.2,2,0.4,3.9,0.6,5.9C270.3,102.3,270.3,102.3,269.8,102.8z"/>
	<path class="st0" d="M319.3,84.9c-0.3-0.3-0.6-0.4-0.9-0.3c-1.4,0.4-2.9,0.1-4.3,0.1c-0.4,0-0.8-0.1-1.2-0.2
		c-1.3-0.3-2.6-0.2-3.9,0.3c-0.2-0.1-0.4-0.3-0.6-0.4c0.2-1-0.4-2-0.1-3c0.6-0.2,1.3-0.2,1.9-0.3c0.4-0.1,0.7-0.1,1.1-0.2
		c0.6-0.2,1.1-0.3,1.7-0.3c1.4,0,2.8,0,4.2,0c0.3,0,0.7-0.1,1-0.1c0.6-0.1,1.2-0.2,1.8-0.3c0.6-0.1,1.1,0.2,1.7,0.1
		c0.4-0.1,0.8,0.2,0.9,0.7c0.3,1,0.6,2,0.6,3.1c0.1,1.5,0.2,2.9,0.4,4.3c0.2,1.1,0.3,2.3,0.4,3.4c0.2,1.1,0.3,2.2,0.6,3.2
		c0.1,0.2,0.1,0.4,0.1,0.6c0,1.1,0.4,2.1,0.7,3.1c0.1,0.4,0.3,0.8,0.3,1.2c0,0.1,0,0.3-0.1,0.4c-0.5,0.6-0.9,1.2-1.7,1.4
		c-0.5,0.1-1,0.3-1.6,0.3c-0.4,0-0.8-0.1-1.2-0.2c-0.4-0.1-0.5-0.5-0.5-1c0.2-1.6,0.1-3.2-0.1-4.7c-0.1-0.5,0-0.9,0-1.4
		c-0.2-1.4-0.1-2.8-0.2-4.2c0-1.1-0.2-2.2-0.4-3.2C319.6,86.4,319.5,85.6,319.3,84.9z"/>
	<path class="st0" d="M160.4,160.1c-0.6,0-1,0-1.4-0.1c-0.1-0.1-0.1-0.2-0.1-0.2c-0.1-1.8-0.4-3.5-0.3-5.3c0-0.6-0.1-1.2-0.1-1.8
		c0-0.8-0.2-1.5,0-2.3c0.1-0.3-0.1-0.6-0.1-1c-0.1-0.9-0.1-1.8-0.2-2.8c-0.5-0.1-1.1-0.3-1.6-0.3c-1.4,0.1-2.8,0.2-4.3,0.4
		c-0.6,0.1-1.2,0.1-1.8,0.2c-0.1,0-0.3,0-0.4,0c-0.5,0-0.7-0.2-0.8-0.6c-0.3-1.3-0.6-2.6-0.9-3.9c-0.1-0.4,0-0.7,0.1-1
		c0-0.1,0.3-0.3,0.5-0.2c0.8,0.2,1.6,0.1,2.5-0.1c0.2,0,0.4,0,0.6,0c1.1,0,2.1,0,3.2-0.2c0.8-0.2,1.6,0,2.4,0.1c0.5,0,1,0.2,1.6,0.2
		c0.2,0,0.3,0,0.5,0c0.1,0,0.3-0.1,0.4-0.1c0.9,0,1.4,0,1.2,1.1c0,0.3,0,0.6,0,0.9c0.2,0.9,0.1,1.8,0.1,2.7c0,0.8,0,1.7-0.1,2.6
		c0,0.2,0.1,0.5,0.1,0.7c0.3,1.2,0.2,2.4,0.2,3.7c0,1.2,0.1,2.4,0.3,3.7c0,0.3,0,0.6,0,0.9c0,0.3,0,0.7,0,1c0,0.3,0,0.5,0,0.8
		c-0.1,0.4-0.3,0.6-0.6,0.6C160.9,159.7,160.6,159.9,160.4,160.1z"/>
	<g>
		<path class="st0" d="M97.5,109.2c0.5-0.1,0.8-0.5,1-0.8c0.2-0.2,0.3-0.5,0.5-0.7c0.4-0.4,0.6-0.9,0.6-1.4c0-0.8,0.4-1.4,1.1-1.7
			c0-0.2-0.2-0.4-0.1-0.7c0.3-0.7,0.6-1.3,0.8-2c0-0.2,0.2-0.4,0.3-0.6c0.2-0.2,0.2-0.5,0.2-0.7c0-0.4,0.1-0.8,0.1-1.2
			c0-0.2,0.1-0.4,0.3-0.5c0.1-0.1,0.2-0.2,0.2-0.3c-0.1-0.5,0.2-0.7,0.5-1.1c-0.3-0.4-0.3-0.9-0.2-1.3c0-0.4,0-0.9,0-1.3
			c0.8-0.1,0.9,0,1,0.6c0.1,0.8-0.1,1.6-0.4,2.4c-0.1,0.4-0.3,0.7-0.4,1.1c0,0.1,0,0.2,0,0.4c0.4-0.1,0.5-0.5,0.6-0.7
			c0.7-2,1.5-3.9,2-5.9c0.6-2.5,1.1-5,1.2-7.6c0.1-1.3,0.1-2.7,0-4.1c-0.1-1-0.1-2-0.2-2.9c0-0.2,0-0.5,0.1-0.7
			c0.6-0.5,0.3-1.2,0.3-1.8c-0.6-0.4-1.3-0.4-2-0.5c-0.5-0.1-1-0.1-1.5-0.2c-0.8-0.1-1.5-0.2-2.3-0.2c-0.7,0-1.4-0.1-2.1-0.2
			c-0.9,0-1.9-0.1-2.8-0.1c-0.2,0-0.3,0-0.5,0c-1.9-0.2-3.8-0.1-5.8-0.2c-1.2,0-2.4-0.2-3.6-0.2c-1,0-2,0.1-3,0.2
			c-0.9,0-1.9,0.1-2.8,0c-1.1-0.2-2,0-3,0.2c-0.1,0-0.3,0-0.4,0c-0.2,0-0.5-0.1-0.6-0.3c-0.1-0.2-0.1-0.5,0.1-0.7
			c0.1-0.1,0.2-0.2,0.3-0.3c0.1-0.1,0.2-0.2,0.3-0.4c0.4-0.7,0.6-0.8,1.4-0.7c0.5,0.1,1.1,0,1.6,0c0.1-0.2-0.1-0.3-0.2-0.3
			c-0.4,0.1-0.8,0.1-1.2,0c-0.2-0.1-0.3-0.2-0.3-0.4c0-0.3,0.1-0.5,0.4-0.5c0.3,0,0.5,0,0.8,0c0.2,0,0.4,0,0.7,0.1
			c0.1-0.3-0.1-0.4-0.3-0.5c-0.3,0-0.5,0-0.8,0c-0.5,0-0.6-0.2-0.6-0.7c0-0.1,0-0.1,0.1-0.2c0.2,0,0.5-0.1,0.8-0.1
			c0.1-0.4,0-0.9,0.6-1.2c-0.6-0.1-1-0.2-1.4-0.2c-0.4,0-0.7-0.1-0.9-0.5c-0.2-0.3-0.4-0.5-0.7-0.6c-0.1,0-0.2-0.2-0.3-0.4
			c0-0.2,0.1-0.4,0.3-0.5c0.3-0.1,0.7-0.2,1.1-0.2c0.3,0,0.5-0.1,0.7-0.3c-0.6-0.1-1.2-0.2-1.8-0.4c-0.1,0-0.3-0.1-0.4-0.3
			c-0.1-0.2-0.1-0.6,0.2-0.7c0.6-0.3,1.2-0.6,2-0.4c1.7,0.4,3.4,0.7,5.1,1.1c0.9,0.2,1.8,0.5,2.7,0.7c-0.8-0.4-1.5-0.6-2.3-0.9
			c-1.5-0.5-2.9-1-4.4-1.5c-0.6-0.2-1.2-0.4-1.8-0.5c-0.4-0.1-0.8-0.2-1-0.7c-0.1-0.3-0.3-0.3-0.6-0.4c-0.2,0-0.4,0-0.6,0
			c-0.4-0.1-0.6-0.4-0.5-0.8c0.1-0.4,0-1,0.5-1.2c2.2,0.2,4.4,0.7,6.6,1.2c1.1,0.3,2.1,0.4,3.1,0.9C86.4,62,86.7,62,87,62
			c0.9,0.1,1.7,0.4,2.6,0.6c0.4,0.1,0.8,0.2,1.2,0.2c0.1,0,0.3,0,0.4,0.1c1.6,0.7,3.2,1,4.8,1.5c0.7,0.2,1.3,0.4,2,0.6
			c1.1,0.3,2.1,0.7,3.2,1.1c1.2,0.4,2.3,0.8,3.5,1.1c0.4,0.1,0.9,0.3,1.4,0.5c0-0.2,0-0.4,0-0.5c-0.5-1.6-0.7-3.3-1.2-4.9
			c-0.4-1.6-0.7-3.3-1.6-4.8c-0.2-0.2-0.3-0.5-0.4-0.8c-0.2-0.6-0.5-1.1-0.8-1.6c-0.7-1-1.4-2-2.1-3c-0.6-1-1.2-2.1-1.8-3.1
			c-0.2-0.3-0.3-0.6-0.5-0.9c-0.7-1-1.4-2.1-2.2-3.1c-0.4-0.5-0.8-1-1.3-1.5c-0.2-0.3-0.5-0.5-0.7-0.9c-0.3-0.5-0.7-0.9-1.3-1.2
			c-0.3-0.1-0.5-0.4-0.7-0.7c-0.3-0.6-0.8-1.2-1.3-1.6c-0.1-0.1-0.2-0.4-0.3-0.5c-0.8-0.9-1.6-1.8-2.5-2.6c-0.5-0.5-1.1-0.8-1.7-1.2
			c-0.2-0.2-0.5-0.4-0.7-0.6c-1.1-1.1-2.4-1.9-3.6-2.9c-0.7-0.1-1.1-0.9-1.7-1.1c-0.3-0.1-0.5-0.6-0.9-0.7c-0.7-0.7-1.7-0.9-2.5-1.5
			c-0.2-0.1-0.4-0.1-0.6-0.2c-0.3-0.3,0-0.6-0.1-0.9c-0.6-0.5-1.2-0.6-1.9-0.8c-1.1-0.3-2.2-0.8-3.4-1.2c-0.5-0.2-1.1-0.3-1.6-0.4
			c-0.6-0.2-1.2-0.3-1.7-0.5c-0.6-0.3-1.3-0.5-2-0.6c-0.7-0.2-1.5-0.3-2.1-0.7c-0.4-0.2-0.9-0.4-1.4-0.5c-1.1-0.3-2.2-0.6-3.2-0.9
			c-0.8-0.2-1.5-0.4-2.3-0.4c-0.3,0-0.6,0-0.9-0.1c-1.4-0.2-2.8-0.3-4.1-0.5c-1.7-0.2-3.4-0.2-5-0.3c-0.5,0-1,0.1-1.5,0.2
			c-1.4,0.3-2.8,0.6-4.1,1c-0.6,0.2-1.4,0.3-1.9,0.7c-1.1,0.1-2.1,0.7-3.2,1.1c-0.5,0.2-0.9,0.5-1.2,0.8c0.3,0.6,0.7,1,1.2,1.4
			c0.6,0.5,1.3,1.1,2,1.5c0.7,0.4,1.3,1,1.9,1.6c0.4,0.4,0.8,0.8,1.3,1.1c0.7,0.4,1.3,0.9,1.7,1.5c0.9,1.2,2.2,2,3.2,3.1
			c0.7,0.7,1.3,1.4,2,2.1c0.2,0.2,0.2,0.6,0.3,0.9C47,37.7,46.9,37.7,46,37c-0.3,0.2-0.4,0.6-0.8,0.8c-3.1,1-6.1,2.3-9,3.7
			c-0.8,0.4-1.6,0.7-2.4,1c-0.4,0.2-0.4,0.2-1,0.7c-0.2,0-0.5-0.1-0.7-0.2c-0.3-0.1-0.4-0.3-0.5-0.6c0-0.2,0.1-0.4,0.5-0.6
			c0.3-0.1,0.7-0.2,1-0.3c1.7-0.5,3.2-1.4,4.8-2c0.5-0.2,1.1-0.5,1.6-0.8c-0.5-1.4-1.1-2.7-1.9-3.9c-0.7-1.1-1.3-2.3-1.8-3.5
			c-0.4-0.8-0.9-1.6-1.3-2.4c-0.7-1.1-1.3-2.1-2-3.2c-0.2-0.3-0.4-0.6-0.7-0.8c-0.5-0.3-0.7-0.9-1.2-1.2c-0.1-0.1-0.2-0.4-0.3-0.6
			c0.7-0.7,1.3-1.4,2-2.1c0.4-0.3,0.8-0.7,1.2-0.8c1.3-0.5,2.5-1.3,3.8-1.9c0.9-0.5,1.8-0.7,2.8-1c0.7-0.2,1.3-0.5,2-0.7
			c0.7-0.2,1.4-0.6,2.2-0.6c0.8,0,1.7-0.3,2.5-0.4c1.2-0.2,2.3-0.1,3.5,0c0.6,0,1.1,0.1,1.7,0.1c0.5,0,1,0.2,1.6,0
			c0.1,0,0.3,0,0.5,0.1c0.4,0.3,0.9,0.3,1.3,0.3c1,0.1,2.1,0.1,3.1,0.2c1.2,0.1,2.4,0.3,3.5,0.6c0.7,0.2,1.4,0.5,2,0.8
			c1.4,0.5,2.7,1,4,1.6c1.3,0.6,2.6,1.4,3.9,2.1c1.1,0.6,2.2,1.2,3.4,1.5c0.3,0.1,0.7,0.1,1.1,0.2c0.1-0.2,0.2-0.4,0.4-0.6
			c0.9,0.2,1.7-0.2,2.5-0.5c1.4-0.6,2.7-1.3,4.1-1.9c1.5-0.7,3.1-1.3,4.5-2.2c1-0.7,2-1.3,2.9-2c1.2-0.9,2.4-1.9,3.6-2.8
			c2.1-1.7,4.2-3.3,6.3-5c0.4-0.3,0.7-0.6,1-1c0.6-0.6,1.2-1.3,1.8-2c0.3-0.3,0.7-0.6,1-0.9c0.4-0.5,0.8-1,1.2-1.5
			c0.1-0.2,0.2-0.3,0.4-0.5c0.7-0.6,1.2-1.3,1.8-2c0.1-0.1,0.1-0.2,0.2-0.2c0.3-0.2,0.8-0.1,0.9,0.2c0.1,0.2,0.1,0.4,0.1,0.6
			c-0.7,1.4-1.4,2.8-1.9,4.4c-0.3,1.1-0.7,2.3-1.2,3.4c-0.4,0.9-0.8,1.9-1,2.9c-0.3,1.1-0.7,2.2-1.1,3.3c-0.6,1.6-1.1,3.2-1.5,4.8
			c-0.1,0.3-0.2,0.6-0.2,1c-0.2,0.7-0.4,1.5-0.3,2.2c0,0.3-0.1,0.7-0.1,1c0,0.5-0.1,1-0.1,1.5c-0.1,1.3-0.1,2.6-0.2,4
			c0,0.4,0.1,0.9,0.1,1.3c0.2,2.1,0.6,4.2,1.1,6.2c0.6,2.1,1.1,4.2,1.8,6.3c0.6,1.5,1.2,3,1.8,4.5c0.3,0.7,0.6,1.5,0.9,2.2
			c0.3,0.8,0.6,1.6,0.9,2.4c0.1,0.4,0.3,0.7,0.4,1.1c0.1,0.2,0.1,0.5,0.2,0.7c0.9,1.6,1.3,3.4,1.6,5.2c0.1,0.7,0.2,1.4,0.4,2.1
			c0.3,1.5,0.4,3,0.3,4.5c0,0.4,0.1,0.7,0.1,1.1c0.1,0.4,0,0.8-0.4,1.2c-0.2,0.2-0.6,0.2-0.8,0c-0.2-0.3-0.3-0.6-0.3-0.9
			c0-0.7,0-1.5,0-2.2c0-1.1,0-2.1-0.2-3.2c-0.2-1.3-0.4-2.6-0.7-3.8c-0.3-1.1-0.6-2.1-1-3.1c-0.5-1.4-1.1-2.7-1.6-4
			c-0.4-1.1-0.9-2.2-1.3-3.3c0-0.1-0.1-0.1-0.3-0.2c0,0.3-0.1,0.6-0.1,0.8c-0.1,0-0.2,0.1-0.3,0c-0.2-0.1-0.4-0.2-0.5-0.3
			c-0.9-0.8-2-1.3-3.1-1.7c-0.2-0.1-0.4-0.2-0.5-0.4c-0.1-0.3,0-0.6,0.3-0.6c0.4-0.1,0.8-0.1,1.1,0.2c0.6,0.4,1.3,0.7,1.9,1.1
			c0.4,0.2,0.7,0.4,1.3,0.7c-0.1-0.5-0.2-0.8-0.3-1c-0.1-0.3-0.2-0.6-0.4-0.9c-0.6-1.7-1.3-3.3-1.7-5.1c-0.3-1.1-0.7-2.2-0.9-3.3
			c-0.5-2-0.8-3.9-1-6c-0.2-2,0-4,0.1-5.9c0-1.2,0.2-2.4,0.4-3.7c0.1-0.5,0.3-0.9,0.4-1.3c0.3-1.1,0.5-2.1,0.9-3.2
			c0.4-1.2,0.9-2.3,1.3-3.4c0.1-0.4,0.3-0.7,0.4-1.1c0.2-1.4,0.7-2.7,1.2-3.9c0.4-1.1,0.8-2.2,1.2-3.3c0.1-0.3,0.3-0.6,0.2-1
			c-0.1,0-0.1,0-0.2,0.1c-1.1,1.3-2.4,2.4-3.5,3.8c-0.3,0.4-0.7,0.6-1,0.9c-1.2,1.1-2.6,2.2-3.9,3.2c-0.5,0.3-0.9,0.7-1.3,1.1
			c-1.1,1-2.4,1.7-3.4,2.8c-0.1,0.1-0.2,0.2-0.3,0.3c-1.1,0.6-2.1,1.5-3.2,2.2c-1.2,0.8-2.4,1.4-3.7,1.9c-0.8,0.3-1.5,0.6-2.3,1
			c-1,0.5-2.1,0.9-3.1,1.6c-0.9,0.6-1.9,0.9-2.8,1.1c-0.2,0.1-0.4,0.1-0.4,0.4c0,0.1-0.2,0.2-0.3,0.4c1.5,0.9,3,2,4.4,3
			c1.5,1.1,2.9,2.3,4.2,3.7c0.6,0.6,1.1,1.3,1.7,1.9c0.5,0.5,1,0.9,1.4,1.4c0.7,0.8,1.4,1.7,2.1,2.5c1.4,1.7,2.7,3.5,4,5.3
			c0.5,0.7,1.1,1.3,1.6,2c1.3,1.6,2.4,3.3,3.4,5.1c0.7,1.3,1.4,2.6,2.4,3.8c0.6,0.7,1,1.5,1.5,2.2c0.3,0.6,0.6,1.3,0.8,2
			c0.1,0.2,0.1,0.4,0.2,0.5c0.3,0.4,0.4,0.8,0.5,1.3c0.3,1.3,0.7,2.6,1,3.9c0.3,0.9,0.4,1.9,0.6,2.8c0.2,0.7,0.4,1.4,0.6,2.2
			c0.6,0.4,1.5,0.7,2.3,1c0.7,0.3,1.3,0.6,2,0.8c1.1,0.4,2.1,0.9,3.1,1.3c0.7,0.2,1.3,0.6,2,0.9c1.7,0.8,3.4,1.8,5.3,2.2
			c0.2,0,0.6,0.1,0.6,0.5c0,0.4,0.4,0.7,0.7,0.9c0.4,0.3,0.8,0.5,1.2,0.7c1.1,0.5,2.2,1,3.2,1.6c0.8,0.4,1.5,0.9,2.2,1.4
			c0.2,0.1,0.3,0.2,0.5,0.4c0.2,0.2,0.3,0.4,0.1,0.6c-0.1,0.2-0.3,0.3-0.6,0.3c-0.2,0-0.4-0.1-0.6-0.2c-1.5-0.7-3.1-1.1-4.7-1.4
			c-0.7-0.1-1.5-0.4-2.2-0.4c-0.1,0-0.3,0-0.4-0.1c-1.6-0.6-3.4-0.7-5-1.1c-1.4-0.3-2.7-0.5-4.1-0.8c-1.4-0.3-2.8-0.6-4.2-0.9
			c-0.2,0-0.3,0-0.5-0.1c0,1-0.1,1.9,0,2.8c0.2,1.2,0.1,2.3,0,3.5c-0.1,1.2-0.3,2.4-0.4,3.5c-0.1,1.8-0.4,3.5-0.8,5.2
			c0,0.1-0.1,0.3-0.1,0.4c-0.1,1.6-0.7,3.1-1.1,4.6c-0.6,1.9-1.5,3.7-2.2,5.5c-0.5,1.4-1.2,2.6-2,3.9c-0.3,0.5-0.6,1.1-0.9,1.6
			c-0.4,0.9-1,1.7-1.7,2.4c-0.4,0.4-0.9,0.8-1.4,1.1c-0.4,0.3-0.9,0.4-1.2,0.8c-0.2,0.2-0.5,0.1-0.7-0.2c-0.2-0.4-0.3-0.9,0-1.2
			c0.8-1,1.1-2.3,1.6-3.4c0.3-0.6,0.5-1.2,0.7-1.9c0.3-1.2,0.6-2.4,0.9-3.7c0.2-0.9,0.3-1.8,0.4-2.8c0-0.3,0.1-0.5,0.1-0.8
			c0-1.5,0.1-2.9,0.1-4.4c0-1.5-0.1-3-0.2-4.4c-0.1-0.6-0.2-1.2-0.3-1.8c-0.2-1-0.3-2-0.4-3c-0.1-0.9-0.3-1.8-0.4-2.7
			c0-0.2-0.1-0.4-0.1-0.6c0.1-1.6-0.6-3-1.4-4.3c0-0.1-0.1-0.1-0.1-0.2c-0.2-0.3-0.2-0.6,0-0.8c0.3-0.2,0.6-0.2,0.8-0.1
			c0.2,0.1,0.4,0.3,0.6,0.5c0.3,0.5,0.6,1.1,0.9,1.7c0.4,0.7,0.6,1.6,0.6,2.4c0,0.8,0.1,1.7,0.2,2.5c0.1,1.1,0.3,2.2,0.4,3.3
			c0.1,0.7,0.3,1.3,0.4,1.9c0.1,0.4,0.1,0.7,0.1,1.1c0,1.4,0,2.8,0.1,4.2c0,0.4,0,0.7,0,1.1c0.1,1.8-0.1,3.6-0.3,5.3
			c-0.1,1.2-0.4,2.3-0.6,3.5c-0.2,1.1-0.6,2.2-1.1,3.3c-0.4,0.9-0.8,1.9-1.2,2.8C97.5,109,97.5,109.1,97.5,109.2z M96.1,66.3
			c-0.3-0.1-0.7-0.3-1-0.4c-0.4-0.1-0.8-0.2-1.2-0.3c-0.2,0-0.3,0-0.5-0.1c0.7,0.3,1.4,0.5,2.1,0.7C95.7,66.3,95.9,66.3,96.1,66.3
			c0.8,0.4,2.5,0.8,3.2,0.8c0,0,0-0.1-0.1-0.1c-0.6-0.2-1.2-0.3-1.8-0.5C97,66.4,96.6,66.2,96.1,66.3z M106.6,71.6
			c-0.5-0.6-1.1-0.6-1.6-0.8c-0.5-0.2-1.1-0.4-1.7-0.6c-0.5-0.2-1.1-0.3-1.6-0.5c0.8,0.4,1.5,0.8,2.4,1
			C104.9,71,105.6,71.6,106.6,71.6z M113.9,74c-0.4-0.2-0.6-0.4-0.9-0.4c-1.3-0.4-2.5-0.7-3.8-1.1c0.4,0.3,0.8,0.5,1.3,0.7
			c1,0.3,2,0.6,2.9,0.9C113.5,74,113.6,74,113.9,74z"/>
		<path class="st0" d="M42.8,150.2c-0.3,0.1-0.6,0.2-0.8,0.3c-0.9,0.3-1.8,0.6-2.6,0.8c-0.9,0.3-1.8,0.6-2.8,0.7
			c-2.2,0.4-4.3,0.9-6.6,0.8c-0.7,0-1.3,0-2,0c-2.4,0.1-4.8-0.6-7.2-0.8c-1-0.1-1.9-0.1-2.9,0c-1.6,0.1-3.2,0.4-4.7,0.8
			c-0.9,0.2-1.8,0.6-2.7,1.1c-1.5,0.7-2.9,1.5-4.4,2.3c-0.1,0-0.1,0.1-0.2,0.1c-1.1,0.8-2.3,1.4-3.3,2.4c0.3,1.2-0.7,1.7-1.4,2.2
			c-0.3,0.2-0.6,0.1-0.8-0.1c-0.3-0.2-0.4-0.5-0.3-0.8c0.2-0.6,0.3-1.2,0.6-1.8c0.6-1,1-2,1.5-3c0.1-0.1,0.1-0.3,0.2-0.4
			c0.7-0.9,1.2-1.9,1.7-2.9c0-0.1,0.1-0.2,0.2-0.3c0.3-0.9,0.8-1.7,1.3-2.6c0.5-0.8,1-1.7,1.5-2.7c-0.2-0.5,0-1,0.5-1.5
			c0.5-0.4,0.9-0.9,1.3-1.3c0.2-0.2,0.4-0.5,0.7-0.7c0,0,0-0.1,0.1-0.2c0.8-0.5,1.2-1.4,1.9-2c0.3-0.2,0.5-0.5,0.8-0.8
			c0.7-0.8,1.6-1.4,2.5-2c1.3-0.9,2.7-1.8,4.1-2.7c0.6-0.4,1.1-0.8,1.7-1.2c0.9-0.6,1.9-1.1,2.8-1.6c1.3-0.7,2.6-1.4,3.9-2
			c0.8-0.4,1.6-0.7,2.5-1c2.4-0.8,4.8-1.8,7.2-2.5c1.8-0.6,3.6-1,5.5-1.4c1.8-0.4,3.7-0.6,5.6-0.7c1.9-0.1,3.8,0,5.8,0.1
			c0.2,0,0.5,0,0.7,0.1c0.1,0,0.3,0.1,0.4,0.1c0.3,0.2,0.4,0.5,0.3,0.8c-0.1,0.3-0.3,0.5-0.7,0.4c-0.6-0.1-1.2-0.2-1.8-0.2
			c-0.7-0.1-1.4-0.2-2.1-0.2c-1.4,0-2.8,0-4.3,0.1c-0.5,0-0.9,0.1-1.4,0.2c-1,0.2-2,0.4-3,0.6c-3.6,0.7-7,1.8-10.4,3.2
			c-0.8,0.3-1.6,0.6-2.4,0.9c-1.2,0.6-2.5,1.2-3.7,1.8c-0.9,0.4-1.7,0.9-2.5,1.4c-1.2,0.8-2.5,1.5-3.7,2.4c-1.4,0.9-2.9,1.9-4.3,2.9
			c-0.4,0.3-0.8,0.6-1.1,1c-0.7,0.7-1.4,1.4-1.9,2.3c-0.2,0.3-0.6,0.6-0.9,0.8c-0.3,0.2-0.5,0.4-0.3,0.8c0.1,0.2,0,0.4-0.2,0.6
			c-0.2,0.2-0.4,0.5-0.6,0.6c-0.6,0.4-1,1-1.4,1.5c-0.4,0.6-0.9,1.2-1.3,1.8c-0.6,1-1.1,2-1.6,3c-0.4,1-1,1.9-1.5,2.8
			c-0.2,0.4-0.4,0.8-0.6,1.2c0,0,0,0.1,0,0.2c0.2-0.1,0.4-0.2,0.5-0.3c0.9-0.7,1.9-1.1,2.8-1.6c0.1,0,0.2-0.1,0.3-0.1
			c1.5-1,3.3-1.6,4.9-2.4c0.9-0.4,1.8-0.5,2.8-0.7c0.7-0.1,1.4-0.2,2.2-0.3c1.7-0.2,3.4-0.2,5.1,0.1c1.6,0.2,3.2,0.6,4.8,0.6
			c1.7,0,3.3,0,5-0.1c1.2-0.1,2.3-0.2,3.4-0.5c1.4-0.4,2.9-0.6,4.3-1.1c1.3-0.4,2.6-0.8,3.8-1.5c0.2-0.1,0.4-0.2,0.6-0.2
			c0.5-0.1,0.7,0,0.7,0.5c0,0.5-0.1,0.6-0.9,1c0.6,0.6,0.9,1.4,1.2,2.2c0.3,0.7,0.5,1.4,0.7,2.2c0.4,1.5,0.8,2.9,1.2,4.4
			c0.1,0.3,0.2,0.7,0.3,1.1c0.3,1.5,0.7,2.9,1,4.4c0.2,1,0.3,2,0.3,3c0,0.8,0,1.7-0.1,2.5c-0.1,1.6-0.3,3.2-0.5,4.8
			c-0.3,1.7-0.8,3.3-1.4,4.8c-0.3,0.8-0.5,1.6-0.9,2.4c-0.6,1.5-1.2,3-1.9,4.5c-0.5,1.2-1.2,2.3-1.8,3.4c-0.1,0.1-0.1,0.2-0.2,0.3
			c0.2,0.2,0.3,0.1,0.5,0c0.6-0.4,1.1-0.8,1.7-1.2c0.5-0.3,1.1-0.7,1.6-1c0.3-0.2,0.5-0.3,0.7-0.5c0.6-0.5,1.3-0.9,2-1.2
			c0.5-0.2,1-0.5,1.4-0.9c1.3-1,2.6-1.9,3.8-2.9c1-0.8,1.9-1.8,2.8-2.7c0.4-0.4,0.6-1,0.9-1.5c0.1-0.2,0.1-0.5,0.1-0.8
			c0-0.3,0-0.5,0.2-0.8c0.2,0,0.3,0,0.6,0c0.3-0.7,0.8-1.3,0.9-2.1c0.1-0.3,0.2-0.6,0.5-0.7c0.4-0.1,0.6-0.5,0.8-0.8
			c0.9-1.3,1.7-2.6,2.3-4c0.8-1.8,1.6-3.6,1.9-5.6c0.1-0.8,0.4-1.5,0.6-2.3c0.3-1.3,0.7-2.7,0.9-4.1c0.1-0.5,0.1-1,0.2-1.6
			c0.4-2.5,0.2-5-0.3-7.4c-0.5-2.8-1.5-5.5-2.3-8.2c-0.3-0.8-0.7-1.5-1.3-2c-0.2-0.2-0.2-0.4-0.1-0.6c0.3-0.5,0.9-0.5,1.2-0.1
			c0.7,0.8,1.2,1.7,1.4,2.7c0.4,1.3,0.8,2.6,1.2,3.9c0.3,1.1,0.6,2.2,0.9,3.4c0.1,0.4,0.2,0.9,0.3,1.4c0.3,1.2,0.4,2.4,0.4,3.6
			c0,1.3,0,2.6-0.2,3.9c-0.3,1.7-0.7,3.4-1.2,5.1c-0.3,1.2-0.7,2.3-0.9,3.6c-0.1,0.5-0.3,1.1-0.5,1.6c-0.5,1.2-0.9,2.5-1.5,3.7
			c-0.6,1.2-1.2,2.4-2,3.5c-0.7,1.2-1.4,2.4-2.1,3.6c-0.7,1.3-1.3,2.7-2.3,3.8c-0.2,0.3-0.4,0.5-0.7,0.7c-1.5,1.4-2.9,2.8-4.6,3.9
			c-0.5,0.3-1,0.8-1.5,1.1c-0.6,0.4-1.3,0.8-1.9,1.2c-0.6,0.4-1.2,0.7-1.8,1.1c-0.9,0.7-1.9,1.3-2.9,1.9c-0.9,0.5-1.8,1-2.7,1.5
			c-0.5,0.3-0.9,0.7-1.1,1.2c-0.1,0.2-0.2,0.3-0.3,0.5c-0.3,0.3-0.6,0.4-0.9,0.2c-0.3-0.2-0.3-0.5-0.3-0.8c0.1-0.3,0.2-0.6,0.4-0.8
			c0.3-0.4,0.7-0.9,1.1-1.3c0-0.2-0.1-0.5,0-0.7c0.1-0.3,0.3-0.6,0.5-0.8c0.5-0.7,1-1.3,1.4-2.1c0.5-0.9,0.9-1.8,1.3-2.7
			c0.5-1.3,1.1-2.5,1.6-3.9c0.5-1.7,1.3-3.3,1.7-5c0.4-1.7,0.8-3.5,0.9-5.3c0.1-1.2,0.1-2.3,0.1-3.5c0-1.1-0.1-2.2-0.4-3.2
			c-0.4-1.3-0.6-2.7-0.8-4.1c-0.2-1-0.6-2-0.8-3c-0.3-1-0.5-2-0.8-3c-0.2-0.6-0.5-1.2-0.7-1.9C43.3,151.5,43,150.9,42.8,150.2z"/>
		<path class="st0" d="M44.4,60.9c0.2,0.1,0.4,0.1,0.5,0.2c0.6,0.3,0.6,0.7,0.1,1.1c-0.2,0.1-0.3,0.2-0.5,0.3
			c-0.1,0-0.1,0.2-0.1,0.4c0.4-0.3,0.8-0.5,1.1-0.7c0.3-0.2,0.7-0.3,1.2-0.5c0.1,0.2,0.2,0.5,0.4,0.7c0.2,0.2,0.4,0.3,0.7,0.5
			c-0.3,0.4-0.5,0.8-0.9,1.4c0.4-0.1,0.5-0.1,0.7-0.2c0.2-0.1,0.4,0,0.5,0.1c0.2,0.2,0.2,0.5,0.1,0.6c-0.2,0.2-0.5,0.4-0.7,0.5
			c-1,0.5-2,0.9-2.9,1.4c-1.3,0.7-2.5,1.5-3.8,2.2c-0.8,0.5-1.6,1-2.6,1.6c0.3,0,0.4,0.1,0.5,0c1.1-0.5,2.1-1,3.2-1.5
			c0.4-0.2,0.8-0.4,1.3-0.6c0.4-0.2,0.8-0.3,1-0.8c0.1-0.2,0.3-0.3,0.5-0.4c0.3-0.2,0.6-0.3,0.9-0.4c0.7-0.3,1.4-0.5,2.2-0.8
			c0.1,0.1,0.3,0.2,0.4,0.4c0.2,0.3,0.1,0.6-0.2,0.7c-0.6,0.3-1.3,0.6-1.9,0.9c-1.2,0.6-2.5,1.2-3.7,1.8c0,0.3,0.2,0.3,0.3,0.3
			c0.3-0.1,0.6-0.2,1-0.2c0.5-1,1.5-0.6,2.3-0.7c0.1,0,0.3,0.1,0.4,0.2c0.1,0.2,0.3,0.3,0.5,0.3c0.5,0.2,0.6,0.6,0.3,1
			c-0.2,0.2-0.5,0.5-0.8,0.6c-0.5,0.2-1,0.4-1.5,0.5c-1.4,0.3-2.7,0.8-4.1,1.2c-2.1,0.6-4.2,1.3-6.4,1.7c-1.1,0.2-2.1,0.5-3.2,0.8
			c-1.3,0.4-2.7,0.8-4,1.3c-1.1,0.4-2.2,0.9-3.3,1.3c-0.8,0.3-1.7,0.6-2.5,0.9c-1.5,0.5-3,0.9-4.5,1.5c-1.1,0.4-2.2,0.6-3.3,0.8
			c-0.5,0.1-0.8,0-1.2-0.4c-0.1-0.1-0.2-0.2-0.3-0.2c-0.4-0.4-0.4-0.7,0.1-1.1c0.6-0.4,1.2-0.8,1.8-1.2c1-0.6,1.9-1.3,2.8-2.1
			c0.9-0.8,1.8-1.6,2.8-2.3c1.1-0.8,2.4-1.4,3.6-2.1c0.4-0.2,0.8-0.5,1.3-0.8c1.3-0.9,2.6-1.7,3.9-2.5c1.3-0.8,2.6-1.4,4-2
			c1-0.5,1.9-1.1,2.9-1.6c1.2-0.7,2.4-1.4,3.5-2.2c0.5-0.4,1.2-0.5,1.6-1.1c1.3-0.4,2.2-1.5,3.3-2.2c0.2-0.1,0.4-0.2,0.6-0.3
			c0.4-0.1,0.7,0.1,0.6,0.5C44.7,60.2,44.5,60.5,44.4,60.9z M37,67.6c1.7-0.7,3.3-1.5,5-2.7C41,65.2,38.2,66.7,37,67.6z M20.6,76.5
			c0.9,0,1.5-0.5,2.2-0.9c-0.4-0.3-0.5-0.3-0.6-0.2c-0.4,0.4-0.9,0.6-1.3,0.8C20.7,76.2,20.6,76.4,20.6,76.5z"/>
		<path class="st0" d="M73.7,102.5c0.2-0.2,0.5-0.4,0.7-0.6c0.5,0.1,0.6,0.5,0.6,1c0,1.2-0.2,2.4-0.5,3.5c-0.2,0.9-0.4,1.8-0.6,2.7
			c0,0.1,0,0.2-0.1,0.3c-0.4,0.7-0.5,1.6-1,2.3c-0.2,0.2-0.2,0.5-0.4,0.8c-0.1,0.3-0.3,0.7-0.5,1c-1,1.6-2,3.3-3,4.9
			c-0.1,0.1-0.1,0.2-0.2,0.3c-0.6,0.8-1.3,1.5-1.9,2.3c-1,1.2-2.1,2.4-3.3,3.4c-1.1,0.9-2.1,1.9-3.2,2.8c-0.6,0.5-1.3,0.9-1.9,1.4
			c-0.3,0.2-0.7,0.5-1,0.7c0.1,0.3,0.3,0.2,0.4,0.1c0.1,0,0.2-0.1,0.3-0.1c1-0.9,2.3-1.4,3.5-2.1c0.1-0.1,0.3-0.1,0.3-0.2
			c0.5-0.6,1.3-0.8,1.9-1.3c0.3-0.2,0.6-0.4,0.9-0.6c0.6-0.5,1.3-1,1.9-1.5c0.5-0.5,1.1-0.9,1.4-1.5c0.2-0.4,0.5-0.7,0.8-1
			c0.6-0.6,1.1-1.2,1.6-1.9c0.3-0.5,0.6-1,0.8-1.5c0.2-0.3,0.3-0.5,0.5-0.7c0-0.1,0.1-0.1,0.1-0.1c0.3-1.1,1.2-2,1.6-3
			c0.1-0.3,0.2-0.6,0.4-0.9c0.2-0.4,0.5-0.7,0.8-1c-0.2-0.5,0-1,0.3-1.4c0.1-0.2,0.5,0,0.4-0.3c-0.1-0.2,0-0.3,0-0.4
			c0.3-1.2,0.6-2.4,0.9-3.6c0.1-0.3,0.1-0.7,0.1-1c0.1-1,0.2-2,0.3-3.1c0-0.4,0.2-0.5,0.6-0.5c0.3,0.2,0.5,0.4,0.4,0.7
			c-0.1,0.7-0.2,1.3-0.3,2c0,0.3-0.2,0.5-0.2,0.8c0.1,1-0.3,2-0.4,2.9c0,0.3-0.1,0.6-0.2,0.9c-0.1,0.3-0.1,0.6-0.2,0.8
			c-0.4,0.4-0.3,0.9-0.5,1.3c-0.3,0.4-0.4,0.8-0.6,1.3c-0.1,0.2-0.2,0.4-0.2,0.6c0,0.3-0.1,0.6-0.4,0.8c-0.1,0.1-0.1,0.1-0.2,0.2
			c-0.5,1.3-1.4,2.2-1.9,3.4c-0.1,0.3-0.3,0.6-0.4,0.9c0,0.1,0,0.1-0.1,0.2c-0.8,0.9-1.2,2.1-2.1,3c-0.2,0.2-0.4,0.5-0.6,0.7
			c-0.9,1.1-1.8,2.1-3,2.8c-0.5,0.7-1.3,1-1.9,1.6c-0.3,0.3-0.7,0.6-1.1,0.8c-0.7,0.4-1.4,0.9-2.1,1.2c-1.1,0.5-2,1.2-2.9,2
			c-0.3,0.3-0.7,0.6-1.1,0.5c-0.4-0.3-0.3-0.7-0.4-1.1c-0.2,0-0.3,0-0.4,0.1c-2,1.2-4,2.3-5.6,4.1c0.3,0.1,0.5-0.1,0.8-0.1
			c1.3-0.4,2.6-0.8,3.9-1.1c1.8-0.5,3.6-0.7,5.4-1c3.3-0.4,6.5-0.9,9.7-1.6c2.2-0.5,4.4-1.1,6.5-1.8c0.7-0.3,1.5-0.6,2.2-1
			c0.3-0.1,0.4-0.3,0.5-0.6c0.2-0.5,0.5-0.8,1.2-0.9c0.4,0,0.9-0.4,1.2-0.6c0.5-0.4,1-0.7,1.4-1.1c0.9-0.8,1.8-1.6,2.7-2.5
			c0.7-0.8,1.5-1.5,1.9-2.5c0.2-0.3,0.4-0.6,0.8-0.7c0.2-0.1,0.4,0,0.5,0.2c0.1,0.4,0.2,0.7-0.1,1c-0.3,0.4-0.5,0.8-0.8,1.1
			c-0.3,0.3-0.5,0.6-0.8,0.9c-0.5,0.5-0.9,1-1.4,1.5c-0.4,0.4-0.7,0.8-1.1,1.1c-0.3,0.3-0.6,0.5-0.9,0.8c-0.4,0.3-0.8,0.6-1.1,1
			c-0.2,0.2-0.5,0.4-0.7,0.5c-0.5,0.3-1,0.5-1.4,0.9c-1.2,0.9-2.5,1.4-3.8,1.9c-1.9,0.7-3.9,1.2-5.8,1.7c-1.6,0.4-3.3,0.8-4.9,1.1
			c-2,0.4-3.9,0.5-5.9,0.8c-1.8,0.3-3.5,0.6-5.3,1c-1.7,0.4-3.4,1.1-5.1,1.6c-0.3,0.1-0.6,0.1-1,0.1c-0.3,0.3-0.6,0.7-0.9,1.1
			c-0.2,0-0.3,0-0.5,0c-0.4-0.1-0.6-0.5-0.4-0.9c0.4-0.5,0.8-1,1.2-1.4c0.6-0.6,1.3-1.2,1.7-2.1c0.1-0.3,0.5-0.6,0.8-0.7
			c0.7-0.3,1.3-0.7,1.9-1.1c1.3-0.8,2.6-1.6,3.9-2.5c1.4-0.8,2.6-1.8,3.8-2.8c1.1-0.9,2.2-1.9,3.2-2.9c1.1-1.1,2.1-2.3,3.1-3.5
			c0.8-1,1.3-2.1,2-3.2c0.3-0.4,0.6-0.8,0.8-1.2c0.9-1.5,1.7-3,2.3-4.6c0.3-0.9,0.6-1.7,0.7-2.7c0-0.5,0.3-1,0.4-1.5
			c0.1-0.4,0.2-0.7,0.2-1.1C73.8,103.9,73.7,103.2,73.7,102.5z"/>
		<path class="st0" d="M59.2,85.6c0-0.2,0-0.5-0.1-0.7c-0.2-0.6-0.2-1.2-0.6-1.8c-0.2-0.4-0.2-0.8-0.3-1.2c-0.1-0.2-0.1-0.5-0.2-0.7
			c-0.4-0.9-0.6-1.9-0.8-2.9c-0.2-0.7-0.4-1.5-0.6-2.2c-0.6-1.8-0.8-3.7-1.1-5.6c-0.2-1.6-0.4-3.2-0.6-4.7c0-0.1,0-0.1,0-0.2
			c0.1-1.2-0.2-2.4-0.4-3.5c-0.1-1-0.2-2.1-0.1-3.2c0.1-0.9,0.1-1.8,0.1-2.8c0-0.3-0.1-0.5-0.2-0.8c0.1-0.1,0.2-0.3,0.3-0.5
			c0.4-0.1,0.9,0.3,0.9,0.7c0,0.4,0,0.8,0,1.2c0,0.5,0,1.1,0,1.6c0,0.2,0.1,0.4,0,0.6c-0.3,0.8-0.1,1.7,0,2.5
			c0.2,1.1,0.2,2.3,0.3,3.5c0.1,0.8,0.1,1.6,0.2,2.4c0.1,1.2,0.3,2.4,0.5,3.6c0.1,0.4,0.1,0.7,0.2,1.1c0.1,0.4,0.1,0.7,0.2,1.1
			c0,0.2,0.1,0.3,0.1,0.5c0.3,1.9,0.9,3.8,1.3,5.7c0.3,1.1,0.5,2.3,0.8,3.4c0.5,1.6,0.8,3.2,1.6,4.7c0.4,0.7,0.5,1.5,0.9,2.2
			c0.4,0.8,1,1.7,1.5,2.4c0.6,0.9,1.3,1.8,2,2.6c1.2,1.5,2.5,2.8,3.8,4.1c0.1,0.1,0.3,0.2,0.5,0.3c0.2,0.1,0.4,0.3,0.6,0.4
			c0.3,0.2,0.4,0.5,0.2,0.9c-0.1,0.2-0.2,0.4-0.2,0.5c-0.5,0.2-0.8,0.1-1.1-0.2c-0.5-0.7-1.1-1.2-1.7-1.8c-0.4-0.3-0.7-0.7-1-1.1
			c-0.6-0.7-1.3-1.5-1.9-2.3c-0.2-0.2-0.4-0.5-0.6-0.8c-0.3-0.5-0.7-1-1.1-1.5c-0.7-0.9-1.4-1.7-2-2.5c-0.4-0.6-0.8-1.2-1.2-1.8
			c-0.3-0.5-0.7-1.1-1-1.6c-0.5-0.9-1.1-1.8-1.6-2.8c-0.2-0.5-0.5-1-0.7-1.6c-0.2-0.5-0.5-1-0.6-1.6c-0.1-0.9-0.8-1.6-0.9-2.5
			c-0.7-1.1-0.8-2.3-1.1-3.5c-0.1-0.3-0.1-0.5-0.2-0.8c-0.5-1-0.8-2.2-1.1-3.3c-0.4-1.2-0.6-2.5-0.8-3.8c-0.3-1.5-0.4-3-0.6-4.5
			c-0.1-0.7-0.1-1.5-0.3-2.2c-0.1-0.3,0-0.7-0.1-1.1c0-0.4,0.1-0.9-0.2-1.2c-0.1-0.1-0.1-0.2,0-0.3c0.2-0.6,0.1-1.2,0-1.9
			c0-0.2,0-0.4,0-0.6c0-0.2,0.1-0.4,0.3-0.4c0.2-0.1,0.5,0,0.6,0.2c0.1,0.2,0.2,0.4,0.2,0.6c0,1.1,0.1,2.1,0.1,3.2
			c0,0.2,0,0.4,0.1,0.6c0,0.3,0.1,0.6,0.1,0.9c0.1,1.3,0.3,2.7,0.4,4c0,0.2,0.1,0.4,0.1,0.6c0,0.3,0.1,0.6,0.1,0.9
			c0.1,0.8,0.3,1.6,0.4,2.4c0,0.3,0.2,0.5,0.2,0.8c0.1,1,0.5,2,0.8,2.9c0.1,0.4,0.3,0.7,0.5,1.1c0.4,0.9,0.6,1.8,0.8,2.7
			c0.2,0.9,0.6,1.8,0.9,2.6c0.2,0.4,0.4,0.7,0.3,1.2c0,0.2,0.2,0.5,0.3,0.7c0.3,0.8,0.6,1.7,0.9,2.5c0.1,0.2,0.2,0.3,0.3,0.5
			c0.3,0.6,0.6,1.2,0.9,1.7c0.1,0.1,0.2,0.3,0.3,0.4C59.1,85.6,59.2,85.6,59.2,85.6z"/>
		<path class="st0" d="M60.9,157.2c-0.3-0.3-0.4-0.5-0.4-0.8c0-0.3,0.1-0.6,0.1-0.9c0-0.2,0.1-0.3,0-0.5c-0.3-0.8-0.2-1.6-0.2-2.4
			c0-1,0-1.9-0.1-2.9c-0.1-0.7-0.1-1.5-0.1-2.3c0.1-0.8,0.1-1.5,0.2-2.3c0.1-0.3-0.1-0.7-0.1-1c0-0.2-0.1-0.5-0.1-0.7
			c0-1.2-0.4-2.3-0.9-3.4c-0.1-0.1-0.1-0.3-0.3-0.4c-0.4-0.3-0.4-0.6-0.2-1c0.1-0.1,0.1-0.3,0.2-0.4c0.4-0.1,0.7,0.1,1.1,0.1
			c0,0.2,0.1,0.4,0.1,0.6c0,0.2,0,0.4,0.1,0.6c0.8,1.3,0.7,2.7,0.8,4.1c0.1,1.9,0,3.8,0.1,5.7c0.1,1.7,0.2,3.3,0.3,5
			c0,0.9,0.1,1.8-0.1,2.7c-0.1,0.5,0,1.1-0.2,1.7c-0.1,0.3-0.1,0.6-0.2,1c-0.1,0.5-0.2,1.1-0.4,1.6c-0.4,1.3-0.9,2.6-1.3,4
			c0,0.1-0.1,0.2-0.1,0.3c-0.1,0.9-0.5,1.8-0.9,2.6c-0.8,1.5-1.6,3-2.3,4.5c-0.5,0.9-1,1.8-1.6,2.6c-0.7,1.1-1.5,2.1-2.4,3
			c0,0-0.1,0-0.1,0.1c-0.8,1.3-2,2.4-2.7,3.8c-0.2,0.3-0.4,0.5-0.7,0.6c-0.4,0.1-0.7-0.2-0.7-0.6c0-0.2,0.1-0.3,0.1-0.5
			c0.3-0.5,0.6-1,1-1.5c0.4-0.5,0.8-0.9,1-1.5c0-0.1,0.1-0.2,0.2-0.3c0.7-0.8,1.5-1.6,2.2-2.4c0.7-0.9,1.3-1.8,1.9-2.8
			c1-1.7,1.9-3.4,2.8-5.1c0.4-0.9,0.7-1.8,1.1-2.8c0.1-0.2,0.1-0.5,0.2-0.7c0.5-1.3,0.9-2.6,1.2-4c0.3-1,0.4-2,0.6-3
			C60.5,157.5,60.5,157.3,60.9,157.2z"/>
		<path class="st0" d="M50,128.1c0.2,1.1,0.1,1.3-0.9,1.2c-1-0.1-2,0-3,0.3c-1,0.3-2,0.6-2.9,0.9c-0.6,0.2-1.1,0.4-1.7,0.6
			c-0.9,0.4-1.8,0.8-2.8,1.1c-0.4,0.2-0.8,0.4-1.3,0.6c-0.1,0.1-0.2,0.1-0.3,0.2c-1.7,0.5-3.2,1.4-4.8,2.1c-1.9,0.8-3.7,1.9-5.5,2.9
			c-1.1,0.6-2.2,1.3-3.3,2c-0.6,0.4-1.3,0.8-1.9,1.3c-0.3,0.2-0.7,0.4-1,0.7c-1.2,0.8-2.1,1.9-3.1,2.9c-0.3,0.3-0.6,0.6-0.9,0.9
			c-0.3,0.4-0.7,0.4-1.2,0.4c-0.4-0.1-0.6-0.3-0.5-0.7c0-0.2,0.1-0.3,0.2-0.4c0.1-0.1,0.3-0.2,0.4-0.3c0.7-0.6,1.4-1.1,2-1.9
			c0.3-0.4,0.7-0.7,1.2-1c0.7-0.4,1.3-1,2-1.4c2-1.4,4-2.7,6.2-3.8c0.5-0.2,0.9-0.5,1.4-0.8c0.8-0.4,1.7-0.8,2.5-1.2
			c0.8-0.4,1.5-0.8,2.3-1.1c1.4-0.7,2.9-1.3,4.4-1.9c0.6-0.2,1.2-0.4,1.8-0.6c0.6-0.3,1.2-0.6,1.8-0.9c1.2-0.4,2.3-0.7,3.5-1.1
			c0.3-0.1,0.6-0.1,1-0.3c0.7-0.2,1.5-0.4,2.2-0.4c0.2,0,0.3,0,0.5,0C48.8,128,49.4,128.1,50,128.1z"/>
		<path class="st0" d="M63.7,41.7c-0.3,0.3-0.4,0.6-0.4,1c0,1.2-0.1,2.3-0.6,3.4c-0.2,0.3-0.3,0.6-0.6,0.9c-0.9,1.2-1.9,2.3-3,3.5
			c-0.6,0.7-1.3,1.3-2.3,1.6c-0.7,0.2-1.3,0.4-2,0.5c-1.8,0.5-3.6,1-5.5,1.1c-0.8,0.1-1.6,0-2.5,0c-1,0-1.9-0.3-2.9-0.6
			c-0.4-0.1-0.9-0.3-1.3-0.3c-1.2-0.2-2.3-0.6-3.4-1c-0.4-0.1-0.7-0.3-1-0.5c-1.5-0.9-2.8-1.9-4.2-3c-0.5-0.4-0.9-0.8-1.2-1.3
			c-0.1-0.2-0.2-0.5-0.3-0.7c-0.1-0.2-0.1-0.4,0.1-0.5c0.2-0.1,0.4-0.2,0.6-0.1c0.3,0.1,0.5,0.3,0.6,0.6c0,0.3,0.2,0.5,0.4,0.6
			c0.7,0.5,1.3,1,1.9,1.5c1.1,0.7,2.2,1.6,3.4,2.2c0.9,0.5,1.8,0.9,2.9,0.9c0.6,0,1.3,0.3,1.9,0.5c0.4,0.1,0.8,0.1,1.1,0.3
			c0.4,0.2,0.8,0.2,1.1,0.2c2,0.4,3.9,0.2,5.9-0.3c1.3-0.4,2.6-0.7,3.9-1.1c0.8-0.2,1.4-0.6,2-1.2c1-1.1,1.9-2.2,2.8-3.3
			c0.2-0.3,0.4-0.5,0.5-0.8c0.4-1.1,0.7-2.1,0.6-3.3c0-0.3-0.1-0.7-0.1-1c0-0.3,0.2-0.6,0.5-0.7c0.3-0.1,0.6,0.1,0.8,0.4
			C63.5,41.2,63.6,41.4,63.7,41.7z"/>
		<path class="st0" d="M66.1,40.1c0.8,0,1.5,0,2.3,0c0.5,0,0.9,0.1,1.4,0.2c0.8,0.2,1.6,0.5,2.4,0.7c0.1,0,0.3,0.1,0.4,0.1
			c0.9,0.1,1.7,0.4,2.5,0.9c0.3,0.2,0.6,0.3,0.9,0.4c0.8,0.3,1.6,0.6,2.4,1c1.3,0.6,2.6,1.1,3.8,1.9c0.3,0.2,0.6,0.2,0.9,0.4
			c0.3,0.1,0.5,0.3,0.8,0.4c0.7,0.5,1.3,0.9,2,1.4c0.5,0.4,0.9,0.9,1.4,1.2c1.6,1.1,3.1,2.4,4.6,3.6c0.7,0.6,1.3,1.4,2,2.1
			c0.5,0.6,1,1.2,1.5,1.9c0.6,0.7,1.2,1.4,1.4,2.4c0,0.1,0.1,0.2,0.2,0.4c-0.3,0.3-0.7,0.3-1.1,0.3c-0.2-0.2-0.4-0.4-0.5-0.8
			c-0.2-0.5-0.5-1-0.9-1.4c-0.9-1.1-1.8-2.2-2.7-3.3c-0.1-0.1-0.2-0.2-0.4-0.3c-0.6-0.5-1.1-1-1.7-1.5c-0.8-0.7-1.7-1.3-2.6-2
			c-0.5-0.4-1-0.8-1.4-1.2c-0.4-0.4-0.8-0.8-1.3-1c-0.5-0.2-0.8-0.7-1.3-0.9c-0.8-0.3-1.5-0.7-2.2-1.1c-0.3-0.2-0.6-0.4-0.9-0.5
			c-0.2-0.1-0.4-0.2-0.6-0.3c-0.5-0.2-1-0.3-1.4-0.6c-0.6-0.4-1.4-0.5-2-0.7c-0.2-0.1-0.4-0.1-0.5-0.2c-1-0.8-2.3-1.1-3.5-1.4
			c-0.4-0.1-0.8-0.2-1.3-0.2c-0.3-0.1-0.5-0.1-0.8-0.2c-0.2-0.1-0.4-0.3-0.6-0.3c-0.8-0.1-1.6-0.2-2.5-0.2c-0.5,0-0.7-0.2-0.5-0.7
			C66,40.3,66,40.2,66.1,40.1z"/>
		<path class="st0" d="M51.6,21.9c0.2,0.1,0.5,0.1,0.5,0.3c0.4,0.5,0.9,0.6,1.5,0.6c0.4,0,0.8,0.2,1,0.5c0.4,0.5,0.9,0.9,1.4,1.4
			c0.5,0.6,0.7,1.3,0.7,2c0,0.8,0,1.5-0.2,2.3c-0.1,0.6-0.4,1.2-0.9,1.7c-0.6,0.6-1.3,0.9-2,1.2c-0.9,0.4-1.9,0.3-2.8,0.1
			c-0.8-0.2-1.6-0.8-2-1.6c-0.7-1.3-1-2.7-0.7-4.2c0.2-1.2,0.7-2.4,1.6-3.3c0.3-0.3,0.7-0.5,1.1-0.7C51,22.1,51.3,22,51.6,21.9z
			 M52,30.9c0.5-0.1,1.1-0.1,1.6-0.3c0.5-0.1,0.9-0.4,1-1c0.2-0.7,0.5-1.4,0.7-2.1c0.3-1-0.1-1.9-0.9-2.5c-0.2-0.2-0.5-0.4-0.7-0.6
			c-0.6-0.5-1.6-0.6-2.2-0.1c-1,0.6-1.2,1.6-1.2,2.7c-0.1,1,0.2,2,0.5,3C50.9,30.6,51.3,30.9,52,30.9z"/>
		<path class="st0" d="M64.5,45.4c0-0.2,0-0.3,0-0.4c0.2-0.9,0.4-1,1.4-0.9c1.4,0.2,2.8,0.7,4.1,1.2c1.7,0.7,3.2,1.6,4.7,2.6
			c2,1.3,4.1,2.7,6.1,4c1,0.7,2,1.3,3.1,2c0.3,0.2,0.5,0.4,0.8,0.6c0.8,0.7,1.7,1.4,2.5,2.1c0.6,0.6,1.3,1.1,1.7,1.9
			c0.1,0.3,0.1,0.5,0,0.7c0,0-0.1,0-0.1,0c-1.1-0.2-1.1-0.2-1.8-1c-0.4-0.6-0.9-1.1-1.5-1.6c-1-0.8-1.9-1.7-3.1-2.3
			c-1.3-0.7-2.4-1.6-3.6-2.4c-0.7-0.5-1.5-1-2.2-1.5c-1.6-1-3.1-2-4.7-2.9c-1.2-0.8-2.6-1.4-4-1.8c-0.8-0.2-1.7-0.5-2.6-0.4
			C64.9,45.4,64.7,45.4,64.5,45.4z"/>
		<path class="st0" d="M50.8,167.5c0.1-0.5,0.1-1,0.1-1.4c0.1-0.4,0.1-0.8,0.3-1.2c0.2-0.4-0.1-0.9,0.2-1.2c0.1-1.2,0.5-2.3,0.2-3.5
			c0-0.2,0-0.4,0-0.6c0.2-1.7,0.5-3.5,0.7-5.2c0.1-0.4,0.1-0.9,0.1-1.3c0-0.7,0.1-1.4,0.4-2c0.2-0.3,0.1-0.7,0.1-1
			c-0.1-1.1-0.2-2.2-0.3-3.3c-0.1-1.5-0.3-3-0.8-4.5c0-0.1,0-0.1,0-0.2c-0.1-0.4,0-0.6,0.3-0.7c0.3-0.1,0.6,0,0.8,0.3
			c0.2,0.4,0.3,0.7,0.4,1.1c0.2,1.2,0.4,2.4,0.5,3.6c0.1,0.8,0.1,1.7,0.1,2.6c0,1.1-0.1,2.2-0.2,3.4c-0.2,1.9-0.5,3.8-0.7,5.7
			c0,0.2-0.1,0.4,0,0.6c0.1,1-0.2,1.9,0.1,2.9c0,0.1,0,0.3,0,0.4c-0.3,1.8-0.5,3.5-0.6,5.3c0,0.2,0,0.3-0.1,0.5
			c-0.2,0.4-0.7,0.4-1,0.1C50.9,167.7,50.8,167.6,50.8,167.5z"/>
		<path class="st0" d="M99.5,13.9c0.3,0,0.6-0.1,0.8-0.1c0.3,0.2,0.4,0.4,0.4,0.7c-0.1,0.3-0.1,0.6-0.5,0.7c-0.6,0.2-1,0.7-1.4,1.1
			c-0.5,0.5-1,0.9-1.5,1.3c-0.8,0.6-1.7,1.1-2.5,1.7c-0.3,0.2-0.6,0.3-1,0.4c-0.3,0.6-1,0.6-1.4,1c-0.6,0.5-1.3,1-2.1,1.4
			c-0.8,0.4-1.7,0.8-2.5,1.1c-1.1,0.4-2.3,0.7-3.5,1.1c-0.5,0.2-1,0.3-1.5,0.5c-0.9,0.4-1.8,0.4-2.7,0.5c-0.1,0-0.2,0-0.3,0
			c-0.4,0-0.8-0.2-0.8-0.5c0-0.4,0.1-0.7,0.5-0.9c0.1,0,0.2-0.1,0.3-0.1c0.5,0.4,1,0.4,1.6,0.2c1.1-0.3,2.2-0.6,3.2-0.9
			c0.9-0.3,1.8-0.5,2.7-0.8c0.7-0.2,1.3-0.6,2-0.8c1.1-0.4,2-1.1,2.9-1.7c0.7-0.4,1.4-0.8,2-1.3c0.8-0.6,1.8-1.1,2.5-1.9
			c0.3-0.3,0.7-0.4,1-0.7C98.2,15.2,98.8,14.6,99.5,13.9z"/>
		<path class="st0" d="M27.9,145.4c-0.6-0.1-0.8-0.2-0.8-0.7c0-0.3,0.1-0.5,0.3-0.7c0.3-0.1,0.5-0.3,0.8-0.4c1-0.5,1.7-1.3,2.6-1.9
			c1.3-0.9,2.5-1.8,3.9-2.5c0.8-0.4,1.7-0.9,2.5-1.5c0.9-0.6,1.8-1.1,2.7-1.6c0.7-0.4,1.4-0.7,2-1c0.2-0.1,0.4-0.2,0.6-0.3
			c0.8-0.2,1.5-0.6,2.3-0.9c0.6-0.2,1.2-0.4,1.8-0.4c0.2,0,0.5,0.1,0.5,0.4c0,0.3-0.1,0.6-0.5,0.6c-0.4,0.1-0.7,0.1-1.1,0.2
			c-0.3,0-0.5,0.1-0.7,0.3c-0.4,0.3-0.9,0.4-1.3,0.6c-0.9,0.4-1.9,0.8-2.8,1.1c-0.2,0.1-0.4,0.2-0.6,0.3c-0.6,0.4-1.2,0.8-1.8,1.1
			c-0.6,0.3-1.1,0.6-1.7,1c-0.5,0.4-1.1,0.6-1.6,0.9c-1,0.5-1.9,1.1-2.8,1.7c-0.9,0.7-1.8,1.5-2.7,2.2
			C29.2,144.5,28.6,144.9,27.9,145.4z"/>
		<path class="st0" d="M34.1,146.8c0-0.2,0-0.5,0.1-0.7c0.6-0.3,1.1-0.7,1.7-1c0.6-0.3,1.1-0.5,1.7-0.7c0.9-0.4,1.8-0.7,2.7-1.2
			c1.2-0.6,2.4-1.1,3.5-1.9c0.3-0.2,0.5-0.4,0.7-0.6c0.3-0.3,0.6-0.3,0.9-0.3c0.1,0,0.3,0.1,0.4,0.2c0.1,0.1,0,0.3-0.1,0.4
			c-0.1,0.1-0.2,0.2-0.3,0.3c-0.5,0.4-1,0.9-1.5,1.3c-0.4,0.3-0.9,0.6-1.3,0.8c-1,0.4-2.1,0.7-3,1.3c-0.8,0.5-1.8,0.8-2.6,1.1
			c-0.2,0.1-0.4,0.2-0.6,0.4c-0.3,0.3-0.6,0.5-0.9,0.7C35,147.2,34.6,147.2,34.1,146.8z"/>
		<path class="st0" d="M47.6,141.8c0.2,0,0.4-0.1,0.5-0.1c0.3,0,0.4,0.2,0.4,0.4c0,0.6,0.1,1.2,0,1.9c-0.1,0.6-0.1,1.3-0.1,2
			c0,0.1,0,0.2,0.1,0.3c0.4,1.2,0.5,2.4,0.6,3.6c0,0.2,0,0.4-0.1,0.6c-0.1,0.2-0.2,0.3-0.4,0.5c-0.3,0.2-0.6,0.2-0.8-0.1
			c-0.1-0.2-0.2-0.3-0.3-0.5c0-0.1,0-0.2,0-0.2c0.4-1,0.2-2.1,0-3.1c-0.2-1-0.4-2-0.1-3c0.1-0.4,0.1-0.9,0.1-1.3
			C47.6,142.4,47.6,142.1,47.6,141.8z"/>
		<path class="st0" d="M94.7,24.6c0.6,0.3,0.6,0.3,0.7,1c-0.2,0-0.3,0.1-0.4,0.1c-0.6-0.1-1,0.1-1.5,0.4c-0.9,0.5-1.7,1-2.6,1.3
			c-0.6,0.2-1.1,0.3-1.7,0.5c-0.4,0.1-0.9,0.3-1.3,0.4c-0.3,0.1-0.5,0-0.8,0.1c-0.4,0-0.8,0-1.1,0.2c-0.2,0.2-0.7,0-0.9-0.2
			c-0.1-0.1-0.1-0.5,0-0.5c0.3-0.2,0.6-0.5,1.1-0.5c1.3,0,2.5-0.3,3.7-0.7c1.3-0.4,2.5-0.7,3.6-1.5C93.8,24.9,94.2,24.8,94.7,24.6z"
			/>
		<path class="st0" d="M102.8,77.6c0.5,0,0.7,0.4,0.7,0.8c0,0.3,0.1,0.6,0.3,0.8c0.1,0.1,0.1,0.2,0.1,0.3c-0.2,0.2,0,0.5,0.1,0.6
			c0.2,0.5,0.3,0.9,0.3,1.4c0,0.2,0,0.5,0,0.7c-0.1,0.1-0.2,0.2-0.4,0.4c0.3,0,0.4,0.1,0.6,0.1c-0.1,0.6,0.2,1.2,0,1.8
			c-0.1,0.3-0.1,0.7,0.1,1.1c0.3,0.5,0.2,0.5,0.1,1.1c-0.2,0.1-0.5,0.1-0.8,0.2c-0.3-1.2-0.3-1.4,0-2.1c-0.2-0.4-0.5-0.8-0.2-1.4
			c0.1-0.1-0.1-0.3-0.1-0.4c-0.1-0.1-0.2-0.3-0.2-0.4c-0.1-0.4,0.1-0.9-0.3-1.3c-0.1-0.1,0.1-0.5,0.1-0.6c-0.1-0.3,0.1-0.6-0.1-0.8
			c-0.1-0.2,0.1-0.5-0.2-0.7c-0.2-0.2-0.3-0.5-0.4-0.8c-0.1-0.1-0.1-0.2-0.1-0.4C102.5,77.8,102.7,77.7,102.8,77.6L102.8,77.6z"/>
		<path class="st0" d="M97.2,33.4c-0.3-0.7-0.3-0.8-0.9-0.8c-0.5,0-0.9,0.1-1.4,0.1c0,0-0.1,0-0.1,0c-0.8-0.1-1.6,0.1-2.4,0.2
			c-0.6,0.1-1.1-0.2-1.6-0.3c-0.3-0.4-0.1-0.6,0-0.9c0.1,0,0.2-0.1,0.3-0.1c0.8,0.1,1.6,0.3,2.5,0.2c0.2,0,0.4,0.2,0.6,0.4
			c0.1-0.1,0.2-0.3,0.3-0.5c0.2-0.1,0.4-0.1,0.6-0.1c0.7,0,1.4,0,2.1,0c0.2,0,0.4,0.1,0.5,0.2c0.3,0.2,0.4,0.4,0.2,0.8
			C97.6,32.9,97.5,33.1,97.2,33.4z"/>
		<path class="st0" d="M103.8,87.3c0.3,0,0.5,0,0.8,0.1c-0.1,0.2-0.2,0.4-0.2,0.6c0,0.2,0.1,0.4,0.1,0.6c0,0.3,0,0.5,0,0.8
			c0,0.4-0.1,0.7-0.2,1.1c-0.1,0.5,0,0.9-0.6,1.1c0.2,0.3,0.3,0.4,0.3,0.5c0.1,0.1,0.1,0.4,0.1,0.5c-0.3,0.6-0.3,1.2-0.5,1.8
			c0,0-0.1,0-0.1,0c-0.1,0-0.1,0-0.2,0c-0.1-0.1-0.3-0.3-0.4-0.4c0.2-1.2,0.4-2.3,0.4-3.4C103.5,89.5,103.9,88.4,103.8,87.3z"/>
		<path class="st0" d="M100.8,39.2c0,0.4,0.1,0.6,0.1,1c-0.2,0-0.4,0.1-0.6,0.1c-0.8-0.1-1.6-0.3-2.3-0.4c-0.5-0.1-0.9-0.4-1.5-0.5
			c-0.3,0-0.5-0.4-0.4-0.7c0-0.2,0.1-0.4,0.2-0.6c0.3,0.1,0.6,0.2,0.9,0.3c1,0.6,2.1,0.8,3.3,0.7C100.4,39.1,100.5,39.2,100.8,39.2z
			"/>
		<path class="st0" d="M107,54.2c-0.2,0.2-0.3,0.4-0.5,0.5c-0.3,0.2-0.6,0.1-0.8-0.2c0-0.1-0.1-0.1-0.1-0.2c-0.3-0.9-1-1.4-1.8-1.8
			c-0.1-0.1-0.3-0.1-0.4-0.2c-0.1-0.1-0.2-0.3-0.1-0.4c0-0.1,0.2-0.3,0.3-0.4c0.2-0.1,0.5-0.1,0.7,0.1c0.5,0.4,1.1,0.7,1.6,1.2
			C106.3,53.2,106.6,53.7,107,54.2z"/>
		<path class="st0" d="M102.9,77.6c-0.5,0-0.9-0.1-0.9-0.7c0-0.4-0.3-0.7-0.5-1.1c0-0.1,0-0.3,0.1-0.3c0.1-0.1,0.3-0.1,0.4,0
			c0.3,0.3,0.6,0.6,0.8,0.9C103.1,76.8,102.9,77.2,102.9,77.6L102.9,77.6z"/>
	</g>
</g>
</svg>
